<?xml version="1.0" encoding="UTF-8" standalone="no"?>
<svg
   xmlns:dc="http://purl.org/dc/elements/1.1/"
   xmlns:cc="http://creativecommons.org/ns#"
   xmlns:rdf="http://www.w3.org/1999/02/22-rdf-syntax-ns#"
   xmlns:svg="http://www.w3.org/2000/svg"
   xmlns="http://www.w3.org/2000/svg"
   xmlns:sodipodi="http://sodipodi.sourceforge.net/DTD/sodipodi-0.dtd"
   xmlns:inkscape="http://www.inkscape.org/namespaces/inkscape"
   height="1000"
   width="928.6"
   id="svg2"
   version="1.1"
   inkscape:version="0.91 r13725"
   sodipodi:docname="calendar-no.svg">
  <metadata
     id="metadata10">
    <rdf:RDF>
      <cc:Work
         rdf:about="">
        <dc:format>image/svg+xml</dc:format>
        <dc:type
           rdf:resource="http://purl.org/dc/dcmitype/StillImage" />
        <dc:title></dc:title>
      </cc:Work>
    </rdf:RDF>
  </metadata>
  <defs
     id="defs8" />
  <sodipodi:namedview
     pagecolor="#ffffff"
     bordercolor="#666666"
     borderopacity="1"
     objecttolerance="10"
     gridtolerance="10"
     guidetolerance="10"
     inkscape:pageopacity="0"
     inkscape:pageshadow="2"
     inkscape:window-width="1600"
     inkscape:window-height="846"
     id="namedview6"
     showgrid="false"
     inkscape:zoom="0.5502211"
     inkscape:cx="278.74357"
     inkscape:cy="492.97544"
     inkscape:window-x="0"
     inkscape:window-y="25"
     inkscape:window-maximized="1"
     inkscape:current-layer="svg2" />
  <path
     d="m 66.927684,884.45332 736.485716,0 0,-544.33025 -736.485716,0 0,544.33025 z m 200.876796,-646.3386 0,-153.060142 c 0,-9.619834 -7.31144,-17.049013 -16.68505,-17.049013 l -33.5576,0 c -9.37362,0 -16.68505,7.429179 -16.68505,17.049013 l 0,153.060142 c 0,9.52458 7.31143,17.04902 16.68505,17.04902 l 33.5576,0 c 9.37361,0 16.68505,-7.52444 16.68505,-17.04902 z m 401.75357,0 0,-153.060142 c 0,-9.619834 -7.31143,-17.049013 -16.77879,-17.049013 l -33.46383,0 c -9.37363,0 -16.68508,7.429179 -16.68508,17.049013 l 0,153.060142 c 0,9.52458 7.31145,17.04902 16.68508,17.04902 l 33.46383,0 c 9.46736,0 16.77879,-7.52444 16.77879,-17.04902 z m 200.87677,-34.00278 0,680.34138 c 0,37.14588 -30.37054,68.00556 -67.02142,68.00556 l -736.485716,0 C 30.370546,952.45888 0,921.5992 0,884.45332 L 0,204.11194 c 0,-37.24116 30.370546,-68.00557 66.927684,-68.00557 l 67.021406,0 0,-51.051792 C 133.94909,38.288846 171.53734,0 217.56183,0 l 33.5576,0 c 46.02449,0 83.61271,38.288846 83.61271,85.054578 l 0,51.051792 200.8768,0 0,-51.051792 C 535.60894,38.288846 573.29092,0 619.31543,0 l 33.46383,0 c 46.02449,0 83.70647,38.288846 83.70647,85.054578 l 0,51.051792 66.92767,0 c 36.65088,0 67.02142,30.76441 67.02142,68.00557 z"
     id="path4"
     inkscape:connector-curvature="0" />
  <path
     id="path4177"
     d="m 739.76161,617.33304 q 79.43622,0 135.56561,56.12938 56.12944,56.12942 56.12944,135.10592 0,78.97652 -56.12944,135.10594 -56.12939,56.12937 -135.56561,56.12937 -79.43622,0 -135.56564,-56.12937 -56.12939,-56.12942 -56.12939,-135.10594 0,-78.9765 56.12939,-135.10592 56.12942,-56.12938 135.56564,-56.12938 z m -153.08022,191.2353 q 0,52.95746 32.31693,94.28453 L 833.58646,687.34538 q -41.28111,-32.31693 -94.28455,-32.31693 -62.84103,0 -107.75376,44.91273 -44.91273,44.91272 -44.86676,108.62716 z m 152.62052,153.53992 q 63.76044,0 108.62717,-44.91272 44.86675,-44.91273 44.91272,-108.6272 0,-52.95747 -32.31693,-94.2845 L 645.93678,929.79132 q 41.28106,32.31694 93.36513,32.31694 z"
     inkscape:connector-curvature="0" />
  <path
     style="fill:#ffffff;stroke:none;stroke-width:1px;stroke-linecap:butt;stroke-linejoin:miter;stroke-opacity:1"
     d="m 612.36375,891.68811 c -8.85335,-13.81687 -16.34073,-31.227 -20.49582,-47.65816 -3.32628,-13.15364 -3.74557,-18.93566 -3.02661,-41.73665 0.71348,-22.62705 1.55055,-28.57751 5.76863,-41.00732 8.24194,-24.28727 18.13301,-39.75404 38.35486,-59.97589 32.37501,-32.37501 61.01631,-44.42655 105.74772,-44.496 32.46741,-0.0504 59.08322,7.47538 83.18213,23.52026 l 10.81965,7.20363 -106.15789,106.39151 C 668.16958,852.44483 619.83533,900.321 619.14697,900.321 c -0.68837,0 -3.74081,-3.8848 -6.78322,-8.63289 z"
     id="path4186"
     inkscape:connector-curvature="0" />
  <path
     style="fill:#ffffff;stroke:none;stroke-width:1px;stroke-linecap:butt;stroke-linejoin:miter;stroke-opacity:1"
     d="m 612.36375,891.68811 c -16.71323,-26.0833 -23.94061,-51.18327 -23.89494,-82.98476 0.063,-43.837 11.15885,-72.6107 39.80959,-103.23368 31.66755,-33.84745 64.93514,-48.68713 109.14679,-48.68713 25.12801,0 37.90724,2.10037 56.64657,9.31034 10.97438,4.22241 32.8473,16.34386 37.82532,20.9619 0.94315,0.87494 -211.00598,213.26622 -212.82223,213.26622 -0.6487,0 -3.66869,-3.8848 -6.7111,-8.63289 z"
     id="path4188"
     inkscape:connector-curvature="0" />
  <path
     style="fill:#ffffff;stroke:none;stroke-width:1px;stroke-linecap:butt;stroke-linejoin:miter;stroke-opacity:1"
     d="m 724.7461,960.06751 c -16.29036,-1.36224 -25.99714,-3.72236 -41.80138,-10.16364 -12.1195,-4.93951 -34.53157,-18.06163 -34.53157,-20.21804 0,-0.6633 47.73345,-48.93421 106.07433,-107.2687 l 106.07433,-106.0627 4.59195,6.10871 c 2.52557,3.3598 7.52467,11.98009 11.10914,19.15621 17.63751,35.31048 20.32496,77.91298 7.38888,117.13182 -11.76103,35.65641 -41.25987,69.05149 -76.19881,86.26321 -26.44889,13.02932 -51.77839,17.63943 -82.70687,15.05313 z"
     id="path4190"
     inkscape:connector-curvature="0" />
</svg>
