<?xml version="1.0" encoding="UTF-8" standalone="no"?>
<svg
   xmlns:dc="http://purl.org/dc/elements/1.1/"
   xmlns:cc="http://creativecommons.org/ns#"
   xmlns:rdf="http://www.w3.org/1999/02/22-rdf-syntax-ns#"
   xmlns:svg="http://www.w3.org/2000/svg"
   xmlns="http://www.w3.org/2000/svg"
   xmlns:sodipodi="http://sodipodi.sourceforge.net/DTD/sodipodi-0.dtd"
   xmlns:inkscape="http://www.inkscape.org/namespaces/inkscape"
   height="1000"
   width="928.6"
   id="svg2"
   version="1.1"
   inkscape:version="0.91 r13725"
   sodipodi:docname="calendar-v.svg">
  <metadata
     id="metadata10">
    <rdf:RDF>
      <cc:Work
         rdf:about="">
        <dc:format>image/svg+xml</dc:format>
        <dc:type
           rdf:resource="http://purl.org/dc/dcmitype/StillImage" />
        <dc:title></dc:title>
      </cc:Work>
    </rdf:RDF>
  </metadata>
  <defs
     id="defs8" />
  <sodipodi:namedview
     pagecolor="#ffffff"
     bordercolor="#666666"
     borderopacity="1"
     objecttolerance="10"
     gridtolerance="10"
     guidetolerance="10"
     inkscape:pageopacity="0"
     inkscape:pageshadow="2"
     inkscape:window-width="1920"
     inkscape:window-height="1051"
     id="namedview6"
     showgrid="false"
     inkscape:zoom="0.14618052"
     inkscape:cx="30.603202"
     inkscape:cy="523.67546"
     inkscape:window-x="1600"
     inkscape:window-y="118"
     inkscape:window-maximized="1"
     inkscape:current-layer="svg2" />
  <path
     d="m 66.927684,884.45332 736.485716,0 0,-544.33025 -736.485716,0 0,544.33025 z m 200.876796,-646.3386 0,-153.060142 c 0,-9.619834 -7.31144,-17.049013 -16.68505,-17.049013 l -33.5576,0 c -9.37362,0 -16.68505,7.429179 -16.68505,17.049013 l 0,153.060142 c 0,9.52458 7.31143,17.04902 16.68505,17.04902 l 33.5576,0 c 9.37361,0 16.68505,-7.52444 16.68505,-17.04902 z m 401.75357,0 0,-153.060142 c 0,-9.619834 -7.31143,-17.049013 -16.77879,-17.049013 l -33.46383,0 c -9.37363,0 -16.68508,7.429179 -16.68508,17.049013 l 0,153.060142 c 0,9.52458 7.31145,17.04902 16.68508,17.04902 l 33.46383,0 c 9.46736,0 16.77879,-7.52444 16.77879,-17.04902 z m 200.87677,-34.00278 0,680.34138 c 0,37.14588 -30.37054,68.00556 -67.02142,68.00556 l -736.485716,0 C 30.370546,952.45888 0,921.5992 0,884.45332 L 0,204.11194 c 0,-37.24116 30.370546,-68.00557 66.927684,-68.00557 l 67.021406,0 0,-51.051792 C 133.94909,38.288846 171.53734,0 217.56183,0 l 33.5576,0 c 46.02449,0 83.61271,38.288846 83.61271,85.054578 l 0,51.051792 200.8768,0 0,-51.051792 C 535.60894,38.288846 573.29092,0 619.31543,0 l 33.46383,0 c 46.02449,0 83.70647,38.288846 83.70647,85.054578 l 0,51.051792 66.92767,0 c 36.65088,0 67.02142,30.76441 67.02142,68.00557 z"
     id="path4"
     inkscape:connector-curvature="0" />
  <path
     style="opacity:1;fill:#008000;fill-opacity:1;stroke:none;stroke-width:0.70866144;stroke-linecap:butt;stroke-linejoin:miter;stroke-miterlimit:4;stroke-dasharray:none;stroke-opacity:1"
     d="M 720.94502,999.3823 C 652.31005,989.3923 594.8912,941.6019 573.0301,876.27107 554.99263,822.3669 562.64664,764.13618 594.00096,716.72553 c 29.02022,-43.88099 75.05053,-72.85008 127.90549,-80.49705 16.09328,-2.32835 43.52455,-1.59411 59.53619,1.59355 81.7031,16.26585 142.0782,84.45198 147.89734,167.03156 6.80485,96.5658 -62.68452,181.90703 -158.50507,194.66298 -13.67399,1.82033 -36.89023,1.75803 -49.88989,-0.13428 z m 9.26227,-75.52775 c 1.63179,-0.36776 27.92617,-25.92919 70.89077,-68.91493 64.57343,-64.60514 68.32797,-68.5629 68.86902,-72.59714 1.21876,-9.08686 0.21216,-10.8377 -14.37162,-24.997 -7.43422,-7.21789 -14.52466,-13.69055 -15.7565,-14.38367 -3.19251,-1.79634 -9.56555,-1.6208 -13.44544,0.37035 -1.82639,0.93727 -25.38721,23.67593 -52.35742,50.53034 l -49.0368,48.82621 -27.75749,-27.63452 c -15.26667,-15.19899 -29.0668,-28.1323 -30.66696,-28.74068 -1.60014,-0.60837 -4.91,-1.10612 -7.35535,-1.10612 -5.70234,0 -9.20899,2.56466 -23.58619,17.25025 -12.16076,12.42165 -14.05856,16.06594 -12.32481,23.66769 0.81091,3.55538 6.95321,10.10499 47.52984,50.68161 51.37279,51.37279 48.89395,49.40838 59.36895,47.04761 z"
     id="path4210"
     inkscape:connector-curvature="0" />
  <path
     style="opacity:1;fill:#ffff00;fill-opacity:1;stroke:none;stroke-width:0.70866144;stroke-linecap:butt;stroke-linejoin:miter;stroke-miterlimit:4;stroke-dasharray:none;stroke-opacity:1"
     d="m 722.21906,924.07788 c -2.31019,-0.81943 -5.81101,-3.33217 -11.04,-7.92394 -6.3605,-5.58542 -72.70299,-71.96758 -80.2438,-80.29177 -6.71992,-7.41814 -7.78638,-9.27845 -7.80223,-13.61049 -0.0208,-5.66414 2.40283,-9.18766 15.20844,-22.11075 8.51962,-8.59775 13.16318,-12.5304 16.38534,-13.87668 1.90121,-0.79437 7.53104,-0.87552 10.17822,-0.1467 3.10186,0.85401 6.04989,3.56452 38.05274,34.98639 11.88561,11.66986 21.82165,21.221 22.07998,21.22478 0.25844,0.003 17.27644,-16.62988 37.81794,-36.96368 37.83065,-37.44823 54.40113,-53.64261 60.36763,-58.99754 3.5774,-3.21073 6.54105,-4.46503 10.53806,-4.46015 5.01254,0.007 6.23448,0.84556 18.82365,12.9316 15.24414,14.63481 17.38215,17.55103 17.38215,23.70919 0,5.04894 -1.04176,6.84992 -8.83507,15.27472 -15.42084,16.67028 -110.13601,111.06631 -125.19709,124.77514 -4.81519,4.38287 -5.8542,5.1137 -7.892,5.55072 -2.81661,0.60406 -3.96064,0.59015 -5.82396,-0.0708 z"
     id="path4216"
     inkscape:connector-curvature="0" />
  <path
     style="opacity:1;fill:#ffff00;fill-opacity:1;stroke:none;stroke-width:0.70866144;stroke-linecap:butt;stroke-linejoin:miter;stroke-miterlimit:4;stroke-dasharray:none;stroke-opacity:1"
     d="m 722.38596,923.92522 c -2.03406,-0.7089 -4.87869,-2.62259 -8.89638,-5.98491 -6.78925,-5.68166 -74.60156,-73.38713 -83.58914,-83.4575 -5.70972,-6.3975 -6.97717,-9.02359 -6.55566,-13.58383 0.44479,-4.81319 3.64234,-9.13192 15.64213,-21.12655 7.95516,-7.95173 12.13349,-11.56512 14.96801,-12.94406 2.11943,-1.03111 6.13999,-1.39803 9.33128,-0.8516 3.98506,0.68233 5.56611,2.01517 25.70224,21.66705 28.17833,27.50069 34.42795,33.55519 35.30128,34.19874 l 0.90713,0.66853 6.73324,-6.57688 c 3.70319,-3.61729 21.68176,-21.30901 39.95219,-39.31494 50.95613,-50.21848 52.16271,-51.36693 55.90152,-53.20827 2.09877,-1.03365 2.40952,-1.09132 5.87792,-1.09132 4.48841,0 5.42238,0.40114 9.78244,4.20161 4.85958,4.23595 17.93506,16.93488 20.6208,20.02694 2.82894,3.25695 4.8297,6.35742 5.35041,8.29131 0.59763,2.21935 0.25328,7.42647 -0.60641,9.16994 -2.18164,4.42479 -10.28547,12.87705 -60.37172,62.9676 -51.44104,51.44547 -73.63749,73.11135 -77.66221,75.80566 -1.24469,0.83324 -4.33325,1.73766 -5.89759,1.72701 -0.45675,-0.003 -1.57796,-0.26615 -2.49148,-0.58453 z"
     id="path4218"
     inkscape:connector-curvature="0" />
  <path
     style="opacity:1;fill:#ffffff;fill-opacity:1;stroke:none;stroke-width:0.70866144;stroke-linecap:butt;stroke-linejoin:miter;stroke-miterlimit:4;stroke-dasharray:none;stroke-opacity:1"
     d="m 722.38596,923.92522 c -2.03406,-0.7089 -4.87869,-2.62259 -8.89638,-5.98491 -6.78925,-5.68166 -74.60156,-73.38713 -83.58914,-83.4575 -5.70972,-6.3975 -6.97717,-9.02359 -6.55566,-13.58383 0.44479,-4.81319 3.64234,-9.13192 15.64213,-21.12655 7.95516,-7.95173 12.13349,-11.56512 14.96801,-12.94406 2.11943,-1.03111 6.13999,-1.39803 9.33128,-0.8516 3.98506,0.68233 5.56611,2.01517 25.70224,21.66705 28.17833,27.50069 34.42795,33.55519 35.30128,34.19874 l 0.90713,0.66853 6.73324,-6.57688 c 3.70319,-3.61729 21.68176,-21.30901 39.95219,-39.31494 50.95613,-50.21848 52.16271,-51.36693 55.90152,-53.20827 2.09877,-1.03365 2.40952,-1.09132 5.87792,-1.09132 4.48841,0 5.42238,0.40114 9.78244,4.20161 4.85958,4.23595 17.93506,16.93488 20.6208,20.02694 2.82894,3.25695 4.8297,6.35742 5.35041,8.29131 0.59763,2.21935 0.25328,7.42647 -0.60641,9.16994 -2.18164,4.42479 -10.28547,12.87705 -60.37172,62.9676 -51.44104,51.44547 -73.63749,73.11135 -77.66221,75.80566 -1.24469,0.83324 -4.33325,1.73766 -5.89759,1.72701 -0.45675,-0.003 -1.57796,-0.26615 -2.49148,-0.58453 z"
     id="path4220"
     inkscape:connector-curvature="0" />
</svg>
