<?xml version="1.0" encoding="UTF-8" standalone="no"?>
<!-- Created with Inkscape (http://www.inkscape.org/) -->

<svg
   xmlns:dc="http://purl.org/dc/elements/1.1/"
   xmlns:cc="http://creativecommons.org/ns#"
   xmlns:rdf="http://www.w3.org/1999/02/22-rdf-syntax-ns#"
   xmlns:svg="http://www.w3.org/2000/svg"
   xmlns="http://www.w3.org/2000/svg"
   xmlns:xlink="http://www.w3.org/1999/xlink"
   xmlns:sodipodi="http://sodipodi.sourceforge.net/DTD/sodipodi-0.dtd"
   xmlns:inkscape="http://www.inkscape.org/namespaces/inkscape"
   width="256"
   height="16"
   id="svg2"
   sodipodi:version="0.32"
   inkscape:version="0.47 r22583"
   version="1.0"
   inkscape:export-xdpi="90"
   inkscape:export-ydpi="90"
   sodipodi:docname="active-list.svg"
   inkscape:output_extension="org.inkscape.output.svg.inkscape"
   inkscape:export-filename="active-list.png">
  <defs
     id="defs4">
    <linearGradient
       id="linearGradient4211">
      <stop
         id="stop4213"
         offset="0"
         style="stop-color:#000000;stop-opacity:0.66666669;" />
      <stop
         id="stop4215"
         offset="1"
         style="stop-color:#000000;stop-opacity:0;" />
    </linearGradient>
    <linearGradient
       id="linearGradient3708">
      <stop
         style="stop-color:#000000;stop-opacity:0.66666669;"
         offset="0"
         id="stop3710" />
      <stop
         style="stop-color:#000000;stop-opacity:0;"
         offset="1"
         id="stop3712" />
    </linearGradient>
    <linearGradient
       id="linearGradient3877">
      <stop
         style="stop-color:#d0d0d0;stop-opacity:1;"
         offset="0"
         id="stop3879" />
      <stop
         style="stop-color:#ffffff;stop-opacity:1;"
         offset="1"
         id="stop3881" />
    </linearGradient>
    <linearGradient
       inkscape:collect="always"
       xlink:href="#linearGradient3708"
       id="linearGradient3714"
       x1="304"
       y1="-5.5"
       x2="304"
       y2="1"
       gradientUnits="userSpaceOnUse"
       gradientTransform="translate(-16,-1)" />
    <linearGradient
       inkscape:collect="always"
       xlink:href="#linearGradient3877"
       id="linearGradient3743"
       x1="2"
       y1="21.375"
       x2="13"
       y2="27.0625"
       gradientUnits="userSpaceOnUse"
       gradientTransform="translate(288,-32)" />
    <linearGradient
       inkscape:collect="always"
       xlink:href="#linearGradient3877"
       id="linearGradient3344"
       gradientUnits="userSpaceOnUse"
       gradientTransform="translate(192,-16)"
       x1="273.5"
       y1="1.6875"
       x2="286.5625"
       y2="13.75" />
    <inkscape:perspective
       id="perspective3400"
       inkscape:persp3d-origin="0.5 : 0.33333333 : 1"
       inkscape:vp_z="1 : 0.5 : 1"
       inkscape:vp_y="0 : 1000 : 0"
       inkscape:vp_x="0 : 0.5 : 1"
       sodipodi:type="inkscape:persp3d" />
    <linearGradient
       inkscape:collect="always"
       xlink:href="#linearGradient3708-5"
       id="linearGradient3714-7"
       x1="304"
       y1="-5.5"
       x2="304"
       y2="1"
       gradientUnits="userSpaceOnUse"
       gradientTransform="translate(-16,-1)" />
    <linearGradient
       id="linearGradient3708-5">
      <stop
         style="stop-color:#000000;stop-opacity:0;"
         offset="0"
         id="stop3710-2" />
      <stop
         style="stop-color:#000000;stop-opacity:0.66666669;"
         offset="1"
         id="stop3712-1" />
    </linearGradient>
    <radialGradient
       inkscape:collect="always"
       xlink:href="#linearGradient3708-5"
       id="radialGradient4209"
       cx="40.650188"
       cy="29.570824"
       fx="40.650188"
       fy="29.570824"
       r="6"
       gradientTransform="matrix(1.2698105e-8,-0.75019625,1.2604169,2.8185411e-8,214.85343,28.495618)"
       gradientUnits="userSpaceOnUse" />
    <radialGradient
       inkscape:collect="always"
       xlink:href="#linearGradient3708-5"
       id="radialGradient4221"
       gradientUnits="userSpaceOnUse"
       gradientTransform="matrix(1.2698105e-8,-0.75019625,1.2604169,2.8185411e-8,214.85343,28.495618)"
       cx="40.650188"
       cy="29.570824"
       fx="40.650188"
       fy="29.570824"
       r="6" />
  </defs>
  <sodipodi:namedview
     id="base"
     pagecolor="#6f6f6f"
     bordercolor="#666666"
     borderopacity="1.0"
     inkscape:pageopacity="0"
     inkscape:pageshadow="2"
     inkscape:zoom="16"
     inkscape:cx="14.740899"
     inkscape:cy="2.590179"
     inkscape:document-units="px"
     inkscape:current-layer="layer1"
     showguides="true"
     showgrid="true"
     inkscape:showpageshadow="false"
     gridtolerance="0.4px"
     inkscape:guide-bbox="true"
     inkscape:window-width="1680"
     inkscape:window-height="949"
     inkscape:window-x="0"
     inkscape:window-y="25"
     inkscape:window-maximized="1">
    <inkscape:grid
       id="GridFromPre046Settings"
       type="xygrid"
       originx="0px"
       originy="0px"
       spacingx="1px"
       spacingy="1px"
       color="#3f3fff"
       empcolor="#b73fff"
       opacity="0.15294118"
       empopacity="0.3372549"
       empspacing="8"
       visible="true"
       enabled="true"
       snapvisiblegridlinesonly="false" />
  </sodipodi:namedview>
  <metadata
     id="metadata7">
    <rdf:RDF>
      <cc:Work
         rdf:about="">
        <dc:format>image/svg+xml</dc:format>
        <dc:type
           rdf:resource="http://purl.org/dc/dcmitype/StillImage" />
        <dc:title></dc:title>
      </cc:Work>
      <cc:Work
         rdf:about="">
        <dc:format>image/svg+xml</dc:format>
        <dc:type
           rdf:resource="http://purl.org/dc/dcmitype/StillImage" />
      </cc:Work>
    </rdf:RDF>
  </metadata>
  <g
     inkscape:label="Base"
     inkscape:groupmode="layer"
     id="layer1"
     transform="translate(-240,16)">
    <path
       style="fill:#000000;fill-opacity:0.66666667;fill-rule:nonzero;stroke:none"
       d="M 424,-14 L 418.5,-9 L 421.25,-9 L 424,-11.5 L 426.75,-9 L 429.5,-9 L 424,-14 z"
       id="up3"
       sodipodi:nodetypes="ccccccc"
       inkscape:export-filename="sort-up.png"
       inkscape:export-xdpi="90"
       inkscape:export-ydpi="90" />
    <path
       style="fill:#000000;fill-opacity:0.66666667;fill-rule:nonzero;stroke:none"
       d="M 247.12495,0 L 246.8437,1.28125 L 246.6562,2.5 L 245.37495,3 L 244.4062,2.21875 L 243.3437,1.4375 L 241.68745,2.96875 L 242.43745,4.0625 L 243.1562,5.0625 L 242.5937,6.3125 L 241.3437,6.46875 L 240.0312,6.65625 L 240,8.875001 L 241.28125,9.15625 L 242.5,9.34375 L 243,10.625001 L 242.21875,11.59375 L 241.4375,12.65625 L 242.96875,14.3125 L 244.0625,13.5625 L 245.0625,12.84375 L 246.3125,13.40625 L 246.46875,14.65625 L 246.65625,15.96875 L 248.875,16 L 249.15625,14.71875 L 249.34375,13.5 L 250.625,13 L 251.59375,13.78125 L 252.65625,14.5625 L 254.3125,13.03125 L 253.5625,11.9375 L 252.84375,10.9375 L 253.40625,9.6875 L 254.65625,9.53125 L 255.96875,9.34375 L 255.99995,7.125001 L 254.7187,6.84375 L 253.49995,6.65625 L 252.99995,5.374999 L 253.7812,4.40625 L 254.56245,3.34375 L 253.0312,1.6875 L 251.93745,2.4375 L 250.93745,3.15625 L 249.68745,2.59375 L 249.5312,1.34375 L 249.3437,0.03125 L 247.12495,0 z M 247.9687,5 C 249.62457,4.98086 250.97965,6.312863 250.99995,7.96875 C 251.02025,9.624637 249.68706,10.980859 248.0312,11 C 246.37533,11.01914 245.02025,9.687137 244.99995,8.03125 C 244.97965,6.375363 246.31284,5.019142 247.9687,5 z"
       id="path4226-90"
       inkscape:export-filename="list-start.png"
       inkscape:export-xdpi="90"
       inkscape:export-ydpi="90" />
    <path
       sodipodi:nodetypes="ccccccc"
       style="fill:#000000;fill-opacity:0.66666667;fill-rule:nonzero;stroke:none"
       id="path2947-4"
       d="M 258.99995,-10.979318 L 262.8947,-7.098265 L 268.99995,-13 L 268.99995,-9.027149 L 262.8947,-3 L 258.99995,-6.896331 L 258.99995,-10.979318 z" />
    <path
       style="font-size:medium;font-style:normal;font-variant:normal;font-weight:normal;font-stretch:normal;text-indent:0;text-align:start;text-decoration:none;line-height:normal;letter-spacing:normal;word-spacing:normal;text-transform:none;direction:ltr;block-progression:tb;writing-mode:lr-tb;text-anchor:start;color:#000000;fill:url(#linearGradient3714);fill-opacity:1;stroke:none;stroke-width:1px;marker:none;visibility:visible;display:inline;overflow:visible;enable-background:accumulate;font-family:Arial;-inkscape-font-specification:Arial"
       d="M 272,-16 L 272,0 L 274,0 L 274,-10 L 279,-10 L 279,0 L 281,0 L 281,-10 L 286,-10 L 286,0 L 288,0 L 288,-16 L 272,-16 z M 274,-14 L 279,-14 L 279,-12 L 274,-12 L 274,-14 z M 281,-14 L 286,-14 L 286,-12 L 281,-12 L 281,-14 z"
       id="path2917"
       sodipodi:nodetypes="ccccccccccccccccccccccc"
       inkscape:export-xdpi="90"
       inkscape:export-ydpi="90"
       inkscape:export-filename="columns.png" />
    <path
       style="opacity:0.7;fill:url(#linearGradient3743);fill-opacity:1;stroke:none"
       d="M 290,-15 L 297.1875,-15 L 301,-11.5 L 301,-1 L 290,-1 L 290,-15 z"
       id="path3735"
       sodipodi:nodetypes="cccccc" />
    <path
       style="font-size:medium;font-style:normal;font-variant:normal;font-weight:normal;font-stretch:normal;text-indent:0;text-align:start;text-decoration:none;line-height:normal;letter-spacing:normal;word-spacing:normal;text-transform:none;direction:ltr;block-progression:tb;writing-mode:lr-tb;text-anchor:start;color:#000000;fill:#000000;fill-opacity:0.66666667;stroke:none;stroke-width:2;marker:none;visibility:visible;display:inline;overflow:visible;enable-background:accumulate;font-family:Arial;-inkscape-font-specification:Arial"
       d="M 289,-16 L 289,0 L 302,0 L 302,-11.9375 L 297.875,-16 L 289,-16 z M 291,-14 L 297,-14 L 297,-11 L 300,-11 L 300,-2 L 291,-2 L 291,-14 z"
       id="path2913"
       sodipodi:nodetypes="ccccccccccccc" />
    <path
       style="font-size:medium;font-style:normal;font-variant:normal;font-weight:normal;font-stretch:normal;text-indent:0;text-align:start;text-decoration:none;line-height:normal;letter-spacing:normal;word-spacing:normal;text-transform:none;direction:ltr;block-progression:tb;writing-mode:lr-tb;text-anchor:start;color:#000000;fill:#000000;fill-opacity:0.66666667;stroke:none;stroke-width:1.99999988;marker:none;visibility:visible;display:inline;overflow:visible;enable-background:accumulate;font-family:Arial;-inkscape-font-specification:Arial"
       d="M 306,-15 L 306,-13 L 318,-13 L 318,-15 L 306,-15 z M 306,-11 L 306,-9 L 318,-9 L 318,-11 L 306,-11 z M 306,-7 L 306,-5 L 318,-5 L 318,-7 L 306,-7 z M 306,-3 L 306,-1 L 318,-1 L 318,-3 L 306,-3 z"
       id="path3691"
       inkscape:export-filename="pages.png"
       inkscape:export-xdpi="90"
       inkscape:export-ydpi="90" />
    <rect
       style="opacity:0.7;fill:url(#linearGradient3344);fill-opacity:1;stroke:#000000;stroke-width:2;stroke-linecap:butt;stroke-linejoin:miter;stroke-miterlimit:4;stroke-opacity:1;stroke-dasharray:none"
       id="rect3723"
       width="14"
       height="14"
       x="465"
       y="-15"
       inkscape:export-filename="checked.png"
       inkscape:export-xdpi="90"
       inkscape:export-ydpi="90" />
    <use
       x="0"
       y="0"
       xlink:href="#path2947-4"
       id="use2939"
       transform="translate(208.00005,0)"
       width="96"
       height="32"
       style="fill:#000000;fill-opacity:0.66666667" />
    <rect
       style="fill:none;stroke:#5555ff;stroke-width:2;stroke-linecap:butt;stroke-linejoin:miter;stroke-miterlimit:4;stroke-opacity:0;stroke-dasharray:none"
       id="rect2943"
       width="14"
       height="14"
       x="465"
       y="-15" />
    <use
       x="0"
       y="0"
       xlink:href="#rect3723"
       id="use3733"
       transform="translate(16,0)"
       width="96"
       height="32"
       inkscape:export-filename="unchecked.png"
       inkscape:export-xdpi="90"
       inkscape:export-ydpi="90" />
    <use
       x="0"
       y="0"
       xlink:href="#up3"
       id="use2924"
       transform="matrix(1,0,0,-1,0,-16.000006)"
       width="96"
       height="32"
       inkscape:export-filename="sort-down.png"
       inkscape:export-xdpi="90"
       inkscape:export-ydpi="90"
       style="fill:#555555;fill-opacity:1" />
    <path
       style="fill:#000000;fill-opacity:0.66666667;fill-rule:nonzero;stroke:none"
       d="M 355,-8 L 361.375,-16 L 364,-16 L 357.625,-8 L 364,0 L 361.375,0 L 355,-8 z"
       id="path4015-8-4-6-8"
       sodipodi:nodetypes="ccccccc"
       inkscape:export-filename="home.png"
       inkscape:export-xdpi="90"
       inkscape:export-ydpi="90" />
    <g
       id="g3914"
       transform="translate(79,16)"
       inkscape:export-filename="previous-page.png"
       inkscape:export-xdpi="90"
       inkscape:export-ydpi="90">
      <path
         style="fill:#baba6a;fill-opacity:0.66666667;stroke:none"
         d="M 25.8125,16.125 L 19.4375,24 L 25.8125,32 L 28.5625,32 L 22.125,24 L 28.625,16 L 25.8125,16.125 z"
         id="path4056"
         transform="translate(241,-48)"
         sodipodi:nodetypes="ccccccc" />
      <use
         height="32"
         width="96"
         transform="translate(-92,-16)"
         id="use3904"
         xlink:href="#path4015-8-4-6-8"
         y="0"
         x="0" />
      <use
         height="32"
         width="96"
         transform="translate(-97,-16)"
         id="use3906"
         xlink:href="#path4015-8-4-6-8"
         y="0"
         x="0" />
    </g>
    <g
       id="g3958"
       transform="translate(80,16)"
       inkscape:export-filename="begin.png"
       inkscape:export-xdpi="90"
       inkscape:export-ydpi="90">
      <use
         height="32"
         width="96"
         transform="translate(-95,-16)"
         id="use3918"
         xlink:href="#g3914"
         y="0"
         x="0" />
      <rect
         inkscape:export-ydpi="90"
         inkscape:export-xdpi="90"
         inkscape:export-filename="home.png"
         y="-32"
         x="240"
         height="16"
         width="2"
         id="rect2994-3-0"
         style="fill:#000000;fill-opacity:0.66666669;fill-rule:nonzero;stroke:none" />
    </g>
    <use
       x="0"
       y="0"
       xlink:href="#path4015-8-4-6-8"
       id="use3962"
       transform="matrix(-1,0,0,1,736,0)"
       width="96"
       height="32" />
    <use
       x="0"
       y="0"
       xlink:href="#g3914"
       id="use3964"
       transform="matrix(-1,0,0,1,736,0)"
       width="96"
       height="32" />
    <use
       x="0"
       y="0"
       xlink:href="#g3958"
       id="use3966"
       transform="matrix(-1,0,0,1,736,0)"
       width="96"
       height="32"
       inkscape:export-filename="end.png"
       inkscape:export-xdpi="90"
       inkscape:export-ydpi="90" />
    <use
       x="0"
       y="0"
       xlink:href="#up3"
       id="use3340"
       transform="translate(16,3.5)"
       width="112"
       height="32" />
    <use
       x="0"
       y="0"
       xlink:href="#use2924"
       id="use3342"
       transform="translate(32,-3.499994)"
       width="112"
       height="32" />
    <g
       id="g4217"
       transform="translate(-0.125,0)">
      <path
         sodipodi:nodetypes="ccccccccccccccccccccccccccc"
         id="path2917-3"
         d="M 240.125,-16 L 240.125,-4 L 240.125,-2 L 252.125,-2 L 252.125,-4 L 252.125,-16 L 240.125,-16 z M 242.125,-14 L 245.125,-14 L 245.125,-12 L 242.125,-12 L 242.125,-14 z M 247.125,-14 L 250.125,-14 L 250.125,-12 L 247.125,-12 L 247.125,-14 z M 242.125,-10 L 245.125,-10 L 245.125,-4 L 242.125,-4 L 242.125,-10 z M 247.125,-10 L 250.125,-10 L 250.125,-4 L 247.125,-4 L 247.125,-10 z"
         style="font-size:medium;font-style:normal;font-variant:normal;font-weight:normal;font-stretch:normal;text-indent:0;text-align:start;text-decoration:none;line-height:normal;letter-spacing:normal;word-spacing:normal;text-transform:none;direction:ltr;block-progression:tb;writing-mode:lr-tb;text-anchor:start;color:#000000;fill:url(#radialGradient4221);fill-opacity:1;stroke:none;stroke-width:1px;marker:none;visibility:visible;display:inline;overflow:visible;enable-background:accumulate;font-family:Arial;-inkscape-font-specification:Arial" />
      <path
         sodipodi:nodetypes="cccc"
         id="path3433"
         d="M 252.125,0 L 256.125,-4 L 248.125,-4 L 252.125,0 z"
         style="fill:#000000;fill-opacity:0.66666667;stroke:none" />
    </g>
  </g>
</svg>
