<?xml version="1.0" encoding="UTF-8" standalone="no"?>
<!-- Created with Inkscape (http://www.inkscape.org/) -->
<svg
   xmlns:dc="http://purl.org/dc/elements/1.1/"
   xmlns:cc="http://creativecommons.org/ns#"
   xmlns:rdf="http://www.w3.org/1999/02/22-rdf-syntax-ns#"
   xmlns:svg="http://www.w3.org/2000/svg"
   xmlns="http://www.w3.org/2000/svg"
   xmlns:xlink="http://www.w3.org/1999/xlink"
   xmlns:sodipodi="http://sodipodi.sourceforge.net/DTD/sodipodi-0.dtd"
   xmlns:inkscape="http://www.inkscape.org/namespaces/inkscape"
   width="640"
   height="319.99997"
   id="svg2"
   sodipodi:version="0.32"
   inkscape:version="0.46"
   version="1.0"
   sodipodi:docname="ekylibre.svg"
   inkscape:output_extension="org.inkscape.output.svg.inkscape"
   inkscape:export-filename="/home/brice/Informatique/Developpement/ekylibre/trunk/ekylibre/public/images/ekylibre.png"
   inkscape:export-xdpi="22.500002"
   inkscape:export-ydpi="22.500002">
  <defs
     id="defs4">
    <linearGradient
       id="linearGradient3303">
      <stop
         style="stop-color:#000000;stop-opacity:1;"
         offset="0"
         id="stop3305" />
      <stop
         id="stop3311"
         offset="0.37047994"
         style="stop-color:#141154;stop-opacity:1;" />
      <stop
         style="stop-color:#1b498e;stop-opacity:1;"
         offset="0.55571991"
         id="stop3357" />
      <stop
         style="stop-color:#1a166e;stop-opacity:1;"
         offset="0.89747381"
         id="stop3313" />
      <stop
         style="stop-color:#000000;stop-opacity:1;"
         offset="1"
         id="stop3307" />
    </linearGradient>
    <linearGradient
       id="linearGradient3347">
      <stop
         style="stop-color:#0f00af;stop-opacity:1;"
         offset="0"
         id="stop3349" />
      <stop
         style="stop-color:#08072c;stop-opacity:1;"
         offset="1"
         id="stop3351" />
    </linearGradient>
    <linearGradient
       id="linearGradient3276">
      <stop
         style="stop-color:#ffffff;stop-opacity:0.71111113;"
         offset="0"
         id="stop3279" />
      <stop
         style="stop-color:#ffffff;stop-opacity:0;"
         offset="1"
         id="stop3281" />
    </linearGradient>
    <linearGradient
       id="linearGradient3265">
      <stop
         style="stop-color:#7097d8;stop-opacity:1;"
         offset="0"
         id="stop3267" />
      <stop
         id="stop3285"
         offset="0.31429297"
         style="stop-color:#224580;stop-opacity:1;" />
      <stop
         style="stop-color:#6085c3;stop-opacity:1;"
         offset="0.68766028"
         id="stop3287" />
      <stop
         style="stop-color:#1b3a6c;stop-opacity:1;"
         offset="1"
         id="stop3269" />
    </linearGradient>
    <linearGradient
       id="linearGradient3234">
      <stop
         style="stop-color:#3a29da;stop-opacity:1;"
         offset="0"
         id="stop3236" />
      <stop
         id="stop3240"
         offset="1"
         style="stop-color:#98bcf3;stop-opacity:1;" />
    </linearGradient>
    <linearGradient
       id="linearGradient3225">
      <stop
         id="stop3228"
         offset="0"
         style="stop-color:#f16700;stop-opacity:1;" />
      <stop
         id="stop3232"
         offset="1"
         style="stop-color:#ffdd55;stop-opacity:1;" />
    </linearGradient>
    <linearGradient
       id="linearGradient3300">
      <stop
         id="stop3302"
         offset="0"
         style="stop-color:#ffffff;stop-opacity:0;" />
      <stop
         style="stop-color:#ffffff;stop-opacity:0.25641027;"
         offset="0.58999997"
         id="stop3322" />
      <stop
         id="stop3324"
         offset="0.60000002"
         style="stop-color:#ffffff;stop-opacity:0;" />
      <stop
         id="stop3304"
         offset="1"
         style="stop-color:#ffffff;stop-opacity:0;" />
    </linearGradient>
    <linearGradient
       id="linearGradient3282">
      <stop
         style="stop-color:#feffa9;stop-opacity:1;"
         offset="0"
         id="stop3284" />
      <stop
         id="stop3286"
         offset="0.79197437"
         style="stop-color:#ff9603;stop-opacity:1;" />
      <stop
         style="stop-color:#f16700;stop-opacity:1;"
         offset="1"
         id="stop3288" />
    </linearGradient>
    <linearGradient
       id="linearGradient3275">
      <stop
         id="stop3278"
         offset="0"
         style="stop-color:#d6d9fa;stop-opacity:1;" />
      <stop
         style="stop-color:#444ede;stop-opacity:1;"
         offset="1"
         id="stop3280" />
    </linearGradient>
    <linearGradient
       id="linearGradient3245">
      <stop
         id="stop3247"
         offset="0"
         style="stop-color:#fdff6f;stop-opacity:1;" />
      <stop
         style="stop-color:#d77d00;stop-opacity:1;"
         offset="0.79197437"
         id="stop3249" />
      <stop
         id="stop3251"
         offset="1"
         style="stop-color:#d25a00;stop-opacity:1;" />
    </linearGradient>
    <linearGradient
       id="linearGradient3273">
      <stop
         style="stop-color:#949cf0;stop-opacity:1;"
         offset="0"
         id="stop3275" />
      <stop
         id="stop3277"
         offset="1"
         style="stop-color:#281a8f;stop-opacity:1;" />
    </linearGradient>
    <linearGradient
       id="linearGradient3254">
      <stop
         style="stop-color:#8aff45;stop-opacity:1;"
         offset="0"
         id="stop3256" />
      <stop
         style="stop-color:#004108;stop-opacity:1;"
         offset="1"
         id="stop3258" />
    </linearGradient>
    <linearGradient
       id="linearGradient3244">
      <stop
         style="stop-color:#ffb8a1;stop-opacity:1;"
         offset="0"
         id="stop3246" />
      <stop
         id="stop3318"
         offset="0.85263157"
         style="stop-color:#b50000;stop-opacity:1;" />
      <stop
         style="stop-color:#7e0000;stop-opacity:1;"
         offset="1"
         id="stop3326" />
    </linearGradient>
    <linearGradient
       id="linearGradient3223">
      <stop
         id="stop3225"
         offset="0"
         style="stop-color:#1f156b;stop-opacity:1;" />
      <stop
         style="stop-color:#1d2092;stop-opacity:1;"
         offset="0.5"
         id="stop3227" />
      <stop
         id="stop3229"
         offset="1"
         style="stop-color:#6c76e8;stop-opacity:1;" />
    </linearGradient>
    <linearGradient
       id="linearGradient3195">
      <stop
         style="stop-color:#1f156b;stop-opacity:1;"
         offset="0"
         id="stop3197" />
      <stop
         id="stop3203"
         offset="0.5"
         style="stop-color:#181a75;stop-opacity:0.75686276;" />
      <stop
         style="stop-color:#151c7f;stop-opacity:0.51794875;"
         offset="1"
         id="stop3199" />
    </linearGradient>
    <linearGradient
       id="linearGradient3185">
      <stop
         style="stop-color:#1e1b6f;stop-opacity:0.53333336;"
         offset="0"
         id="stop3187" />
      <stop
         style="stop-color:#050f6e;stop-opacity:0;"
         offset="1"
         id="stop3189" />
    </linearGradient>
    <inkscape:perspective
       sodipodi:type="inkscape:persp3d"
       inkscape:vp_x="0 : 526.18109 : 1"
       inkscape:vp_y="0 : 1000 : 0"
       inkscape:vp_z="744.09448 : 526.18109 : 1"
       inkscape:persp3d-origin="372.04724 : 350.78739 : 1"
       id="perspective10" />
    <linearGradient
       inkscape:collect="always"
       xlink:href="#linearGradient3185"
       id="linearGradient3191"
       x1="342.57111"
       y1="-111.72972"
       x2="342.57111"
       y2="-132.35356"
       gradientUnits="userSpaceOnUse"
       gradientTransform="matrix(0.7892116,0,0,0.7751592,-51.647578,-101.28091)" />
    <linearGradient
       inkscape:collect="always"
       xlink:href="#linearGradient3195"
       id="linearGradient3205"
       x1="342.57108"
       y1="116.98991"
       x2="342.57108"
       y2="102.36574"
       gradientUnits="userSpaceOnUse"
       gradientTransform="matrix(0.9788966,0,0,0.9614667,-64.060989,42.41633)" />
    <linearGradient
       inkscape:collect="always"
       xlink:href="#linearGradient3223"
       id="linearGradient3238"
       gradientUnits="userSpaceOnUse"
       gradientTransform="translate(-61.023641,84.996057)"
       x1="342.57108"
       y1="116.98991"
       x2="342.57108"
       y2="102.36574" />
    <radialGradient
       inkscape:collect="always"
       xlink:href="#linearGradient3273"
       id="radialGradient3271"
       cx="310.77444"
       cy="243.10477"
       fx="310.77444"
       fy="243.10477"
       r="33.857189"
       gradientTransform="matrix(9.9343815,-4.5054155e-6,2.9165072e-6,5.6777913,-2782.5857,-888.18515)"
       gradientUnits="userSpaceOnUse"
       spreadMethod="pad" />
    <radialGradient
       inkscape:collect="always"
       xlink:href="#linearGradient3254"
       id="radialGradient3316"
       cx="307.23358"
       cy="524.63757"
       fx="307.23358"
       fy="524.63757"
       r="340"
       gradientTransform="matrix(0.9411765,-1.5127127e-8,0,0.3,-1.9274387,367.24629)"
       gradientUnits="userSpaceOnUse"
       spreadMethod="reflect" />
    <radialGradient
       inkscape:collect="always"
       xlink:href="#linearGradient3244"
       id="radialGradient3322"
       cx="307.23358"
       cy="510.92331"
       fx="307.23358"
       fy="510.92331"
       r="80"
       gradientTransform="matrix(0,1.1671428,-1.8443751,-1.528547e-8,1229.5679,168.68066)"
       gradientUnits="userSpaceOnUse" />
    <radialGradient
       inkscape:collect="always"
       xlink:href="#linearGradient3273"
       id="radialGradient3844"
       gradientUnits="userSpaceOnUse"
       gradientTransform="matrix(9.9343806,-4.5054152e-6,2.9165069e-6,5.677791,-2782.5855,-888.18513)"
       spreadMethod="pad"
       cx="310.77444"
       cy="243.10477"
       fx="310.77444"
       fy="243.10477"
       r="33.857189" />
    <radialGradient
       inkscape:collect="always"
       xlink:href="#linearGradient3273"
       id="radialGradient3850"
       gradientUnits="userSpaceOnUse"
       gradientTransform="matrix(9.9343809,-4.5054153e-6,2.916507e-6,5.6777911,-2782.5857,-888.1851)"
       spreadMethod="pad"
       cx="310.77444"
       cy="243.10477"
       fx="310.77444"
       fy="243.10477"
       r="33.857189" />
    <radialGradient
       inkscape:collect="always"
       xlink:href="#linearGradient3273"
       id="radialGradient3206"
       gradientUnits="userSpaceOnUse"
       gradientTransform="matrix(9.93438,-4.505415e-6,2.9165067e-6,5.6777908,-3031.9301,-475.38328)"
       spreadMethod="pad"
       cx="310.77444"
       cy="243.10477"
       fx="310.77444"
       fy="243.10477"
       r="33.857189" />
    <radialGradient
       inkscape:collect="always"
       xlink:href="#linearGradient3234"
       id="radialGradient3241"
       gradientUnits="userSpaceOnUse"
       gradientTransform="matrix(1.001377,2.262035e-4,-1.7423761e-4,0.6085667,135.76173,281.25731)"
       cx="170.00018"
       cy="965.0871"
       fx="170.00018"
       fy="965.0871"
       r="336.85031" />
    <radialGradient
       inkscape:collect="always"
       xlink:href="#linearGradient3225"
       id="radialGradient3243"
       cx="269.91107"
       cy="861.71869"
       fx="269.91107"
       fy="861.71869"
       r="148.15414"
       gradientTransform="matrix(-3.2647717e-3,-1.4026916,2.1245979,-3.9015512e-3,-1526.7963,1248.6947)"
       gradientUnits="userSpaceOnUse" />
    <filter
       inkscape:collect="always"
       id="filter3271">
      <feGaussianBlur
         inkscape:collect="always"
         stdDeviation="2.31"
         id="feGaussianBlur3273" />
    </filter>
    <linearGradient
       inkscape:collect="always"
       xlink:href="#linearGradient3300"
       id="linearGradient3298"
       x1="321.5"
       y1="636"
       x2="321.5"
       y2="452.99997"
       gradientUnits="userSpaceOnUse" />
    <linearGradient
       inkscape:collect="always"
       xlink:href="#linearGradient3300"
       id="linearGradient3320"
       x1="-29.46137"
       y1="662.2146"
       x2="-29.46137"
       y2="866.73059"
       gradientUnits="userSpaceOnUse" />
    <linearGradient
       inkscape:collect="always"
       xlink:href="#linearGradient3265"
       id="linearGradient3271"
       x1="-99.875"
       y1="287.99997"
       x2="-68"
       y2="320"
       gradientUnits="userSpaceOnUse" />
    <linearGradient
       inkscape:collect="always"
       xlink:href="#linearGradient3276"
       id="linearGradient3283"
       x1="-83.6875"
       y1="298.18747"
       x2="-83.6875"
       y2="309.9201"
       gradientUnits="userSpaceOnUse" />
    <linearGradient
       inkscape:collect="always"
       xlink:href="#linearGradient3265"
       id="linearGradient2488"
       gradientUnits="userSpaceOnUse"
       x1="-99.875"
       y1="287.99997"
       x2="-68"
       y2="320"
       gradientTransform="translate(-32.76642,350.63755)" />
    <linearGradient
       inkscape:collect="always"
       xlink:href="#linearGradient3347"
       id="linearGradient3353"
       x1="47.23358"
       y1="654.63755"
       x2="67.23358"
       y2="654.63755"
       gradientUnits="userSpaceOnUse" />
    <linearGradient
       inkscape:collect="always"
       xlink:href="#linearGradient3347"
       id="linearGradient3355"
       x1="23.23358"
       y1="654.63683"
       x2="43.23358"
       y2="654.63683"
       gradientUnits="userSpaceOnUse" />
    <linearGradient
       inkscape:collect="always"
       xlink:href="#linearGradient3347"
       id="linearGradient3357"
       x1="-0.76642"
       y1="654.63988"
       x2="19.280754"
       y2="654.63988"
       gradientUnits="userSpaceOnUse" />
    <linearGradient
       inkscape:collect="always"
       xlink:href="#linearGradient3347"
       id="linearGradient3359"
       x1="-24.76642"
       y1="654.63755"
       x2="-4.76642"
       y2="654.63755"
       gradientUnits="userSpaceOnUse" />
    <linearGradient
       inkscape:collect="always"
       xlink:href="#linearGradient3347"
       id="linearGradient3361"
       x1="-48.766418"
       y1="654.63757"
       x2="-28.76642"
       y2="654.63755"
       gradientUnits="userSpaceOnUse" />
    <linearGradient
       inkscape:collect="always"
       xlink:href="#linearGradient3347"
       id="linearGradient3363"
       x1="-72.76642"
       y1="654.63755"
       x2="-52.76642"
       y2="654.63755"
       gradientUnits="userSpaceOnUse" />
    <linearGradient
       inkscape:collect="always"
       xlink:href="#linearGradient3347"
       id="linearGradient3365"
       x1="-96.76642"
       y1="654.63755"
       x2="-76.76642"
       y2="654.63755"
       gradientUnits="userSpaceOnUse"
       gradientTransform="translate(32.76642,-300.63758)" />
    <linearGradient
       inkscape:collect="always"
       xlink:href="#linearGradient3347"
       id="linearGradient3381"
       gradientUnits="userSpaceOnUse"
       x1="-96.76642"
       y1="654.63755"
       x2="-76.76642"
       y2="654.63755"
       gradientTransform="translate(192,25.99534)" />
    <linearGradient
       inkscape:collect="always"
       xlink:href="#linearGradient3347"
       id="linearGradient3383"
       gradientUnits="userSpaceOnUse"
       x1="-72.76642"
       y1="654.63755"
       x2="-52.76642"
       y2="654.63755"
       gradientTransform="translate(192,25.99534)" />
    <linearGradient
       inkscape:collect="always"
       xlink:href="#linearGradient3347"
       id="linearGradient3385"
       gradientUnits="userSpaceOnUse"
       x1="-48.766418"
       y1="654.63757"
       x2="-28.76642"
       y2="654.63755"
       gradientTransform="translate(192,25.99534)" />
    <linearGradient
       inkscape:collect="always"
       xlink:href="#linearGradient3347"
       id="linearGradient3387"
       gradientUnits="userSpaceOnUse"
       x1="-24.76642"
       y1="654.63755"
       x2="-4.76642"
       y2="654.63755"
       gradientTransform="translate(192,25.99534)" />
    <linearGradient
       inkscape:collect="always"
       xlink:href="#linearGradient3347"
       id="linearGradient3389"
       gradientUnits="userSpaceOnUse"
       x1="-0.76642"
       y1="654.63988"
       x2="19.280754"
       y2="654.63988"
       gradientTransform="translate(192,25.99534)" />
    <linearGradient
       inkscape:collect="always"
       xlink:href="#linearGradient3347"
       id="linearGradient3391"
       gradientUnits="userSpaceOnUse"
       x1="23.23358"
       y1="654.63683"
       x2="43.23358"
       y2="654.63683"
       gradientTransform="translate(192,25.99534)" />
    <linearGradient
       inkscape:collect="always"
       xlink:href="#linearGradient3347"
       id="linearGradient3393"
       gradientUnits="userSpaceOnUse"
       x1="47.23358"
       y1="654.63755"
       x2="67.23358"
       y2="654.63755"
       gradientTransform="translate(192,25.99534)" />
    <linearGradient
       inkscape:collect="always"
       xlink:href="#linearGradient3303"
       id="linearGradient3309"
       x1="-64"
       y1="364"
       x2="-64"
       y2="343.9996"
       gradientUnits="userSpaceOnUse" />
    <linearGradient
       inkscape:collect="always"
       xlink:href="#linearGradient3265"
       id="linearGradient2565"
       gradientUnits="userSpaceOnUse"
       gradientTransform="translate(-232.76642,418.63751)"
       x1="-100"
       y1="288.00003"
       x2="-68"
       y2="320" />
    <linearGradient
       inkscape:collect="always"
       xlink:href="#linearGradient3265"
       id="linearGradient2566"
       gradientUnits="userSpaceOnUse"
       gradientTransform="translate(-232.76642,420.63751)"
       x1="-100"
       y1="288.00003"
       x2="-68"
       y2="320" />
  </defs>
  <sodipodi:namedview
     id="base"
     pagecolor="#ffffff"
     bordercolor="#666666"
     borderopacity="1.0"
     inkscape:pageopacity="0.0"
     inkscape:pageshadow="2"
     inkscape:zoom="2"
     inkscape:cx="-190.48156"
     inkscape:cy="-113.6536"
     inkscape:document-units="px"
     inkscape:current-layer="layer1"
     showgrid="false"
     inkscape:window-width="1440"
     inkscape:window-height="874"
     inkscape:window-x="-4"
     inkscape:window-y="-4"
     showguides="true"
     inkscape:guide-bbox="true">
    <sodipodi:guide
       orientation="0,1"
       position="134,-80"
       id="guide3328" />
    <sodipodi:guide
       orientation="0,1"
       position="330,-300"
       id="guide3253" />
    <sodipodi:guide
       orientation="1,0"
       position="320,-328"
       id="guide3255" />
    <sodipodi:guide
       orientation="0,1"
       position="236,-340"
       id="guide3261" />
    <sodipodi:guide
       orientation="1,0"
       position="0,-294"
       id="guide3263" />
    <sodipodi:guide
       orientation="1,0"
       position="640,-487"
       id="guide3265" />
    <sodipodi:guide
       orientation="1,0"
       position="-32,-7.875"
       id="guide2465" />
    <sodipodi:guide
       orientation="1,0"
       position="-100,29.75"
       id="guide2472" />
    <sodipodi:guide
       orientation="1,0"
       position="-98,25.5"
       id="guide2474" />
    <sodipodi:guide
       orientation="0,1"
       position="-95.375,32"
       id="guide2476" />
    <sodipodi:guide
       orientation="1,0"
       position="-68,25.4375"
       id="guide2478" />
    <sodipodi:guide
       orientation="1,0"
       position="-94,21.375"
       id="guide2480" />
    <sodipodi:guide
       orientation="1,0"
       position="-74,18.1875"
       id="guide2482" />
    <sodipodi:guide
       orientation="0,1"
       position="-73.75,0"
       id="guide2484" />
    <sodipodi:guide
       orientation="0,1"
       position="-86.9375,30"
       id="guide2486" />
    <sodipodi:guide
       orientation="0,1"
       position="-92.1875,2"
       id="guide2488" />
    <sodipodi:guide
       orientation="1,0"
       position="-70,2.75"
       id="guide2490" />
    <sodipodi:guide
       orientation="0,1"
       position="-50.125,-23.875"
       id="guide2491" />
    <sodipodi:guide
       orientation="0,1"
       position="-66.125,-44"
       id="guide2493" />
    <sodipodi:guide
       orientation="1,0"
       position="-40,-41.5"
       id="guide2523" />
    <sodipodi:guide
       orientation="1,0"
       position="-44,-12.25"
       id="guide2526" />
    <sodipodi:guide
       orientation="1,0"
       position="-20,-46.25"
       id="guide2528" />
    <sodipodi:guide
       orientation="1,0"
       position="-16,-56.25"
       id="guide2530" />
    <sodipodi:guide
       orientation="1,0"
       position="4,-51.625"
       id="guide2532" />
    <sodipodi:guide
       orientation="1,0"
       position="-64,-33"
       id="guide2534" />
    <sodipodi:guide
       orientation="1,0"
       position="-60,-41"
       id="guide2542" />
    <sodipodi:guide
       orientation="0,1"
       position="-5,-40"
       id="guide2546" />
    <sodipodi:guide
       orientation="1,0"
       position="8,-55.75"
       id="guide2550" />
    <sodipodi:guide
       orientation="1,0"
       position="28,-64.875"
       id="guide2552" />
    <sodipodi:guide
       orientation="1,0"
       position="32,-63.375"
       id="guide2554" />
    <sodipodi:guide
       orientation="1,0"
       position="52,-76.25"
       id="guide2556" />
    <sodipodi:guide
       orientation="1,0"
       position="55.875,-61.125"
       id="guide2560" />
    <sodipodi:guide
       orientation="1,0"
       position="76,-62.25"
       id="guide2562" />
    <sodipodi:guide
       orientation="1,0"
       position="80,-64.625"
       id="guide2564" />
    <sodipodi:guide
       orientation="1,0"
       position="100,-71.875"
       id="guide2566" />
    <sodipodi:guide
       orientation="0,1"
       position="14.125,-28"
       id="guide2568" />
    <sodipodi:guide
       orientation="0,1"
       position="-219.75,-113.75"
       id="guide2547" />
  </sodipodi:namedview>
  <metadata
     id="metadata7">
    <rdf:RDF>
      <cc:Work
         rdf:about="">
        <dc:format>image/svg+xml</dc:format>
        <dc:type
           rdf:resource="http://purl.org/dc/dcmitype/StillImage" />
      </cc:Work>
    </rdf:RDF>
  </metadata>
  <g
     inkscape:label="Calque 1"
     inkscape:groupmode="layer"
     id="layer1"
     transform="translate(32.76642,-300.63758)">
    <g
       id="eky"
       inkscape:export-filename="/home/brice/Informatique/Developpement/ekylibre/trunk/ekylibre/public/images/eky.png"
       inkscape:export-xdpi="90"
       inkscape:export-ydpi="90">
      <text
         transform="scale(0.9373773,1.0668063)"
         sodipodi:linespacing="125%"
         id="text3159"
         y="156.66859"
         x="304.89551"
         style="font-size:13.15684891px;font-style:normal;font-weight:normal;line-height:125%;fill:url(#linearGradient3205);fill-opacity:1;stroke:none;stroke-width:1px;stroke-linecap:butt;stroke-linejoin:miter;stroke-opacity:1;font-family:Bitstream Vera Sans"
         xml:space="preserve"><tspan
           style="font-size:21.16672516px;font-style:normal;font-variant:normal;font-weight:bold;font-stretch:normal;text-align:center;line-height:125%;writing-mode:lr-tb;text-anchor:middle;fill:url(#linearGradient3205);fill-opacity:1;font-family:Qlassik Bold;-inkscape-font-specification:'Qlassik Bold, Bold'"
           id="tspan3163"
           y="156.66859"
           x="304.89551"
           sodipodi:role="line">EKYLIBRE</tspan></text>
      <text
         transform="scale(1.1626733,-0.8600868)"
         sodipodi:linespacing="125%"
         id="text3181"
         y="-194.53436"
         x="245.81462"
         style="font-size:10.60738945px;font-style:normal;font-weight:normal;line-height:125%;fill:url(#linearGradient3191);fill-opacity:1;stroke:none;stroke-width:1px;stroke-linecap:butt;stroke-linejoin:miter;stroke-opacity:1;font-family:Bitstream Vera Sans"
         xml:space="preserve"><tspan
           style="font-size:17.06515884px;font-style:normal;font-variant:normal;font-weight:bold;font-stretch:normal;text-align:center;line-height:125%;writing-mode:lr-tb;text-anchor:middle;fill:url(#linearGradient3191);fill-opacity:1;font-family:Qlassik Bold;-inkscape-font-specification:'Qlassik Bold, Bold'"
           id="tspan3183"
           y="-194.53436"
           x="245.81462"
           sodipodi:role="line">EKYLIBRE</tspan></text>
    </g>
    <path
       style="fill:url(#radialGradient3316);fill-opacity:1;fill-rule:evenodd;stroke:none;stroke-width:1px;stroke-linecap:butt;stroke-linejoin:miter;stroke-opacity:1"
       d="M -32.76642,514.63756 L -32.76642,534.63756 L 161.72095,534.63756 C 160.50704,533.07958 159.53174,531.33463 158.90596,529.33636 C 158.65255,528.52249 158.54132,527.66363 158.54274,526.80623 C 158.54274,523.80385 159.10356,522.09234 159.54161,520.36045 C 159.97967,518.62857 160.4194,517.1978 160.4194,517.1978 C 160.72099,516.24338 161.18892,515.3904 161.78148,514.63756 L -32.76642,514.63756 z M 214.16109,514.63756 C 210.6442,521.64507 207.06157,527.17086 203.29464,531.50503 C 202.31271,532.63483 201.32559,533.67323 200.29806,534.63756 L 607.23358,534.63756 L 607.23358,514.63756 L 214.16109,514.63756 z"
       id="path3231"
       sodipodi:nodetypes="cccsssccccscccc" />
    <text
       xml:space="preserve"
       style="font-size:137.45014954px;font-style:normal;font-weight:normal;line-height:125%;fill:url(#radialGradient3271);fill-opacity:1;stroke:none;stroke-width:1px;stroke-linecap:butt;stroke-linejoin:miter;stroke-opacity:1;font-family:Bitstream Vera Sans"
       x="307.00061"
       y="460.46671"
       id="text3207"
       sodipodi:linespacing="125%"
       transform="scale(0.9424698,1.0610419)"><tspan
         sodipodi:role="line"
         x="307.00061"
         y="460.46671"
         id="tspan3209"
         style="font-size:221.12965393px;font-style:normal;font-variant:normal;font-weight:bold;font-stretch:normal;text-align:center;line-height:125%;writing-mode:lr-tb;text-anchor:middle;fill:url(#radialGradient3271);fill-opacity:1;font-family:Qlassik Bold;-inkscape-font-specification:'Qlassik Bold, Bold'">ekylibre</tspan></text>
    <path
       style="opacity:0.98999999;fill:url(#radialGradient3322);fill-opacity:1;fill-rule:evenodd;stroke:none;stroke-width:1.5;stroke-linecap:round;stroke-linejoin:round;stroke-miterlimit:4;stroke-dashoffset:0;stroke-opacity:1"
       d="M 339.23358,620.63755 L 235.23358,620.63755 L 287.23358,534.63755 L 339.23358,620.63755 z"
       id="path3240"
       sodipodi:nodetypes="cccc" />
    <text
       xml:space="preserve"
       style="font-size:137.45014954000001239px;font-style:normal;font-weight:normal;line-height:125%;opacity:0.5;fill:#000000;fill-opacity:1;stroke:none;stroke-width:1px;stroke-linecap:butt;stroke-linejoin:miter;stroke-opacity:1;filter:url(#filter3271);font-family:Bitstream Vera Sans"
       x="303.8175"
       y="837.45453"
       id="text3202"
       sodipodi:linespacing="125%"
       transform="matrix(0.9424698,0,0,1.0610419,8,6)"><tspan
         sodipodi:role="line"
         x="303.8175"
         y="837.45453"
         id="tspan3204"
         style="font-size:221.12965392999998926px;font-style:normal;font-variant:normal;font-weight:bold;font-stretch:normal;text-align:center;line-height:125%;writing-mode:lr-tb;text-anchor:middle;fill:#000000;fill-opacity:1;font-family:Qlassik Bold;-inkscape-font-specification:'Qlassik Bold, Bold'">ekylibre</tspan></text>
    <text
       xml:space="preserve"
       style="font-size:137.45014953999995555px;font-style:normal;font-weight:normal;line-height:125%;fill:url(#radialGradient3241);fill-opacity:1.0;stroke:none;stroke-width:2.00000005000000014;stroke-linecap:butt;stroke-linejoin:miter;stroke-opacity:1;font-family:Bitstream Vera Sans;stroke-miterlimit:4;stroke-dasharray:none"
       x="442.8139"
       y="839.33954"
       id="text2420"
       sodipodi:linespacing="125%"
       transform="scale(0.9424698,1.0610419)"><tspan
         sodipodi:role="line"
         x="442.8139"
         y="839.33954"
         id="tspan2422"
         style="font-size:221.12965393000001768px;font-style:normal;font-variant:normal;font-weight:bold;font-stretch:normal;text-align:center;line-height:125%;writing-mode:lr-tb;text-anchor:middle;fill:url(#radialGradient3241);fill-opacity:1.0;stroke:none;stroke-width:2.00000005000000014;stroke-opacity:1;font-family:Qlassik Bold;-inkscape-font-specification:'Qlassik Bold, Bold';stroke-miterlimit:4;stroke-dasharray:none">libre</tspan></text>
    <text
       xml:space="preserve"
       style="font-size:137.45014953999995555px;font-style:normal;font-weight:normal;line-height:125%;fill:url(#radialGradient3243);fill-opacity:1.0;stroke:none;stroke-width:2.00000005000000014;stroke-linecap:butt;stroke-linejoin:miter;stroke-opacity:1;font-family:Bitstream Vera Sans;stroke-miterlimit:4;stroke-dasharray:none;fill-rule:nonzero"
       x="130.86766"
       y="839.33954"
       id="text3228"
       sodipodi:linespacing="125%"
       transform="scale(0.9424698,1.0610419)"><tspan
         sodipodi:role="line"
         x="130.86766"
         y="839.33954"
         id="tspan3230"
         style="font-size:221.12965393000001768px;font-style:normal;font-variant:normal;font-weight:bold;font-stretch:normal;text-align:center;line-height:125%;writing-mode:lr-tb;text-anchor:middle;fill:url(#radialGradient3243);fill-opacity:1.0;stroke:none;stroke-width:2.00000005000000014;stroke-opacity:1;font-family:Qlassik Bold;-inkscape-font-specification:'Qlassik Bold, Bold';stroke-miterlimit:4;stroke-dasharray:none;fill-rule:nonzero">eky</tspan></text>
    <text
       xml:space="preserve"
       style="font-size:137.45014953999995555px;font-style:normal;font-weight:normal;line-height:125%;opacity:0.88217522000000004;fill:url(#linearGradient3320);fill-opacity:1;stroke:none;stroke-width:1px;stroke-linecap:butt;stroke-linejoin:miter;stroke-opacity:1;font-family:Bitstream Vera Sans"
       x="309.12268"
       y="839.33917"
       id="text3306"
       sodipodi:linespacing="125%"
       transform="scale(0.9424698,1.0610419)"><tspan
         sodipodi:role="line"
         x="309.12268"
         y="839.33917"
         id="tspan3308"
         style="font-size:221.12965393000001768px;font-style:normal;font-variant:normal;font-weight:bold;font-stretch:normal;text-align:center;line-height:125%;writing-mode:lr-tb;text-anchor:middle;fill:url(#linearGradient3320);fill-opacity:1;font-family:Qlassik Bold;-inkscape-font-specification:'Qlassik Bold, Bold'">ekylibre</tspan></text>
    <rect
       style="opacity:0;fill:#8ce98a;fill-opacity:1;fill-rule:evenodd;stroke:none;stroke-width:2;stroke-linecap:round;stroke-linejoin:round;stroke-miterlimit:4;stroke-dasharray:none;stroke-dashoffset:0;stroke-opacity:1"
       id="rect2454"
       width="640"
       height="260"
       x="-32.766418"
       y="700.63757" />
    <rect
       style="opacity:1;fill:#ffffff;fill-opacity:1;fill-rule:nonzero;stroke:#3061bb;stroke-width:2;stroke-linecap:round;stroke-linejoin:miter;stroke-miterlimit:4;stroke-dasharray:none;stroke-dashoffset:0;stroke-opacity:1"
       id="logo"
       width="30"
       height="30"
       x="-63.766418"
       y="589.63757"
       inkscape:label="#rect2461"
       inkscape:export-xdpi="45"
       inkscape:export-ydpi="45"
       inkscape:export-filename="/home/brice/Informatique/Developpement/ekylibre/trunk/ekylibre/public/images/favicon.png" />
    <path
       style="opacity:1;fill:#3061bb;fill-opacity:1;fill-rule:nonzero;stroke:none;stroke-width:3.75000000000000000;stroke-linecap:round;stroke-linejoin:round;stroke-miterlimit:4;stroke-dasharray:none;stroke-dashoffset:0;stroke-opacity:1"
       d="M -58.76642,594.63755 L -58.76642,598.63755 L -58.76642,602.63755 L -58.76642,606.63755 L -58.76642,610.63755 L -58.76642,614.63755 L -38.76642,614.63755 L -38.76642,610.63755 L -54.76642,610.63755 L -54.76642,606.63755 L -38.76642,606.63755 L -38.76642,602.63755 L -54.76642,602.63755 L -54.76642,598.63755 L -38.76642,598.63755 L -38.76642,594.63755 L -54.76642,594.63755 L -58.76642,594.63755 z"
       id="rect2467" />
    <rect
       style="opacity:1;fill:#ffffff;fill-opacity:1;stroke:none;stroke-width:2;stroke-linejoin:round;stroke-miterlimit:4;stroke-dasharray:none;stroke-opacity:1"
       id="rect2493"
       width="32"
       height="32"
       x="-132.76642"
       y="588.63757"
       inkscape:export-xdpi="360"
       inkscape:export-ydpi="360" />
    <path
       style="opacity:1;fill:url(#linearGradient3271);fill-opacity:1;fill-rule:nonzero;stroke:none;stroke-width:2;stroke-linecap:round;stroke-linejoin:miter;stroke-miterlimit:4;stroke-dasharray:none;stroke-dashoffset:0;stroke-opacity:1"
       d="M -100 288 L -100 320 L -68 320 L -68 288 L -100 288 z M -98 290 L -70 290 L -70 318 L -98 318 L -98 290 z M -94 294 L -94 298 L -94 302 L -94 306 L -94 310 L -94 314 L -74 314 L -74 310 L -90 310 L -90 306 L -74 306 L -74 302 L -90 302 L -90 298 L -74 298 L -74 294 L -90 294 L -94 294 z "
       transform="translate(-32.76642,300.63758)"
       id="logos"
       inkscape:label="#rect2464"
       inkscape:export-xdpi="360"
       inkscape:export-ydpi="360" />
    <rect
       style="opacity:1;fill:#ffffff;fill-opacity:1;fill-rule:nonzero;stroke:none;stroke-width:2;stroke-linecap:round;stroke-linejoin:miter;stroke-miterlimit:4;stroke-dasharray:none;stroke-dashoffset:0;stroke-opacity:0.71601192"
       id="rect3398"
       width="32"
       height="32"
       x="-132.76642"
       y="638.63757"
       inkscape:export-xdpi="180"
       inkscape:export-ydpi="180"
       inkscape:export-filename="/home/brice/ekylibre/public/images/ekylong.png" />
    <path
       style="opacity:1;fill:url(#linearGradient2488);fill-opacity:1;fill-rule:nonzero;stroke:none;stroke-width:2;stroke-linecap:round;stroke-linejoin:miter;stroke-miterlimit:4;stroke-dasharray:none;stroke-dashoffset:0;stroke-opacity:1"
       d="M -132.76642,638.63755 L -132.76642,670.63755 L -100.76642,670.63755 L -100.76642,638.63755 L -132.76642,638.63755 z M -130.76642,640.63755 L -102.76642,640.63755 L -102.76642,668.63755 L -130.76642,668.63755 L -130.76642,640.63755 z M -126.76642,644.63755 L -126.76642,648.63755 L -126.76642,652.63755 L -126.76642,656.63755 L -126.76642,660.63755 L -126.76642,664.63755 L -106.76642,664.63755 L -106.76642,660.63755 L -122.76642,660.63755 L -122.76642,656.63755 L -106.76642,656.63755 L -106.76642,652.63755 L -122.76642,652.63755 L -122.76642,648.63755 L -106.76642,648.63755 L -106.76642,644.63755 L -122.76642,644.63755 L -126.76642,644.63755 z"
       id="path2486"
       inkscape:label="#rect2464"
       inkscape:export-xdpi="180"
       inkscape:export-ydpi="180"
       inkscape:export-filename="/home/brice/ekylibre/public/images/ekylong.png" />
    <path
       style="font-size:30.63005829000000091px;font-style:normal;font-weight:normal;line-height:125%;fill:url(#linearGradient3309);fill-opacity:1.0;stroke:none;stroke-width:1px;stroke-linecap:butt;stroke-linejoin:miter;stroke-opacity:1;font-family:Bitstream Vera Sans"
       d="M -64,344 L -64,364 L -59.8125,364 L -59.8125,356.96875 L -57.25,354.75 L -49.46875,364 L -44,364 L -53.90625,352.125 L -44,344 L -49.875,344 L -59.8125,351.90625 L -59.8125,344 L -64,344 z M -40,344 L -32,356 L -32,364 L -28,364 L -28,356 L -20,344 L -25,344 L -30,352.03125 L -35,344 L -40,344 z M -16,344 L -16,364 L 4,364 L 4,360 L -12,360 L -12,344 L -16,344 z M 8,344 L 8,347.96875 L 16,347.96875 L 16,360.03125 L 8,360.03125 L 8,364 L 28,364 L 28,360.03125 L 20,360.03125 L 20,347.96875 L 28,347.96875 L 28,344 L 8,344 z M 32,344 L 32,364 L 46,364 C 49.695675,363.90061 52,360.63086 52,358 C 52,355.43432 50.833836,354.78693 50.25,354 C 50.630409,353.46487 52.064223,352.64314 52,350 C 51.9375,347.42775 51.176898,343.99997 46,344 L 32,344 z M 56,344 L 56,364 L 60,364 L 60,356 L 66,356 L 71.21875,364 L 76,364 L 70.625,355.9375 C 72.954429,355.90573 76,353.45534 76,350.03125 C 76,346.79694 74.079372,343.96087 70,344 L 56,344 z M 80,344 L 80,348 L 80,352 L 80,356 L 80,360 L 80,364 L 100,364 L 100,360 L 84,360 L 84,356 L 100,356 L 100,352 L 84,352 L 84,348 L 100,348 L 100,344 L 84,344 L 80,344 z M 70,352 L 60,352 L 60,348 L 70,348 C 72.894227,348.12561 72.967868,352.07328 70,352 z M 36,348 L 46,348 C 48.683914,347.93747 48.886454,351.96066 46,352 L 36,352 L 36,348 z M 36,356 L 46,356 C 48.935179,355.9278 48.910071,359.89306 46,360 L 36,360 L 36,356 z"
       transform="translate(-32.76642,300.63758)"
       id="path2540"
       inkscape:export-xdpi="180"
       inkscape:export-ydpi="180"
       inkscape:export-filename="/home/brice/ekylibre/public/images/ekylong.png"
       sodipodi:nodetypes="ccccccccccccccccccccccccccccccccccccccccccccccscsccccccccccsccccccccccccccccccccccccccccccccccc" />
    <path
       style="font-size:30.63005829px;font-style:normal;font-weight:normal;line-height:125%;fill:url(#linearGradient3381);fill-opacity:1;stroke:none;stroke-width:1px;stroke-linecap:butt;stroke-linejoin:miter;stroke-opacity:1;font-family:Bitstream Vera Sans"
       d="M 95.23358,670.63289 L 99.409642,670.63289 L 99.409642,678.53644 L 109.37239,670.63289 L 115.23358,670.63289 L 105.0847,678.50965 L 115.23358,690.63289 L 109.75646,690.63289 L 101.97215,680.88088 L 99.409642,683.10458 L 99.409642,690.63289 L 95.23358,690.63289 L 95.23358,670.63289"
       id="path3367"
       sodipodi:nodetypes="ccccccccccccc" />
    <path
       style="font-size:30.63005829px;font-style:normal;font-weight:normal;line-height:125%;fill:url(#linearGradient3383);fill-opacity:1;stroke:none;stroke-width:1px;stroke-linecap:butt;stroke-linejoin:miter;stroke-opacity:1;font-family:Bitstream Vera Sans"
       d="M 124.23358,670.63289 L 129.23358,678.6704 L 134.23358,670.63289 L 139.23358,670.63289 L 131.23358,682.63289 L 131.23358,690.63289 L 127.23358,690.63289 L 127.23358,682.63289 L 119.23358,670.63289"
       id="path3369"
       sodipodi:nodetypes="ccccccccc" />
    <path
       style="font-size:30.63005829px;font-style:normal;font-weight:normal;line-height:125%;fill:url(#linearGradient3385);fill-opacity:1;stroke:none;stroke-width:1px;stroke-linecap:butt;stroke-linejoin:miter;stroke-opacity:1;font-family:Bitstream Vera Sans"
       d="M 143.23358,690.63289 L 143.23358,670.63289 L 147.23358,670.63289 L 147.23358,686.63289 L 163.23358,686.63289 L 163.23358,690.63289 L 143.23358,690.63289"
       id="path3371"
       sodipodi:nodetypes="ccccccc" />
    <path
       style="font-size:30.63005829px;font-style:normal;font-weight:normal;line-height:125%;fill:url(#linearGradient3387);fill-opacity:1;stroke:none;stroke-width:1px;stroke-linecap:butt;stroke-linejoin:miter;stroke-opacity:1;font-family:Bitstream Vera Sans"
       d="M 167.23358,674.61581 L 167.23358,670.63289 L 187.23358,670.63289 L 187.23358,674.61581 L 179.23358,674.61581 L 179.23358,686.64997 L 187.23358,686.64997 L 187.23358,690.63289 L 167.23358,690.63289 L 167.23358,686.64997 L 175.23358,686.64997 L 175.23358,674.61581 L 167.23358,674.61581"
       id="path3373"
       sodipodi:nodetypes="ccccccccccccc" />
    <path
       style="font-size:30.63005829px;font-style:normal;font-weight:normal;line-height:125%;fill:url(#linearGradient3389);fill-opacity:1;stroke:none;stroke-width:1px;stroke-linecap:butt;stroke-linejoin:miter;stroke-opacity:1;font-family:Bitstream Vera Sans"
       d="M 195.23358,682.63289 L 195.23358,686.63289 L 203.23358,686.63289 C 207.76865,686.77595 207.91876,682.49819 203.23358,682.63289 L 195.23358,682.63289 M 195.23358,674.63289 L 195.23358,678.63289 L 203.23358,678.63289 C 207.30753,678.78105 208.29249,674.63289 203.23358,674.63289 L 195.23358,674.63289 M 191.23358,670.63289 L 203.23358,670.63289 C 211.03548,670.63022 211.42227,673.97604 211.23358,676.63289 C 211.03606,679.41413 209.48899,679.47276 208.23358,680.63289 C 209.56742,681.91982 210.98987,682.00471 211.23358,684.63289 C 211.47649,687.25251 211.05425,690.7835 203.23358,690.63289 L 191.23358,690.63289 L 191.23358,670.63289"
       id="path3375"
       sodipodi:nodetypes="cccccccccccczczccc" />
    <path
       style="font-size:30.63005829px;font-style:normal;font-weight:normal;line-height:125%;fill:url(#linearGradient3391);fill-opacity:1;stroke:none;stroke-width:1px;stroke-linecap:butt;stroke-linejoin:miter;stroke-opacity:1;font-family:Bitstream Vera Sans"
       d="M 235.23358,690.63289 L 230.46767,690.63289 L 225.23358,682.63289 L 219.23358,682.63289 L 219.23358,690.63289 L 215.23358,690.63289 L 215.23358,670.63289 L 225.23358,670.63289 C 231.31295,670.59376 235.23358,671.3151 235.23358,676.67441 C 235.23358,681.90872 231.69255,681.78205 230.48812,682.56382 M 219.23358,674.63289 L 219.23358,678.63289 L 225.23358,678.63289 C 228.23158,678.76502 231.35942,678.64471 231.23357,676.67441 C 231.10746,674.70009 227.27754,674.45353 225.23358,674.63289 L 219.23358,674.63289"
       id="path3377"
       sodipodi:nodetypes="cccccccczcccczcc" />
    <path
       style="opacity:1;fill:url(#linearGradient3393);fill-opacity:1;fill-rule:nonzero;stroke:none;stroke-width:3.75;stroke-linecap:round;stroke-linejoin:round;stroke-miterlimit:4;stroke-dasharray:none;stroke-dashoffset:0;stroke-opacity:1"
       d="M 239.23358,670.63289 L 239.23358,674.63289 L 239.23358,678.63289 L 239.23358,682.63289 L 239.23358,686.63289 L 239.23358,690.63289 L 259.23358,690.63289 L 259.23358,686.63289 L 243.23358,686.63289 L 243.23358,682.63289 L 259.23358,682.63289 L 259.23358,678.63289 L 243.23358,678.63289 L 243.23358,674.63289 L 259.23358,674.63289 L 259.23358,670.63289 L 243.23358,670.63289 L 239.23358,670.63289 z"
       id="path3379" />
    <g
       id="g2549"
       inkscape:export-filename="/home/brice/dev/ekylibre/trunk/ekylibre/public/images/ekylogo.png"
       inkscape:export-xdpi="133.84616"
       inkscape:export-ydpi="133.84616">
      <g
         id="g2568"
         inkscape:export-filename="/home/brice/dev/ekylibre/trunk/ekylibre/public/images/ekylogo.png"
         inkscape:export-xdpi="180"
         inkscape:export-ydpi="180">
        <path
           style="fill:url(#linearGradient2566);fill-opacity:1;fill-rule:nonzero;stroke:none;stroke-width:2;stroke-linecap:round;stroke-linejoin:miter;stroke-miterlimit:4;stroke-dasharray:none;stroke-dashoffset:0;stroke-opacity:1"
           d="M -332.76642,708.63755 L -332.76642,740.63755 L -300.76642,740.63755 L -300.76642,708.63755 L -332.76642,708.63755 z M -330.76642,710.63755 L -302.76642,710.63755 L -302.76642,738.63755 L -330.76642,738.63755 L -330.76642,710.63755 z M -326.76642,714.63755 L -326.76642,718.63755 L -326.76642,722.63755 L -326.76642,726.63755 L -326.76642,730.63755 L -326.76642,734.63755 L -306.76642,734.63755 L -306.76642,730.63755 L -322.76642,730.63755 L -322.76642,726.63755 L -306.76642,726.63755 L -306.76642,722.63755 L -322.76642,722.63755 L -322.76642,718.63755 L -306.76642,718.63755 L -306.76642,714.63755 L -322.76642,714.63755 L -326.76642,714.63755 z"
           id="path2544"
           sodipodi:nodetypes="cccccccccccccccccccccccccccc" />
        <path
           sodipodi:nodetypes="ccccccccccccccccccccccccccccccccccccccccccccccscccccscccccccccccccccccccccccscccccccccccccccccccccccccccccccccccccccccccccccccccccccccccccccccccccccscccccccccccccccccccccccccccccccccccccccccccccccccccccccccccccccccccccccccccccccccccccccccccccccccccccccccccccccccccccccccccccccccccscccccccccccccccccccccccccccccccccccccccccccccccccccccccccccccccccccccccccccccccccccccccccccccccccc"
           id="text3341"
           d="M -290.3091,714.90195 C -290.74436,715.51142 -291.26182,715.9564 -291.8615,716.23692 L -292.07912,716.96243 C -292.3693,718.02656 -292.53856,718.89234 -292.58691,719.55981 L -292.80455,719.76296 C -293.02701,720.55622 -293.37037,721.17532 -293.83464,721.62029 C -293.73792,722.49094 -293.94588,723.21646 -294.4585,723.79687 C -294.51654,724.4837 -294.72449,725.03509 -295.08236,725.45106 C -295.07269,726.6119 -295.30966,727.61313 -295.79327,728.45473 C -295.75459,729.03515 -295.89483,729.48497 -296.21402,729.8042 C -296.20434,730.3169 -296.30591,730.76189 -296.5187,731.13915 C -297.30215,731.57447 -297.71805,732.19842 -297.76641,733.011 C -297.75675,734.05576 -297.41338,734.88286 -296.73632,735.49229 C -296.23336,735.49229 -295.81746,735.52615 -295.4886,735.59386 C -295.38221,735.51647 -295.28065,735.48262 -295.18392,735.49229 C -294.59391,735.05699 -294.00391,734.78128 -293.41389,734.6652 C -293.32685,734.54911 -293.22529,734.48139 -293.10922,734.46205 L -292.80455,734.2444 C -292.46602,733.81876 -292.05011,733.57691 -291.55682,733.51887 L -291.55682,733.21415 C -290.98616,733.04971 -290.5364,732.77401 -290.20754,732.38706 C -289.72393,732.47412 -289.34671,732.6821 -289.07588,733.011 C -288.03129,733.17546 -287.16562,733.55274 -286.47888,734.14282 C -284.38001,735.47779 -282.34884,735.61805 -280.38535,734.56363 L -280.38535,734.2444 C -280.55947,733.99289 -280.66103,733.71718 -280.69002,733.4173 C -281.06726,733.25284 -281.34292,733.04487 -281.517,732.79336 C -282.47457,732.81269 -283.2,732.46929 -283.69327,731.7631 C -284.39936,731.55997 -284.60731,731.21655 -284.31713,730.73286 C -285.07158,730.41364 -285.55519,729.86225 -285.76797,729.07868 C -285.5165,728.74977 -285.30854,728.50794 -285.14411,728.35315 C -284.80559,728.18871 -284.52993,728.08229 -284.31713,728.03392 C -284.18173,727.78241 -283.97377,727.61313 -283.69327,727.52605 C -283.56754,727.27455 -283.42729,727.06656 -283.27252,726.90211 L -282.96784,726.59738 L -282.66317,726.48129 L -282.24243,726.27815 L -282.14086,725.97343 L -281.82168,725.97343 L -280.79159,725.34948 C -280.42406,724.96255 -280.04684,724.68685 -279.65993,724.52238 C -279.37945,723.95165 -279.20536,723.43412 -279.13763,722.96977 C -279.78568,722.72794 -280.337,722.72794 -280.79159,722.96977 C -281.29456,723.45346 -281.81203,723.72917 -282.34399,723.79687 C -282.65351,724.3773 -283.06942,724.75457 -283.59171,724.92868 L -284.31713,725.04476 C -284.48157,725.51878 -284.79108,725.82834 -285.24567,725.97343 C -285.74863,726.13789 -286.15971,726.30718 -286.47888,726.48129 C -287.12693,726.99401 -287.78464,727.3084 -288.45203,727.42448 C -288.81958,727.85013 -289.19679,728.15968 -289.58368,728.35315 C -289.88352,729.00128 -290.36714,729.31084 -291.03452,729.28182 C -291.35371,729.73648 -291.73576,730.01218 -292.18068,730.10891 C -292.3161,730.47652 -292.52405,730.75222 -292.80455,730.93601 C -293.24947,731.22623 -293.49128,731.15851 -293.52996,730.73286 C -293.47194,729.41726 -293.19143,728.5563 -292.68848,728.15 C -292.72717,727.26004 -292.52405,726.50066 -292.07912,725.87187 C -292.03077,725.45591 -292.03077,725.0738 -292.07912,724.72554 L -291.8615,724.31925 L -291.65838,724.00001 L -291.55682,723.69529 L -291.45526,723.39057 L -291.35371,723.07134 C -290.77337,722.35551 -290.39132,721.66868 -290.20754,721.01086 L -290.00442,720.7932 L -289.07588,719.86452 C -288.77605,719.23576 -288.42785,718.75209 -288.03128,718.41348 L -288.03128,718.10877 L -288.03128,717.78954 L -287.92972,717.07852 C -287.92973,716.63355 -287.89587,716.25144 -287.82816,715.9322 C -288.56326,715.15833 -289.39024,714.8149 -290.3091,714.90195 M -275.36939,721.70736 C -277.27483,722.66506 -277.77778,723.86942 -276.87825,725.32046 L -276.53006,725.43654 C -276.3753,726.67478 -276.09481,727.63247 -275.68857,728.30962 C -275.27267,728.98677 -274.9293,729.58655 -274.65847,730.10891 C -274.0588,730.61195 -273.64289,731.00373 -273.41075,731.28426 C -273.17862,731.56481 -272.51607,732.06783 -271.4231,732.79336 L -269.31938,732.90943 L -269.31938,733.25768 C -269.81267,733.8381 -270.04481,734.46205 -270.01578,735.12953 C -270.48006,735.6906 -270.6735,736.27586 -270.59612,736.8853 C -271.95025,739.97119 -272.38066,743.0474 -271.88737,746.11395 C -271.62623,746.29774 -271.42795,746.53474 -271.29253,746.82496 C -270.86695,747.10548 -270.51875,747.37635 -270.24792,747.63755 C -269.6289,747.63753 -269.08242,747.52145 -268.60847,747.28929 L -268.60847,746.4622 C -269.47898,744.7693 -269.63374,743.09576 -269.07273,741.44158 C -269.12111,740.12596 -268.8116,738.99899 -268.1442,738.06065 C -268.1829,736.59993 -267.79117,735.42941 -266.96902,734.54911 C -266.61116,732.79818 -265.75516,731.51159 -264.40103,730.68933 C -263.753,729.76066 -263.05176,729.09803 -262.29732,728.7014 L -262.06518,728.0049 L -261.71698,727.77273 L -259.84539,725.90088 C -259.56492,724.67234 -259.6423,723.58405 -260.07753,722.63603 C -261.23822,721.86216 -262.36987,721.82345 -263.4725,722.51994 L -263.4725,723.10036 L -264.1689,723.33253 C -264.44941,723.94198 -264.60417,724.52723 -264.63317,725.0883 L -265.11194,725.32046 C -265.26671,725.90089 -265.61492,726.32653 -266.15655,726.59738 C -266.34033,727.06173 -266.57247,727.45351 -266.85295,727.77273 C -266.95936,728.53695 -267.3124,729.08352 -267.91206,729.41241 C -268.06683,729.87676 -268.29897,730.2637 -268.60847,730.57325 C -270.75572,729.97349 -272.19205,727.44867 -272.91746,722.99879 C -273.57518,722.72794 -274.07814,722.33616 -274.42634,721.82344 C -274.80356,721.82345 -275.11791,721.78477 -275.36939,721.70736 M -255.14716,714.46664 C -255.31159,715.0761 -255.58725,715.54527 -255.97414,715.87415 L -255.97414,718.35544 C -256.03218,718.4909 -256.10956,718.56828 -256.20628,718.58761 C -256.26432,719.4776 -256.42391,720.18377 -256.68506,720.70613 L -256.56899,721.0689 L -256.56899,722.82467 C -256.64637,723.75334 -256.68506,724.54175 -256.68506,725.18987 L -257.14932,725.77029 L -257.14932,726.48129 L -257.26539,726.71347 L -257.26539,727.07623 C -257.34277,727.44384 -257.38146,727.75822 -257.38146,728.0194 C -257.84573,729.00613 -258.04401,730.22016 -257.9763,731.66154 C -257.99565,732.59021 -257.99565,733.3786 -257.9763,734.02674 C -257.47335,734.38466 -257.159,734.81514 -257.03326,735.31816 L -256.68506,735.31816 C -256.36587,735.42458 -256.05153,735.46327 -255.74201,735.43426 L -255.3938,734.96992 L -255.26323,734.25891 C -255.51472,732.48863 -255.32127,730.87797 -254.6829,729.42692 L -254.6829,729.07868 L -254.79896,728.71592 L -254.6829,728.48374 C -254.34437,727.52606 -254.14609,726.7038 -254.08805,726.01696 L -253.85592,725.88637 C -253.92363,725.11249 -253.88494,724.44502 -253.73985,723.88392 L -253.62378,723.18743 L -253.15951,722.82467 L -253.02894,722.47641 L -253.02894,721.88148 L -253.02894,721.53324 C -252.45828,720.16927 -252.18745,718.8343 -252.21646,717.52835 C -251.79089,717.19946 -251.55392,716.80769 -251.50556,716.353 C -251.70868,716.05313 -251.78606,715.73874 -251.73769,715.40982 C -252.22131,715.03257 -252.41959,714.56339 -252.33253,714.0023 C -252.78713,713.74114 -253.21756,713.62022 -253.62378,713.63955 L -255.14716,714.46664 M -249.53242,715.29374 C -249.52274,715.87418 -249.61947,716.38204 -249.82258,716.81734 C -249.71619,716.88507 -249.65332,716.95278 -249.63397,717.02048 C -249.55659,717.07853 -249.52274,717.14142 -249.53242,717.20911 C -249.33897,717.73151 -249.15036,718.14748 -248.96658,718.45701 C -248.42494,718.51507 -247.97518,718.70371 -247.6173,719.02292 C -247.24009,718.88752 -246.85803,718.85849 -246.47114,718.93586 C -245.79409,719.67107 -245.15572,719.8597 -244.55603,719.50177 C -244.42063,719.13419 -244.39161,718.75209 -244.46898,718.35544 L -245.13637,718.06523 L -245.32498,717.78954 C -245.63449,716.90925 -246.0504,716.20308 -246.5727,715.67101 C -246.59205,715.32278 -246.68877,715.03741 -246.86287,714.81489 C -247.39484,714.64078 -247.83977,714.54406 -248.19764,714.52469 L -249.53242,715.29374 M -249.09716,724.89966 C -249.31963,725.27694 -249.54208,725.56715 -249.76455,725.77029 L -249.76455,726.14756 C -250.08373,727.28906 -250.38841,728.7788 -250.67858,730.61678 C -250.93973,730.81993 -251.13317,731.04727 -251.25892,731.29878 C -251.54908,735.1779 -250.6544,736.42096 -248.57486,735.02796 L -248.48781,734.73775 C -248.73929,734.13799 -248.86503,733.59626 -248.86503,733.11259 C -248.72961,732.63857 -248.57003,732.25647 -248.38624,731.96625 C -248.2992,731.55029 -248.13961,731.1972 -247.90747,730.90699 C -247.36583,728.87553 -246.80484,727.54541 -246.2245,726.91661 C -246.3309,725.44623 -247.09984,724.6143 -248.53133,724.42082 L -249.09716,724.89966 M -241.77042,713.65405 C -242.08961,713.89592 -242.40879,714.03619 -242.72797,714.07486 C -242.87306,714.56823 -243.10519,714.96001 -243.42438,715.25021 C -243.61783,716.39171 -243.45823,717.35908 -242.9456,718.1523 L -242.9456,719.70492 C -242.98429,719.94677 -242.9988,720.26116 -242.98912,720.6481 L -242.9456,720.76418 L -242.88757,720.88027 L -242.88757,721.59128 L -242.82953,721.95404 L -242.66994,722.30229 C -242.7183,722.90206 -242.85855,723.4196 -243.09068,723.85491 C -242.99396,724.29024 -242.96011,724.68201 -242.98912,725.03025 L -243.30831,725.27694 L -243.36634,725.56714 L -243.62749,726.87308 C -243.18257,727.28906 -242.90208,727.78241 -242.78601,728.35315 L -242.56838,728.59982 C -241.98805,728.73526 -241.47542,728.73526 -241.03049,728.59982 C -240.90475,728.45474 -240.77901,728.35315 -240.65328,728.2951 C -240.48885,727.77274 -240.19384,727.4777 -239.76826,727.40997 L -239.59416,726.98916 L -239.43457,726.87308 L -239.39104,726.69896 C -239.2653,726.54419 -239.1976,726.38457 -239.18793,726.22011 L -239.05735,726.10403 L -239.01382,725.98795 C -238.70431,725.68807 -238.47702,725.38819 -238.33192,725.0883 C -237.83865,725.02059 -237.54365,725.15602 -237.44692,725.49459 L -237.28732,725.55263 C -236.45552,725.49459 -235.7446,725.59134 -235.15458,725.84284 C -234.4195,725.77514 -233.81982,725.97345 -233.35555,726.43777 C -233.01703,726.43778 -232.75588,726.57805 -232.57209,726.85857 C -232.30128,726.83924 -231.95792,727.12461 -231.542,727.71469 C -230.61347,728.10164 -229.94608,728.73526 -229.53984,729.61556 L -229.53984,729.84773 L -229.58336,730.21049 C -229.08042,730.83928 -229.24001,731.61317 -230.06214,732.53217 C -230.54576,732.68694 -230.93749,732.9046 -231.23732,733.18512 C -231.55651,733.07872 -231.83701,733.04003 -232.07881,733.06905 C -232.33997,733.12709 -232.56726,733.12709 -232.7607,733.06905 L -232.92029,733.12709 L -233.0944,733.18512 C -233.83917,733.18513 -234.45336,733.26252 -234.93696,733.4173 C -235.48829,733.21416 -236.00092,733.15611 -236.47485,733.24318 C -236.59092,733.14644 -236.68281,733.03036 -236.75051,732.89492 L -236.85207,732.82237 C -237.18093,732.28065 -237.46143,731.95657 -237.69356,731.85017 L -237.79511,731.73408 C -237.8048,731.22139 -237.93053,730.80542 -238.17234,730.48619 C -238.44316,730.43782 -238.68981,730.43782 -238.91226,730.48619 C -239.85047,732.13071 -240.01007,733.23834 -239.39104,733.80908 C -239.13957,734.46689 -238.71399,734.84416 -238.1143,734.94089 L -237.83864,735.2311 C -237.24864,735.28915 -236.76019,735.50681 -236.37329,735.88408 L -236.11214,735.88408 C -235.98641,735.70028 -235.84132,735.56001 -235.67689,735.46327 L -235.25615,735.59386 C -234.995,735.57453 -234.78221,735.61321 -234.61777,735.70995 C -234.25991,735.67125 -233.96007,735.60838 -233.71825,735.52131 L -233.13792,735.65191 L -232.92029,735.59386 L -232.65914,735.59386 L -232.45603,735.59386 L -232.18037,735.59386 L -232.02077,735.52131 L -231.87569,735.52131 L -231.12125,735.52131 C -230.71503,735.39555 -230.34265,735.35687 -230.0041,735.40523 C -229.40444,734.9022 -228.78541,734.60715 -228.14703,734.5201 C -228.03098,734.3363 -227.92942,734.19603 -227.84236,734.09928 C -225.90791,733.80908 -225.16316,732.15005 -225.60806,729.1222 C -226.16906,728.57081 -226.43506,727.91785 -226.40602,727.16329 C -226.909,726.8344 -227.27654,726.42327 -227.50866,725.9299 C -227.78917,725.76546 -228.00196,725.56715 -228.14703,725.33497 L -228.32113,725.33497 C -228.52426,725.27694 -228.71771,725.2576 -228.90147,725.27694 C -229.17231,724.89 -229.36575,724.51273 -229.4818,724.14512 C -229.79133,723.97101 -230.03797,723.77269 -230.22173,723.55019 L -230.32329,723.49214 C -231.01004,723.20195 -231.56135,722.82952 -231.97724,722.37485 L -232.12233,722.37485 C -232.2771,722.4329 -232.42218,722.45223 -232.55758,722.43288 L -232.65914,722.24425 C -233.27818,722.10883 -233.78597,721.87182 -234.18253,721.53324 C -234.42434,721.60097 -234.62262,721.6445 -234.77737,721.66383 C -235.28034,721.32527 -235.77362,721.20435 -236.25723,721.30106 C -236.49904,721.15597 -236.69732,720.99636 -236.85207,720.82223 L -236.99715,720.82223 L -237.21478,720.82223 L -237.37438,720.93831 C -237.5775,720.93832 -237.75644,720.91897 -237.91118,720.88027 L -238.07077,720.88027 C -238.39964,720.99636 -238.69464,721.03989 -238.95579,721.01086 C -239.21694,721.25271 -239.48777,721.38815 -239.76826,721.41715 C -239.894,721.60097 -240.02941,721.72189 -240.17449,721.77992 C -240.33892,721.14147 -240.32442,720.56589 -240.13097,720.05317 C -240.39213,719.08582 -240.31958,718.23938 -239.91334,717.51384 C -239.93269,717.04952 -239.88433,716.6529 -239.76826,716.32397 L -239.76826,716.14985 C -239.75859,715.68554 -239.7731,715.28892 -239.81178,714.95999 C -239.85047,714.92132 -239.86982,714.88262 -239.86982,714.84392 L -239.97138,714.72783 L -240.02941,714.59723 C -240.12613,714.30704 -240.23253,714.07004 -240.3486,713.88622 L -240.50819,713.88622 C -240.71131,713.8282 -240.90475,713.7895 -241.08852,713.77014 C -241.35935,713.76049 -241.58665,713.72179 -241.77042,713.65405 M -215.46668,721.11243 C -215.74718,721.48972 -216.1244,721.58646 -216.59834,721.40264 C -216.89818,722.07013 -217.36729,722.47643 -218.00565,722.62152 C -218.17976,722.98913 -218.3055,723.33738 -218.38287,723.66627 C -219.03092,723.29868 -219.65962,723.17293 -220.26896,723.28899 L -221.58923,724.97221 L -221.69078,725.34948 L -221.77784,726.10403 L -221.96644,726.96015 L -222.15506,727.06171 C -222.22276,727.54541 -222.3485,727.9517 -222.53227,728.28059 C -222.54195,728.96743 -222.66768,729.56719 -222.90949,730.07989 C -222.82244,730.31207 -222.79343,730.56358 -222.82244,730.83444 C -223.59622,732.04364 -223.87672,733.26736 -223.66393,734.50558 C -223.19966,734.99893 -222.6967,735.31334 -222.15506,735.44876 L -221.77784,735.3617 C -221.57472,735.11986 -221.44898,734.86834 -221.40062,734.60715 L -220.55913,734.12831 C -220.28831,733.74137 -220.00298,733.45599 -219.70313,733.27219 C -219.98363,731.50192 -219.64027,729.96381 -218.67304,728.65786 C -218.4796,727.56476 -218.00566,726.68446 -217.25121,726.01696 C -216.24531,723.9178 -214.48496,723.60341 -211.97016,725.07378 C -211.18671,724.7062 -210.87237,724.20317 -211.02711,723.5647 L -211.21572,723.28899 L -211.31728,723.18743 C -211.75254,722.81017 -212.06689,722.46675 -212.26033,722.15718 L -212.26033,722.05562 L -212.26033,722.15718 L -212.26033,722.05562 C -212.77297,721.91052 -213.21305,721.69286 -213.58059,721.40264 L -213.76919,721.30106 C -214.41725,721.38815 -214.98307,721.32527 -215.46668,721.11243 M -202.32207,720.7932 C -202.3801,720.8706 -202.43814,720.90446 -202.49617,720.89477 C -203.92767,721.0012 -205.17056,721.36395 -206.22482,721.98306 L -206.50048,722.53445 L -207.22591,722.70857 C -207.69017,723.0375 -208.11575,723.25032 -208.50264,723.34704 C -208.54134,723.46314 -208.6042,723.52602 -208.69126,723.53568 C -208.80733,723.84524 -208.92822,724.08708 -209.05396,724.26119 C -209.92447,725.27694 -210.4371,726.30718 -210.59185,727.35193 C -210.64021,727.56476 -210.7321,727.74856 -210.86751,727.90333 L -210.86751,728.26609 L -210.67891,728.71592 L -210.86751,729.35438 C -210.77079,729.70262 -210.70792,730.00735 -210.67891,730.26853 L -210.5048,731.71957 L -210.41776,731.99528 L -210.1421,732.1694 L -209.95348,732.80786 C -209.56659,733.18513 -209.29577,733.54789 -209.14101,733.89614 L -208.86535,733.99772 L -208.69126,734.25891 L -208.22698,734.36047 L -207.95132,734.44754 L -207.77723,734.63617 L -207.50157,734.63617 L -207.31295,734.72324 L -205.58645,735.44876 L -205.22375,735.3617 C -204.94326,735.30366 -204.70145,735.30366 -204.49833,735.3617 L -204.22267,735.26012 L -203.68586,735.26012 L -202.94592,735.17307 C -202.25921,735.03764 -201.65469,734.97959 -201.13238,734.99893 L -200.94376,734.63617 L -200.68261,734.63617 C -200.33443,734.46205 -199.96688,734.37015 -199.57998,734.36047 C -199.27047,734.00256 -198.87875,733.84777 -198.4048,733.89614 C -198.25006,733.61561 -198.03727,733.43665 -197.76642,733.35926 L -197.85348,732.53217 C -198.53055,732.59988 -199.10605,732.57086 -199.57998,732.4451 C -200.04426,732.60955 -200.46984,732.63857 -200.85672,732.53217 C -202.8879,732.96748 -204.79818,732.88041 -206.58754,732.27098 C -206.75197,731.96142 -206.96476,731.7486 -207.22591,731.63251 C -206.85836,731.12948 -206.46664,730.76189 -206.05073,730.52973 L -205.68801,730.16696 L -205.22375,729.89126 L -204.77398,729.71713 C -204.04858,728.90456 -203.2893,728.32897 -202.49617,727.99039 L -202.40911,727.71469 L -202.13345,727.62763 C -201.63051,727.03755 -201.08403,726.6119 -200.49401,726.3507 C -200.31024,725.82834 -199.97655,725.49459 -199.49292,725.34948 L -199.31883,724.26119 C -198.62244,723.38091 -198.62244,722.52963 -199.31883,721.70736 C -199.77343,721.38815 -200.22803,721.20918 -200.68261,721.17047 L -200.85672,721.0689 C -201.44674,721.07859 -201.93518,720.98669 -202.32207,720.7932 M -202.13345,723.89843 C -202.33658,724.87549 -202.88306,725.50911 -203.77291,725.79931 C -204.40161,726.72798 -205.21892,727.06173 -206.22482,726.80052 C -206.49565,727.16813 -206.82934,727.32292 -207.22591,727.26487 C -207.13886,726.45229 -206.74713,725.8767 -206.05073,725.53812 C -205.45105,724.67718 -204.66276,724.25154 -203.68586,724.26119 C -203.4634,724.00002 -203.21676,723.81622 -202.94592,723.7098 L -202.13345,723.89843"
           style="font-size:40.26265717px;font-style:normal;font-weight:normal;line-height:100%;fill:#000000;fill-opacity:1;stroke:none;stroke-width:1px;stroke-linecap:butt;stroke-linejoin:miter;stroke-opacity:1;font-family:Bitstream Vera Sans" />
      </g>
    </g>
  </g>
</svg>
