<?xml version="1.0" encoding="UTF-8" standalone="no"?>
<!-- Created with Inkscape (http://www.inkscape.org/) -->

<svg
   xmlns:dc="http://purl.org/dc/elements/1.1/"
   xmlns:cc="http://creativecommons.org/ns#"
   xmlns:rdf="http://www.w3.org/1999/02/22-rdf-syntax-ns#"
   xmlns:svg="http://www.w3.org/2000/svg"
   xmlns="http://www.w3.org/2000/svg"
   xmlns:sodipodi="http://sodipodi.sourceforge.net/DTD/sodipodi-0.dtd"
   xmlns:inkscape="http://www.inkscape.org/namespaces/inkscape"
   width="750"
   height="250"
   viewBox="0 0 750.00045 249.99994"
   id="svg3337"
   version="1.1"
   inkscape:version="0.48.5 r10040"
   sodipodi:docname="logo.svg"
   inkscape:export-filename="logo.png"
   inkscape:export-xdpi="90"
   inkscape:export-ydpi="90">
  <defs
     id="defs3339" />
  <sodipodi:namedview
     id="base"
     pagecolor="#ffffff"
     bordercolor="#666666"
     borderopacity="1.0"
     inkscape:pageopacity="0.0"
     inkscape:pageshadow="2"
     inkscape:zoom="1.4"
     inkscape:cx="346.46283"
     inkscape:cy="33.593949"
     inkscape:document-units="px"
     inkscape:current-layer="layer1"
     showgrid="false"
     inkscape:snap-page="true"
     units="px"
     height="89mm"
     inkscape:window-width="1920"
     inkscape:window-height="1028"
     inkscape:window-x="0"
     inkscape:window-y="24"
     inkscape:window-maximized="1"
     borderlayer="true"
     inkscape:showpageshadow="false" />
  <metadata
     id="metadata3342">
    <rdf:RDF>
      <cc:Work
         rdf:about="">
        <dc:format>image/svg+xml</dc:format>
        <dc:type
           rdf:resource="http://purl.org/dc/dcmitype/StillImage" />
        <dc:title />
      </cc:Work>
    </rdf:RDF>
  </metadata>
  <g
     inkscape:label="Master"
     inkscape:groupmode="layer"
     id="layer1"
     transform="translate(0,-802.36225)">
    <g
       id="g3035">
      <path
         d="m 43.256865,822.24497 c -2.285172,3.86733 -4.863296,6.82631 -7.73438,8.87696 -0.468759,2.87122 -1.494149,5.15638 -3.076173,6.85548 l 1.582032,4.04297 c 1.406242,4.45324 2.929679,7.88097 4.570315,10.28321 l -1.845704,3.33984 c 0.05858,7.79307 -2.138681,14.17979 -6.591801,19.16017 l 0.263672,4.7461 c 0.468746,1.46492 0.791011,3.5157 0.966798,6.15234 -2.578129,4.98054 -3.486332,9.96101 -2.724611,14.94142 -1.757814,4.2774 -2.226564,8.14459 -1.406251,11.60157 -0.878907,2.2852 -1.933594,4.10161 -3.164065,5.44922 l 1.406251,2.10938 -1.230469,1.31836 -0.527344,3.42773 c 0.703127,1.69926 1.025393,3.51566 0.966797,5.44922 l -0.615235,1.31836 0.615235,13.00782 c 6.914062,8.5547 15.087886,12.86134 24.521499,12.91993 l 2.197267,3.42774 2.63672,-0.70312 c 2.695284,-0.58594 5.185517,-0.82032 7.470708,-0.70313 4.101526,-1.93359 8.144493,-3.04687 12.128913,-3.33985 0.410109,-0.8203 0.849562,-1.28905 1.31836,-1.40625 l 4.746097,0 c 2.695258,-2.40233 5.595648,-3.74999 8.701177,-4.04297 l 1.845704,-3.42773 c 2.285092,-0.58593 4.306575,-0.8203 6.064457,-0.70313 3.339772,-2.6953 6.913986,-4.04295 10.722666,-4.04297 l 1.23047,-2.72461 c 3.92569,-2.40232 7.49991,-4.01365 10.72266,-4.83399 2.69522,-4.98044 6.38662,-8.37888 11.07422,-10.19532 1.34756,-2.75387 2.8417,-4.80465 4.48243,-6.15235 l -0.26367,-5.44922 -2.19727,-2.02148 c -2.40245,1.17192 -4.62901,1.61137 -6.67969,1.31836 -7.85166,8.67192 -16.93369,13.68168 -27.246112,15.0293 -5.214913,5.50785 -11.22077,7.99808 -18.017589,7.47071 l -0.615234,2.72461 c -14.003954,4.57034 -25.195356,2.9883 -33.574239,-4.74609 -3.457049,-13.41794 -3.837909,-25.9277 -1.142579,-37.52932 2.109356,-0.29291 3.925761,-0.29291 5.449222,0 l 10.722663,-2.72461 4.130862,1.40625 2.724611,-0.70313 8.876958,0 2.109376,0.70313 4.042971,0 2.021486,0 2.109376,0 c 5.390562,0.93756 9.960873,1.37702 13.710948,1.31836 l 1.23047,-1.31836 c 2.75383,-0.99603 5.24406,-1.46478 7.4707,-1.40625 l 0.61524,-1.31837 1.31836,-0.70312 2.02149,0 c 2.40225,-2.69524 5.03897,-4.51165 7.91016,-5.44922 l -0.79102,-3.42774 -2.10938,-1.31836 c -4.98055,0.17586 -9.34579,-0.52726 -13.09571,-2.10938 -5.21492,-0.0585 -9.814525,-1.17179 -13.798833,-3.33984 -8.906312,1.87508 -16.699277,0.49813 -23.37892,-4.13086 -5.742227,-1.17179 -10.400428,-3.66202 -13.974618,-7.47071 l 3.691408,-7.5586 c 3.046843,-0.0585 5.537076,-0.49794 7.470708,-1.31836 2.285116,-0.93739 4.042928,-1.84559 5.273441,-2.72461 l 5.537112,0.70313 c 18.046818,-4.10146 35.097592,-3.89638 51.152372,0.61523 l 1.9336,-1.31836 c 7.3827,1.69933 13.76942,2.13878 19.16016,1.31836 2.34363,-2.05067 3.36902,-4.54091 3.07618,-7.47071 -4.57044,-4.04285 -9.02356,-6.76746 -13.35938,-8.17383 -4.74621,-0.0585 -8.67199,-1.20105 -11.77736,-3.42774 -4.21884,0.41029 -7.85165,0.17591 -10.89844,-0.70312 l -1.40625,-0.61524 c -4.80477,0.41029 -9.17001,-0.29284 -13.09571,-2.10937 -4.511792,0.0587 -8.64265,-0.61511 -12.392586,-2.02149 -4.277404,0.70326 -8.14459,0.26381 -11.60157,-1.31836 -8.554734,0.46888 -16.113325,-0.90807 -22.675794,-4.13086 l -2.109377,0 -8.261723,-2.72461 -0.615235,2.02148"
         style="font-size:180.00010681px;font-style:normal;font-variant:normal;font-weight:normal;font-stretch:normal;line-height:125%;letter-spacing:0px;word-spacing:0px;fill:#000000;fill-opacity:1;stroke:none;font-family:blzee;-inkscape-font-specification:blzee"
         id="path3011"
         inkscape:connector-curvature="0" />
      <path
         d="m 184.4093,836.21959 c -2.63677,3.69153 -5.77153,6.38684 -9.40431,8.08594 l -1.31836,4.39454 c -1.75785,6.44542 -2.78324,11.68956 -3.07617,15.73243 l -1.31836,1.23047 c -1.34769,4.80478 -3.42777,8.55478 -6.24024,11.25001 0.58591,5.27351 -0.67385,9.66804 -3.7793,13.1836 -0.35158,4.16022 -1.61135,7.50006 -3.7793,10.01953 0.0586,7.03131 -1.37697,13.09576 -4.30664,18.19337 0.23436,3.51567 -0.61525,6.24028 -2.54883,8.17384 0.0586,3.1055 -0.55665,5.80081 -1.8457,8.08594 -4.74611,2.63674 -7.26564,6.41604 -7.5586,11.3379 0.0586,6.32813 2.13867,11.3379 6.24024,15.0293 3.04686,0 5.56639,0.20508 7.55859,0.61524 0.64452,-0.46875 1.25975,-0.67383 1.84571,-0.61524 3.5742,-2.63672 7.14841,-4.30664 10.72266,-5.00977 0.52732,-0.70312 1.14255,-1.11327 1.8457,-1.23047 l 1.84571,-1.31836 c 2.05075,-2.57811 4.57028,-4.04296 7.5586,-4.39453 l 0,-1.8457 c 3.45699,-0.99608 6.1816,-2.666 8.17383,-5.00977 2.92964,0.52736 5.21479,1.78712 6.85547,3.7793 6.32807,0.9961 11.57221,3.28126 15.73243,6.85547 12.71477,8.08594 25.01945,8.93555 36.91409,2.54883 l 0,-1.9336 c -1.0548,-1.52343 -1.67003,-3.19335 -1.84571,-5.00976 -2.28526,-0.99609 -3.95518,-2.25585 -5.00976,-3.7793 -5.80088,0.1172 -10.19541,-1.96288 -13.18361,-6.24024 -4.27742,-1.23045 -5.53719,-3.31052 -3.7793,-6.24024 -4.57039,-1.93356 -7.50008,-5.27341 -8.78906,-10.01954 1.52336,-1.99214 2.78312,-3.45699 3.7793,-4.39453 2.0507,-0.99605 3.72062,-1.64058 5.00976,-1.9336 0.82023,-1.52339 2.08,-2.54878 3.7793,-3.07617 0.76164,-1.52339 1.61124,-2.78315 2.54883,-3.7793 l 1.84571,-1.8457 1.8457,-0.70313 2.54883,-1.23047 0.61524,-1.8457 1.93359,0 6.24024,-3.7793 c 2.22646,-2.34369 4.51161,-4.01361 6.85547,-5.00977 1.69911,-3.45696 2.7538,-6.59173 3.16407,-9.4043 -3.9259,-1.46477 -7.26574,-1.46477 -10.01954,0 -3.04698,2.92976 -6.18174,4.59968 -9.4043,5.00977 -1.8751,3.51569 -4.39463,5.80085 -7.5586,6.85547 l -4.39454,0.70313 c -0.99617,2.87115 -2.87117,4.74615 -5.625,5.625 -3.04695,0.99615 -5.53718,2.02154 -7.47071,3.07617 -3.92585,3.10552 -7.91022,5.00982 -11.95313,5.7129 -2.22662,2.57817 -4.51177,4.45317 -6.85547,5.625 -1.81646,3.92582 -4.74614,5.80082 -8.78907,5.625 -1.93363,2.75395 -4.24809,4.42387 -6.94336,5.00977 -0.82035,2.2266 -2.08011,3.89652 -3.7793,5.00977 -2.69534,1.75784 -4.16019,1.34768 -4.39454,-1.23047 0.35154,-7.96872 2.05076,-13.18356 5.09766,-15.64454 -0.2344,-5.39058 0.99607,-9.99019 3.69141,-13.79884 0.29294,-2.51947 0.29294,-4.83392 0,-6.94336 l 1.31836,-2.46094 1.23047,-1.93359 0.61524,-1.84571 0.61523,-1.8457 0.61524,-1.9336 c 3.51558,-4.33586 5.83003,-8.49601 6.94336,-12.48047 l 1.23047,-1.31836 5.625,-5.62501 c 1.81635,-3.80849 3.92573,-6.73818 6.32813,-8.78906 l 0,-1.84571 0,-1.93359 0.61524,-4.30665 c -7e-5,-2.6952 0.20501,-5.00965 0.61523,-6.94336 -4.45318,-4.68738 -9.46295,-6.76746 -15.0293,-6.24024"
         style="font-size:180.00010681px;font-style:normal;font-variant:normal;font-weight:normal;font-stretch:normal;line-height:125%;letter-spacing:0px;word-spacing:0px;fill:#000000;fill-opacity:1;stroke:none;font-family:blzee;-inkscape-font-specification:blzee"
         id="path3013"
         inkscape:connector-curvature="0" />
      <path
         d="m 264.21403,877.44032 c -11.54298,5.80086 -14.58985,13.09578 -9.14063,21.88478 l 2.10938,0.70312 c 0.93749,7.50006 2.63671,13.30084 5.09766,17.40236 2.51951,4.1016 4.59959,7.73441 6.24024,10.89844 3.63279,3.04691 6.15232,5.41995 7.55859,7.11915 1.40623,1.69924 5.4199,4.74611 12.04103,9.14063 l 12.74415,0.70312 0,2.10938 c -2.98834,3.51564 -4.39459,7.29493 -4.21876,11.3379 -2.81254,3.39843 -3.98442,6.94335 -3.51562,10.63477 -8.20317,18.69139 -10.81059,37.32423 -7.82227,55.89843 1.58199,1.1133 2.78316,2.5488 3.60351,4.3067 2.57809,1.6991 4.68746,3.3398 6.32813,4.9219 3.74995,-10e-5 7.0605,-0.7032 9.93165,-2.1094 l 0,-5.0098 c -5.27349,-10.254 -6.21099,-20.3907 -2.8125,-30.41016 -0.29303,-7.96878 1.58197,-14.79495 5.625,-20.47853 -0.23443,-8.84767 2.13861,-15.93751 7.11914,-21.26954 2.16791,-10.60546 7.35345,-18.39843 15.55665,-23.37892 3.9257,-5.62497 8.17375,-9.63864 12.74415,-12.04102 l 1.40625,-4.21876 2.10938,-1.40625 11.3379,-11.3379 c 1.69911,-7.44134 1.23036,-14.03313 -1.40625,-19.7754 -7.03136,-4.68742 -13.88682,-4.92179 -20.56642,-0.70312 l 0,3.51562 -4.21875,1.40626 c -1.69931,3.69147 -2.63681,7.23639 -2.81251,10.63477 l -2.90039,1.40625 c -0.93758,3.51568 -3.04695,6.09381 -6.32813,7.73438 -1.11335,2.81255 -2.5196,5.1856 -4.21875,7.11914 -0.6446,4.62895 -2.78327,7.9395 -6.41602,9.93165 -0.93756,2.81253 -2.34381,5.15628 -4.21875,7.03125 -13.00787,-3.63278 -21.70903,-18.92574 -26.10353,-45.87893 -3.98441,-1.64055 -7.03128,-4.0136 -9.14063,-7.11915 -2.28518,9e-5 -4.18948,-0.23429 -5.7129,-0.70312"
         style="font-size:180.00010681px;font-style:normal;font-variant:normal;font-weight:normal;font-stretch:normal;line-height:125%;letter-spacing:0px;word-spacing:0px;fill:#000000;fill-opacity:1;stroke:none;font-family:blzee;-inkscape-font-specification:blzee"
         id="path3015"
         inkscape:connector-curvature="0" />
      <path
         d="m 382.86646,833.58287 c -0.99612,3.69153 -2.66604,6.53333 -5.00977,8.5254 l 0,15.0293 c -0.35158,0.82042 -0.82033,1.28917 -1.40625,1.40625 -0.35158,5.39073 -1.31838,9.66807 -2.9004,12.83204 l 0.70313,2.19727 0,10.63477 c -0.46876,5.62508 -0.70314,10.40046 -0.70313,14.32618 l -2.8125,3.51563 0,4.30664 -0.70312,1.40625 0,2.19727 c -0.46876,2.22661 -0.70314,4.13091 -0.70313,5.71289 -2.8125,5.97661 -4.01368,13.33012 -3.60352,22.06056 -0.11719,5.62502 -0.11719,10.40041 0,14.32618 3.04687,2.16798 4.95117,4.7754 5.7129,7.82227 l 2.10937,0 c 1.93359,0.64454 3.83788,0.87891 5.7129,0.70313 l 2.10937,-2.8125 0.79102,-4.30664 c -1.52346,-10.72265 -0.35158,-20.47851 3.51563,-29.2676 l 0,-2.10938 -0.70313,-2.19726 0.70313,-1.40625 c 2.05075,-5.80074 3.25193,-10.78121 3.60352,-14.94142 l 1.40625,-0.79102 c -0.41019,-4.68744 -0.17581,-8.7304 0.70312,-12.12891 l 0.70313,-4.21875 2.8125,-2.19727 0.79102,-2.10937 0,-3.60352 0,-2.10938 c 3.45699,-8.26163 5.09762,-16.34756 4.92187,-24.25783 2.57809,-1.99207 4.01363,-4.36512 4.30665,-7.11914 -1.23052,-1.81629 -1.69927,-3.72059 -1.40625,-5.71289 -2.92973,-2.28504 -4.1309,-5.12683 -3.60352,-8.5254 -2.75395,-1.5819 -5.36137,-2.31432 -7.82227,-2.19727 l -9.22852,5.00977"
         style="font-size:180.00010681px;font-style:normal;font-variant:normal;font-weight:normal;font-stretch:normal;line-height:125%;letter-spacing:0px;word-spacing:0px;fill:#000000;fill-opacity:1;stroke:none;font-family:blzee;-inkscape-font-specification:blzee"
         id="path3017"
         inkscape:connector-curvature="0" />
      <path
         d="m 416.52859,838.59264 c 0.0586,3.51575 -0.52736,6.59192 -1.75781,9.22852 0.64452,0.41027 1.02537,0.82043 1.14258,1.23047 0.46873,0.35167 0.67381,0.73253 0.61523,1.14258 1.17186,3.16417 2.31444,5.6837 3.42774,7.5586 3.28123,0.35166 6.00584,1.49424 8.17383,3.42773 2.28513,-0.82021 4.59958,-0.99599 6.94337,-0.52734 4.10152,4.45322 7.96871,5.5958 11.60157,3.42774 0.82026,-2.22647 0.99604,-4.54092 0.52734,-6.94337 l -4.04297,-1.75781 -1.14258,-1.66992 c -1.87504,-5.33193 -4.39457,-9.60927 -7.5586,-12.83204 -0.11722,-2.10926 -0.70316,-3.83777 -1.75781,-5.18555 -3.22269,-1.05456 -5.918,-1.6405 -8.08594,-1.75782 l -8.08595,4.65821 m 2.63672,58.18363 c -1.34767,2.28522 -2.69533,4.04303 -4.04297,5.27344 l 0,2.28516 c -1.93361,6.91411 -3.77931,15.93755 -5.53711,27.07033 -1.58204,1.23049 -2.75392,2.60745 -3.51563,4.13086 -1.75782,23.49611 3.6621,31.0254 16.25978,22.5879 l 0.52734,-1.75781 c -1.52346,-3.63281 -2.28518,-6.91406 -2.28516,-9.84376 0.8203,-2.87108 1.78709,-5.18553 2.9004,-6.94336 0.52732,-2.51951 1.49411,-4.65818 2.90039,-6.41602 3.28122,-12.30466 6.67966,-20.36129 10.19532,-24.16994 -0.64457,-8.90619 -5.30277,-13.94525 -13.97462,-15.11719 l -3.42774,2.90039"
         style="font-size:180.00010681px;font-style:normal;font-variant:normal;font-weight:normal;font-stretch:normal;line-height:125%;letter-spacing:0px;word-spacing:0px;fill:#000000;fill-opacity:1;stroke:none;font-family:blzee;-inkscape-font-specification:blzee"
         id="path3019"
         inkscape:connector-curvature="0" />
      <path
         d="m 468.82352,828.66099 c -1.93361,1.46498 -3.86721,2.31459 -5.80079,2.54883 -0.87892,2.98841 -2.28517,5.36146 -4.21875,7.11915 -1.17188,6.91418 -0.20509,12.77355 2.90039,17.57813 l 0,9.40431 c -0.23438,1.46493 -0.32227,3.36923 -0.26367,5.71289 l 0.26367,0.70313 0.35156,0.70312 0,4.30664 0.35157,2.19727 0.96679,2.10938 c -0.29298,3.63289 -1.14259,6.76765 -2.54883,9.4043 0.58593,2.63679 0.79101,5.00983 0.61524,7.11914 l -1.9336,1.49415 -0.35156,1.75781 -1.58203,7.91016 c 2.6953,2.51958 4.39452,5.50786 5.09766,8.96485 l 1.31836,1.49414 c 3.51561,0.82035 6.62108,0.82035 9.31641,0 0.7617,-0.87886 1.52342,-1.4941 2.28516,-1.8457 0.99607,-3.16402 2.78318,-4.95113 5.36133,-5.36133 l 1.05469,-2.54883 0.96679,-0.70313 0.26368,-1.05469 c 0.76168,-0.93744 1.17184,-1.90424 1.23047,-2.90039 l 0.79101,-0.70313 0.26367,-0.70312 c 1.87497,-1.81635 3.25192,-3.63275 4.13087,-5.44922 2.98824,-0.4101 4.77535,0.41022 5.36133,2.46094 l 0.96679,0.35156 c 5.03902,-0.3515 9.34566,0.23443 12.91993,1.75781 4.45307,-0.4101 8.08588,0.79108 10.89845,3.60352 2.05071,5e-5 3.63274,0.84966 4.7461,2.54883 1.64055,-0.11714 3.72062,1.61138 6.24023,5.18555 5.62492,2.3438 9.66789,6.18168 12.12892,11.51368 l 0,1.40625 -0.26368,2.19727 c 3.04679,3.80862 2.07999,8.49612 -2.90039,14.0625 -2.92977,0.93752 -5.30282,2.25588 -7.11914,3.95508 -1.93368,-0.64451 -3.63289,-0.87889 -5.09766,-0.70312 -1.58211,0.35158 -2.95906,0.35158 -4.13086,0 l -0.9668,0.35156 -1.05469,0.35156 c -4.51179,2e-5 -8.23249,0.46877 -11.16212,1.40626 -3.3399,-1.23046 -6.44536,-1.58202 -9.31641,-1.05469 -0.70317,-0.58593 -1.25981,-1.28905 -1.66992,-2.10938 l -0.61523,-0.43945 c -1.99224,-3.28123 -3.69146,-5.24412 -5.09766,-5.88868 l -0.61524,-0.70312 c -0.0586,-3.10545 -0.82035,-5.62498 -2.28516,-7.5586 -1.64066,-0.29294 -3.1348,-0.29294 -4.48242,0 -5.68363,9.96096 -6.65042,16.66994 -2.90039,20.12696 1.5234,3.98439 4.10153,6.26954 7.73438,6.85548 l 1.66992,1.75781 c 3.57418,0.35156 6.53316,1.66992 8.87696,3.95508 l 1.58203,0 c 0.76167,-1.11328 1.64057,-1.96289 2.63672,-2.54883 l 2.54883,0.79102 c 1.58197,-0.11719 2.87104,0.11718 3.86719,0.70312 2.16791,-0.23437 3.98431,-0.61523 5.44922,-1.14258 l 3.51563,0.79102 1.31836,-0.35156 1.58203,0 1.23047,0 1.66992,0 0.9668,-0.43946 0.87891,0 4.57031,0 c 2.46086,-0.76171 4.71672,-0.99609 6.76758,-0.70312 3.63273,-3.04688 7.38273,-4.83398 11.25001,-5.36133 0.70303,-1.11328 1.31826,-1.96289 1.84571,-2.54883 11.71864,-1.75781 16.23036,-11.80663 13.53516,-30.1465 -3.39855,-3.33981 -5.00988,-7.29489 -4.83399,-11.86525 -3.04698,-1.99213 -5.27354,-4.48237 -6.67969,-7.4707 -1.69932,-0.99604 -2.98838,-2.19721 -3.86719,-3.60352 l -1.05469,0 c -1.23056,-0.3515 -2.40244,-0.46869 -3.51562,-0.35156 -1.64072,-2.34369 -2.8126,-4.62885 -3.51563,-6.85548 -1.87509,-1.05462 -3.36923,-2.25579 -4.48243,-3.60351 l -0.61523,-0.35157 c -4.16024,-1.75774 -7.50008,-4.0136 -10.01954,-6.76758 l -0.8789,0 c -0.93758,0.35164 -1.81649,0.46883 -2.63672,0.35156 l -0.61524,-1.14258 c -3.75007,-0.82023 -6.82624,-2.25577 -9.22852,-4.30664 -1.46491,0.41024 -2.66608,0.67391 -3.60352,0.79102 -3.04693,-2.0507 -6.03521,-2.78312 -8.96485,-2.19727 -1.46489,-0.87882 -2.66606,-1.84562 -3.60351,-2.90039 l -0.87891,0 -1.31836,0 -0.9668,0.70312 c -1.23051,9e-5 -2.3145,-0.1171 -3.25195,-0.35156 l -0.9668,0 c -1.99223,0.70321 -3.77934,0.96689 -5.36133,0.79102 -1.58207,1.46493 -3.22269,2.28524 -4.92188,2.46094 -0.76175,1.11336 -1.58206,1.84578 -2.46094,2.19726 -0.99612,-3.8671 -0.90823,-7.35343 0.26367,-10.45899 -1.58206,-5.85928 -1.1426,-10.98623 1.31836,-15.38087 -0.11721,-2.81239 0.17575,-5.21473 0.87891,-7.20703 l 0,-1.05469 c 0.0586,-2.81238 -0.0293,-5.21472 -0.26367,-7.20704 -0.23441,-0.23425 -0.35159,-0.46862 -0.35157,-0.70312 l -0.61523,-0.70313 -0.35156,-0.79101 c -0.58597,-1.75769 -1.2305,-3.19323 -1.9336,-4.30665 l -0.9668,0 c -1.23049,-0.35143 -2.40236,-0.5858 -3.51562,-0.70312 -1.64065,-0.0585 -3.0176,-0.29284 -4.13086,-0.70313"
         style="font-size:180.00010681px;font-style:normal;font-variant:normal;font-weight:normal;font-stretch:normal;line-height:125%;letter-spacing:0px;word-spacing:0px;fill:#000000;fill-opacity:1;stroke:none;font-family:blzee;-inkscape-font-specification:blzee"
         id="path3021"
         inkscape:connector-curvature="0" />
      <path
         d="m 619.02867,873.8368 c -1.69926,2.28524 -3.98442,2.87118 -6.85547,1.75782 -1.81645,4.04305 -4.65824,6.50398 -8.52539,7.38281 -1.05473,2.22664 -1.81644,4.33602 -2.28516,6.32813 -3.92581,-2.22649 -7.73441,-2.98821 -11.42579,-2.28516 l -7.99805,10.19532 -0.61524,2.28516 -0.52734,4.57031 -1.14258,5.18555 -1.14258,0.61524 c -0.41016,2.92974 -1.17188,5.39067 -2.28516,7.38282 -0.0586,4.16019 -0.82032,7.79301 -2.28515,10.89844 0.52734,1.40628 0.70312,2.92972 0.52734,4.57032 -4.6875,7.32424 -6.38672,14.73635 -5.09766,22.23634 2.8125,2.98828 5.85937,4.89258 9.14063,5.71289 l 2.28516,-0.52734 c 1.23046,-1.46485 1.99217,-2.98828 2.28516,-4.57032 l 5.09766,-2.90039 c 1.6406,-2.34374 3.36912,-4.07226 5.18555,-5.18555 -1.69925,-10.72264 0.38083,-20.03904 6.24023,-27.94924 1.17185,-6.62105 4.04294,-11.95308 8.61329,-15.9961 6.09371,-12.71478 16.75777,-14.61908 31.99221,-5.71289 4.74602,-2.2265 6.65031,-5.27338 5.71289,-9.14063 l -1.14258,-1.66993 -0.61523,-0.61523 c -2.6368,-2.28508 -4.54109,-4.36516 -5.7129,-6.24024 l 0,-0.61523 0,0.61523 0,-0.61523 c -3.10553,-0.87883 -5.77155,-2.19719 -7.99805,-3.95508 l -1.14258,-0.61524 c -3.92584,0.52743 -7.35357,0.14657 -10.28321,-1.14258"
         style="font-size:180.00010681px;font-style:normal;font-variant:normal;font-weight:normal;font-stretch:normal;line-height:125%;letter-spacing:0px;word-spacing:0px;fill:#000000;fill-opacity:1;stroke:none;font-family:blzee;-inkscape-font-specification:blzee"
         id="path3023"
         inkscape:connector-curvature="0" />
      <path
         d="m 698.65764,871.90321 c -0.35161,0.46884 -0.70317,0.67391 -1.05469,0.61523 -8.67192,0.64462 -16.20121,2.84189 -22.5879,6.5918 l -1.66992,3.33985 -4.39454,1.05469 c -2.81252,1.99226 -5.39064,3.28132 -7.73438,3.86719 -0.23439,0.70319 -0.61524,1.08405 -1.14257,1.14257 -0.70314,1.87508 -1.43556,3.33992 -2.19727,4.39454 -5.27345,6.15241 -8.37892,12.39264 -9.31641,18.72071 -0.29297,1.28911 -0.84961,2.40239 -1.66993,3.33985 l 0,2.19727 1.14258,2.72461 -1.14258,3.86719 c 0.58594,2.10941 0.9668,3.95511 1.14258,5.53711 l 1.05469,8.78907 0.52734,1.66992 1.66993,1.05469 1.14258,3.86719 c 2.34374,2.28517 3.98436,4.48243 4.92187,6.5918 l 1.66993,0.61523 1.05469,1.58204 2.8125,0.61523 1.66992,0.52734 1.05469,1.14258 1.66992,0 1.14258,0.52735 10.45899,4.39453 2.19727,-0.52734 c 1.69918,-0.35157 3.16402,-0.35157 4.39453,0 l 1.66992,-0.61524 3.25196,0 4.48242,-0.52734 c 4.16011,-0.82031 7.82222,-1.17188 10.98634,-1.05469 l 1.14258,-2.19727 1.58203,0 c 2.10931,-1.05468 4.33587,-1.61132 6.67969,-1.66992 1.87493,-2.16796 4.24798,-3.10546 7.11915,-2.8125 0.93742,-1.69921 2.22648,-2.78319 3.86719,-3.25196 l -0.52735,-5.00977 c -4.10164,0.41018 -7.58797,0.2344 -10.45899,-0.52734 -2.81257,0.99611 -5.39069,1.17189 -7.73438,0.52734 -12.30474,2.63674 -23.877,2.1094 -34.71682,-1.58203 -0.99612,-1.87498 -2.28518,-3.16404 -3.86719,-3.86719 2.22654,-3.04685 4.59959,-5.27341 7.11915,-6.67969 l 2.19727,-2.19727 2.8125,-1.66992 2.72461,-1.05469 c 4.39449,-4.92184 8.9941,-8.40816 13.79883,-10.45899 l 0.52735,-1.66992 1.66992,-0.52734 c 3.04682,-3.57417 6.35737,-6.1523 9.93165,-7.73438 1.11322,-3.16401 3.1347,-5.18549 6.06445,-6.06446 l 1.05469,-6.5918 c 4.21868,-5.33196 4.21868,-10.48821 0,-15.46876 -2.75397,-1.93351 -5.50788,-3.01749 -8.26172,-3.25196 l -1.05469,-0.61523 c -3.57428,0.0587 -6.53326,-0.49796 -8.87696,-1.66992 m 1.14258,18.8086 c -1.23052,5.91804 -4.54107,9.75593 -9.93165,11.51368 -3.80863,5.62506 -8.7598,7.64654 -14.85352,6.06446 -1.64065,2.22661 -3.66214,3.16411 -6.06446,2.8125 0.52733,-4.92182 2.90037,-8.40815 7.11915,-10.45899 3.63278,-5.21478 8.40817,-7.79291 14.32618,-7.73438 1.34761,-1.58196 2.84175,-2.69525 4.48242,-3.33985 l 4.92188,1.14258"
         style="font-size:180.00010681px;font-style:normal;font-variant:normal;font-weight:normal;font-stretch:normal;line-height:125%;letter-spacing:0px;word-spacing:0px;fill:#000000;fill-opacity:1;stroke:none;font-family:blzee;-inkscape-font-specification:blzee"
         id="path3025"
         inkscape:connector-curvature="0" />
    </g>
  </g>
</svg>
