<?xml version="1.0" encoding="UTF-8" standalone="no"?>
<!-- Created with Inkscape (http://www.inkscape.org/) -->

<svg
   xmlns:dc="http://purl.org/dc/elements/1.1/"
   xmlns:cc="http://creativecommons.org/ns#"
   xmlns:rdf="http://www.w3.org/1999/02/22-rdf-syntax-ns#"
   xmlns:svg="http://www.w3.org/2000/svg"
   xmlns="http://www.w3.org/2000/svg"
   xmlns:xlink="http://www.w3.org/1999/xlink"
   xmlns:sodipodi="http://sodipodi.sourceforge.net/DTD/sodipodi-0.dtd"
   xmlns:inkscape="http://www.inkscape.org/namespaces/inkscape"
   width="1023.9999"
   height="200"
   id="erp-logo"
   sodipodi:version="0.32"
   inkscape:version="0.48.4 r9939"
   version="1.0"
   sodipodi:docname="logo.svg"
   inkscape:output_extension="org.inkscape.output.svg.inkscape"
   inkscape:export-filename="logo.png"
   inkscape:export-xdpi="90"
   inkscape:export-ydpi="90">
  <sodipodi:namedview
     id="base"
     pagecolor="#ffffff"
     bordercolor="#666666"
     borderopacity="1.0"
     inkscape:pageopacity="0.0"
     inkscape:pageshadow="2"
     inkscape:zoom="0.5"
     inkscape:cx="64.171269"
     inkscape:cy="-94.242816"
     inkscape:document-units="px"
     inkscape:current-layer="layer1"
     showgrid="false"
     inkscape:window-width="1920"
     inkscape:window-height="1027"
     inkscape:window-x="0"
     inkscape:window-y="31"
     inkscape:window-maximized="1"
     fit-margin-top="0"
     fit-margin-left="0"
     fit-margin-right="0"
     fit-margin-bottom="0"
     showguides="true"
     inkscape:guide-bbox="true"
     borderlayer="true"
     inkscape:showpageshadow="false">
    <sodipodi:guide
       orientation="1,0"
       position="1024,1.7700199e-06"
       id="guide3133" />
  </sodipodi:namedview>
  <metadata
     id="metadata2553">
    <rdf:RDF>
      <cc:Work
         rdf:about="">
        <dc:format>image/svg+xml</dc:format>
        <dc:type
           rdf:resource="http://purl.org/dc/dcmitype/StillImage" />
        <dc:title></dc:title>
      </cc:Work>
    </rdf:RDF>
  </metadata>
  <g
     inkscape:label="Master"
     inkscape:groupmode="layer"
     id="layer1"
     transform="translate(-964.66001,540.15198)">
    <g
       id="g3167">
      <text
         transform="scale(0.99997531,1.0000247)"
         sodipodi:linespacing="125%"
         id="text4307"
         y="-404.10001"
         x="1697.5685"
         style="font-size:143.9964447px;font-style:normal;font-variant:normal;font-weight:bold;font-stretch:normal;text-align:start;line-height:125%;letter-spacing:0px;word-spacing:0px;writing-mode:lr-tb;text-anchor:start;fill:#476ba8;fill-opacity:1;stroke:none;font-family:Montserrat;-inkscape-font-specification:Montserrat Bold"
         xml:space="preserve"><tspan
           y="-404.10001"
           x="1697.5685"
           id="tspan4309"
           sodipodi:role="line">ERP</tspan></text>
      <g
         inkscape:label="Master"
         id="master"
         transform="translate(120.73147,-844.44272)">
        <g
           id="g3005">
          <rect
             y="308.2908"
             x="847.92847"
             height="152"
             width="152"
             id="rect2547-9"
             style="fill:#ffffff;fill-opacity:1;fill-rule:nonzero;stroke:none" />
          <path
             inkscape:connector-curvature="0"
             sodipodi:nodetypes="cccccccccccccccccccccccccccc"
             id="path2544-3"
             d="m 843.92854,304.29074 0,160.00012 160.00016,0 0,-160.00012 -160.00016,0 z m 10,10.00001 140.00011,0 0,140.00011 -140.00011,0 0,-140.00011 z m 20.00002,20.00002 0,20.00001 0,20.00002 0,20.00001 0,20.00002 0,20.00001 100.00007,0 0,-20.00001 -80.00006,0 0,-20.00002 80.00006,0 0,-20.00001 -80.00006,0 0,-20.00002 80.00006,0 0,-20.00001 -80.00006,0 -20.00001,0 z"
             style="fill:#476ba8;fill-opacity:1;fill-rule:nonzero;stroke:none" />
          <path
             inkscape:connector-curvature="0"
             style="font-size:40.26265717px;font-style:normal;font-weight:normal;line-height:100%;fill:#000000;fill-opacity:1;stroke:none"
             d="m 1058.0796,335.79857 c -2.2852,3.13695 -5.0018,5.4273 -8.1501,6.87115 l -1.1425,3.73425 c -1.5235,5.47716 -2.4121,9.93336 -2.6659,13.36886 l -1.1427,1.04566 c -1.1679,4.08295 -2.9705,7.2695 -5.4079,9.5598 0.5077,4.48126 -0.584,8.21556 -3.2753,11.20296 -0.3045,3.53515 -1.3964,6.37321 -3.2753,8.51426 0.051,5.9749 -1.1933,11.12831 -3.7322,15.46006 0.203,2.98745 -0.5332,5.3027 -2.209,6.94581 0.051,2.6389 -0.4825,4.9293 -1.5995,6.87105 -4.1132,2.24065 -6.2966,5.45215 -6.5505,9.63456 0.05,5.37745 1.8534,9.63455 5.4079,12.77136 2.6406,0 4.8241,0.1745 6.5506,0.52275 0.5585,-0.3985 1.0917,-0.57255 1.5995,-0.52275 3.0976,-2.24055 6.1951,-3.65966 9.2927,-4.25711 0.457,-0.5975 0.9902,-0.9461 1.5995,-1.04565 l 1.5995,-1.12025 c 1.7773,-2.1908 3.9609,-3.4356 6.5506,-3.73435 l 0,-1.5684 c 2.996,-0.84635 5.3572,-2.2654 7.0837,-4.25705 2.539,0.448 4.5195,1.51855 5.9413,3.21145 5.4841,0.84645 10.0289,2.78835 13.6343,5.82555 11.019,6.87116 21.6827,7.59306 31.991,2.1659 l 0,-1.6431 c -0.9141,-1.2945 -1.4473,-2.7136 -1.5995,-4.2571 -1.9805,-0.8465 -3.4277,-1.91695 -4.3417,-3.21145 -5.0272,0.0995 -8.8357,-1.66805 -11.4254,-5.30286 -3.707,-1.0455 -4.7987,-2.8131 -3.2752,-5.3027 -3.9609,-1.64305 -6.4999,-4.48105 -7.617,-8.51416 1.3203,-1.6929 2.412,-2.93765 3.2753,-3.73435 1.7772,-0.8464 3.2245,-1.39415 4.3417,-1.6431 0.7108,-1.29455 1.8026,-2.1658 3.2752,-2.61405 0.6601,-1.29445 1.3964,-2.36501 2.209,-3.21146 l 1.5995,-1.56845 1.5995,-0.5975 2.2089,-1.0456 0.5333,-1.5684 1.6757,0 5.4079,-3.2115 c 1.9296,-1.99155 3.91,-3.4106 5.9413,-4.25716 1.4725,-2.93755 2.3864,-5.60135 2.742,-7.99135 -3.4022,-1.24475 -6.2967,-1.24475 -8.6833,0 -2.6406,2.48955 -5.3573,3.90865 -8.1501,4.2571 -1.6249,2.9875 -3.8085,4.92936 -6.5505,5.82551 l -3.8084,0.5975 c -0.8634,2.4398 -2.4883,4.0331 -4.8749,4.7799 -2.6405,0.8465 -4.7987,1.71785 -6.4743,2.614 -3.4023,2.639 -6.8553,4.25716 -10.3591,4.85466 -1.9296,2.19085 -3.91,3.7841 -5.9411,4.7799 -1.5742,3.33595 -4.1133,4.9293 -7.617,4.77995 -1.6757,2.34015 -3.6815,3.75921 -6.0173,4.25706 -0.711,1.8921 -1.8027,3.31115 -3.2754,4.25715 -2.3358,1.49375 -3.6053,1.1452 -3.8084,-1.04565 0.3045,-6.77146 1.7773,-11.20286 4.4178,-13.29411 -0.203,-4.5807 0.8633,-8.48926 3.1992,-11.72571 0.254,-2.14095 0.254,-4.1077 0,-5.9002 l 1.1425,-2.09121 1.0663,-1.64315 0.5332,-1.5684 0.5332,-1.56845 0.5332,-1.6431 c 3.0467,-3.6844 5.0525,-7.21956 6.0173,-10.60541 l 1.0664,-1.1203 4.8749,-4.77995 c 1.5741,-3.23631 3.4022,-5.72576 5.4842,-7.46861 l 0,-1.56835 0,-1.6431 0.5332,-3.6597 c -10e-5,-2.29026 0.1775,-4.25701 0.5331,-5.90016 -3.8592,-3.98315 -8.2009,-5.7508 -13.0249,-5.30275 m 78.4335,35.02787 c -10.0035,4.92931 -12.6441,11.12826 -7.9215,18.59682 l 1.828,0.5975 c 0.8125,6.3733 2.2851,11.30256 4.4178,14.78791 2.1835,3.48535 3.9862,6.57245 5.4081,9.26106 3.1482,2.5892 5.3318,4.6057 6.5505,6.0496 1.2187,1.444 4.6971,4.0331 10.4352,7.76746 l 11.0445,0.5974 0,1.79245 c -2.5898,2.98745 -3.8085,6.19895 -3.6561,9.63456 -2.4375,2.88785 -3.453,5.9002 -3.0468,9.03705 -7.1092,15.88326 -9.3688,31.71673 -6.779,47.50044 1.3709,0.94595 2.4119,2.1658 3.1229,3.6596 2.2343,1.44385 4.0623,2.83805 5.4842,4.18245 3.2498,-1e-4 6.1188,-0.5976 8.6071,-1.7925 l 0,-4.2571 c -4.5702,-8.71346 -5.3827,-17.32726 -2.4374,-25.84142 -0.254,-6.7716 1.3709,-12.57221 4.8748,-17.40186 -0.203,-7.51846 1.8534,-13.54316 6.1697,-18.07412 1.8788,-9.01215 6.3728,-15.63431 13.482,-19.86656 3.4021,-4.77991 7.0837,-8.19051 11.0445,-10.23201 l 1.2187,-3.5849 1.8281,-1.195 9.8258,-9.63451 c 1.4725,-6.32341 1.0662,-11.92491 -1.2187,-16.80441 -6.0937,-3.98316 -12.0348,-4.18241 -17.8236,-0.5975 l 0,2.98745 -3.6561,1.195 c -1.4727,3.13685 -2.2852,6.14915 -2.4374,9.03706 l -2.5136,1.1949 c -0.8126,2.98755 -2.6407,5.1783 -5.4842,6.5724 -0.9649,2.39005 -2.1836,4.40656 -3.6561,6.04961 -0.5587,3.9335 -2.4122,6.7467 -5.5604,8.43955 -0.8125,2.39001 -2.0312,4.38161 -3.6561,5.97491 -11.2731,-3.087 -18.8138,-16.08241 -22.6222,-38.98623 -3.4531,-1.3941 -6.0936,-3.4106 -7.9216,-6.04961 -1.9804,5e-5 -3.6308,-0.199 -4.9511,-0.59745 m 106.1668,-37.26847 c -0.8632,3.13695 -2.3105,5.5518 -4.3416,7.24455 l 0,12.77136 c -0.3045,0.69725 -0.711,1.0955 -1.2188,1.195 -0.3045,4.58085 -1.1425,8.21556 -2.5136,10.90416 l 0.6094,1.8672 0,9.03706 c -0.4065,4.7799 -0.6094,8.8379 -0.6094,12.17381 l -2.4373,2.98745 0,3.6596 -0.6094,1.19505 0,1.8671 c -0.406,1.89216 -0.6094,3.51026 -0.6094,4.85461 -2.4374,5.07875 -3.4784,11.32741 -3.1229,18.74631 -0.1015,4.77991 -0.1015,8.83781 0,12.17381 2.6405,1.84225 4.2909,4.05795 4.951,6.64701 l 1.828,0 c 1.6758,0.54775 3.3261,0.7469 4.951,0.5976 l 1.8282,-2.39 0.6854,-3.65961 c -1.3203,-9.11175 -0.3045,-17.40191 3.0468,-24.87057 l 0,-1.7924 -0.6093,-1.86715 0.6093,-1.19505 c 1.7773,-4.9292 2.8182,-9.16146 3.1229,-12.69666 l 1.2187,-0.67215 c -0.3555,-3.9832 -0.1525,-7.41871 0.6094,-10.30676 l 0.6094,-3.58485 2.4374,-1.86715 0.6855,-1.7925 0,-3.06216 0,-1.7924 c 2.9959,-7.02045 4.4178,-13.89161 4.2655,-20.61346 2.2343,-1.6928 3.4784,-3.70926 3.7323,-6.04956 -1.0664,-1.54345 -1.4727,-3.16165 -1.2187,-4.8546 -2.539,-1.94175 -3.58,-4.35665 -3.123,-7.24461 -2.3866,-1.3442 -4.6464,-1.9666 -6.779,-1.8671 l -7.9978,4.25706 m 29.4775,4.25715 c 0.051,2.98755 -0.457,5.60155 -1.5234,7.84205 0.5586,0.3485 0.8886,0.69715 0.9902,1.04561 0.4065,0.299 0.584,0.62245 0.5332,0.9709 1.0156,2.6888 2.0058,4.8298 2.9706,6.423 2.8436,0.299 5.2049,1.26975 7.0837,2.91275 1.9804,-0.6969 3.9862,-0.8463 6.0174,-0.448 3.5545,3.78421 6.9059,4.75506 10.0543,2.9128 0.7109,-1.89195 0.8632,-3.85865 0.457,-5.90025 l -3.5038,-1.4937 -0.9902,-1.419 c -1.6249,-4.53091 -3.8084,-8.16561 -6.5505,-10.90421 -0.1015,-1.79235 -0.6094,-3.2612 -1.5234,-4.4065 -2.7929,-0.89615 -5.1287,-1.394 -7.0076,-1.4937 l -7.0075,3.95835 m 2.2851,49.44229 c -1.168,1.94185 -2.3359,3.4356 -3.5038,4.48115 l 0,1.94185 c -1.6757,5.87536 -3.2753,13.54316 -4.7987,23.00337 -1.371,1.0456 -2.3866,2.21575 -3.0468,3.5103 -1.5233,19.96607 3.1738,26.36417 14.0913,19.19432 l 0.457,-1.49376 c -1.3203,-3.087 -1.9804,-5.8753 -1.9804,-8.3648 0.711,-2.4398 1.5487,-4.40651 2.5136,-5.90026 0.457,-2.141 1.2949,-3.95835 2.5136,-5.4521 2.8436,-10.45601 5.7888,-17.30226 8.8356,-20.53872 -0.5586,-7.56815 -4.5956,-11.85011 -12.1109,-12.84601 l -2.9706,2.46466 m 38.4654,-57.8819 c -1.6757,1.24495 -3.3514,1.9669 -5.0271,2.16595 -0.7618,2.53941 -1.9804,4.55596 -3.6562,6.04961 -1.0156,5.87535 -0.1775,10.85451 2.5136,14.93726 l 0,7.99141 c -0.203,1.2448 -0.2795,2.863 -0.2285,4.8546 l 0.2285,0.5975 0.3045,0.5975 0,3.6596 0.3045,1.86715 0.8379,1.79246 c -0.254,3.0871 -0.9902,5.7509 -2.2089,7.99145 0.5078,2.24065 0.6855,4.25716 0.5332,6.04956 l -1.6758,1.2697 -0.3045,1.4937 -1.371,6.72175 c 2.3358,2.14106 3.8084,4.68036 4.4178,7.61801 l 1.1425,1.26965 c 3.0467,0.6971 5.7381,0.6971 8.0739,0 0.6602,-0.74675 1.3203,-1.26965 1.9804,-1.56845 0.8632,-2.6886 2.4121,-4.2072 4.6463,-4.5558 l 0.9141,-2.16596 0.8379,-0.59745 0.2285,-0.8962 c 0.6601,-0.7966 1.0155,-1.6182 1.0663,-2.4647 l 0.6855,-0.59745 0.2285,-0.59745 c 1.6249,-1.5435 2.8182,-3.087 3.58,-4.63055 2.5897,-0.3485 4.1384,0.3485 4.6462,2.0912 l 0.8379,0.2985 c 4.367,-0.2985 8.0993,0.1995 11.1969,1.49375 3.8592,-0.3485 7.0075,0.67225 9.4449,3.06215 1.7773,5e-5 3.1483,0.722 4.1132,2.16585 1.4217,-0.0995 3.2244,1.36935 5.408,4.40651 4.8747,1.99165 8.3785,5.25295 10.5113,9.7839 l 0,1.19501 -0.2285,1.86715 c 2.6405,3.2364 1.8026,7.21965 -2.5136,11.94981 -2.539,0.79665 -4.5956,1.91695 -6.1697,3.3608 -1.6757,-0.54765 -3.1483,-0.7468 -4.4178,-0.59745 -1.3711,0.299 -2.5643,0.299 -3.5799,0 l -0.8379,0.299 -0.914,0.2985 c -3.9101,5e-5 -7.1346,0.3985 -9.6735,1.19505 -2.8945,-1.0456 -5.5858,-1.3444 -8.0739,-0.8962 -0.6094,-0.498 -1.0918,-1.0954 -1.4472,-1.79255 l -0.5332,-0.3735 c -1.7265,-2.78826 -3.1991,-4.45636 -4.4178,-5.00401 l -0.5332,-0.5975 c -0.051,-2.63885 -0.7109,-4.77985 -1.9804,-6.42295 -1.4218,-0.249 -2.7167,-0.249 -3.8846,0 -4.9257,8.46445 -5.7636,14.16546 -2.5136,17.10311 1.3202,3.3858 3.5545,5.3276 6.7029,5.82551 l 1.4472,1.4937 c 3.0975,0.299 5.6619,1.4191 7.6931,3.36095 l 1.371,0 c 0.6601,-0.94605 1.4218,-1.668 2.2851,-2.16595 l 2.2089,0.67215 c 1.371,-0.0995 2.4882,0.0995 3.3515,0.59755 1.8787,-0.199 3.4529,-0.5228 4.7225,-0.97095 l 3.0467,0.6722 1.1425,-0.299 1.3711,0 1.0663,0 1.4472,0 0.8379,-0.3735 0.7617,0 3.9608,0 c 2.1327,-0.6473 4.0877,-0.8464 5.865,-0.59745 3.1483,-2.58915 6.3982,-4.10781 9.7497,-4.55586 0.6092,-0.946 1.1424,-1.668 1.5995,-2.16595 10.1559,-1.4937 14.0658,-10.03286 11.7301,-25.61737 -2.9452,-2.83805 -4.3417,-6.19885 -4.1893,-10.08261 -2.6406,-1.69285 -4.5703,-3.80895 -5.7889,-6.34835 -1.4727,-0.8464 -2.5898,-1.8671 -3.3514,-3.06215 l -0.9141,0 c -1.0664,-0.2985 -2.082,-0.398 -3.0467,-0.2985 -1.422,-1.9916 -2.4375,-3.93341 -3.0468,-5.82551 -1.625,-0.8962 -2.9199,-1.91695 -3.8846,-3.06215 l -0.5332,-0.299 c -3.6054,-1.4936 -6.4998,-3.41055 -8.6832,-5.75075 l -0.7618,0 c -0.8125,0.299 -1.5742,0.3985 -2.285,0.2985 l -0.5332,-0.9709 c -3.25,-0.69706 -5.9159,-1.91696 -7.9978,-3.65961 -1.2695,0.3485 -2.3105,0.57265 -3.1229,0.67215 -2.6406,-1.7426 -5.2303,-2.365 -7.7693,-1.8672 -1.2695,-0.7468 -2.3105,-1.5683 -3.1229,-2.4646 l -0.7617,0 -1.1425,0 -0.8379,0.5975 c -1.0664,5e-5 -2.0058,-0.0995 -2.8182,-0.299 l -0.8379,0 c -1.7265,0.59755 -3.2753,0.8216 -4.6463,0.67215 -1.3711,1.2448 -2.7929,1.94195 -4.2656,2.0912 -0.6601,0.94615 -1.371,1.5685 -2.1327,1.8672 -0.8632,-3.28615 -0.7871,-6.2487 0.2285,-8.8877 -1.3711,-4.97901 -0.9902,-9.33566 1.1426,-13.07006 -0.1015,-2.3899 0.1525,-4.43131 0.7616,-6.12436 l 0,-0.8962 c 0.051,-2.38985 -0.025,-4.43125 -0.2285,-6.1243 -0.203,-0.199 -0.3045,-0.398 -0.3045,-0.5974 l -0.5332,-0.5975 -0.3045,-0.6722 c -0.5078,-1.49366 -1.0664,-2.71351 -1.6757,-3.65966 l -0.8379,0 c -1.0664,-0.2985 -2.0819,-0.498 -3.0467,-0.59745 -1.4219,-0.05 -2.6152,-0.249 -3.58,-0.59755 m 138.0948,38.38878 c -1.4727,1.94195 -3.4531,2.43985 -5.9413,1.4937 -1.5741,3.43565 -4.0369,5.52691 -7.3883,6.27366 -0.9141,1.89215 -1.5743,3.6846 -1.9804,5.3774 -3.4023,-1.892 -6.703,-2.53925 -9.902,-1.94185 l -6.9314,8.66361 -0.5332,1.94185 -0.457,3.8837 -0.9901,4.4065 -0.9903,0.52275 c -0.3555,2.48961 -1.0156,4.58081 -1.9803,6.27366 -0.051,3.5352 -0.7109,6.6222 -1.9805,9.26111 0.457,1.19505 0.6094,2.48955 0.457,3.8837 -4.0623,6.22385 -5.535,12.52241 -4.4178,18.89561 2.4374,2.53931 5.0779,4.15756 7.9216,4.85461 l 1.9804,-0.448 c 1.0663,-1.2448 1.7265,-2.53941 1.9804,-3.88376 l 4.4178,-2.4646 c 1.4218,-1.9916 2.9198,-3.4605 4.494,-4.4065 -1.4726,-9.11171 0.33,-17.02846 5.408,-23.75027 1.0155,-5.62625 3.5037,-10.15721 7.4646,-13.59286 5.2809,-10.80451 14.5228,-12.42271 27.7255,-4.8546 4.1132,-1.89195 5.7634,-4.48111 4.9511,-7.76736 l -0.9903,-1.41905 -0.5331,-0.52275 c -2.2852,-1.9418 -3.9355,-3.7094 -4.9511,-5.30275 l 0,-0.52276 0,0.52276 0,-0.52276 c -2.6913,-0.74685 -5.0017,-1.86715 -6.9313,-3.36095 l -0.9902,-0.5228 c -3.4023,0.4485 -6.3729,0.1245 -8.9118,-0.9709 m 69.0092,-1.6431 c -0.3045,0.3985 -0.6094,0.57265 -0.9141,0.5228 -7.5153,0.5478 -14.0405,2.4149 -19.5753,5.6015 l -1.4472,2.83801 -3.8085,0.8962 c -2.4374,1.69305 -4.6717,2.78845 -6.7029,3.28625 -0.203,0.5976 -0.5332,0.92125 -0.9902,0.97095 -0.6094,1.59335 -1.2441,2.8381 -1.9042,3.73425 -4.5702,5.22811 -7.2615,10.53086 -8.0739,15.90822 -0.254,1.09545 -0.7363,2.0415 -1.4472,2.8381 l 0,1.86715 0.9901,2.3153 -0.9901,3.2862 c 0.5077,1.7924 0.8378,3.36086 0.9901,4.70521 l 0.9141,7.46855 0.457,1.4191 1.4472,0.8962 0.9903,3.28621 c 2.0311,1.94185 3.4529,3.809 4.2654,5.60145 l 1.4472,0.52285 0.914,1.34435 2.4375,0.52275 1.4472,0.448 0.914,0.9709 1.4472,0 0.9902,0.448 9.0642,3.73431 1.9041,-0.448 c 1.4726,-0.299 2.7421,-0.299 3.8085,0 l 1.4472,-0.52285 2.8182,0 3.8847,-0.448 c 3.6052,-0.6971 6.779,-0.99585 9.5211,-0.8963 l 0.9903,-1.86716 1.371,0 c 1.828,-0.89625 3.7576,-1.36925 5.7888,-1.41905 1.625,-1.8422 3.6815,-2.6389 6.1697,-2.38995 0.8124,-1.4439 1.9296,-2.365 3.3515,-2.76335 l -0.457,-4.2571 c -3.5546,0.3485 -6.576,0.199 -9.0641,-0.448 -2.4375,0.84645 -4.6718,0.9958 -6.7029,0.448 -10.6637,2.2406 -20.6927,1.79245 -30.0868,-1.34436 -0.8633,-1.5933 -1.9804,-2.6887 -3.3514,-3.28625 1.9296,-2.5891 3.9861,-4.4811 6.1696,-5.67605 l 1.9043,-1.8672 2.4374,-1.41905 2.3613,-0.89626 c 3.8083,-4.18235 7.7945,-7.14495 11.9584,-8.88765 l 0.457,-1.41905 1.4473,-0.448 c 2.6404,-3.03716 5.5094,-5.22801 8.607,-6.57241 0.9648,-2.68865 2.7167,-4.40645 5.2558,-5.15335 l 0.9139,-5.60151 c 3.6561,-4.53085 3.6561,-8.91245 0,-13.14471 -2.3866,-1.643 -4.7733,-2.5642 -7.1598,-2.7634 l -0.9141,-0.5228 c -3.0976,0.05 -5.6619,-0.423 -7.6931,-1.41905 m 0.9903,15.98281 c -1.0665,5.02901 -3.9355,8.29026 -8.6072,9.78396 -3.3007,4.7799 -7.5915,6.49775 -12.8725,5.1533 -1.4219,1.8921 -3.1738,2.68881 -5.2557,2.39001 0.457,-4.18241 2.5135,-7.14501 6.1696,-8.88766 3.1484,-4.43135 7.2869,-6.62211 12.4156,-6.57246 1.1679,-1.34425 2.4627,-2.2903 3.8847,-2.83805 l 4.2655,0.9709"
             id="text3341-3"
             sodipodi:nodetypes="ccccccccccccccccccccccccccccccccccccccccccccccscccccscccccccccccccccccccccccscccccccccccccccccccccccccccccccccccccccccccccccccccccccccccccccccccccccscccccccccccccccccccccccccccccccccccccccccccccccccccccccccccccccccccccccccccccccccccccccccccccccccccccccccccccccccccccccccccccccccccscccccccccccccccccccccccccccccccccccccccccccccccccccccccccccccccccccccccccccccccccccccccccccccccccc" />
        </g>
      </g>
    </g>
  </g>
</svg>
