<svg xmlns="http://www.w3.org/2000/svg" viewBox="0 0 126.31 53.76"><g id="bbddf2b5-f265-41ca-9a46-ca1cec5bc3ee" data-name="Calque 2"><g id="a7f3f6f6-d8fa-4800-9640-2435294a8e75" data-name="Calque 1"><path d="M11.69,38.05c-.23-1.91-1.34-3.12-3-3.12s-2.67,1.24-3,3.12ZM0,39.54v-.06c0-5,3.59-9,8.67-9,5.94,0,8.67,4.35,8.67,9.4,0,.38,0,.82,0,1.24H5.81A3.55,3.55,0,0,0,9.53,44a5.2,5.2,0,0,0,3.81-1.74L16.67,45a9,9,0,0,1-7.46,3.49C3.81,48.46,0,44.87,0,39.54"/><polygon points="19.76 24.82 26.03 24.82 26.03 36.51 30.88 30.54 37.97 30.54 31.77 37.69 38.13 48.38 31.24 48.38 27.64 42.31 26.03 44.19 26.03 48.38 19.76 48.38 19.76 24.82"/><path d="M38.6,52.21l1.94-4.39a6,6,0,0,0,2.74,1,1.56,1.56,0,0,0,1.45-.73l-7-17.51H44.3l3.57,10.75,3.36-10.75h6.43L51.13,48c-1.55,4.16-3.23,5.81-6.79,5.81a11.57,11.57,0,0,1-5.74-1.55"/><rect x="61.32" y="24.82" width="1.62" height="23.56"/><path d="M69.54,30.6h1.62V48.38H69.54Zm0-5.78h1.61v1.7H69.54Z"/><path d="M92.81,39.56v-.07c0-4.51-3.13-7.41-6.73-7.41a7.2,7.2,0,0,0-7,7.38v.07a7.17,7.17,0,0,0,7,7.37c3.73,0,6.73-2.73,6.73-7.34M79.17,44.38v4.1H77.52V24.82h1.65v9.92c1.48-2.25,3.67-4.24,7.07-4.24a8.54,8.54,0,0,1,8.36,8.93v.06a8.59,8.59,0,0,1-8.36,9,8.28,8.28,0,0,1-7.07-4.1"/><path d="M99.29,30.49H101v5.3a8.35,8.35,0,0,1,7.8-5.3v1.89h-.17c-4.07,0-7.63,3.07-7.63,8.8v7.3H99.29Z"/><path d="M124.53,38.67c-.24-3.47-2.23-6.67-6.16-6.67-3.4,0-6,2.87-6.33,6.67Zm-14.24.84v-.07c0-5,3.5-8.95,8.14-8.95,4.82,0,7.88,3.9,7.88,9a4.79,4.79,0,0,1,0,.67H112c.3,4.27,3.37,6.76,6.73,6.76a7.68,7.68,0,0,0,5.89-2.69l1.15,1a9,9,0,0,1-7.11,3.23c-4.51,0-8.41-3.6-8.41-9"/><path d="M41,4.6a2.14,2.14,0,0,0-2.09,2.19,2.09,2.09,0,1,0,4.18,0A2.14,2.14,0,0,0,41,4.6Zm.53,2.58a.92.92,0,1,1,.86-.92A.89.89,0,0,1,41.55,7.18Z"/><path d="M48.25,4.6a2.14,2.14,0,0,0-2.08,2.19,2.09,2.09,0,1,0,4.18,0A2.15,2.15,0,0,0,48.25,4.6Zm.54,2.58a.92.92,0,1,1,.86-.92A.89.89,0,0,1,48.79,7.18Z"/><path d="M48.62,24.82a3.44,3.44,0,0,1-.35.93.23.23,0,0,1-.42-.07v-.05a.23.23,0,0,0-.43,0,2.1,2.1,0,0,1-.27.54.23.23,0,0,1-.38,0,6,6,0,0,1-.49-1.32h0a7.56,7.56,0,0,0-.19.92.23.23,0,0,1-.39.13,1.82,1.82,0,0,1-.46-1.05H43.65a2,2,0,0,1-.46,1,.23.23,0,0,1-.39-.12,7.41,7.41,0,0,0-.18-.92h0a5.83,5.83,0,0,1-.48,1.32.22.22,0,0,1-.38,0,2,2,0,0,1-.26-.53.22.22,0,0,0-.43,0h0a.22.22,0,0,1-.41.07,3.59,3.59,0,0,1-.35-.92H30.88v1.85H57.67V24.82Z"/><path d="M50.7,2.79a20.78,20.78,0,0,0,2.11-.86.2.2,0,0,0,.12-.13L53.37.46A.22.22,0,0,0,53.05.2a20.18,20.18,0,0,1-3.92,1.57,10.31,10.31,0,0,0-4.63-1,10,10,0,0,0-4.37.93A21.09,21.09,0,0,1,36.23,0a.22.22,0,0,0-.32.26l.41,1.34a.28.28,0,0,0,.12.14,20.3,20.3,0,0,0,2.12.89c-2.08,1.69-3.38,4.54-3.38,8.73,0,5.26,2.13,9.8,5.22,12,.09-.23.23-.4.42-.4a.56.56,0,0,1,.38.11.22.22,0,0,0,.32,0,.59.59,0,0,1,.49-.25.45.45,0,0,1,.47.3.22.22,0,0,0,.31.08.81.81,0,0,1,.45-.07c.39,0,.45.47.42,1.59,0,0,0,0,0,0a8.24,8.24,0,0,0,1,.07c.19,0,.38,0,.56,0a.17.17,0,0,0,0-.07c0-1.12,0-1.59.43-1.59a.81.81,0,0,1,.45.07.23.23,0,0,0,.32-.08.46.46,0,0,1,.48-.3.6.6,0,0,1,.49.25.22.22,0,0,0,.32,0,.61.61,0,0,1,.38-.11c.26,0,.41.27.5.61,3.27-2.12,5.54-6.79,5.54-12.22C54.1,7.3,52.77,4.49,50.7,2.79ZM41,20a.23.23,0,0,1-.44,0l-.28-1.25.32.43a.22.22,0,0,0,.36,0l.35-.47Zm1-3.21a.23.23,0,0,1-.44,0l-.29-1.25.32.44A.22.22,0,0,0,42,16l.35-.47ZM44.85,15a.23.23,0,0,1-.44,0l-.29-1.25.32.43a.22.22,0,0,0,.36,0l.35-.47Zm2.8,1.82a.23.23,0,0,1-.44,0l-.29-1.25.32.44a.23.23,0,0,0,.36,0l.35-.47Zm1,3.21a.23.23,0,0,1-.44,0L48,18.79l.32.43a.22.22,0,0,0,.36,0l.35-.47Zm2.39-9.12c-2,.86-3.93,0-5.54-1.72a4.24,4.24,0,0,1-.72,1.53.22.22,0,0,1-.37,0,5.6,5.6,0,0,1-.66-1.25C42.1,11.19,40.05,12,38,11,35.69,9.87,36.3,5.64,39.1,3a.22.22,0,0,1,.23,0h0c.41.13.82.24,1.23.34l.24.06,1,.2.3.05c.35.06.7.1,1,.13l.18,0c.41,0,.83.06,1.25.07h.16c.36,0,.72,0,1.07,0l.32,0c.33,0,.67-.06,1-.1l.26,0c.43-.06.85-.14,1.28-.23h0c.4-.09.81-.2,1.21-.32L50,3a.2.2,0,0,1,.21,0C53.4,5.67,53.31,10,51.08,10.92Z"/></g></g></svg>