<?xml version="1.0" encoding="utf-8"?>
<!-- Generator: Adobe Illustrator 23.0.6, SVG Export Plug-In . SVG Version: 6.00 Build 0)  -->
<svg version="1.1" id="ƒŒƒCƒ_x201E__x5B__3" xmlns="http://www.w3.org/2000/svg" xmlns:xlink="http://www.w3.org/1999/xlink"
	 x="0px" y="0px" viewBox="0 0 720 720" style="enable-background:new 0 0 720 720;" xml:space="preserve">
<style type="text/css">
	.st0{fill:#FFFFFF;}
	.st1{fill:#DC2C15;}
</style>
<path class="st0" d="M720,359.9950867C690.3574219,389.6397095,389.6416016,690.3555298,359.9971008,720
	C330.3505859,690.3555298,29.6401997,389.6366882,0,359.9950867C29.6420994,330.3534851,330.3505859,29.6436005,359.9950867,0
	C389.6397095,29.6436005,690.3574219,330.3534851,720,359.9950867z"/>
<g>
	<path d="M323.6000977,393.8203125c-2.8783875,0-5.2142944,2.3349915-5.2142944,5.2148743
		c0,2.8807983,2.335907,5.2138062,5.2142944,5.2138062c2.8808899,0,5.2153015-2.3330078,5.2153015-5.2138062
		C328.8153992,396.155304,326.4809875,393.8203125,323.6000977,393.8203125z"/>
	<path d="M402.6162109,443.8721008c0-3.0049133-2.4355164-5.4424133-5.4414062-5.4424133
		c-3.0057983,0-5.4414062,2.4375-5.4414062,5.4424133c0,0.6875,0.1328125,1.342804,0.3652954,1.9501953
		c-1.9726868,0.2763062-3.4960938,1.9530945-3.4960938,4.0028992c0,0.5732117,0.1229858,1.1191101,0.3398132,1.6152039
		c0.5683899,1.4356079,1.9608765,2.4541016,3.5976868,2.4541016l0.1054077-0.0097046l0.0116882,0.0010071
		c2.25,0,4.0683899-1.819397,4.0683899-4.0606079c0-0.1835938-0.0292969-0.3594055-0.0546875-0.5371094
		c0.1660156,0.0166016,0.3340149,0.0264282,0.5039062,0.0264282
		C400.1806946,449.3145142,402.6162109,446.8770142,402.6162109,443.8721008z"/>
	<path d="M349.4599915,450.3731079c0,2.8036804,2.2715149,5.0780945,5.0762024,5.0780945
		c2.8045959,0,5.0761108-2.2744141,5.0761108-5.0780945c0-2.8027954-2.2715149-5.0762024-5.0761108-5.0762024
		C351.7315063,445.2969055,349.4599915,447.5703125,349.4599915,450.3731079z"/>
	<path d="M333.1391907,423.906311c2.8052063,0,5.0761108-2.2734985,5.0761108-5.0782166
		c0-2.8046875-2.2709045-5.0760803-5.0761108-5.0760803c-1.3999023,0-2.6654968,0.5672913-3.5854797,1.4823914
		c-0.3823242-1.6073914-1.8208008-2.804718-3.5449219-2.804718c-2.019989,0-3.6566772,1.6348267-3.6566772,3.6543274
		c0,2.0184937,1.6366882,3.6552734,3.6566772,3.6552734c0.7730103,0,1.4883118-0.2431946,2.0801086-0.6552734
		C328.2255859,421.7666016,330.4234009,423.906311,333.1391907,423.906311z"/>
	<path d="M389.0653992,405.407196c-0.8945007,0-1.734314,0.2198181-2.4804077,0.601593
		c-0.5019836-1.6846008-2.0448914-2.9198914-3.8925781-2.9198914c-2.2539062,0-4.0820007,1.8280945-4.0820007,4.0830078
		c0,2.2539062,1.8280945,4.0809937,4.0820007,4.0809937c0.3261719,0,0.6405945-0.0477905,0.9433899-0.1200867
		c0.148407,2.8721008,2.5195007,5.1591797,5.4295959,5.1591797c0.3965149,0,0.7832947-0.0438843,1.1582947-0.1269836
		c2.5273132-0.2879944,4.5-2.4091187,4.5-5.0175171c0-0.9257812-0.265686-1.780304-0.6992798-2.5283813
		C393.1729126,406.7275085,391.2744141,405.407196,389.0653992,405.407196z"/>
	<path d="M369.4873047,373.0185852c0-2.8046875-2.273407-5.077179-5.0761108-5.077179
		c-2.8046875,0-5.078186,2.2724915-5.078186,5.077179c0,1.9384155,1.0995789,3.6025085,2.6972961,4.4589233
		c-1.523407,0.4394836-2.6465149,1.828186-2.6465149,3.4951782c0,2.0185242,1.6367188,3.6552124,3.656311,3.6552124
		c2.0174866,0,3.6542969-1.6366882,3.6542969-3.6552124c0-1.2187805-0.601593-2.2910767-1.5195923-2.9550781
		C367.6123047,377.6465149,369.4873047,375.5606079,369.4873047,373.0185852z"/>
	<path d="M324.9111938,446.0371094c-2.2446899,0-4.0621033,1.8173828-4.0621033,4.0614929
		c0,2.2421875,1.8174133,4.0606079,4.0621033,4.0606079c2.2416077,0,4.0599976-1.8184204,4.0599976-4.0606079
		C328.9711914,447.8544922,327.1528015,446.0371094,324.9111938,446.0371094z"/>
	<path d="M353.6239929,393.5917969c0,2.0155945,1.6368103,3.6542969,3.6542969,3.6542969
		c2.0196228,0,3.656311-1.6387024,3.656311-3.6542969c0-2.0205078-1.6366882-3.657196-3.656311-3.657196
		C355.2608032,389.9346008,353.6239929,391.5712891,353.6239929,393.5917969z"/>
	<path d="M370.4229126,492.0635071c0-2.2861023-1.3614197-4.2489929-3.3164062-5.1358032
		c0.335907-0.5907898,0.5429077-1.2636108,0.5429077-1.9902039c0-2.2460938-1.8183289-4.0625-4.0605164-4.0625
		c-2.2442017,0-4.0625,1.8164062-4.0625,4.0625c0,1.2099915,0.5410156,2.2851868,1.3828125,3.031311
		c-1.085907,1.0272827-1.7676086,2.4784851-1.7676086,4.094696c0,3.1152039,2.5253906,5.6395874,5.6405945,5.6395874
		C367.8984985,497.7030945,370.4229126,495.1787109,370.4229126,492.0635071z"/>
	<path d="M362.7724915,543.7207031c0-4.0244141-2.3887024-7.4805298-5.8222961-9.046875
		c1.3496094-1.0293579,2.226593-2.6513062,2.226593-4.4824219c0-1.9111328-0.9530945-3.5975952-2.4082031-4.6171875
		c0.8183289-0.9785156,1.3105164-2.2373047,1.3105164-3.6123047c0-3.1152344-2.5253906-5.6395874-5.6405945-5.6395874
		c-0.4707031,0-0.9237976,0.0634766-1.3594055,0.1717529c0.6308899-1.3084717,0.9960938-2.7694702,0.9960938-4.3202515
		c0-1.4511414-0.3182983-2.8242188-0.8768921-4.0683289c2.9256897-0.2099915,5.2342834-2.6405945,5.2342834-5.6210938
		c0-2.4277954-1.5370789-4.4902954-3.6875-5.2852173c2.1054993-1.8241882,3.4453125-4.5126953,3.4453125-7.5175781
		c0-3.4414062-1.7460022-6.4707031-4.398407-8.2578125c1.5371094-1.750885,2.4785156-4.0419922,2.4785156-6.555603
		c0-2.2022095-0.7246094-4.2276001-1.9355164-5.8721008c1.5682983-0.5625,2.6953125-2.0487976,2.6953125-3.8104858
		c0-2.2442017-1.8164062-4.061615-4.0606079-4.061615c-1.3710022,0-2.5785828,0.6826172-3.3128967,1.7256165
		c-1.8222961-2.2510071-4.601593-3.6903992-7.7247009-3.6903992c-1.4584045,0-2.8374023,0.3231812-4.0853882,0.8866882
		c-0.9512024-1.7724915-2.8203125-2.9813843-4.9746094-2.9813843c-3.1152039,0-5.6405945,2.5272827-5.6405945,5.6424866
		c0,2.8320923,2.0878906,5.1679993,4.8060913,5.5722961c-0.0176086,0.210907-0.0390015,0.4198914-0.0429993,0.6347961
		c-1.7225952-1.4277954-3.9331055-2.2870789-6.3457031-2.2870789c-3.6224976,0-6.7832031,1.9393921-8.523407,4.8348999
		c-1.4740906-1.6220093-3.5932922-2.6473999-5.9589844-2.6473999c-3.7632141,0-6.9136047,2.5809937-7.8022156,6.0672913
		c-1.2929993-0.8847046-2.8569946-1.4042969-4.5434875-1.4042969c-4.4487,0-8.0581055,3.6074829-8.0581055,8.0585938
		c0,0.6231079,0.0780945,1.2276001,0.2124023,1.8106079c-2.1381836-1.9463196-4.9701843-3.1416016-8.0892944-3.1416016
		c-4.9649048,0-9.2246094,3.0057983-11.0664062,7.2948914c-1.2929993-0.8847961-2.8569946-1.4042969-4.5434875-1.4042969
		c-4.4487,0-8.0581055,3.6073914-8.0581055,8.0585938c0,0.6503906,0.0762024,1.280304,0.2221985,1.8847961l97.7230835,99.2773132
		c1.2754211-0.5380859,2.1699219-1.7988281,2.1699219-3.2723999c0-1.3936157-0.8085938-2.5870361-1.9765015-3.1690063
		c1.382782-0.4852905,2.3789062-1.789978,2.3789062-3.3397827c0-1.4639282-0.8828125-2.7167969-2.1465149-3.2618408
		c1.2480164-0.8260498,2.0722961-2.2401733,2.0722961-3.8495483c0-2.1963501-1.5351868-4.0254517-3.5878906-4.4941406
		c4.0917969-2.8231812,6.7792969-7.5390625,6.7792969-12.8886719c0-3.3016968-1.0274048-6.359436-2.7734985-8.8828125
		C360.8955078,550.3983765,362.7724915,547.2832031,362.7724915,543.7207031z"/>
	<path d="M257.7680969,356.1758118c0.9281921,4.5341797,4.9399109,7.9432983,9.7466125,7.9432983
		c0.8475952,0,1.6654968-0.1170959,2.4510803-0.3173218c1.1094055,4.2841187,4.9878235,7.4502258,9.6192017,7.4502258
		c0.4902039,0,0.9663086-0.0469055,1.4375-0.1153259c1.1387024,4.2403259,4.9974976,7.3643188,9.5975952,7.3643188
		c1.3536072,0,2.6426086-0.272522,3.8199158-0.7617188c0.3153992,3.1903992,3.0043945,5.6816101,6.2778015,5.6816101
		c0.6445007,0,1.2670898-0.0967102,1.8534851-0.2773132c0.8070984,4.6836243,4.878418,8.25,9.7929993,8.25
		c3.8237,0,7.1390991-2.1611938,8.804718-5.3232727c1.6703796,1.2704773,3.7479858,2.032196,6.007782,2.032196
		c1.4648132,0,2.8515015-0.3232117,4.1035156-0.8916016c1.2963867,2.7460938,3.7016907,4.8642883,6.6343079,5.780304
		c-0.1187134,0.3632812-0.2002258,0.7431946-0.2002258,1.1493835c0,2.0176086,1.6362,3.6542969,3.6552124,3.6542969
		c2.0176086,0,3.6542969-1.6366882,3.6542969-3.6542969c0-0.4510803-0.0917969-0.8789062-0.2420959-1.2772827
		c4.2666016-1.4951172,7.3265991-5.5440063,7.3265991-10.3203125c0-2.1856079-0.6426086-4.2149048-1.7460938-5.9198914
		c1.7851868-0.2413025,3.1659851-1.7549133,3.1659851-3.6054993c0-1.5780945-1.0038757-2.9102173-2.4042969-3.4199219
		c1.5274048-1.7480774,2.4590149-4.0263977,2.4590149-6.5312805c0-0.4775085-0.0449219-0.9432983-0.109314-1.4042969
		c3.75-1.4237976,6.4179077-5.0429993,6.4179077-9.2929993c0-2.6577148-1.0566101-5.0561218-2.7557983-6.8383179
		c0.3104858,0.0844116,0.6307983,0.1455078,0.9667969,0.1455078c2.0174866,0,3.6542969-1.6366882,3.6542969-3.6567993
		c0-2.0184937-1.6368103-3.6538086-3.6542969-3.6538086c-0.8027954,0-1.5372009,0.2657166-2.140686,0.7026978
		c-0.7324219-1.3530884-2.0507202-2.3378906-3.6211243-2.5976868c1.2325134-2.0112,1.9551086-4.3691101,1.9551086-6.9023132
		c0-1.6391907-0.3125-3.2026978-0.8554993-4.6524048c3.7676086-1.414978,6.4512024-5.0404968,6.4512024-9.3046875
		c0-2.4813843-0.9140015-4.7445984-2.4160156-6.487793c2.7637024-0.9144897,4.7578125-3.5146179,4.7578125-6.5834961
		c0-2.5223999-1.3496094-4.7236023-3.3594055-5.9384155c0.9395142-1.1831055,1.5039062-2.6773071,1.5039062-4.3061829
		c0-0.4160156-0.0429077-0.8222046-0.1131897-1.2202148c1.4393921-0.0653992,2.7695007-0.5556946,3.8515015-1.3677063
		c-0.0820007,0.4248047-0.1269226,0.8633118-0.1269226,1.3101196c0,2.4633789,1.2851257,4.6200867,3.2167969,5.8515015
		c-0.382782,1.0567017-0.601593,2.1918945-0.601593,3.3813782c0,4.0498047,2.4237976,7.5259094,5.8945007,9.0786133
		c-0.320282,1.1366882-0.5039062,2.3310852-0.5039062,3.5693054c0,4.2089844,1.9844055,7.9458008,5.0625,10.3491821
		c-2.695282,1.1782227-4.5820007,3.8647156-4.5820007,6.996521c0,3.125,1.8789062,5.8067017,4.5664062,6.987793
		c-0.539093,0.9306946-0.8534851,2.0083008-0.8534851,3.1616821c0,2.5258179,1.4862976,4.6967163,3.6289062,5.7065125
		c-0.617218,1.5224915-0.9648132,3.1831055-0.9648132,4.9281921c0,2.1026001,0.5057983,4.0830078,1.3847046,5.8448181
		c-0.4198914,0.4745789-0.8085938,0.9765015-1.1582031,1.507782c-0.6621094-0.671875-1.5820007-1.0878906-2.5975952-1.0878906
		c-2.0195923,0-3.656311,1.6347046-3.656311,3.655304c0,2.0174866,1.6367188,3.6542053,3.656311,3.6542053
		c0.1717834,0,0.335907-0.0273132,0.5018921-0.0498047c-0.0253906,0.3359985-0.0508118,0.6719055-0.0508118,1.0137024
		c0,2.5351868,0.7286072,4.8926086,1.9707031,6.8964844c-1.0604858,2.0195007-1.6678772,4.3145142-1.6678772,6.7549133
		c0,3.7382812,1.4198914,7.1356812,3.7342834,9.7128906c-0.6445007,1.0350952-1.0213928,2.2549133-1.0213928,3.5634155
		c0,3.7373962,3.031189,6.7675781,6.7695007,6.7675781c3.3280945,0,6.0878906-2.4042969,6.656189-5.5673828
		c1.8301086-0.1943054,3.554718-0.7362976,5.117218-1.546814c0.8046875,1.7391968,2.5546875,2.9541016,4.5976868,2.9541016
		c2.8046875,0,5.0762024-2.2724915,5.0762024-5.078186c0-2.1230164-1.3067017-3.9355164-3.156311-4.6943054
		c0.5137024-1.1073914,0.8770142-2.2939148,1.1035156-3.5282898c1.0957031,0.2938843,2.2421875,0.4667969,3.4296875,0.4667969
		c0.1504211,0,0.2969055-0.0186157,0.4472961-0.022522c0.8945007,2.2871094,3.1133118,3.9092102,5.7207031,3.9092102
		c2.0039062,0,3.7792969-0.9647827,4.9004211-2.4512024c0.6288757,2.3085938,2.7362976,4.006897,5.2440796,4.006897
		c1.9004211,0,3.5722961-0.9755859,4.5449219-2.4512024c1.0546875,0.647522,2.2909851,1.0283203,3.6210938,1.0283203
		c3.8320923,0,6.9394836-3.1083984,6.9394836-6.9403992c0-1.280304-0.3534851-2.4756165-0.9570923-3.5049133
		c0.5274048,0.1719055,1.0899048,0.2647095,1.6719055,0.2647095c3.0058899,0,5.4433899-2.4346008,5.4433899-5.4414978
		c0-0.2557983-0.0234985-0.5057983-0.0585938-0.7519226c1.1542969,2.2295227,3.4784851,3.7549133,6.1621094,3.7549133
		c3.7851868,0,6.8554993-3.030304,6.9315796-6.7958984c1.8106079-1.1192017,3.0684204-3.0448914,3.2676086-5.2774048
		c0.3535156,0.1133118,0.7207031,0.1904907,1.1112976,0.1904907c2.0195923,0,3.6582031-1.6376953,3.6582031-3.6562805
		c0-0.4198914-0.0741882-0.8222961-0.2049866-1.1982117l-5.5508118-1.7901001l-57.968811-18.6698914l-0.2342834-24.7568054
		c8.8065796-9.4761047,15.6717834-21.7001953,20.6463928-34.9535828
		c9.4258118-25.1255188,14.5079041-51.6763153,14.5079041-65.5826111c0-36.0189972-34.3984985-82.7255096-76.8301086-82.7255096
		c-42.4302063,0-76.8280945,37.0376129-76.8280945,82.7255096c0,29.6953888,11.0996094,71.3594055,32.7470093,96.9024048
		l-2.6401062,27.0878906L257.7680969,356.1758118z"/>
	<path d="M466.694397,490.2323914c-0.968811,0-1.8789978,0.2451172-2.6758118,0.6748047
		c-0.976593-3.3505859-4.0663757-5.8006897-7.7323914-5.8006897c-1.5820923,0-3.0507812,0.4638062-4.2949829,1.2489929
		c0.0116882-0.2070923,0.0292969-0.4111938,0.0292969-0.6210938c0-5.4951172-4.4530945-9.9472961-9.9472046-9.9472961
		c-1.2871094,0-2.5137024,0.2519836-3.6426086,0.6972961c-0.1426086-2.9883118-2.6034851-5.3692017-5.6269836-5.3692017
		c-3.1152039,0-5.640625,2.5253906-5.640625,5.6416016c0,0.2431946,0.0195007,0.4824829,0.0508118,0.7197876
		c-1.4179993-2.3085938-3.9570007-3.8534851-6.8652039-3.8534851c-0.4628906,0-0.9122009,0.0467834-1.3536072,0.1219788
		c-0.0625-5.4432983-4.4862976-9.8339844-9.9432983-9.8339844c-0.5546875,0-1.0957031,0.0577087-1.6269836,0.1455078
		c-0.2695007-2.8662109-2.679718-5.1074219-5.6133118-5.1074219c-2.4315796,0-4.4960938,1.5410156-5.2909851,3.6953125
		c-0.25-0.0166016-0.5-0.0390015-0.7557983-0.0390015c-1.1347961,0-2.2285156,0.1679077-3.2696228,0.460907
		c-0.9667969-2.554718-3.4315796-4.3768921-6.3260803-4.3768921c-3.7383118,0-6.7695923,3.031189-6.7695923,6.7704773
		c0,1.1504211,0.2909851,2.2333984,0.796875,3.1845093c-0.9745789-0.8075867-2.2225952-1.2948914-3.5858765-1.2948914
		c-3.1153259,0-5.6407166,2.5253906-5.6407166,5.6405945c0,2.6817017,1.8710938,4.9199829,4.3770142,5.4921875
		c-0.7344055,1.3887024-1.1542969,2.9667969-1.1542969,4.6455078c0,3.2294922,1.5429993,6.0870056,3.9237976,7.9042969
		c-0.9101257,1.694397-1.4277039,3.631897-1.4277039,5.6895142c0,3.1942749,1.25,6.0848999,3.2792969,8.2402039
		c-0.664093,1.4931946-1.0410156,3.1405945-1.0410156,4.8788757c0,0.6739197,0.0703125,1.3282166,0.1758118,1.9707031
		c-0.8164062-0.5653992-1.781311-0.930603-2.8320923-1.0018921c0.6894836-0.9346008,1.101593-2.0878906,1.101593-3.3388977
		c0-3.1162109-2.5253906-5.6416016-5.6405945-5.6416016c-3.1152954,0-5.6407166,2.5253906-5.6407166,5.6416016
		c0,1.4942017,0.5821228,2.851593,1.531311,3.8583984c-2.3612976,0.6748047-4.0917969,2.8427734-4.0917969,5.4208984
		c0,3.1151733,2.5253906,5.6397095,5.6405945,5.6397095c0.1796875,0,0.3496094-0.0292969,0.5234985-0.0449829
		c-1.0411072,1.7792969-1.6464844,3.8447876-1.6464844,6.0556641c0,4.1981812,2.1503906,7.8876953,5.406189,10.0410156
		c-4.3066101,1.8339844-7.3262024,6.1026001-7.3262024,11.0800781c0,3.6083984,1.593811,6.8359375,4.1094055,9.0419922
		c-2.6073914,1.7939453-4.3182983,4.7939453-4.3182983,8.1973267c0,1.3875732,0.2870789,2.7089233,0.7987976,3.9082031
		c-0.7246094,1.2098999-1.148407,2.6190796-1.148407,4.1317749c0,1.7480469,0.5625,3.359436,1.5078125,4.6787109
		c-0.8164062,0.6503906-1.3516235,1.6436157-1.3516235,2.7695312c0,1.2197876,0.6152039,2.2909546,1.5488281,2.9325562
		c-0.9707031,0.6329346-1.6152039,1.7247314-1.6152039,2.9727173c0,0.2246094,0.0272827,0.4442749,0.0663757,0.6602173
		c-0.8104858,0.6503906-1.3397827,1.6376953-1.3397827,2.7606812c0,1.4707031,0.8924866,2.7333984,2.1679077,3.272522
		l105.4589844-97.0860291c0.2090149-0.5887756,0.3242188-1.2255859,0.3242188-1.8866882
		C472.3369141,492.7568054,469.8096008,490.2323914,466.694397,490.2323914z"/>
	<path d="M511.5751953,371.1679993c-3.2128906-1.101593-24.4530945-8.0342102-24.4530945-8.0342102
		c-2.4453125,0.1885071-4.4375,1.9961243-4.9082031,4.3506165c-0.7460938-0.3828125-1.5899048-0.6026001-2.4862976-0.6026001
		c-3.0039062,0-5.4414062,2.4375-5.4414062,5.4423828c0,0.2958984,0.0292053,0.5840149,0.0761108,0.8662109
		c-1.6582031-1.2333984-3.7051086-1.9725952-5.929718-1.9725952c-5.4930725,0-9.9491882,4.4541016-9.9491882,9.9481812
		l0.0039062,0.0508118c-1.0078125-0.2471008-2.0527039-0.3934937-3.1367188-0.3934937
		c-7.2538757,0-13.132782,5.8797913-13.132782,13.1336975c0,0.6817017,0.0664062,1.3447876,0.1679993,1.9981079
		c-0.7753906-0.3388977-1.6308899-0.530304-2.5292969-0.530304c-2.0722961,0-3.9042969,1.0019836-5.054718,2.5440063
		c-1.1875-0.3936157-2.4550781-0.6114197-3.7734985-0.6114197c-6.4745789,0-11.7402039,5.1114197-12.0116882,11.5205078
		c-0.4121094-0.0848999-0.8378906-0.1297913-1.2753906-0.1297913c-3.484314,0-6.3086243,2.8231812-6.3086243,6.3094788
		c0,1.0576172,0.2637024,2.0528259,0.7227173,2.9287109c-1.0039062-0.5643921-2.1582031-0.8886108-3.3926086-0.8886108
		c-3.8339844,0-6.9414062,3.1064148-6.9414062,6.9384155c0,2.0029907,0.8535156,3.7998047,2.2090149,5.0625l0.0039062,0.0733032
		c-1.6133118,0.1522827-2.9434204,1.2304993-3.4570007,2.7089844c-0.2032166,0.4550171-0.3203125,0.9550171-0.3203125,1.4833984
		c0,1.2841187,0.6660156,2.4091187,1.6679077,3.0625c0.6914062,0.5381165,1.5488892,0.8701172,2.4921875,0.8701172
		c1.7442017,0,3.2207031-1.0977173,3.8067017-2.6376953c0.9492188,0.5126953,2.0292053,0.8104858,3.1816101,0.8104858
		c0.5195007,0,1.023407-0.063385,1.5097961-0.1756897c-0.0429993,0.4188843-0.0664062,0.8397827-0.0664062,1.2674866
		c0,1.5888977,0.3143921,3.1035156,0.875,4.492218c-2.2421875,0.5263977-3.9161072,2.5273743-3.9161072,4.9286804
		c0,0.742218,0.1661072,1.4385071,0.4493103,2.0722961c0.7225952,1.8320007,2.5,3.1348267,4.5898132,3.1348267
		c1.7304993,0,3.2460938-0.8955078,4.1288757-2.242218c0.3262024-0.4570923,0.585907-0.968811,0.7520142-1.5214844
		c1.5664062,0.7460938,3.3085938,1.1727905,5.1582031,1.1727905c0.570282,0,1.1289062-0.0527039,1.6795959-0.1289062
		c-0.3280945,0.8760071-0.5155945,1.8212891-0.5155945,2.8106079c0,1.3046875,0.3241882,2.5263062,0.875,3.6162109
		c-0.2578125-0.0518188-0.5215149-0.0820007-0.7948914-0.0820007c-2.242218,0-4.0625,1.8192749-4.0625,4.0625
		c0,2.2430725,1.820282,4.0614929,4.0625,4.0614929c2.0253906,0,3.6894836-1.4862976,3.9960938-3.4237976
		c1.0957031,4.3045959,4.9844055,7.493103,9.6308899,7.493103c2.085907,0,4.0195007-0.6445007,5.6170959-1.7412109
		c0.4804993,3.9942017,3.8731079,7.0907898,7.9960938,7.0907898c2.0996094,0,4.0059204-0.8085938,5.4395142-2.125
		c-0.0155945,0.2412109-0.0371094,0.4844055-0.0371094,0.7295227c0,5.4950867,4.4551086,9.9482727,9.9492188,9.9482727
		c1.882782,0,3.6347961-0.5312805,5.1347961-1.4375c-0.7520142,1.0244141-1.2012024,2.2871094-1.2012024,3.6572266
		c0,3.4266968,2.7792969,6.2030945,6.2051086,6.2030945c2.0721741,0,3.9022827-1.0184937,5.0292969-2.5771179l0.0038757,0.0009155
		l53.8730164-49.5877991v-36.3184204C537.7666016,389.835907,525.9072266,376.0712891,511.5751953,371.1679993z"/>
	<path d="M270.3305969,473.4971008c0-0.3945923-0.0288086-0.780304-0.0722961-1.1611938
		c1.4771118,1.8251953,3.7329102,2.9942017,6.2641907,2.9942017c4.4512024,0,8.0585938-3.6074219,8.0585938-8.0585938
		c0-1.2051086-0.2714844-2.3418274-0.7441711-3.3682251c1.6152954-0.563385,2.9902954-1.6298828,3.9526978-3.0048828
		c1.0238953,1.0429993,2.4471741,1.6933899,4.0257874,1.6933899c3.1152954,0,5.640686-2.5272827,5.640686-5.6405945
		c0-1.6221008-0.6855774-3.0762024-1.7817993-4.1065063c2.0625-1.0047913,3.6314087-2.8623047,4.249115-5.1141968
		c1.2983093,1.4237976,3.0927124,2.3828125,5.1141968,2.592804c-0.8143921,0.9784851-1.3060913,2.2362976-1.3060913,3.6102905
		c0,3.1152039,2.5253906,5.6405945,5.6405945,5.6405945s5.6401062-2.5253906,5.6401062-5.6405945
		c0-2.5517883-1.6928101-4.7030945-4.0176086-5.4013977c1.7934875-1.4784851,2.9375-3.7176819,2.9375-6.2225952
		c0-0.7383118-0.1073914-1.4491882-0.2929077-2.1279907c0.243103,0.0224915,0.4887085,0.039093,0.7391968,0.039093
		c1.136322,0,2.2144165-0.2383118,3.1944275-0.6631165c0.0839844,2.1679993,1.8578796,3.9043274,4.0448914,3.9043274
		c2.2440796,0,4.0629883-1.8174133,4.0629883-4.0615234c0-2.1894836-1.7362976-3.9618835-3.9062805-4.0448914
		c0.4234009-0.9794922,0.6616821-2.0585938,0.6616821-3.1953125c0-0.6913757-0.1069946-1.3574829-0.2709961-1.9960938h0.0014038
		c2.019989,0,3.6567993-1.6387024,3.6567993-3.6582031c0-2.0185852-1.6368103-3.6524048-3.6567993-3.6524048
		c-0.105011,0-0.2041016,0.0215149-0.3081055,0.0293274c-0.2095032-3.0420227-1.773407-5.7060242-4.1079102-7.3847046
		c0.0161133-0.2325134,0.0352173-0.4659119,0.0352173-0.7032166c0-5.4969788-4.4526978-9.9481812-9.9463196-9.9481812
		c-1.9159851,0-3.6977844,0.5498047-5.2153931,1.4873047c0.2167969-0.5742188,0.3417969-1.1953125,0.3417969-1.8467102
		c0-2.8807983-2.3334961-5.2138977-5.2128906-5.2138977c-0.5136108,0-1.0078125,0.0762024-1.4769897,0.2138977
		c0.0687866-0.4657898,0.1138-0.9414062,0.1138-1.4266968c0-5.4960938-4.4512024-9.9483032-9.9472961-9.9483032
		c-1.6992188,0-3.2993164,0.4286804-4.6992188,1.1796875c-1.2597961-2.0469055-3.2323914-3.6063843-5.5820007-4.3164062
		c0.3012085-0.6591797,0.4725952-1.3876953,0.4725952-2.1591797c0-2.8789062-2.3353882-5.2138977-5.2153015-5.2138977
		c-0.675293,0-1.3197937,0.131897-1.9135742,0.3671875c-0.0376282-5.4647827-4.4712219-9.8818054-9.9438171-9.8818054
		c-0.8823853,0-1.7319946,0.1260071-2.5463867,0.3417969c-0.7954102-1.8651733-2.6451111-3.1708984-4.799408-3.1708984
		c-1.2709045,0-2.4369965,0.4580078-3.3417053,1.2148132c-0.3471985-2.5429077-2.5214996-4.5047913-5.1591949-4.5047913
		c-1.0025024,0-1.9340973,0.2870789-2.7270966,0.7743835c-13.7969055,5.2850952-25.2519073,9.6963196-29.6230011,11.4424133
		c-9.7364044,3.8885803-16.9824066,14.2967834-16.9824066,24.6112976v33.2284851l53.8271027,54.6465149
		c0.5487976,0.1171875,1.1215973,0.1786804,1.7055969,0.1786804c2.9887085,0,5.5903015-1.6298828,6.983902-4.0448914
		c1.0848999,0.407196,2.2568054,0.6396179,3.4848022,0.6396179
		C265.8783875,483.4453125,270.3305969,478.9921875,270.3305969,473.4971008z"/>
</g>
<path class="st1" d="M0,359.9941101L359.9960938,720L720,359.9941101L359.9960938,0L0,359.9941101z M662.9561157,359.9941101
	c-24.9473267,24.9472961-278.0117188,278.0137024-302.960022,302.9628601
	C335.050293,638.0078125,81.9888,384.9414062,57.0424995,359.9941101
	C81.9888,335.050293,335.050293,81.9901962,359.9960938,57.043499
	C384.9403992,81.9901962,638.0087891,335.050293,662.9561157,359.9941101z"/>
</svg>
