<?xml version="1.0" encoding="utf-8"?>
<!-- Generator: Adobe Illustrator 23.0.6, SVG Export Plug-In . SVG Version: 6.00 Build 0)  -->
<svg version="1.1" id="ƒŒƒCƒ_x201E__x5B__3" xmlns="http://www.w3.org/2000/svg" xmlns:xlink="http://www.w3.org/1999/xlink"
	 x="0px" y="0px" viewBox="0 0 720 720" style="enable-background:new 0 0 720 720;" xml:space="preserve">
<style type="text/css">
	.st0{fill:#FFFFFF;}
	.st1{fill:#DC2C15;}
</style>
<path class="st0" d="M720,359.9950867C690.3574219,389.6386108,389.6416016,690.3554077,359.9960938,720
	C330.351593,690.3554077,29.6406002,389.6357117,0,359.9950867C29.6420994,330.3534851,330.351593,29.6434994,359.9950867,0
	C389.6395874,29.6434994,690.3574219,330.3534851,720,359.9950867z"/>
<g>
	<path d="M362.5415039,428.9443054c-22.0815125,0-39.9823914,18.9121094-39.9823914,42.2440796
		c0,23.3321228,17.9008789,42.2461243,39.9823914,42.2461243c22.0805969,0,39.9790039-18.9140015,39.9790039-42.2461243
		C402.5205078,447.8583984,384.6221008,428.9443054,362.5415039,428.9443054z"/>
	<path d="M310.4360046,207.7915039c0,0.4525909,0.0253906,0.902298,0.0517883,1.3495941h-0.0317078L310.5,209.4369965
		c0.0830078,1.155304,0.2528992,2.2944031,0.5058899,3.4170074l24.7485046,167.0375977
		c0.8618164,14.2265015,12.5209961,25.4941101,26.7871094,25.4941101c14.1825867,0,25.7895813-11.1445007,26.7660828-25.2568054
		l24.7061157-167.0064087c0.3016968-1.2718964,0.4912109-2.5677948,0.5741882-3.8813019l0.0146179-0.1000977h-0.0097046
		c0.0253906-0.4472961,0.0507812-0.8970032,0.0507812-1.3495941c0-18.9385071-23.328186-34.2915039-52.1020813-34.2915039
		C333.7641907,173.5,310.4360046,188.8506012,310.4360046,207.7915039z"/>
</g>
<path class="st1" d="M0,359.9956055L359.9960938,720L720,359.9956055L359.9960938,0L0,359.9956055z M662.9561157,359.9956055
	c-24.9462891,24.9466858-278.0118103,278.012207-302.960022,302.9584961
	C335.0517883,638.0078125,81.9906998,384.9403992,57.044899,359.9956055
	C81.9906998,335.0498047,335.0492859,81.9897003,359.9960938,57.0429001
	C384.9424133,81.9897003,638.0098267,335.0498047,662.9561157,359.9956055z"/>
</svg>
