<?xml version="1.0" encoding="utf-8"?>
<!-- Generator: Adobe Illustrator 23.0.6, SVG Export Plug-In . SVG Version: 6.00 Build 0)  -->
<svg version="1.1" id="ƒŒƒCƒ_x201E__x5B__3" xmlns="http://www.w3.org/2000/svg" xmlns:xlink="http://www.w3.org/1999/xlink"
	 x="0px" y="0px" viewBox="0 0 720.6141968 720" style="enable-background:new 0 0 720.6141968 720;" xml:space="preserve">
<style type="text/css">
	.st0{fill:#FFFFFF;}
	.st1{fill:#DC2C15;}
</style>
<path class="st0" d="M720,359.9941101C690.3574219,389.6387024,389.6416016,690.3565063,359.9971008,720
	C330.3525085,690.3565063,29.6415997,389.6376953,0,359.9941101C29.6425991,330.3534851,330.3525085,29.6436005,359.9941101,0
	C389.6395874,29.6436005,690.3574219,330.3534851,720,359.9941101z"/>
<path d="M188.6260071,389.2333984c5.2757874,19.6621094,19.2323914,33.0020142,31.1727905,29.7987976l233.3936157-62.6405945
	c7.3320007-1.968689,12.1913757-9.7207031,13.6346741-19.9590149l0.0039062,0.0186157
	c0.7734985-5.2157898,4.5527954-9.7362976,9.9727173-11.1904907l49.4287109-13.2675171
	c5.5028687-1.4746094,8.4657593-8.256897,6.6132812-15.1435852c-1.8477173-6.8905945-7.8076172-11.2763977-13.3085938-9.8003235
	l-49.429718,13.2661133c-5.4638977,1.4659119-11.039093-0.5975952-14.3104858-4.7938843l0.0047913,0.0204773
	c-6.3623047-8.0766907-14.4159851-12.3135071-21.7167969-10.3540039l-233.3959961,62.6411133
	C188.7505035,351.0351868,183.3495941,369.5712891,188.6260071,389.2333984z"/>
<path class="st1" d="M0.6138,359.9941101L360.6123047,720l360.0018921-360.0058899L360.6102905,0L0.6138,359.9941101z
	 M663.5703125,359.9941101c-24.9462891,24.9472961-278.0127258,278.014679-302.9580078,302.9620056
	C335.6650085,638.0087891,82.6029968,384.9403992,57.658699,359.9941101
	C82.6029968,335.0498047,335.6644897,81.9893036,360.6102905,57.043499
	C385.5566101,81.9893036,638.6240234,335.0498047,663.5703125,359.9941101z"/>
</svg>
