<?xml version="1.0" encoding="utf-8"?>
<!-- Generator: Adobe Illustrator 23.0.6, SVG Export Plug-In . SVG Version: 6.00 Build 0)  -->
<svg version="1.1" id="ƒŒƒCƒ_x201E__x5B__3" xmlns="http://www.w3.org/2000/svg" xmlns:xlink="http://www.w3.org/1999/xlink"
	 x="0px" y="0px" viewBox="0 0 720.0004883 720.0009766" style="enable-background:new 0 0 720.0004883 720.0009766;"
	 xml:space="preserve">
<style type="text/css">
	.st0{fill:#FFFFFF;}
	.st1{fill:#E5241D;}
	.st2{fill:none;stroke:#000000;stroke-width:5;}
	.st3{stroke:#000000;stroke-width:4;}
	.st4{fill:#FFFFFF;stroke:#000000;stroke-width:5;}
</style>
<path class="st0" d="M719.9995117,359.9942017c-29.6426392,29.6445007-330.3583984,330.3623047-360.0028992,360.0067749
	C330.3511047,690.3565063,29.6401005,389.6387024,0,359.9942017C29.6420994,330.3534851,330.3511047,29.6436005,359.9937134,0.001
	C389.6391907,29.6436005,690.3568726,330.3534851,719.9995117,359.9942017z"/>
<path class="st1" d="M0.0005,359.9956055L359.9966125,720l360.0038757-360.0043945L359.9966125,0L0.0005,359.9956055z
	 M662.956604,359.9956055c-24.9462891,24.9468079-278.0122986,278.012207-302.9599915,302.9584961
	C335.0508118,638.0078125,81.9893036,384.9403992,57.0443993,359.9956055
	C81.9893036,335.0498047,335.0508118,81.9888,359.9966125,57.043499
	C384.9418945,81.9888,638.0103149,335.0498047,662.956604,359.9956055z"/>
<g>
	<line class="st2" x1="212.1143036" y1="380.5658875" x2="493.2865906" y2="380.5658875"/>
	<path class="st3" d="M249.9662933,453.530304l34.6069183-20.0078125l1.6230774-85.4003906l-42.7191925-23.2520142
		c0,0-6.4888-4.325592-15.6821899-1.6224976c-3.2436066,1.0815125-7.569809,2.1625977-7.569809,2.1625977
		s23.2519989-19.4657898,27.5776062-17.8442993c4.3256989,1.6226196,34.6080017,16.2227173,34.6080017,16.2227173
		s-3.2447205-22.7113953-11.3560181-29.2001953c-8.1107788-6.4888-39.473587-31.3633118-39.473587-31.3633118v-5.9472046
		l42.7181854,25.9544983c0,0,1.6221008-24.8735046-7.0292969-39.473587
		c-8.6528015-14.6000977-15.1415863-27.5781097-15.1415863-27.5781097l2.7041016-2.1625977l21.0888824,32.444809
		l7.0293274-22.1704102l4.3266907-1.0814972c0,0-5.4082947,31.3623047-1.6226196,41.0957031
		c3.784729,9.7337952,17.8447266,62.7260132,17.8447266,62.7260132l21.0888977-30.2812195c0,0,0.539978-12.4375-0.5404968-21.089386
		c-1.0821228-8.6513062-2.7041016-48.6665039-2.7041016-48.6665039h3.7845764l5.948822,43.7998047l34.0536804-39.4736176v4.3257141
		c0,0-33.5137024,42.1776886-31.890686,51.3705902c1.6221008,9.1929016,3.2442017,14.5996094-2.7036133,27.5776062
		c-5.9481812,12.9776001-9.7338867,22.1704102-9.7338867,22.1704102s17.8447876-21.0888062,25.9560852-22.7114258
		c8.110321-0.5404968,18.9125977,0.5410156,26.4833984-5.9476929c7.5693054-6.4892883,25.9546204-27.0372009,25.9546204-27.0372009
		l-28.6582031,44.3403931c0,0-13.506897,0.5405273-18.9136047,6.4892273
		c-5.407196,5.9482727-27.5770874,31.3632812-27.5770874,31.3632812v58.3633118l36.7621765,18.3847961l-44.8735962,6.4902039
		l-10.8153992,15.6815796l-14.6000977-12.4375L249.9662933,453.530304z"/>
	<path class="st3" d="M213.1963043,504.3604126c0,0,49.2069855-14.5996094,57.3178864-8.6524048
		c10.8149109-4.867218,89.7557983-38.3926086,89.7557983-36.2304077c0,2.1640015,90.8388977-28.1171875,90.8388977-28.1171875
		l32.9844055,23.7928772l-31.3613892,15.1407166l42.1777954,3.7850952l-11.3554993,15.1405945h23.25l0.5410156,16.7618103
		L213.1963043,504.3604126z"/>
	<path class="st4" d="M322.9657898,461.6416016c0,0,14.0596008-0.5410156,20.5484009-3.2441101
		c10.2900085-4.289093,27.0244141-11.3554993,36.7568054-25.4159851
		c10.0645142-14.5352173,45.9628906-75.667511,95.1719055-70.8008118
		c-2.7051086,6.4883118-11.3554993,20.5493164-11.3554993,20.5493164l35.1464844-10.815918
		c0,0,0.5410156,46.467804-65.9687805,76.2080078c-30.8222046,10.8164062-37.3125,11.3554993-40.0155945,15.1405945
		c-2.703125,3.7852173-15.1401062,22.7128906-15.1401062,22.7128906L322.9657898,461.6416016z"/>
	<path d="M466.7904968,399.1825867c0-2.8309937,2.6621094-5.125,5.9472961-5.125c3.2852173,0,5.9492188,2.2940063,5.9492188,5.125
		c0,2.8359985-2.6640015,5.1368103-5.9492188,5.1368103C469.4526062,404.319397,466.7904968,402.0185852,466.7904968,399.1825867z"
		/>
</g>
</svg>
