<?xml version="1.0" encoding="utf-8"?>
<!-- Generator: Adobe Illustrator 23.0.6, SVG Export Plug-In . SVG Version: 6.00 Build 0)  -->
<svg version="1.1" id="ƒŒƒCƒ_x201E__x5B__3" xmlns="http://www.w3.org/2000/svg" xmlns:xlink="http://www.w3.org/1999/xlink"
	 x="0px" y="0px" viewBox="0 0 720 720.0009766" style="enable-background:new 0 0 720 720.0009766;" xml:space="preserve">
<style type="text/css">
	.st0{fill:#FFFFFF;}
	.st1{fill:#DC2C15;}
</style>
<path class="st0" d="M720,359.9941101c-29.6425781,29.6445923-330.3594055,330.3622742-360.0020142,360.0068665
	C330.3519897,690.3563843,29.6401005,389.6387024,0,359.9941101C29.6415997,330.3534851,330.3519897,29.6434994,359.9960938,0
	C389.6405945,29.6434994,690.3574219,330.3534851,720,359.9941101z"/>
<g>
	<polygon points="346.5223999,249.8032074 350.8671875,243.4638977 358.3828125,235.2832031 354.2421875,221.8887024 
		348.5664062,221.7870941 346.1133118,228.0254059 341.3075867,226.1327972 338.8534851,238.0449066 343.9663086,240.4472961 	"/>
	<polygon points="392.7333984,256.3309937 389.5527039,260.7934875 387.718689,270.0863953 394.1366882,275.6488953 
		398.7246094,270.0863953 400.0078125,263.7894897 397.1953125,256.2695007 394.9941101,258.5913086 	"/>
	<polygon points="466.2246094,262.785614 348.460907,345.7792969 466.2246094,272.6841125 	"/>
	<polygon points="429.6777039,317.0976868 429.1698914,311.2616882 359.8828125,344.0024109 	"/>
	<polygon points="449.7284851,300.601593 447.4432983,306.6933899 468.5078125,309.2304993 454.5487976,295.2720032 	"/>
	<polygon points="507.593689,274.968689 521.8065796,284.6112976 521.5526733,267.3534851 512.1640015,251.3632965 
		507.8496094,264.8143921 496.4277039,265.324707 493.1268921,267.8617859 491.6054993,277.5062866 500.4862976,282.582489 	"/>
	<polygon points="553.9180298,303.1465149 551.0390015,297.0664062 343.6781921,350.8280945 	"/>
	<path d="M579.1992188,318.5072937L351.3866882,357.1138l-2.8661804-2.2778931v9.1856079l-7.4561157,5.0170898l-6.8661804-4.9698181
		l6.5961914,5.1519165l-5.9266968,3.9862976L316.25,357.3183899l-13.1567993,11.4199219l-17.2084961-4.5279236l10.530304,0.4224243
		l-11.9096069-0.785614l-0.2792969-0.0737915l-0.0205994,0.0536804l-27.3969116-1.808075l-0.0654907-0.7333984l-1.7230988,0.6157837
		l-6.1791992-0.4078064l-1.1777039-2.1210022l-9.319397-0.4750977l-1.1112976,1.8305054l-56.723114-3.743103l2.868103,3.1064148
		l52.9512024,2.1278992l-2.7666016,4.5639954l7.648407,5.4960938l8.3638,1.4335938l2.628891-4.3007812h5.2568054
		l-0.5610046-6.3666992l27.1875,1.0922852l-0.1488953,0.3876953c0.3999023,2.1753235,0.9476929,4.2904968,1.6191101,6.3442078
		l-141.3720093,16.2271118l-0.2393036,3.1063843l141.6811066-19.1278992
		c0.4555969,1.3724976,0.9703064,2.7153015,1.539093,4.0253906l-106.1791992,23.4658203l-0.7167969,3.5868835
		l107.1542969-26.4515991c0.2471008,0.547821,0.5054016,1.0863953,0.7705078,1.621521l-35.7519073,9.5341797l-0.4785919,3.5840149
		l36.7382812-12.1382141c0.1040039,0.1978149,0.2075195,0.3959961,0.3145142,0.5917969l-57.6040039,31.1430969l0.2382965,3.1074219
		l57.5600128-33.8833008c1.4248047,2.5610046,3.0785828,4.9535828,4.9194946,7.1605835l-67.2583008,53.7276001l5.0180054,4.7792969
		l39.9273071-36.6005859l-0.9737244,1.9482117l4.3018188,4.7792969l4.7792969-2.1504211l2.3895874,2.3897095l4.7798157-2.8671875
		l1.9111938-6.4521179l-4.5401001-2.8692017h-6.9512024l17.3081055-15.8661804
		c7.8168945,8.9355774,18.8912048,14.5137024,31.1734009,14.5137024c11.918396,0,22.6958008-5.2559204,30.4682007-13.7295227
		l45.7734985,36.8838196l-2.7588196-6.2412109L356.968689,387.468689c0.9746094-1.1004944,1.8984985-2.2547913,2.7715149-3.4520874
		l57.7382812,45.0907898l2.7588196-2.7587891l-59.8153992-43.2987976c0.5625-0.8153992,1.1044006-1.6474915,1.6170959-2.503418
		l53.9219055,33.0229187l-2.9862976-6.0595093l-50.4844055-27.75c0.9609985-1.6782837,1.8280945-3.425293,2.5859985-5.2373047
		l31.5868835,8.1386108l-1.3779907,1.9121094l-9.6112976-1.7773132l-2.6659851,4.844696l9.6933899,7.1903992l25.523407,4.3614197
		l0.4042969-6.1397095l-4.2012024-4.7655945l-6.0195007-2.6006165l37.3496094,9.6221008l1.6005859-10.8798828
		l-81.6729126-11.4346008c0.492218-1.2987976,0.9385071-2.6230164,1.3223267-3.9779968l-6.3223267-2.2642212l-1.4003906-2.3807983
		l63.4082031,2.9985046l0.0253906,0.0990906l0.3008118-0.0838928l14.7616882,0.6982117l0.617218,0.664978l14.0800781,0.9590149
		l0.7832031-0.8911133l100.0176086,4.7315063l-4.1602173-3.1992798l-94.5721741-2.9946289l7.210907-8.2069702
		l-25.2793274-11.1992188l-6.7187805,6.4008179l-9.6015015,3.1992798l2.2676086,8.7885132l-63.1621094-2l-1.0606079-1.804718
		l-6.7929993-5.3983765l227.7891235-30.9448242V318.5072937z M250.0527039,363.675293l-0.5146027-0.9257812l2.7928925,0.1122742
		L250.0527039,363.675293z M434.2373047,364.2680969l2.3368835,2.5161133l-10.2255859-0.3242188L434.2373047,364.2680969z"/>
	<polygon points="241.2104034,396.6542969 241.2104034,392.3534851 228.5444031,391.6366882 235.9526062,398.8056946 	"/>
	<polygon points="208.7095032,414.8174133 201.5399933,410.2773132 198.9111023,418.8808899 206.214798,428.9227905 
		206.5581055,429.3945007 208.9487,422.7030945 213.4888,422.4638977 216.355896,419.3602905 217.7910004,414.8174133 
		210.8598022,412.1893921 	"/>
	<polygon points="196.7606964,373.7128906 196.7606964,376.582489 217.3125,378.4927063 204.168396,368.2167969 	"/>
	<polygon points="243.1221008,348.1426086 239.5381012,351.2479858 296.1748047,360.0913086 	"/>
	<polygon points="298.3262024,357.7016907 259.6117859,337.1488953 260.5679016,339.539093 	"/>
	<path d="M284.618103,343.2969055c-0.0516968,0.2045898-0.109314,0.407196-0.1590881,0.6132812l5.9735718,6.4570007
		l4.3496094-0.2442017l8.0840149,5.4273071l-7.2671204-5.4736023L308.0575867,349.375l17.3765259,8.6875l9.9305725-11.9136047
		l-4.469696-10.9242859l13.6538086,1.4897766l1.9862976-8.1928711l8.3145142,0.0975952l-21.1089172,22.9960938L356.5,328.6376953
		l6.9159851,0.0815125c-0.9130859-1.3911133-1.9375-2.7202148-3.0429993-3.9912109l5.9121094-5.9682007l0.7012024,1.6386108
		l9.3926086-4.3143921l2.031189,7.1053772l14.9746094-12.1820984l8.375-15.4819031L388.5625,306.4399109l-10.2909851,0.2182922
		l88.2069702-89.0487976l-5.0761719-5.0756989l-89.4355164,97.4359894l-7.2616882,5.0990906l0.8211975,1.917511l-6.1278992,6.6763
		c-2.4883118-2.6601868-5.3652039-5.0195007-8.5146179-7.0249023l44.1650085-75.8896942l-5.0332031-3.0760956l-39.7695007,78.5625
		c-0.1065063-0.0664062-0.2109985-0.1367188-0.3173828-0.2022095l52.1142883-145.2153015l-9.789093-4.4750977
		l-51.0419922,145.5629883c-0.4307251-0.1542969-0.8594055-0.3095703-1.2935181-0.4511719l30.2359009-93.9224091
		l-5.593811-3.3559113l-24.8998718,97.1880188c-4.4570007-1.4282227-9.0967102-2.203125-13.6650085-2.203125
		c-19.362793,0-35.7285156,13.8559265-41.0541992,32.8862l-16.9653015-12.782196l2.1507874,4.3007202L284.618103,343.2969055z"/>
</g>
<path class="st1" d="M0.0005,359.9960938L359.9989929,720L720,359.9960938L359.9979858,0L0.0005,359.9960938z
	 M662.9550781,359.9960938c-24.9433594,24.9443054-278.0097656,278.0126953-302.9560852,302.9598999
	C335.0516968,638.0087891,81.9897003,384.9403992,57.044899,359.9960938
	C81.9897003,335.0477905,335.0516968,81.9878006,359.9979858,57.0429993
	C384.9432983,81.9878006,638.0117188,335.0477905,662.9550781,359.9960938z"/>
</svg>
