<?xml version="1.0" encoding="utf-8"?>
<!-- Generator: Adobe Illustrator 23.0.6, SVG Export Plug-In . SVG Version: 6.00 Build 0)  -->
<svg version="1.1" id="ƒŒƒCƒ_x201E__x5B__3" xmlns="http://www.w3.org/2000/svg" xmlns:xlink="http://www.w3.org/1999/xlink"
	 x="0px" y="0px" viewBox="0 0 720 720.0009155" style="enable-background:new 0 0 720 720.0009155;" xml:space="preserve">
<style type="text/css">
	.st0{fill:#FFFFFF;}
	.st1{fill:#DC2C15;}
</style>
<path class="st0" d="M720,359.9950867c-29.6436157,29.6425171-330.3583984,330.3612976-360.0029907,360.0058289
	C330.3515015,690.3563843,29.6401005,389.6376038,0,359.9950867C29.6420994,330.3540039,330.3515015,29.6439991,359.9941101,0.0004
	C389.6386108,29.6439991,690.3563843,330.3540039,720,359.9950867z"/>
<g>
	<polygon points="350.6376953,179.2402039 350.5184937,215.0003967 347.7578125,241.7612 343.6791992,258.2011108 
		335.1586914,277.4002991 325.5585938,258.0805054 322.918396,240.5605011 317.3978882,226.4002991 309.237793,217.7612 
		296.8783875,214.7612 299.9985046,230.7210999 296.6376953,247.0410004 294.1185913,268.0409851 293.8783875,289.281189 
		299.2778015,305.3617859 288.237793,298.281189 272.8783875,276.2011108 259.5585938,262.6411133 262.1987,290.1210022 
		262.4385071,311.2402039 264.7177124,329.6000977 271.5585938,348.0805054 280.3178101,366.680603 258.5990906,363.5604858 
		246.4774933,354.2011108 238.7978058,344.0003967 227.0384979,331.8818054 229.7978058,350.4804077 248.7577972,416.6004944 
		261.9584961,440.2412109 283.7977905,455.9598999 314.8783875,468.8016968 363.9584961,471.9208984 340.918396,467.7215881 
		322.1987,458.6004944 303.237793,436.0400085 291.5990906,409.2802124 303.7177124,418.1611023 314.9985046,422.1200867 
		335.6376953,424.5205078 324.237793,409.8818054 317.9985046,399.2001038 313.4385071,385.8818054 316.4385071,373.2802124 
		317.1586914,359.9598999 322.3178101,373.4013062 329.6376953,383.9598999 351.3583984,395.9598999 348.237793,377.8407898 
		347.9985046,363.9208984 360.8384094,327.0805054 360.8384094,301.4002991 373.6796875,314.1210022 385.9179077,332.6000977 
		392.0390015,358.1600952 391.9179077,396.3211975 402.2383118,385.6416016 420.5996094,373.5205078 426.8378906,359.4804077 
		426.8378906,386.000885 420.1191101,405.9208984 412.3182983,416.6004944 404.1582031,424.7607117 418.3182983,424.8818054 
		430.7987976,421.4013062 445.3182983,412.1611023 430.4393921,440.000885 410.8789062,459.2001038 399.5996094,467.6004944 
		391.4765015,472.2412109 408.7246094,472.2412109 427.5018921,468.9677124 447.1503906,459.3602905 465.7090149,446.4794006 
		481.210907,421.8075867 490.8164062,390.368103 493.8496094,345.3515015 490.3807983,361.3309937 478.3729858,369.6278992 
		456.5390015,375.9580078 468.7655945,357.8377991 475.3164062,344.9555054 481.3965149,319.7026062 478.5097046,301.8051147 
		471.7460938,278.0531921 461.5195007,297.9295959 449.2304077,310.2171936 434.7987976,318.3828125 443.1268921,297.8465881 
		443.375,270.7127991 440.2421875,243.7440948 427.1289062,218.1772003 423.8301086,249.6820984 417.3965149,272.1972046 
		408.2421875,281.4339905 398.6758118,284.9804077 401.6445007,265.8465881 399.335907,249.0229034 386.3866882,212.3226929 
		367.0874023,176.2812042 360.5990906,144.9194031 353.9985046,164.6000977 	"/>
	<rect x="258.5400085" y="494.0986023" width="216.7315063" height="22.2539005"/>
</g>
<path class="st1" d="M0,359.9950867L359.9974976,720L720,359.9950867L359.9974976,0L0,359.9950867z M662.9550781,359.9950867
	c-24.9453735,24.9472046-278.0117798,278.0146179-302.9575806,302.960907
	c-24.9462891-24.9462891-278.0083008-278.0137024-302.9530945-302.960907
	C81.9891968,335.0512085,335.0508118,81.9916992,359.9974976,57.0433998
	C384.9432983,81.9916992,638.0097046,335.0512085,662.9550781,359.9950867z"/>
</svg>
