<?xml version="1.0" encoding="utf-8"?>
<!-- Generator: Adobe Illustrator 23.0.6, SVG Export Plug-In . SVG Version: 6.00 Build 0)  -->
<svg version="1.1" id="skull" xmlns="http://www.w3.org/2000/svg" xmlns:xlink="http://www.w3.org/1999/xlink" x="0px" y="0px"
	 viewBox="0 0 720 720.0018921" style="enable-background:new 0 0 720 720.0018921;" xml:space="preserve">
<style type="text/css">
	.st0{fill:#FFFFFF;}
	.st1{fill:#DC2C15;}
</style>
<path class="st0" d="M720,359.9950867C690.3583984,389.6395874,389.6416016,690.3555298,359.9981079,720
	C330.3526001,690.3555298,29.6410999,389.6387024,0.0005,359.9950867C29.6425991,330.3554993,330.3526001,29.6445007,359.9950867,0
	C389.6397095,29.6445007,690.3583984,330.3554993,720,359.9950867z"/>
<g>
	<path d="M515.984375,398.101593c-7.8808899,0-13.8661804,2.2373047-18.6728821,4.0371094
		c-3.4051819,1.2713928-6.3465881,2.3729858-9.0986023,2.3729858c-4.7167969,0-5.1806946-0.25-6.7128906-1.0762024
		l-3.5223999-1.7167969c-3.7159119-1.5625-34.5596008-16.2695007-52.6817017-24.9422913
		c0.2481079-0.7626953,0.4580078-1.5126953,0.631897-2.2481079c12.4100952-6.2861023,62.8280945-31.8192749,63.0350952-31.9248047
		c5.3399048-2.4921875,8.6455078-2.3397827,10.8340149-2.2362976l1.2637024,0.0410156
		c2.0664062,0,5.5614929,1.7041016,8.9414062,3.3534851c4.8847046,2.3828125,10.4208984,5.0830078,16.1337891,5.0830078
		c9.0604858,0,15.3876953-6.9443054,15.3876953-16.8851929v-10.1685181c0-5.5243835-3.8125-13.2191772-10.9091797-17.5184937
		c-0.3887329-6.5644836-1.772522-12.7182922-5.8251953-16.901886c-2.9277344-3.0209961-6.7930298-4.5527039-11.4902344-4.5527039
		c-11.0498962,0-19.7012024,6.4813843-24.1132812,12.5473022l-1.7431946,2.4888
		c-3.3467102,4.8511047-9.5742188,13.8822937-16.3486023,17.3671875
		c-4.8701172,2.5072937-19.218811,9.1841125-31.4590149,14.8291016
		c7.9590149-5.7992859,14.7617188-13.5907898,14.7617188-27.7149048c0-8.8241882-1.5098267-17.6069031-2.6660156-23.0453796
		l1.9013977-2.8168945c7.6141968-10.9926147,18.0400085-26.0473175,18.0400085-42.944809
		c0-10.3960114-10.9003906-19.839798-25.9862976-32.9087067l-3.5518188-3.0809937l-9.405304-8.4331055
		c-18.1776733-16.550293-35.343689-32.1817017-68.8065796-32.1817017c-15.7314148,0-31.3041992,4.0166016-47.6138,12.2837067
		c-8.1123047,4.1103973-14.6586914,10.5395966-22.2368164,17.9810028c-3.109375,3.0550995-6.3262024,6.2137909-9.9603882,9.5345917
		l-4.7539062,4.3164062c-14.3681946,13.0112915-24.749588,22.4111938-24.749588,32.4888
		c0,16.8974915,10.4257965,31.9521942,18.0391083,42.944809l1.3485718,1.9971008
		c-1.0843811,7.7255859-2.1991882,17.9462891-2.1991882,25.1303711c0,9.8530273,4.5396118,16.8041992,10.4785156,22.2080078
		c-9.4990234-4.4096985-18.5888062-8.684082-22.2880249-10.5874023
		c-6.7700958-3.4848938-12.999588-12.5160828-16.3466949-17.3671875l-1.740799-2.4888
		c-4.4134979-6.065918-13.0659027-12.5473022-24.1156921-12.5473022c-4.6968079,0-8.5615082,1.5317078-11.4882965,4.5527039
		c-4.0522003,4.1825867-5.4365082,10.3374023-5.8261108,16.901886c-7.097702,4.2993164-10.9111938,11.9941101-10.9111938,17.5184937
		v10.1685181c0,9.9408875,6.3291016,16.8851929,15.3907013,16.8851929c5.7137909,0,11.2489929-2.7001953,16.1317902-5.0830078
		c3.382309-1.6493835,6.8774109-3.3534851,8.9419098-3.3534851l1.2655945-0.0410156
		c2.1860962-0.1034851,5.4942017-0.2558899,10.8339996,2.2362976c0.1851044,0.093811,40.2567902,20.3887024,57.7563934,29.2510071
		C300.125,374,300.7388,376.3182983,301.6929016,378.7362976c-18.3266907,8.7616882-45.1382141,21.5332031-48.585907,22.9823914
		l-3.522995,1.7167969c-1.5312042,0.8262024-1.9956055,1.0762024-6.7118988,1.0762024
		c-2.7528992,0-5.6963043-1.101593-9.0995941-2.3729858c-4.8081055-1.7998047-10.7905121-4.0371094-18.6734009-4.0371094
		c-10.8657074,0-26.6460114,7.5711975-26.6460114,19.4364929c0,10.5576172,6.769104,13.7373047,17.9844055,19.0068054
		l4.8280945,2.2910156c1.1309052,5.5448914,2.2061005,10.953186,2.6285095,13.4844055
		c1.5742035,9.4491882,11.0820007,15.0956726,19.3641968,15.0956726c11.8061981,0,22.1381989-11.5556946,23.0780945-19.046875
		c1.186615-9.4765015,5.7427063-15.9941101,13.9263-19.930603L278.0596008,424.75l44.4883118-20.9590149
		c3.0458984,2.1953125,6.3568726,4.2305298,9.9247742,6.0244141c8.7187195,4.381897,25.2007141,10.8671875,32.8965149,10.8671875
		c6.8232117,0,17.0506897-5.1416016,27.8768921-10.5868835l0.5606079-0.280304
		c4.4784851-2.2518921,8.5625-4.8799133,12.210907-7.7323914l54.8027039,26.3554993
		c8.1855774,3.9364929,12.7392883,10.4541016,13.9277954,19.930603c0.9393921,7.4911804,11.2695007,19.046875,23.0780945,19.046875
		c8.2782898,0,17.7861023-5.6464844,19.3633118-15.0956726c0.421875-2.5312195,1.4960938-7.9395142,2.6268921-13.4844055
		l4.8300781-2.2910156c11.2139282-5.2695007,17.9854126-8.4491882,17.9854126-19.0068054
		C542.631897,405.6727905,526.8496094,398.101593,515.984375,398.101593z M475.9296875,324.6146851
		c9.1289062-4.6987,16.0653992-14.7552795,20.2090149-20.7640991l1.5917969-2.2714844
		c2.7479858-3.781311,8.4775085-8.1972961,15.5683899-8.1972961c2.3348999,0,3.3447266,0.7641907,3.9022827,1.3378906
		c3.4014282,3.5126953,3.0742188,13.7871094,2.8379517,21.2901001l-0.1309204,5.9536133
		c-0.0643921,2.9159851,2.25,5.2162781,5.1641235,5.2792969c2.9169922,0.0639038,5.3348999-2.3633118,5.399353-5.2792969
		l0.046936-2.125c0.296875,0.8110046,0.4414062,1.5018921,0.4414062,1.9525757v10.1685181
		c0,2.8841858-0.8359985,6.3197937-4.8242188,6.3197937c-3.2744141,0-7.460022-2.0380859-11.5009766-4.0116882
		c-4.6641235-2.2754211-9.0703125-4.4239197-13.5742188-4.4239197l-0.7637024-0.0278015
		c-2.6347961-0.125-8.1181946-0.3851929-15.8417969,3.2315063l-0.148407,0.0711975l-57.7753906,29.261322v-14.6885071
		C435.0733032,343.7871094,467.8681946,328.7641907,475.9296875,324.6146851z M299.7489929,359.9472961l-53.0458984-26.8657837
		l-0.0750885-0.0341187c-7.7237091-3.6166992-13.2061005-3.3565063-15.8409119-3.2315063l-0.7650909,0.0278015
		c-4.5048981,0-8.9092102,2.1484985-13.5727997,4.4239197c-4.0444031,1.9736023-8.2279968,4.0116882-11.5009003,4.0116882
		c-3.9878082,0-4.8262024-3.4356079-4.8262024-6.3197937v-10.1685181c0-0.4496765,0.1454926-1.1410828,0.4418945-1.9511719
		l0.0454102,2.1235962c0.0653992,2.9159851,2.4823914,5.3432007,5.3993988,5.2792969
		c2.9160004-0.0630188,5.2299957-2.3633118,5.1664886-5.2792969l-0.128891-5.9536133
		c-0.2388-7.5029907-0.5644073-17.7763977,2.835495-21.2901001c0.5590057-0.5737,1.5678101-1.3378906,3.9013062-1.3378906
		c7.0942993,0,12.8197937,4.4159851,15.5713043,8.1972961l1.5912933,2.2714844
		c4.1416016,6.0088196,11.0780945,16.0653992,20.206604,20.7640991c7.085907,3.6470032,32.2680054,15.2329102,44.5965881,20.879425
		V359.9472961z M284.1773071,302.3353882c0-15.2342834,3.6293945-20.680603,3.6293945-25.3817749
		c0-4.6992188-5.0751953-23.0303192-5.0751953-25.882309c0-0.3701019,0.0438843-3.4624023,0.0438843-3.4624023
		c0-6.8545074,0.8731079-12.5738068,11.4638977-21.9922028c0.8612976-0.7637024,2.1684265-3.0917969,1.1240234-4.3813934
		c-1.0464172-1.2890015-1.4702148-1.8261108-2.6899109-3.2695007c-1.2211914-1.4438019-4.4277954-1.1518097-5.3706055-0.3144073
		c-12.530304,11.1356964-15.0922852,19.5648956-15.0922852,29.9575043c0,0-0.0429993,3.0863953-0.0429993,3.5477905
		c0,2.8203125-0.1177063,1.3965149,1.3334961,7.3408051c-4.5238953-7.6694031-8.3286133-16.2944031-8.3286133-24.9691925
		c0-5.3921051,10.3334961-14.7505035,21.2744141-24.6576996l4.7870789-4.3471985
		c3.7774048-3.4502106,7.0630188-6.6758118,10.2407227-9.7959137c7.2388-7.1102905,12.9555969-12.7264862,19.6098938-16.0975952
		c14.9985046-7.601593,28.6102905-10.405304,42.8374023-10.405304c29.3729858,0,43.6366882,12.2495117,61.695282,28.6929016
		l9.5811157,8.5888062l3.5693054,3.097702c11.4882812,9.9521027,22.3397827,19.3544922,22.3397827,24.9243011
		c0,6.9062958-2.4129944,13.7812958-5.6777039,20.1679993c0.375-2.3540039,0.4024048-3.9009094,0.4024048-6.8887024
		c0-11.375-3.1445923-16.280304-14.7579041-28.4194031l-7.6346741,7.3022003
		c10.8798828,11.3731079,11.8280945,13.7978973,11.8280945,21.1172028c0,4.5507965,0,4.5507965-2.3105164,14.8101044
		l-3.0664978,13.75l0.3554993,1.2547913c0.0352173,0.1304016,3.5869141,13.1879883,3.5869141,25.7128906
		c0,13.093811-8.0126953,17.9927063-18.157196,24.1949158l-3.1855164,1.960907l-10.890686,6.5653992
		c-11.5019226,6.7529907-17.2441101,9.7382812-17.2441101,21.5322876v6.7391968
		c0,3.9121094-14.7832031,13.9356079-30.539093,13.9356079c-14.469696,0-30.3945007-10.0284119-30.9741211-13.6426086
		c0.0039062-4.8291016,0.2090149-6.9277954,0.2090149-6.9277954c0-11.5643921-5.6054993-14.8172913-16.7724915-21.3006897
		c-3.1083984-1.8033142-6.9770203-4.0489197-11.5302124-6.9013977l-3.1831055-1.960907
		C291.4208984,320.3280945,284.1773071,316.8081055,284.1773071,302.3353882z M273.5888977,415.1796875l-7.901886,3.7402039
		c-7.9160156,3.8056946-17.7841187,11.7744141-19.8335114,28.1367188c-0.3354034,2.6817017-6.391098,9.7949829-12.5951996,9.7949829
		c-3.8148956,0-8.3193054-2.5195923-8.9423981-6.2685852c-1.0771027-6.4463196-5.953598-29.5596008-6.1605988-30.5420227
		c-0.6040039-2.852478-3.4048004-4.6786804-6.2606964-4.0761719c-2.8545074,0.6034851-4.6797028,3.4062805-4.0757141,6.2607727
		c0.0117035,0.055603,0.308609,1.4658203,0.7651062,3.6473999c-9.1815948-4.3846741-9.5668945-5.1737976-9.5668945-8.3348999
		c0-3.8974915,9.0166016-8.8700867,16.0820007-8.8700867c5.9711914,0,10.5468903,1.7098999,14.9726868,3.3652039
		c4,1.4960938,8.1357117,3.0419922,12.8003082,3.0419922c6.719696,0,8.6459961-0.6786804,11.7328949-2.3476868l2.6016083-1.2705078
		c4.0726929-1.7148132,35.6586914-16.7910156,49.5687866-23.4432983c1.9418945,2.7832031,4.2651062,5.5703125,6.9400024,8.2597046
		L273.5888977,415.1796875z M389.0606079,400.3768921l-0.561615,0.281311
		c-8.3836975,4.2147827-18.813385,9.0342102-23.1297913,9.0342102c-3.9742126,0-17.4165039-3.9190063-28.1524048-9.3155212
		c-17.3232117-8.7088928-26.9038086-23.6376953-26.9038086-30.6289062v-25.6014709
		c0.2221985,0.1288757,0.4487,0.2596741,0.6636047,0.382782c10.6596985,6.1893921,11.4692078,6.9140015,11.5068054,11.7431946
		c-0.155304,1.3037109-0.2020874,3.4355164-0.2020874,7.4129944c0,13.093811,25.5121765,24.1426086,41.5350952,24.1426086
		c17.7782898,0,41.320282-12.0214844,41.320282-24.5v-6.7391968c0-5.3262024,0.5635071-5.8154907,10.8291016-11.8467102v25.0057983
		C415.9657898,376.7391968,406.3837891,391.6679993,389.0606079,400.3768921z M522.5,425.8729858
		c0.4561157-2.1815796,0.7539062-3.5917969,0.765625-3.6473999c0.6005859-2.8544922-1.2225952-5.6572876-4.078125-6.2607727
		c-2.8544922-0.6025085-5.656189,1.2236938-6.2578125,4.0761719c-0.2069702,0.9824219-5.0858765,24.0957031-6.1611023,30.5420227
		c-0.625,3.7489929-5.1288757,6.2685852-8.9423828,6.2685852c-6.2061157,0-12.2587891-7.1132812-12.5957031-9.7949829
		c-2.0498047-16.3623047-11.9190063-24.3310242-19.8320007-28.1367188l-51.0195923-24.5370789
		c2.4491882-2.6641235,4.5527954-5.398407,6.2919922-8.1094055c10.7782898,5.1562805,48.8075867,23.3320923,53.2061157,25.1835938
		l2.6034851,1.2705078c3.0840149,1.6690063,5.0097961,2.3476868,11.7323914,2.3476868
		c4.6641235,0,8.7998047-1.5458984,12.7987976-3.0419922c4.4258118-1.655304,9.0020142-3.3652039,14.9726868-3.3652039
		c7.0645142,0,16.0820312,4.9725952,16.0820312,8.8700867C532.0664062,420.6991882,531.6835938,421.4883118,522.5,425.8729858z"/>
	<path d="M406.8905945,313.2728882c17.6044922,0,25.0176086-22.1063843,25.0176086-27.7982788s-4.5-8.0742188-7.148407-8.0742188
		c-2.6464844,0-29.9159851,0-33.4912109,0c-3.5732727,0-12.1786804,2.9125977-12.1786804,8.4712219
		c0,2.0848999,1.5604858,6.6591797,4.9237976,11.1132812C389.8125,304.6694031,394.843811,313.2728882,406.8905945,313.2728882z"/>
	<path d="M319.3897095,313.2728882c12.0458984,0,17.0770874-8.6034851,22.8764038-16.2879944
		c3.3622742-4.4541016,4.921875-9.0283813,4.921875-11.1132812c0-5.5586243-8.6034851-8.4712219-12.1791992-8.4712219
		c-3.5731812,0-30.8422852,0-33.4896851,0c-2.6480103,0-7.1474915,2.3823242-7.1474915,8.0742188
		S301.7857056,313.2728882,319.3897095,313.2728882z"/>
	<path d="M354.1283875,356.6796875c8.2320251,0,5.456604-3.3300781,12.4849243-3.3300781
		c5.7353821,0,3.7929993,3.2392883,11.5625,3.2392883c7.2108765,0,8.969696-5.4570923,8.969696-7.6777954
		c0-3.4227905-3.8759155-5.6220093-5.6405945-10.2645874c-1.7598267-4.6231079-5.1826172-21.7324219-15.6318054-21.7324219
		c-3.8394165,0-6.0585938,1.5693054-8.9707031,4.9936218c-4.7163086,5.5478821-5.0932922,14.8783875-8.0454102,18.4945984
		c-2.8663025,3.514679-3.9770813,7.2870789-3.9770813,9.2490845
		C344.8799133,351.7782898,345.8980103,356.6796875,354.1283875,356.6796875z"/>
</g>
<path class="st1" d="M0,359.9960938l359.9985962,360.0057983L720,359.9960938L359.9966125,0.0019L0,359.9960938z
	 M662.9570923,359.9960938c-24.9453735,24.9472046-278.0117798,278.0137329-302.9584961,302.9608765
	C335.050293,638.0098267,81.9882965,384.9424133,57.0444984,359.9960938
	C81.9897995,335.0527039,335.050293,81.9912033,359.9966125,57.0443993
	C384.9433899,81.9912033,638.0117188,335.0527039,662.9570923,359.9960938z"/>
</svg>
