<?xml version="1.0" encoding="utf-8"?>
<!-- Generator: Adobe Illustrator 23.0.6, SVG Export Plug-In . SVG Version: 6.00 Build 0)  -->
<svg version="1.1" id="ƒŒƒCƒ_x201E__x5B__3" xmlns="http://www.w3.org/2000/svg" xmlns:xlink="http://www.w3.org/1999/xlink"
	 x="0px" y="0px" viewBox="0 0 720.0004883 720" style="enable-background:new 0 0 720.0004883 720;" xml:space="preserve">
<style type="text/css">
	.st0{fill:#FFFFFF;}
	.st1{fill:none;}
	.st2{fill:#DC2C15;}
</style>
<path class="st0" d="M720.0004883,359.9950867C690.3568726,389.6395874,389.6401062,690.3555298,359.9964905,720
	C330.3510132,690.3555298,29.6406002,389.6376953,0,359.9950867C29.6424999,330.3534851,330.3510132,29.6445007,359.9945984,0
	C389.6390991,29.6445007,690.3568726,330.3534851,720.0004883,359.9950867z"/>
<g>
	<path class="st1" d="M203.6385956,346.3793945c-0.2191925-0.3695984-1.3343964-1.0966797-2.0986023-1.5849915
		c0.5225067,2.0033875,0.3867035,3.7001953,0.2754059,4.9418945c-0.1029968,1.157196-0.0966949,1.4400024,0.0415039,1.6743164
		c0.2870941,0.4863892,0.7807922,1.0663757,1.3920898,1.6782837c0.0561066-0.5185852,0.1230011-1.050293,0.1929016-1.6030884
		C203.6562042,349.8104858,203.980896,347.2792969,203.6385956,346.3793945z"/>
	<path class="st1" d="M329.1176147,227.4857941c-10.3999023,1.7613068-98.8798218,17.1216125-98.8798218,17.1216125
		l1.9199066,12.6396942c0,0,89.4409027-8.6396942,99.6805878-9.2798004
		c10.2393188-0.6401978,15.0401001-4.9589996,15.0401001-11.5200043
		C346.8783875,229.887207,339.5184937,225.7265015,329.1176147,227.4857941z"/>
	<path class="st1" d="M479.4466858,352.3270874c-5.7059937-0.7591858-11.2958984-2.7572937-15.8729858-6.2469788
		c-4.2070007,1.3797913-8.6318054,1.5863953-12.3135071,1.6927795c-0.9979858,0.0279236-2.1757812,0.0689087-3.1503906,0.1430969
		c1.2128906,1.8560181,4.4784851,4.795929,10.7118835,4.795929h20.3038025
		C479.2298889,352.5809937,479.3382874,352.4545898,479.4466858,352.3270874z"/>
	<path class="st1" d="M384.3178101,245.407196c10.2392883,0.6401978,107.1201782,9.1201019,107.1201782,9.1201019
		l1.9199219-12.6400909c0,0-93.6719055-16.3696136-104.0801086-18.0806122
		c-11.6806946-1.9193878-19.8407898,4.3208008-19.8407898,10.8809052
		C369.4370117,241.2471008,374.0776062,244.7680969,384.3178101,245.407196z"/>
	<path class="st1" d="M57.1665001,359.6034851c24.9360008,24.9355164,277.894989,277.9063416,302.8309937,302.8438416
		c24.9364929-24.9375,277.9003906-277.9073181,302.8359985-302.8438416
		C637.8978882,334.6679993,384.9331055,81.7041016,359.9974976,56.7681007
		C335.0614929,81.7041016,82.1025009,334.6679993,57.1665001,359.6034851z M182.0883026,310.1953125l2.3295898,2.6112976
		c3.1548004,3.4115906,7.0806122,7.660675,7.519104,12.7284851c0.2295074,2.6679993-0.2138977,4.664093-0.5361938,6.1187134
		c-0.3784027,1.7055969-0.4409027,2.1005859,0.0585938,3.0990906c0.3614044,0.7240906,1.0640106,1.1264954,2.6993103,1.9385071
		c0.3358917,0.1669922,0.6971893,0.3511047,1.066391,0.5453796c-0.0220032-0.1244812-0.0489044-0.245575-0.0639954-0.3759766
		c-0.3339996-2.6766968,0.3511047-4.7998047,0.9561005-6.672821c0.6416016-1.9888,1.2485046-3.8661804,1.0570984-7.0639954
		l7.6674957-0.457489c0.0317078,0.550293,0.0478058,1.0785828,0.0478058,1.5853882
		c0,3.7626953-0.8348999,6.3457031-1.4638977,8.2955017c-0.4320984,1.3369141-0.6728058,2.1245117-0.6728058,2.8959045
		c0,0.1542969,0.0097961,0.3085938,0.0287933,0.4664001c0.0767059,0.6162109,1.6118011,1.5942078,2.7305145,2.3085022
		c1.8968964,1.2114868,4.2582855,2.7167969,5.2733917,5.3604126c0.5039062,1.3100891,0.6737976,2.734375,0.6737976,4.1757812
		c0,1.5898132-0.2050018,3.2007141-0.3979034,4.7065125c-0.1156921,0.8920898-0.2773895,2.1679993-0.2773895,2.8407898
		c0,0.0967102,0.0054016,0.1708984,0.0141907,0.2392883c0.5498047,1.5415039,2.8451996,5.0391235,6.1187134,8.640625
		l-5.6831055,5.1659851c-1.5147095-1.6669006-3.1851044-3.7010803-4.6148071-5.7450867l-0.5404968,1.0810852
		c-2.5473938-1.2734985-8.5386047-5.4653931-10.8417969-9.3804016c-1.4151001-2.4047852-1.2158051-4.6268921-1.0718079-6.2494812
		c0.1191101-1.3272095,0.1903992-2.129425-0.4359894-3.2881165c-0.5048981-0.9296875-1.4170074-1.4159851-2.9882965-2.195282
		c-1.9424133-0.9663086-4.6030121-2.2886047-6.1504059-5.3823242c-1.7349091-3.4701843-1.1533051-6.0903931-0.6869965-8.1958008
		c0.2728882-1.234375,0.5097961-2.3017883,0.3807983-3.7992859c-0.2118988-2.4449158-3.1464081-5.6206055-5.5063019-8.1729126
		l-2.6343079-2.9613953L182.0883026,310.1953125z M324.0145874,402.5878906H124.7080002v-36.5585938h79.9800034
		c3.2079926,6.281189,9.9857941,10.1307983,21.105896,10.1307983c11.2207031,0,20.828598-3.8104858,25.7572937-10.1307983
		h72.4633942V402.5878906z M239.6259003,347.9672852c-0.3188019-1.2670898-0.7274933-2.8993835-0.7274933-4.7367859
		c0-1.4086914,0.2406921-2.9375,0.9481964-4.5137024c1.375-3.0629883,3.476593-4.714386,5.164093-6.0429993
		c1.2017059-0.9432983,1.898407-1.5145874,2.2422028-2.2362976c0.0312042-0.0971985,0.0449066-0.230011,0.0449066-0.3901062
		c0-0.9008789-0.444809-2.6705017-0.7557983-3.9024048c-0.5508118-2.1801758-1.156311-4.5791016-1.156311-7.0863953
		c0-0.8017883,0.0625-1.6152954,0.2080078-2.4350891l7.5614929,1.3413086
		c-0.3125,1.7616882,0.2696075,4.0698853,0.8321075,6.3007812c0.8016968,3.175293,1.6298981,6.4599915,0.2137909,9.440918
		c-1.1463928,2.4111938-2.9730988,3.8495789-4.4422913,5.0048828c-1.2875977,1.0126953-2.3052063,1.8120117-2.9058075,3.1519165
		c-0.5126953,1.1424866-0.2505035,2.3534851,0.2221985,4.2328796c0.449707,1.7958984,0.9618988,3.8320007,0.2689972,5.980011
		c-0.1000977,0.3110046-0.2392883,0.7342834-0.4208984,1.2304077c0.7031097-0.796814,1.4009094-1.8520203,2.0562134-3.1635132
		c0.2142944-0.5180969,0.3548889-2.2631836,0.4496918-3.417511c0.2021027-2.5073853,0.4116058-5.0990906,1.4956055-7.0864868
		c1.2240906-2.2445984,3.4409027-3.2132874,5.3968811-4.0687866c1.2598267-0.5518188,2.6890259-1.1758118,3.0352173-1.8687134
		c0.5-1.0024109,0.3760071-2.2909851,0.1117859-4.4848022c-0.2221985-1.8413086-0.4736023-3.9296875-0.2587891-6.3999023
		c0.5469055-6.2817993,8.2398071-13.3359985,9.7774048-14.6856079l5.070282,5.7671204
		c-3.3276978,2.9335938-7.0141907,7.4859009-7.1947937,9.5839844c-0.0375977,0.4223938-0.0532837,0.8355103-0.0532837,1.2441101
		c0,1.2070923,0.1387024,2.3657837,0.2841797,3.5727844c0.1377258,1.1480103,0.2846985,2.3608093,0.2846985,3.6177063
		c0,1.680603-0.2621765,3.4375-1.151886,5.2182007c-1.5913086,3.1817017-4.6166992,4.5049133-6.8270874,5.4712219
		c-0.5874023,0.256897-1.4160156,0.6240845-1.7779236,0.870575c-0.2772827,0.7320251-0.4413757,2.6617126-0.5390015,3.867218
		c-0.1864929,2.3096008-0.3632812,4.4911804-1.2182922,6.203186c-3.753891,7.5053101-8.4160004,9.0805054-11.6665039,9.0805054
		v-4.0751953c-1.3016968,1.8652954-3.098587,3.8417969-5.6102905,5.5917969l-4.3907013-6.300293
		c3.6352997-2.5327148,5.0131989-5.6112976,5.8041992-8.0361023
		C239.9974976,349.4512024,239.7763062,348.5658875,239.6259003,347.9672852z M335.5184937,255.887207
		c-12,1.9194031-88,15.1210938-94.0800934,16.0800781c-6.0800018,0.960907-7.680603,3.2007141-7.680603,5.1206055
		c0,1.9204102,3.8408051,6.4746094,3.8408051,14.3994141c0,5.1200867-1.4409027,11.8397827-8.160202,11.8397827
		c-0.0487976,0-0.0912933-0.0091858-0.1390991-0.0101929c1.1542969,12.3945007,6.0610046,26.0742188,6.0610046,29.304718
		c0,3.6600952-1.8305054,12.6048889-8.7441101,12.6048889c-6.9120941,0-8.3359985-7.9295959-8.3359985-13.825592
		c0-5.3793945,6.0751953-15.3409119,7.144104-29.2398071c-3.5659027-2.3179016-4.7866058-7.543396-4.7866058-10.3544922
		c0-7.7578125,7.0951996-13.1074219,5.7176971-23.4824219c-0.3832855-2.8817749-6.996994-41.7167816-6.996994-41.7167816
		c4.4842987,2.0829926,6.7539062,10.9980927,16.559494,9.1190948c6.6670074-1.2767944,75.6006012-13.6791077,90.7198029-16.0800018
		c15.1191101-2.3993988,25.9198914,4.3208008,27.8398132,14.4008942
		C356.3978882,244.1273956,347.5184937,253.9673004,335.5184937,255.887207z M533.6791992,297.7095032
		c0.8154297-0.2134094,0.8320312-0.2173157,1.3563843-1.1958008c0.8633423-1.6094055,0.6943359-2.6655884,0.2324219-4.9013977
		c-0.3583984-1.7105103-0.7998047-3.8384094-0.4042969-6.3506165c0.6651001-4.2064819,3.3085938-6.9286804,5.8662109-9.5600891
		c1.1757812-1.2103882,2.3935547-2.4613953,3.578186-3.9710999l6.0390015,4.7464905
		c-1.4365234,1.8262024-2.8563843,3.2871094-4.109314,4.5757141c-2.303772,2.3706055-3.5166016,3.6864929-3.7871704,5.407196
		c-0.1777344,1.124115,0.0498657,2.2120056,0.3330688,3.5888977c0.5244141,2.5151978,1.2382202,5.9595032-0.9794922,10.0961914
		c-1.9462891,3.6245117-4.2089844,4.4790039-6.1787109,4.9951172c-0.8701782,0.2270813-1.0742798,0.2807922-1.7998657,1.4213867
		c-1.0214233,1.6089172-0.9960327,2.1083984-0.9365234,3.3114929c0.0751953,1.4864197,0.1777954,3.5215149-1.1796875,6.5406189
		c-3.3076172,7.3504944-7.9707031,9.8178101-11.2988281,10.5951843l-1.7440796-7.4799805
		c2.9707031-0.6929016,4.9248047-3.7910156,6.0410156-6.2671204c0.5966797-1.3320007,0.5664062-1.9257812,0.5126953-3.0038757
		c-0.1104126-2.1816101-0.0303345-4.4199219,2.1190796-7.8081055
		C529.5004883,299.0409851,531.7456055,298.2167969,533.6791992,297.7095032z M507.0033875,317.5195007
		c3.0078125-2.6426086,3.1240234-2.7456055,4.235321-6.3168945c0.6192017-1.9873047,0.5097961-3.0209961,0.3408813-4.5848999
		c-0.1914978-1.7695923-0.4296875-3.9711914,0.446228-7.2583008c1.1201782-4.1929016,3.6856079-5.5679016,5.2197876-6.3907166
		c1.1298828-0.6029968,1.3983765-0.7479858,1.7763062-2.2381897c0.4433594-1.736908,0.1152954-2.4551086-0.6054077-4.0253906
		c-0.9091797-1.9859009-2.156311-4.7051086-1.3505859-9.1328125l7.5575562,1.375
		c-0.3729858,2.0502014,0.0605469,2.9945984,0.7744141,4.5566101c0.9199219,2.0072937,2.1817017,4.7562866,1.0673828,9.125
		c-1.2147827,4.7655945-3.9569702,6.2344055-5.5917969,7.1112976c-1.0770874,0.5766907-1.1640625,0.6231079-1.4257812,1.5982056
		c-0.5097046,1.9057007-0.3944702,2.9750977-0.2333984,4.4559937c0.2022095,1.8633118,0.4522095,4.1825867-0.640564,7.6904907
		c-1.6777344,5.3919983-2.8174438,6.5664062-6.5,9.8041077l-1.7246399,1.5278931l-5.1376953-5.7080078L507.0033875,317.5195007z
		 M520.9506226,348.8671875c1.9863892,1.2065125,4.4589844,2.7080078,5.0712891,2.9594116
		c1.9199829,0.6846008,14.0869751,2.0239868,24.2431641,2.0239868v7.679718c-8.9950562,0-23.5058594-1.1904907-26.9911499-2.5317993
		c-1.1367188-0.4375-2.8496094-1.4663086-6.3076172-3.5649109c-3.9727173-2.4120789-9.6983032-5.8847961-13.7763977-7.6420898
		c-2.4551086,1.5892944-5.3809204,2.8158875-8.5596008,3.6509094v1.2695007h0.2373047l13.0917969,2.3227844l-22.9560242,5.3579102
		h-1.1044922c-0.070282,0.4140015-0.1094055,0.8505859-0.1094055,1.3143921
		c0,10.7520142,13.9356079,14.1192017,22.242218,15.1679993l-0.9619141,7.6200867
		c-25.1991882-3.1835938-28.960907-15.6435852-28.960907-22.7880859c0-0.4512024,0.0223999-0.8866882,0.055603-1.3143921H430.175293
		c-5.476593,0-6.7872009,1.5799866-6.7872009,3.0145874s1.0888977,2.7744141,4.5097961,2.7744141h33.7695007v7.6796875h-49.8945007
		c-3.3007812,0-4.6981812,2.5469055-4.6981812,3.5469055c0.0625,0.9375,2.2020874,3.7616882,5.0760803,3.7616882h14.0391235
		v0.0508118c0.546875-0.031311,1.1112976-0.0508118,1.7079773-0.0508118h33.7695007v7.679718h-33.7695007
		c-2.8973999,0-5.8368835,0.5712891-5.8368835,1.6620789c0,1.2715149,2.5967102,3.7481079,7.3554993,3.7481079h13.8486023v0.0448914
		c0.4979858-0.0273743,1.0028992-0.0448914,1.5176086-0.0448914h23.5253906l7.3993835,7.6816101h-30.9247742
		c-5.4043274,0-7.7510071,1.9530945-7.9219055,2.4198914c0,0.9121094,2.0272827,2.7852173,6.9120789,3.1914062
		c6.7617188,0.5644836,36.8936157,1.5048828,41.9873047,1.5048828c5.3905945,0,22.8408203-0.7724915,31.3671875-3.2606812
		c2.4649048-0.718811,4.625-1.7227173,6.9121094-2.7881165c5.7520142-2.6767883,12.2753906-5.7128906,25.8447266-5.7128906v7.680603
		c-11.8701172,0-17.3270874,2.539093-22.6064453,4.9960938c-2.4442749,1.1368103-4.9726562,2.3145142-8,3.1972961
		c-10.1522827,2.9629211-29.0214844,3.5684204-33.5175781,3.5684204c-5.5184937,0-35.6416016-0.9502258-42.6239929-1.531311
		c-9.6416016-0.8046875-13.9570007-6.0263062-13.9570007-10.8457031c0-0.843689,0.1513062-1.6503906,0.4130859-2.4198914h-0.1757812
		c-9.4883118,0-15.0342102-5.1289062-15.0342102-11.429718c0-0.4667969,0.0381165-1.0370789,0.155304-1.6620789h-2.3868103
		c-8.157196,0-12.757782-6.2520142-12.757782-11.4287109c0-5.4267883,4.9746094-11.2392883,12.3798828-11.2392883h4.4824219
		c-0.2626953-1.0508118-0.3564148-2.0332031-0.3564148-2.7998047c0-2.7684937,1.3739929-10.6698914,14.2763977-10.6698914
		h11.8945007c-0.342804-0.4775085-0.6513977-0.9575195-0.9120789-1.4351196
		c-1.6065063-2.9408875-1.7383118-5.8548889-0.3662109-7.9935913c1.8945007-2.9472961,5.5820007-3.0527039,10.25-3.1870117
		c3.6698914-0.1049805,8.2412109-0.237793,11.6679077-1.8256836l2.3115845-1.0713196l1.8847046,1.7138977
		c8.9385071,8.1259155,25.7940063,7.651825,33.3262024,1.5639038l1.6347961-1.3231812l1.9941101,0.6644897
		C508.699707,341.4320984,515.7807007,345.7294922,520.9506226,348.8671875z M449.8930054,303.1841125
		c0.5585938,1.2552795,0.8721008,1.370575,2.194397,1.8568726c1.7705078,0.6519165,4.4453125,1.6367188,6.2128906,5.4512024
		c1.0048218,2.1704102,1.3143921,3.8208008,1.3143921,5.2070007c0,0.9194031-0.1347961,1.7227173-0.2958984,2.4862976
		l-0.102478,0.511322l0.0634766,0.176178c1.6005249,3.6382141,4.0595093,6.6641235,5.5957031,6.8911133l-1.1192017,7.5976868
		c-6.2655945-0.9223938-10.132782-8.277771-11.5048828-11.3969727c-1.0653992-2.4170227-0.6777039-4.2557983-0.4501953-5.3535156
		c0.1757812-0.8320007,0.2724915-1.2909851-0.4687195-2.8905945c-0.4335938-0.9326172-0.657196-1.0155945-1.8984985-1.4717102
		c-1.8641968-0.6864929-4.6825867-1.7230835-6.5585022-5.9458008c-1.7001953-3.8256836-1.1757812-6.5375977-0.7919922-8.5184937
		c0.2987976-1.5444946,0.4960938-2.5639954-0.1669922-4.5131836c-1.2587891-3.7036133-2.2276001-4.7588196-4.1573181-6.8618164
		l-2.4090881-2.7319946l5.9150085-4.898407l2.1513977,2.4375c2.1434937,2.3345032,3.993103,4.3496094,5.7723999,9.5834961
		c0.6445923,1.8965149,0.8526001,3.4966125,0.8526001,4.8623047c0,1.4272156-0.2276001,2.5975952-0.4179993,3.5815125
		c-0.1436157,0.7471008-0.25,1.3022766-0.25,1.848175C449.3735046,301.7142944,449.5112,302.3218079,449.8930054,303.1841125z
		 M457.0570984,284.0527039l7.6289062-0.8973999c0.4638977,3.9432983-0.5137024,6.7055054-1.2969055,8.9248047
		c-0.6464844,1.8305054-0.9443054,2.763092-0.671814,3.9823914c0.1396179,0.6112976,0.5839233,0.960907,2.1562195,1.9320984
		c2.0731812,1.2798157,5.2060852,3.2144165,6.1679993,7.7309875c0.7723999,3.6313171,0.2840881,5.5791016-0.281311,7.2627258
		c-0.2421875,0.7230835-0.2597046,0.781189-0.0214844,1.6244812c0.8984985,3.1465149,1.3027954,3.7051086,6.1493835,8.5537109
		l-5.4286804,5.4302063c-5.1201172-5.1182251-6.6591187-6.8199158-8.1054077-11.874115
		c-0.8251953-2.8959961-0.4121094-4.5751953,0.125885-6.1786804c0.2715149-0.8061218,0.4483032-1.3374023,0.0489197-3.2207031
		c-0.2559204-1.203125-0.867218-1.6694031-2.6924133-2.7949219c-2.0028992-1.2362976-4.7450867-2.9306946-5.6112976-6.780304
		c-0.7734985-3.4325867,0.1679077-6.0917969,0.921814-8.2284851
		C456.800293,287.6777039,457.3139038,286.2225952,457.0570984,284.0527039z M361.7690125,231.8594055
		c1.9198914-10.0801086,12.1552734-17.9449005,27.2773743-15.5449982
		c15.1201172,2.4008942,92.2402039,16.6352997,98.9082031,17.9120941c9.8045959,1.8789978,10.9941101-5.855896,15.4785156-7.9394073
		c0,0-5.5342102,37.652298-5.9160156,40.5370941c-1.3769836,10.375,4.3271179,8.2192078,4.3271179,19.1856079
		c0,4.7015991-1.6328125,9.8583984-5.7773132,11.6903992c1.710907,10.8887024,5.7910156,18.4248047,5.7910156,23.0888062
		c0,5.8964844-2.1651001,14.0239868-9.0772095,14.0239868c-6.9140015,0-8.0028992-9.1440735-8.0028992-12.8041992
		c0-2.8096008,4.4530945-13.0567017,6.5195007-23.7382812c-5.5116882-1.0249023-6.2557983-8.5238953-6.2557983-13.285614
		c0-6.2333984,3.7070007-9.7832947,3.7070007-10.7309875c0-0.9472961-2.8417969-3.2339172-6.3145142-3.7866211
		c-6.0799866-0.9687805-90.1854858-14.9823914-102.1854858-16.9023895
		C368.2485046,251.6450043,359.8490906,241.9394073,361.7690125,231.8594055z"/>
	<path d="M225.7938995,376.1600952c-11.1201019,0-17.8979034-3.8496094-21.105896-10.1307983h-79.9800034v36.5585938h199.3065796
		v-36.5585938h-72.4633942C246.6224976,372.3496094,237.0146027,376.1600952,225.7938995,376.1600952z"/>
	<path d="M244.1976929,362.6278992c3.2505035,0,7.9126129-1.5751953,11.6665039-9.0805054
		c0.855011-1.7120056,1.0317993-3.8935852,1.2182922-6.203186c0.0976257-1.2055054,0.2617188-3.1351929,0.5390015-3.867218
		c0.361908-0.2464905,1.1905212-0.613678,1.7779236-0.870575c2.2103882-0.9663086,5.2357788-2.2895203,6.8270874-5.4712219
		c0.8897095-1.7807007,1.151886-3.5375977,1.151886-5.2182007c0-1.256897-0.1469727-2.469696-0.2846985-3.6177063
		c-0.1454773-1.2070007-0.2841797-2.3656921-0.2841797-3.5727844c0-0.4085999,0.015686-0.8217163,0.0532837-1.2441101
		c0.180603-2.0980835,3.8670959-6.6503906,7.1947937-9.5839844l-5.070282-5.7671204
		c-1.5375977,1.3496094-9.2304993,8.4038086-9.7774048,14.6856079c-0.2148132,2.4702148,0.0365906,4.5585938,0.2587891,6.3999023
		c0.2642212,2.1938171,0.3882141,3.4823914-0.1117859,4.4848022c-0.3461914,0.6929016-1.7753906,1.3168945-3.0352173,1.8687134
		c-1.9559784,0.8554993-4.1727905,1.8241882-5.3968811,4.0687866c-1.0839996,1.9873962-1.2935028,4.5791016-1.4956055,7.0864868
		c-0.0948029,1.1543274-0.2353973,2.8994141-0.4496918,3.417511c-0.655304,1.3114929-1.3531036,2.3666992-2.0562134,3.1635132
		c-0.4833984,1.3233032-1.3070984,3.214386-2.7256012,5.2460938V362.6278992z"/>
	<path d="M234.196701,357.8442078l4.3907013,6.300293c2.5117035-1.75,4.3085938-3.7265015,5.6102905-5.5917969
		c1.4185028-2.0317078,2.2422028-3.9227905,2.7256012-5.2460938c0.1816101-0.4961243,0.3208008-0.9194031,0.4208984-1.2304077
		c0.6929016-2.1480103,0.1807098-4.1841125-0.2689972-5.980011c-0.472702-1.8793945-0.7348938-3.0903931-0.2221985-4.2328796
		c0.6006012-1.3399048,1.6182098-2.1392212,2.9058075-3.1519165c1.4691925-1.155304,3.2958984-2.593689,4.4422913-5.0048828
		c1.4161072-2.9809265,0.5879059-6.265625-0.2137909-9.440918c-0.5625-2.230896-1.1446075-4.539093-0.8321075-6.3007812
		l-7.5614929-1.3413086c-0.1455078,0.8197937-0.2080078,1.6333008-0.2080078,2.4350891
		c0,2.5072937,0.6054993,4.9062195,1.156311,7.0863953c0.3109894,1.2319031,0.7557983,3.0015259,0.7557983,3.9024048
		c0,0.1600952-0.0137024,0.2929077-0.0449066,0.3901062c-0.3437958,0.7217102-1.0404968,1.2929993-2.2422028,2.2362976
		c-1.6875,1.3286133-3.789093,2.980011-5.164093,6.0429993c-0.7075043,1.5762024-0.9481964,3.105011-0.9481964,4.5137024
		c0,1.8374023,0.4086914,3.469696,0.7274933,4.7367859c0.1504059,0.5986023,0.3715973,1.4839172,0.375,1.8408203
		C239.2098999,352.2329102,237.8320007,355.3114929,234.196701,357.8442078z"/>
	<path d="M200.480896,342.1098938c0.5127106,0.9461975,0.8384094,1.8398132,1.0590973,2.6845093
		c0.7642059,0.4883118,1.8794098,1.2153931,2.0986023,1.5849915c0.3423004,0.8999023,0.0176086,3.4310913-0.196701,5.1064148
		c-0.0699005,0.5527954-0.136795,1.0845032-0.1929016,1.6030884c1.8271027,1.8305054,4.7085114,3.9472046,6.2632141,4.7246094
		l-2.8931122,5.7890015c1.4297028,2.0440063,3.1000977,4.078186,4.6148071,5.7450867l5.6831055-5.1659851
		c-3.2735138-3.6015015-5.5689087-7.0991211-6.1187134-8.640625c-0.0087891-0.0683899-0.0141907-0.1425781-0.0141907-0.2392883
		c0-0.6727905,0.1616974-1.9487,0.2773895-2.8407898c0.1929016-1.5057983,0.3979034-3.1166992,0.3979034-4.7065125
		c0-1.4414062-0.1698914-2.8656921-0.6737976-4.1757812c-1.0151062-2.6436157-3.3764954-4.1489258-5.2733917-5.3604126
		c-1.1187134-0.7142944-2.6538086-1.6922913-2.7305145-2.3085022c-0.0189972-0.1578064-0.0287933-0.3121033-0.0287933-0.4664001
		c0-0.7713928,0.2407074-1.5589905,0.6728058-2.8959045c0.6289978-1.9497986,1.4638977-4.5328064,1.4638977-8.2955017
		c0-0.5068054-0.016098-1.0350952-0.0478058-1.5853882l-7.6674957,0.457489
		c0.1914062,3.1978149-0.4154968,5.0751953-1.0570984,7.0639954c-0.6049957,1.8730164-1.2901001,3.9961243-0.9561005,6.672821
		c0.0150909,0.1304016,0.0419922,0.2514954,0.0639954,0.3759766
		C197.0097046,338.1802063,199.0848999,339.5297852,200.480896,342.1098938z"/>
	<path d="M184.2841034,326.1929016c0.1289978,1.4974976-0.1079102,2.5649109-0.3807983,3.7992859
		c-0.4663086,2.1054077-1.0479126,4.7256165,0.6869965,8.1958008c1.5473938,3.0937195,4.2079926,4.4160156,6.1504059,5.3823242
		c1.5712891,0.7792969,2.4833984,1.2655945,2.9882965,2.195282c0.6263885,1.1586914,0.5550995,1.960907,0.4359894,3.2881165
		c-0.1439972,1.6225891-0.3432922,3.844696,1.0718079,6.2494812c2.3031921,3.9150085,8.2944031,8.1069031,10.8417969,9.3804016
		l0.5404968-1.0810852l2.8931122-5.7890015c-1.5547028-0.7774048-4.4361115-2.894104-6.2632141-4.7246094
		c-0.6112976-0.611908-1.1049957-1.1918945-1.3920898-1.6782837c-0.1381989-0.234314-0.1445007-0.5171204-0.0415039-1.6743164
		c0.1112976-1.2416992,0.2471008-2.9385071-0.2754059-4.9418945c-0.2206879-0.844696-0.5463867-1.7383118-1.0590973-2.6845093
		c-1.3959961-2.5801086-3.4711914-3.9296875-5.2557983-4.8731079c-0.3692017-0.1942749-0.7304993-0.3783875-1.066391-0.5453796
		c-1.6352997-0.8120117-2.3379059-1.2144165-2.6993103-1.9385071c-0.4994965-0.9985046-0.4369965-1.3934937-0.0585938-3.0990906
		c0.3222961-1.4546204,0.7657013-3.4507141,0.5361938-6.1187134c-0.4384918-5.0678101-4.3643036-9.3168945-7.519104-12.7284851
		l-2.3295898-2.6112976l-5.944809,4.8632812l2.6343079,2.9613953
		C181.1376953,320.5722961,184.0722046,323.7479858,184.2841034,326.1929016z"/>
	<path d="M354.4775085,234.0473938c-1.9199219-10.0800934-12.7207031-16.800293-27.8398132-14.4008942
		c-15.1192017,2.4008942-84.0527954,14.8032074-90.7198029,16.0800018
		c-9.8055878,1.8789978-12.0751953-7.0361023-16.559494-9.1190948c0,0,6.6137085,38.8350067,6.996994,41.7167816
		c1.3775024,10.375-5.7176971,15.7246094-5.7176971,23.4824219c0,2.8110962,1.2207031,8.0365906,4.7866058,10.3544922
		c-1.0689087,13.8988953-7.144104,23.8604126-7.144104,29.2398071c0,5.8959961,1.4239044,13.825592,8.3359985,13.825592
		c6.9136047,0,8.7441101-8.9447937,8.7441101-12.6048889c0-3.2304993-4.9067078-16.9102173-6.0610046-29.304718
		c0.0478058,0.0010071,0.0903015,0.0101929,0.1390991,0.0101929c6.7192993,0,8.160202-6.719696,8.160202-11.8397827
		c0-7.9248047-3.8408051-12.4790039-3.8408051-14.3994141c0-1.9198914,1.6006012-4.1596985,7.680603-5.1206055
		c6.0800934-0.9589844,82.0800934-14.160675,94.0800934-16.0800781
		C347.5184937,253.9673004,356.3978882,244.1273956,354.4775085,234.0473938z M331.8382874,247.9673004
		c-10.2396851,0.6401062-99.6805878,9.2798004-99.6805878,9.2798004l-1.9199066-12.6396942
		c0,0,88.4799194-15.3603058,98.8798218-17.1216125c10.4008789-1.7592926,17.7607727,2.401413,17.7607727,8.9615021
		C346.8783875,243.0083008,342.0776062,247.3271027,331.8382874,247.9673004z"/>
	<path d="M501.8442078,286.0097961c0-10.9664001-5.7041016-8.8106079-4.3271179-19.1856079
		c0.3818054-2.8847961,5.9160156-40.5370941,5.9160156-40.5370941c-4.4844055,2.0835114-5.6739197,9.8184052-15.4785156,7.9394073
		c-6.6679993-1.2767944-83.7880859-15.5112-98.9082031-17.9120941
		c-15.1221008-2.3999023-25.3574829,5.4648895-27.2773743,15.5449982
		c-1.9199219,10.0800018,6.4794922,19.7855988,18.4794922,21.7054901c12,1.9199982,96.1054993,15.933609,102.1854858,16.9023895
		c3.4727173,0.5527039,6.3145142,2.839325,6.3145142,3.7866211c0,0.9476929-3.7070007,4.4975891-3.7070007,10.7309875
		c0,4.7617188,0.7441101,12.2607117,6.2557983,13.285614c-2.0664062,10.6815796-6.5195007,20.9286804-6.5195007,23.7382812
		c0,3.6601257,1.0888977,12.8041992,8.0028992,12.8041992c6.9121094,0,9.0772095-8.1275024,9.0772095-14.0239868
		c0-4.6640015-4.0801086-12.2001038-5.7910156-23.0888062C500.2113953,295.8681946,501.8442078,290.7113953,501.8442078,286.0097961
		z M384.3178101,245.407196c-10.2402039-0.6390991-14.8807983-4.1600952-14.8807983-10.719696
		c0-6.5601044,8.1600952-12.800293,19.8407898-10.8809052c10.4082031,1.7109985,104.0801086,18.0806122,104.0801086,18.0806122
		l-1.9199219,12.6400909C491.4379883,254.527298,394.5570984,246.0473938,384.3178101,245.407196z"/>
	<path d="M525.2202148,310.2578125c0.0537109,1.0780945,0.0839844,1.671875-0.5126953,3.0038757
		c-1.1162109,2.4761047-3.0703125,5.5742188-6.0410156,6.2671204l1.7440796,7.4799805
		c3.328125-0.7773743,7.9912109-3.2446899,11.2988281-10.5951843c1.3574829-3.019104,1.2548828-5.0541992,1.1796875-6.5406189
		c-0.0595093-1.2030945-0.0848999-1.7025757,0.9365234-3.3114929c0.7255859-1.1405945,0.9296875-1.1943054,1.7998657-1.4213867
		c1.9697266-0.5161133,4.2324219-1.3706055,6.1787109-4.9951172c2.2177124-4.1366882,1.5039062-7.5809937,0.9794922-10.0961914
		c-0.2832031-1.3768921-0.5108032-2.4647827-0.3330688-3.5888977c0.2705688-1.7207031,1.4833984-3.0365906,3.7871704-5.407196
		c1.2529297-1.2886047,2.6727905-2.7495117,4.109314-4.5757141l-6.0390015-4.7464905
		c-1.1846313,1.5097046-2.4024048,2.7607117-3.578186,3.9710999c-2.5576172,2.6314087-5.2011108,5.3536072-5.8662109,9.5600891
		c-0.3955078,2.512207,0.0458984,4.6401062,0.4042969,6.3506165c0.4619141,2.2358093,0.6309204,3.2919922-0.2324219,4.9013977
		c-0.524353,0.9784851-0.5409546,0.9823914-1.3563843,1.1958008c-1.9335938,0.5072937-4.1787109,1.3314819-6.3399048,4.7402039
		C525.1898804,305.8378906,525.1098022,308.0762024,525.2202148,310.2578125z"/>
	<path d="M512.0737305,323.2890015c3.6825562-3.2377014,4.8222656-4.4121094,6.5-9.8041077
		c1.0927734-3.5079041,0.8427734-5.827179,0.640564-7.6904907c-0.1610718-1.480896-0.2763062-2.550293,0.2333984-4.4559937
		c0.2617188-0.9750977,0.3486938-1.0215149,1.4257812-1.5982056c1.6348267-0.8768921,4.3770142-2.3457031,5.5917969-7.1112976
		c1.1143188-4.3687134-0.1474609-7.1177063-1.0673828-9.125c-0.7138672-1.5620117-1.1473999-2.5064087-0.7744141-4.5566101
		l-7.5575562-1.375c-0.8057251,4.4277039,0.4414062,7.1469116,1.3505859,9.1328125
		c0.7207031,1.570282,1.0487671,2.2884827,0.6054077,4.0253906c-0.3779297,1.4902039-0.6464233,1.6351929-1.7763062,2.2381897
		c-1.5341797,0.8228149-4.0996094,2.1978149-5.2197876,6.3907166c-0.8759155,3.2871094-0.6377258,5.4887085-0.446228,7.2583008
		c0.1689148,1.5639038,0.2783203,2.5975952-0.3408813,4.5848999c-1.1112976,3.5712891-1.2275085,3.6742859-4.235321,6.3168945
		l-1.7919922,1.589386l5.1376953,5.7080078L512.0737305,323.2890015z"/>
	<path d="M455.2250977,297.7479858c0.8662109,3.8496094,3.6083984,5.5440063,5.6112976,6.780304
		c1.8251953,1.1255188,2.4364929,1.5917969,2.6924133,2.7949219c0.3993835,1.8833008,0.2225952,2.4145813-0.0489197,3.2207031
		c-0.5379944,1.6034851-0.9510803,3.2826843-0.125885,6.1786804c1.4462891,5.0541992,2.9852905,6.7558899,8.1054077,11.874115
		l5.4286804-5.4302063c-4.8465881-4.8486023-5.250885-5.407196-6.1493835-8.5537109
		c-0.2382202-0.8432922-0.2207031-0.9013977,0.0214844-1.6244812c0.5653992-1.6836243,1.0537109-3.6314087,0.281311-7.2627258
		c-0.9619141-4.516571-4.0948181-6.4511719-6.1679993-7.7309875c-1.5722961-0.9711914-2.0166016-1.3208008-2.1562195-1.9320984
		c-0.2724915-1.2192993,0.0253296-2.151886,0.671814-3.9823914c0.7832031-2.2192993,1.7608032-4.9815063,1.2969055-8.9248047
		l-7.6289062,0.8973999c0.2568054,2.1698914-0.2568054,3.625-0.9101868,5.4667969
		C455.3930054,291.656189,454.4515991,294.3153992,455.2250977,297.7479858z"/>
	<path d="M450.0415039,295.6625977c0-1.3656921-0.2080078-2.9657898-0.8526001-4.8623047
		c-1.7792969-5.2338867-3.6289062-7.2489929-5.7723999-9.5834961l-2.1513977-2.4375l-5.9150085,4.898407l2.4090881,2.7319946
		c1.929718,2.1029968,2.8985291,3.1582031,4.1573181,6.8618164c0.6630859,1.9491882,0.4657898,2.968689,0.1669922,4.5131836
		c-0.3837891,1.980896-0.9082031,4.6928101,0.7919922,8.5184937c1.8759155,4.2227173,4.6943054,5.2593079,6.5585022,5.9458008
		c1.2413025,0.4561157,1.4649048,0.539093,1.8984985,1.4717102c0.7412109,1.5996094,0.6445007,2.0585938,0.4687195,2.8905945
		c-0.2275085,1.0977173-0.6152039,2.9364929,0.4501953,5.3535156c1.3721008,3.1192017,5.2392883,10.4745789,11.5048828,11.3969727
		l1.1192017-7.5976868c-1.5361938-0.2269897-3.9951782-3.2528992-5.5957031-6.8911133l-0.0634766-0.176178l0.102478-0.511322
		c0.1611023-0.7635803,0.2958984-1.5668945,0.2958984-2.4862976c0-1.3862-0.3095703-3.0365906-1.3143921-5.2070007
		c-1.7675781-3.8144836-4.4423828-4.7992859-6.2128906-5.4512024c-1.3222961-0.4862976-1.6358032-0.601593-2.194397-1.8568726
		c-0.3818054-0.8623047-0.5195007-1.4698181-0.5195007-2.0918274c0-0.5458984,0.1063843-1.1010742,0.25-1.848175
		C449.8139038,298.2601929,450.0415039,297.0898132,450.0415039,295.6625977z"/>
	<path d="M494.6303101,351.6737976v-0.2313843c3.1786804-0.835022,6.1044922-2.061615,8.5596008-3.6509094
		c4.0780945,1.7572937,9.8036804,5.230011,13.7763977,7.6420898c3.4580078,2.0986023,5.1708984,3.1274109,6.3076172,3.5649109
		c3.4852905,1.3413086,17.9960938,2.5317993,26.9911499,2.5317993v-7.679718c-10.156189,0-22.3231812-1.339386-24.2431641-2.0239868
		c-0.6123047-0.2514038-3.0848999-1.7528992-5.0712891-2.9594116c-5.1699219-3.1376953-12.2509155-7.4350891-17.0898132-9.0488892
		l-1.9941101-0.6644897l-1.6347961,1.3231812c-2.1181946,1.7124023-4.9873047,2.9615173-8.1972961,3.718811
		c-0.6845093,0.1000977-1.4052124,0.2427063-2.1455078,0.4227905c-7.8203125,1.242218-17.1073914-0.3631897-22.9833984-5.7055054
		l-1.8847046-1.7138977l-2.3115845,1.0713196c-3.4266968,1.5878906-7.9980164,1.7207031-11.6679077,1.8256836
		c-4.6679993,0.1343079-8.3554993,0.2397156-10.25,3.1870117c-1.3721008,2.1387024-1.2402954,5.0527039,0.3662109,7.9935913
		c0.2606812,0.4776001,0.5692749,0.9576111,0.9120789,1.4351196H430.175293
		c-12.9024048,0-14.2763977,7.9013977-14.2763977,10.6698914c0,0.7666016,0.0937195,1.7489929,0.3564148,2.7998047h-4.4824219
		c-7.4052734,0-12.3798828,5.8125-12.3798828,11.2392883c0,5.1766968,4.6005859,11.4287109,12.757782,11.4287109h2.3868103
		c-0.1171875,0.625-0.155304,1.195282-0.155304,1.6620789c0,6.3008118,5.5458984,11.429718,15.0342102,11.429718h0.1757812
		c-0.2617798,0.7695007-0.4130859,1.5762024-0.4130859,2.4198914c0,4.819397,4.3153992,10.0410156,13.9570007,10.8457031
		c6.9823914,0.5810852,37.1054993,1.531311,42.6239929,1.531311c4.4960938,0,23.3652954-0.6054993,33.5175781-3.5684204
		c3.0273438-0.882782,5.5557251-2.0604858,8-3.1972961c5.2793579-2.4570007,10.7363281-4.9960938,22.6064453-4.9960938v-7.680603
		c-13.5693359,0-20.0927124,3.0361023-25.8447266,5.7128906c-2.2871094,1.0653992-4.4472046,2.0693054-6.9121094,2.7881165
		c-8.5263672,2.4881897-25.976593,3.2606812-31.3671875,3.2606812c-5.093689,0-35.2255859-0.9403992-41.9873047-1.5048828
		c-4.8847961-0.406189-6.9120789-2.2792969-6.9120789-3.1914062c0.1708984-0.4667969,2.5175781-2.4198914,7.9219055-2.4198914
		h30.9247742l-7.3993835-7.6816101h-23.5253906c-0.5147095,0-1.0196228,0.0175171-1.5176086,0.0448914v-0.0448914h-13.8486023
		c-4.7587891,0-7.3554993-2.476593-7.3554993-3.7481079c0-1.0907898,2.9394836-1.6620789,5.8368835-1.6620789h33.7695007v-7.679718
		h-33.7695007c-0.5966797,0-1.1611023,0.0195007-1.7079773,0.0508118v-0.0508118h-14.0391235
		c-2.8739929,0-5.0135803-2.8241882-5.0760803-3.7616882c0-1,1.3973999-3.5469055,4.6981812-3.5469055h49.8945007v-7.6796875
		h-33.7695007c-3.4208984,0-4.5097961-1.3398132-4.5097961-2.7744141s1.3106079-3.0145874,6.7872009-3.0145874h45.9403992
		c0.1347961,7.1972046,4.1953125,19.2763062,28.9541016,22.4042969l0.9619141-7.6192017
		c-8.3066101-1.0487976-22.242218-4.4160156-22.242218-15.1679077c0-0.4649048,0.0391235-0.9009094,0.1094055-1.3144836
		C485.0238953,352.1098938,494.5278015,351.6737976,494.6303101,351.6737976z M448.1098022,347.9159851
		c0.9746094-0.0741882,2.1524048-0.1151733,3.1503906-0.1430969c3.6817017-0.1063843,8.1065063-0.3129883,12.3135071-1.6927795
		c4.2763977,3.2606812,9.4393921,5.2041016,14.7528992,6.0672913c-0.1191101,0.1856079-0.2383118,0.3710938-0.3496094,0.5645142
		h-19.155304C452.5882874,352.7119141,449.3226929,349.7720032,448.1098022,347.9159851z"/>
</g>
<path class="st2" d="M0.0009,359.9960938L359.9974976,720l360.0029907-360.0039062L359.9974976,0L0.0009,359.9960938z
	 M662.9575195,359.9960938c-24.9462891,24.9453125-278.0137329,278.0137329-302.960022,302.9608765
	c-24.9458008-24.9471436-278.0083008-278.015564-302.9541016-302.9608765
	c24.945797-24.9458008,278.0083008-278.006897,302.9541016-302.9526978
	C384.9437866,81.9891968,638.0112305,335.050293,662.9575195,359.9960938z"/>
</svg>
