<?xml version="1.0" encoding="utf-8"?>
<!-- Generator: Adobe Illustrator 23.0.6, SVG Export Plug-In . SVG Version: 6.00 Build 0)  -->
<svg version="1.1" id="ƒŒƒCƒ_x201E__x5B__3" xmlns="http://www.w3.org/2000/svg" xmlns:xlink="http://www.w3.org/1999/xlink"
	 x="0px" y="0px" viewBox="0 0 719.9995117 720" style="enable-background:new 0 0 719.9995117 720;" xml:space="preserve">
<style type="text/css">
	.st0{fill:#FFFFFF;}
	.st1{fill:#DC2C15;}
</style>
<path class="st0" d="M719.9995117,359.9950867C690.355896,389.6395874,389.6411133,690.3555298,359.9964905,720
	C330.3510132,690.3555298,29.6401005,389.6376953,0,359.9950867C29.6420994,330.3534851,330.3510132,29.6445007,359.9945984,0
	C389.637207,29.6445007,690.355896,330.3534851,719.9995117,359.9950867z"/>
<g>
	<path d="M337.125,485.1015015h-70.2182922v29.5723267h195.0986023v-29.5723267h-79.1914062
		c-7.3193054,1.8008118-14.968689,2.7618103-22.8442078,2.7618103
		C352.094696,487.8633118,344.4458008,486.9023132,337.125,485.1015015z"/>
	<path d="M448.5140991,390.5741882l3.1299133-24.3300781c-3.8418274-13.4287109-10.554718-25.6455078-19.4316101-35.9438171
		l-6.1026001,5.1278992l-4.2294922-5.3266907l-2.3711243-12.0462952
		c-8.9393921-7.1557922-19.1913757-12.7344055-30.3417969-16.3184204l-4.9637756,7.660614l-3.280304-9.906189
		c-6.7441101-1.5117188-13.7549133-2.3145142-20.9536133-2.3145142c-7.6397095,0-15.0653992,0.9034119-22.1856079,2.6000977
		l0.093811,4.1338196l-9.3695984,2.3774719l-1.6856079-3.1879883c-7.9799805,2.9598999-15.457489,6.9551086-22.2655945,11.8262024
		l2.3309937,5.7705078l-9.1590881-0.4013977c-9.3384094,8.0541992-17.0977173,17.8887024-22.7510071,28.976593l0.1903992,10.6073914
		l-5.7593079,47.0404968l-4.3573914-5.3964844c3.8174133,40.7460938,33.2724915,74.0370789,72.0733032,83.5780945
		c7.3208008,1.8008118,14.969696,2.7618103,22.844696,2.7618103c7.8755188,0,15.5249023-0.9609985,22.8442078-2.7618103
		c34.156311-8.4002991,61.070282-35.2011108,69.6289062-69.2929077l-3.6162109,5.7861023L448.5140991,390.5741882z
		 M359.9692078,460.4804993c-37.5337219,0-67.960907-30.4277954-67.960907-67.9609985s30.4271851-67.960907,67.960907-67.960907
		c37.532196,0,67.960907,30.4277039,67.960907,67.960907S397.5014038,460.4804993,359.9692078,460.4804993z"/>
	<polygon points="351.0097046,133.0171051 351.0097046,156.6802063 344.8012085,188.9463043 336.8099976,208.9994965 
		326.6899109,195.7201996 322.2084961,187.0800934 319.648407,178.1190948 303.3280945,158.2792969 307.1899109,172.8945007 
		299.168396,188.0390015 295.9692078,210.4394073 299.9476929,242.5751953 285.582489,234.9882965 276.1293945,220.9994965 
		263.3291016,205.6390991 266.8490906,227.3993988 267.0195007,264.0409851 270.5708008,283.2489929 253.0908051,272.5195007 
		237.4091034,260.6802063 240.9291992,294.6000977 240.9291992,336.8407898 248.2890015,375.2391968 255.9691925,390.2792969 
		265.0516968,401.523407 269.4090881,406.9198914 275.168396,359.8793945 274.9779968,349.2720032 274.7674866,337.6440125 
		269.7636108,317.4682007 267.4896851,302.6000977 280.5786133,315.3685913 288.4867859,319.8895874 297.7290039,320.2954102 
		306.888092,320.6968079 304.5570984,314.9263 300.4320984,304.7167969 307.6958008,280.0209961 311.1170959,254.902298 
		318.3241882,287.0184937 326.8226929,303.1000977 328.5083008,306.2880859 337.8778992,303.910614 337.7840881,299.7767944 
		337.3940125,282.6034851 351.6937866,254.5888977 352.0083008,232.9687042 369.7113953,253.9633942 373.4702148,276.9921875 
		380.9233093,299.4912109 384.2036133,309.3973999 389.1673889,301.7367859 409.9740906,269.6289062 419.5091858,318.0552063 
		421.8803101,330.1015015 426.1098022,335.4281921 432.2124023,330.300293 440.8374023,323.0521851 454.1538086,313.6517944 
		453.9964905,347.960907 451.6440125,366.2441101 448.5140991,390.5741882 448.8265991,421.594696 452.4428101,415.8085938 
		473.1098022,382.7402039 484.1293945,349.9598999 484.1293945,309.9595032 473.2495117,264.8407898 473.2495117,272.1991882 
		461.4077148,283.4009094 447.6499023,289.7992859 451.6469116,271.0390015 458.6966858,247.5390015 451.0190125,219.9658051 
		446.6908875,231.5599976 439.0091858,239.5473022 425.5678101,245.9463043 428.7690125,227.3993988 428.7690125,205.3193054 
		410.2084961,165.3193054 410.2084961,173.6401062 406.3685913,191.5599976 399.0091858,205.6390991 384.9301147,212.6802063 
		384.9301147,180.0390015 377.2495117,154.4394073 366.6899109,129.1591949 359.0570984,98.080101 	"/>
</g>
<path class="st1" d="M0,359.9960938L359.9956055,720l360.0039062-360.0039062L359.9956055,0L0,359.9960938z
	 M662.9545898,359.9960938c-24.9453735,24.9472046-278.0117798,278.0136108-302.9589844,302.9608765
	c-24.9458008-24.9472656-278.0074158-278.015564-302.9532166-302.9608765
	C81.9881973,335.050293,335.0498047,81.9888,359.9956055,57.0433998
	C384.9408875,81.9888,638.0092163,335.050293,662.9545898,359.9960938z"/>
</svg>
