<?xml version="1.0" encoding="UTF-8" standalone="no"?>
<!-- Created with Inkscape (http://www.inkscape.org/) -->

<svg
   xmlns:dc="http://purl.org/dc/elements/1.1/"
   xmlns:cc="http://creativecommons.org/ns#"
   xmlns:rdf="http://www.w3.org/1999/02/22-rdf-syntax-ns#"
   xmlns:svg="http://www.w3.org/2000/svg"
   xmlns="http://www.w3.org/2000/svg"
   xmlns:xlink="http://www.w3.org/1999/xlink"
   xmlns:sodipodi="http://sodipodi.sourceforge.net/DTD/sodipodi-0.dtd"
   xmlns:inkscape="http://www.inkscape.org/namespaces/inkscape"
   width="1264"
   height="16"
   id="icons"
   sodipodi:version="0.32"
   inkscape:version="0.48.2 r9819"
   version="1.0"
   inkscape:export-filename="/home/brice/Projets/ekylibre/app/assets/images/themes/tekyla/icons-16.png"
   inkscape:export-xdpi="90"
   inkscape:export-ydpi="90"
   sodipodi:docname="symbols.svg"
   inkscape:output_extension="org.inkscape.output.svg.inkscape"
   style="display:inline">
  <defs
     id="defs136" />
  <sodipodi:namedview
     id="base"
     pagecolor="#5ed175"
     bordercolor="#666666"
     borderopacity="1.0"
     inkscape:pageopacity="0"
     inkscape:pageshadow="2"
     inkscape:zoom="8"
     inkscape:cx="26.427432"
     inkscape:cy="8"
     inkscape:document-units="px"
     inkscape:current-layer="symbols"
     showguides="true"
     showgrid="true"
     inkscape:showpageshadow="false"
     gridtolerance="0.4px"
     inkscape:guide-bbox="true"
     inkscape:window-width="1440"
     inkscape:window-height="803"
     inkscape:window-x="0"
     inkscape:window-y="25"
     inkscape:window-maximized="1"
     borderlayer="true">
    <inkscape:grid
       id="Grid1"
       type="xygrid"
       originx="0px"
       originy="0px"
       spacingx="1px"
       spacingy="1px"
       color="#563fff"
       empcolor="#031b4b"
       opacity="0.21960784"
       empopacity="0.29019608"
       empspacing="8"
       visible="true"
       enabled="true"
       snapvisiblegridlinesonly="false"
       dotted="false" />
  </sodipodi:namedview>
  <metadata
     id="metadata7">
    <rdf:RDF>
      <cc:Work
         rdf:about="">
        <dc:format>image/svg+xml</dc:format>
        <dc:type
           rdf:resource="http://purl.org/dc/dcmitype/StillImage" />
        <dc:title></dc:title>
      </cc:Work>
      <cc:Work
         rdf:about="">
        <dc:format>image/svg+xml</dc:format>
        <dc:type
           rdf:resource="http://purl.org/dc/dcmitype/StillImage" />
      </cc:Work>
    </rdf:RDF>
  </metadata>
  <g
     inkscape:label="Symbols"
     inkscape:groupmode="layer"
     id="symbols"
     style="display:inline">
    <path
       style="font-size:medium;font-style:normal;font-variant:normal;font-weight:normal;font-stretch:normal;text-indent:0;text-align:start;text-decoration:none;line-height:normal;letter-spacing:normal;word-spacing:normal;text-transform:none;direction:ltr;block-progression:tb;writing-mode:lr-tb;text-anchor:start;baseline-shift:baseline;color:#000000;fill:#000000;fill-opacity:1;fill-rule:evenodd;stroke:none;stroke-width:1;marker:none;visibility:visible;display:inline;overflow:visible;enable-background:accumulate;font-family:Sans;-inkscape-font-specification:Sans"
       d="M 152,6.3460474e-4 C 148.05319,-0.04152927 146,2.0247308 146,4.000476 l 0,3.9998413 -2,0 L 144,16 l 16,0 0,-7.9996827 -2,0 0,-3.9998413 C 158.0344,2.0005553 155.93728,0.04269659 152,6.3460474e-4 z M 152,3.0005156 c 1.73935,0 3.08827,0.2101945 3,1.9999207 l 0,2.999881 -6,0 -0.0312,-2.999881 C 148.85823,3.2484828 149.986,3.0005156 152,3.0005156 z"
       id="lock"
       inkscape:connector-curvature="0"
       sodipodi:nodetypes="sscccccccssccccs"
       inkscape:label="Lock" />
    <path
       style="font-size:medium;font-style:normal;font-variant:normal;font-weight:normal;font-stretch:normal;text-indent:0;text-align:start;text-decoration:none;line-height:normal;letter-spacing:normal;word-spacing:normal;text-transform:none;direction:ltr;block-progression:tb;writing-mode:lr-tb;text-anchor:start;baseline-shift:baseline;opacity:1;color:#000000;fill:#000000;fill-opacity:1;fill-rule:evenodd;stroke:none;stroke-width:0.98056054000000004;marker:none;visibility:visible;display:inline;overflow:visible;enable-background:accumulate;font-family:Sans;-inkscape-font-specification:Sans"
       d="M 37.573944,0 25.741596,11.399226 24,16 28.252778,14.184046 40,2.4680556 C 39.746174,0.9039624 38.854162,0.1817798 37.573944,0 z"
       id="edit"
       inkscape:connector-curvature="0"
       sodipodi:nodetypes="cccccc"
       inkscape:label="Edit" />
    <path
       style="font-size:medium;font-style:normal;font-variant:normal;font-weight:normal;font-stretch:normal;text-indent:0;text-align:start;text-decoration:none;line-height:normal;letter-spacing:normal;word-spacing:normal;text-transform:none;direction:ltr;block-progression:tb;writing-mode:lr-tb;text-anchor:start;baseline-shift:baseline;opacity:1;color:#000000;fill:#000000;fill-opacity:1;fill-rule:evenodd;stroke:none;stroke-width:1;marker:none;visibility:visible;display:inline;overflow:visible;enable-background:accumulate;font-family:Sans;-inkscape-font-specification:Sans"
       d="m 6,0 0,6 -6,0 0,4 6,0 0,6 4,0 0,-6 6,0 0,-4 -6,0 0,-6 z"
       id="new"
       inkscape:connector-curvature="0"
       sodipodi:nodetypes="ccccccccccccc"
       inkscape:label="New" />
    <path
       style="font-size:medium;font-style:normal;font-variant:normal;font-weight:normal;font-stretch:normal;text-indent:0;text-align:start;text-decoration:none;line-height:normal;letter-spacing:normal;word-spacing:normal;text-transform:none;direction:ltr;block-progression:tb;writing-mode:lr-tb;text-anchor:start;baseline-shift:baseline;color:#000000;fill:#000000;fill-opacity:1;fill-rule:evenodd;stroke:none;stroke-width:1;marker:none;visibility:visible;display:inline;overflow:visible;enable-background:accumulate;font-family:Sans;-inkscape-font-specification:Sans;opacity:1"
       d="m 224,0 -7,7 4,0 0,9 6,0 0,-9 4,0 z"
       id="up"
       inkscape:connector-curvature="0"
       sodipodi:nodetypes="cccccccc" />
    <path
       style="font-size:medium;font-style:normal;font-variant:normal;font-weight:normal;font-stretch:normal;text-indent:0;text-align:start;text-decoration:none;line-height:normal;letter-spacing:normal;word-spacing:normal;text-transform:none;direction:ltr;block-progression:tb;writing-mode:lr-tb;text-anchor:start;baseline-shift:baseline;opacity:1;color:#000000;fill:#000000;fill-opacity:1;fill-rule:evenodd;stroke:none;stroke-width:1;marker:none;visibility:visible;display:inline;overflow:visible;enable-background:accumulate;font-family:Sans;-inkscape-font-specification:Sans"
       d="M 110.36542,0 101.94106,9.890634 98.10609,3.3803433 96,7.0110823 101.83179,16 112,4.2254291 z"
       id="validate"
       inkscape:connector-curvature="0"
       sodipodi:nodetypes="ccccccc"
       inkscape:label="Validates" />
    <path
       style="fill:#000000;fill-opacity:1;fill-rule:evenodd;stroke:none;opacity:1"
       d="M 674.1875,0 672,7 l 1.875,0 0.6875,-1.90625 2,0 L 677.125,7 679,7 677,0 z M 681,0 l 0,11 -2,0 4.5,5 4.5,-5 -2,0 0,-11 -2.5,1 z m -5.75,1.875 0.5,0 0.4,1.53125 -1.3,0 z M 672,9 l 0,2.03125 3.15625,0 L 672,16 l 7,0 0,-2.0625 -3.21875,0 L 679,9 z"
       id="sort"
       inkscape:connector-curvature="0"
       sodipodi:nodetypes="cccccccccccccccccccccccccccccccc" />
    <path
       inkscape:connector-curvature="0"
       id="print"
       d="m 579.10502,0 0,8.533333 9.65618,0 0,-8.533333 -9.65618,0 z m 1.59826,1.6 6.45964,0 0,1.066667 -6.45964,0 0,-1.066667 z m 0,2.133333 6.45964,0 0,1.066667 -6.45964,0 0,-1.066667 z m -3.76258,1.733334 c -1.07726,3.308344 -1.41964,6.512462 0,9.466666 l 1.53167,0 0.16648,-2.266666 10.85488,0 0.26638,2.266666 1.1654,0 c 1.36309,-2.817231 1.50057,-5.938663 0,-9.466666 l -1.83134,0 0,3.4 -10.32213,0 0,-3.4 -1.83134,0 z m 3.76258,0.4 6.45964,0 0,1.066666 -6.45964,0 0,-1.066666 z M 578.97183,13 l -0.26638,3 10.85488,0 -0.39957,-3 -10.18893,0 z"
       style="fill:#000000;fill-opacity:1;fill-rule:evenodd;stroke:none;opacity:1"
       inkscape:label="" />
    <path
       style="font-size:medium;font-style:normal;font-variant:normal;font-weight:normal;font-stretch:normal;text-indent:0;text-align:start;text-decoration:none;line-height:normal;letter-spacing:normal;word-spacing:normal;text-transform:none;direction:ltr;block-progression:tb;writing-mode:lr-tb;text-anchor:start;baseline-shift:baseline;color:#000000;fill:#000000;fill-opacity:1;fill-rule:evenodd;stroke:none;stroke-width:0.99999994000000003px;marker:none;visibility:visible;display:inline;overflow:visible;enable-background:accumulate;font-family:Sans;-inkscape-font-specification:Sans;opacity:1"
       d="m 120,4.6841046 7.03745,5.1991952 0,-2.639839 c 1.5169,-0.1616808 4.50764,0.3995836 4.44926,2.8008052 -0.0584,2.401221 -3.93312,4.797179 -6.07857,5.955734 4.41256,-0.230139 10.69833,-2.562051 10.59049,-7.1790744 C 135.8908,4.2039021 130.3924,2.4565255 127.03745,2.2535211 L 127.03745,0 z"
       id="cancel"
       inkscape:connector-curvature="0"
       sodipodi:nodetypes="ccczczccc"
       inkscape:label="Cancel" />
    <path
       style="font-size:medium;font-style:normal;font-variant:normal;font-weight:normal;font-stretch:normal;text-indent:0;text-align:start;text-decoration:none;line-height:normal;letter-spacing:normal;word-spacing:normal;text-transform:none;direction:ltr;block-progression:tb;writing-mode:lr-tb;text-anchor:start;baseline-shift:baseline;color:#000000;fill:#000000;fill-opacity:1;fill-rule:evenodd;stroke:none;stroke-width:1px;marker:none;visibility:visible;display:inline;overflow:visible;enable-background:accumulate;font-family:Sans;-inkscape-font-specification:Sans;opacity:1"
       d="M 313.91568,9.5791364e-4 315.69646,1.6252229 315.53457,3.2900947 313.64587,3.7096965 312,2.2207868 c 0.003,2.8773203 0.48298,3.9090216 3.96627,3.3568145 l 6.66442,6.3346337 c -0.83635,3.221045 0.86341,4.093788 3.58853,4.087734 l -1.86172,-1.840834 0.17538,-1.691943 1.57842,-0.175962 1.8887,1.678407 c -0.007,-3.433756 -1.63929,-3.911913 -3.7774,-3.573383 l -6.66442,-6.5512021 c 0.65082,-3.57783874 -1.18712,-3.86486258 -3.6425,-3.84409398636 z"
       id="configure"
       inkscape:connector-curvature="0"
       sodipodi:nodetypes="ccccccccccccccc"
       inkscape:label="" />
    <g
       inkscape:export-ydpi="90"
       inkscape:export-xdpi="90"
       id="g3440"
       transform="translate(161.99995,41.962841)"
       style="fill:#000000;fill-opacity:1;stroke:none;opacity:1">
      <rect
         inkscape:export-ydpi="90"
         inkscape:export-xdpi="90"
         style="fill:#000000;fill-opacity:1;fill-rule:nonzero;stroke:none"
         id="rect3087"
         width="11"
         height="11.000001"
         x="320.5"
         y="-39.5" />
      <path
         inkscape:connector-curvature="0"
         inkscape:export-ydpi="90"
         inkscape:export-xdpi="90"
         d="M 322,-36 L 325,-33 L 330.00006,-38 L 330.00006,-35 L 325,-30 L 322,-33 L 322,-36 z"
         id="path3089"
         style="fill:#000000;fill-opacity:1;fill-rule:nonzero;stroke:none"
         sodipodi:nodetypes="ccccccc" />
    </g>
    <path
       style="font-size:medium;font-style:normal;font-variant:normal;font-weight:normal;font-stretch:normal;text-indent:0;text-align:start;text-decoration:none;line-height:normal;letter-spacing:normal;word-spacing:normal;text-transform:none;direction:ltr;block-progression:tb;writing-mode:lr-tb;text-anchor:start;baseline-shift:baseline;color:#000000;fill:#000000;fill-opacity:1;fill-rule:nonzero;stroke:none;stroke-width:1;marker:none;visibility:visible;display:inline;overflow:visible;enable-background:accumulate;font-family:Sans;-inkscape-font-specification:Sans;opacity:1"
       d="M 506,1.96875 L 506,2.46875 L 506,13.46875 L 506,13.96875 L 506.5,13.96875 L 517.5,13.96875 L 518,13.96875 L 518,13.46875 L 518,2.46875 L 518,1.96875 L 517.5,1.96875 L 506.5,1.96875 L 506,1.96875 z M 507,2.96875 L 517,2.96875 L 517,12.96875 L 507,12.96875 L 507,2.96875 z"
       id="use3091"
       inkscape:connector-curvature="0" />
    <path
       inkscape:connector-curvature="0"
       sodipodi:nodetypes="ccccccccccsssccsscccsccsccc"
       id="logout"
       d="M 771,-0.037158 C 769.338,-0.037158 768,1.300842 768,2.962842 L 768,12.962842 C 768,14.624842 769.338,15.962842 771,15.962842 L 781,15.962842 C 782.662,15.962842 784,14.624842 784,12.962842 L 784,2.962842 C 784,1.300842 782.662,-0.037158 781,-0.037158 L 771,-0.037158 z M 776.09375,1.462842 C 779.99975,1.416742 783.01782,4.825636 782.46875,9.025342 C 782.02663,12.406965 778.49025,14.966213 774.96875,14.369092 C 771.44724,13.771972 769.0234,10.38571 769.625,6.837842 C 770.16769,3.637364 772.9639,1.426967 776.09375,1.462842 z M 775.8125,3.431592 C 773.72546,3.527622 771.92296,5.055786 771.5625,7.181592 C 771.14613,9.637129 772.79935,11.948251 775.28125,12.369092 C 777.76315,12.789933 780.08363,11.137128 780.5,8.681592 C 780.93,5.526123 778.58344,3.604775 775.8125,3.431592 z M 775.9062,4.056592 C 775.9478,4.054492 775.9896,4.054492 776.0312,4.056592 C 776.69623,4.056452 777.29776,4.673021 777.2812,5.337842 L 777.2812,10.462842 C 777.2902,11.123233 776.69166,11.730645 776.0312,11.730645 C 775.37074,11.730645 774.77186,11.123233 774.7812,10.462842 L 774.7812,5.337842 C 774.7625,4.712698 775.28389,4.118911 775.9062,4.056592 z"
       style="fill:#000000;fill-opacity:1;fill-rule:nonzero;stroke:none;opacity:1">
      <desc
         id="desc23500">Log out, Exit</desc>
      <title
         id="title23498">Log out</title>
    </path>
    <g
       id="g3189"
       transform="translate(390,-21.037158)"
       style="fill:#000000;fill-opacity:1;stroke:none;opacity:1"
       inkscape:export-xdpi="90"
       inkscape:export-ydpi="90">
      <path
         inkscape:connector-curvature="0"
         id="path3191"
         transform="translate(-390,-51)"
         d="M 390,72 L 390,72.5 L 390,77 L 391,77 L 391,73 L 399,73 L 399,82 L 393.9375,82 L 393.9375,83 L 399.5,83 L 400,83 L 400,82.5 L 400,72.5 L 400,72 L 399.5,72 L 390.5,72 L 390,72 z"
         style="font-size:medium;font-style:normal;font-variant:normal;font-weight:normal;font-stretch:normal;text-indent:0;text-align:start;text-decoration:none;line-height:normal;letter-spacing:normal;word-spacing:normal;text-transform:none;direction:ltr;block-progression:tb;writing-mode:lr-tb;text-anchor:start;color:#000000;fill:#000000;fill-opacity:1;fill-rule:evenodd;stroke:none;stroke-width:1px;marker:none;visibility:visible;display:inline;overflow:visible;enable-background:accumulate;font-family:Arial;-inkscape-font-specification:Arial" />
      <path
         inkscape:connector-curvature="0"
         style="fill:#000000;fill-opacity:1;fill-rule:evenodd;stroke:none"
         d="M 2,23.5 L 8,23.5"
         id="path3193"
         sodipodi:nodetypes="cc" />
      <path
         inkscape:connector-curvature="0"
         style="fill:#000000;fill-opacity:1;fill-rule:evenodd;stroke:none"
         d="M 2,25.625 L 8,25.625"
         id="path3195"
         sodipodi:nodetypes="cc" />
      <path
         inkscape:connector-curvature="0"
         sodipodi:nodetypes="ccccc"
         id="path3197"
         d="M 3.875,27 L 3.875,28 L 8,28 L 8,27 L 3.875,27 z"
         style="font-size:medium;font-style:normal;font-variant:normal;font-weight:normal;font-stretch:normal;text-indent:0;text-align:start;text-decoration:none;line-height:normal;letter-spacing:normal;word-spacing:normal;text-transform:none;direction:ltr;block-progression:tb;writing-mode:lr-tb;text-anchor:start;color:#000000;fill:#000000;fill-opacity:1;fill-rule:evenodd;stroke:none;stroke-width:1px;marker:none;visibility:visible;display:inline;overflow:visible;enable-background:accumulate;font-family:Arial;-inkscape-font-specification:Arial" />
      <path
         inkscape:connector-curvature="0"
         sodipodi:nodetypes="ccccc"
         id="path3199"
         d="M 3.25,29 L 3.25,30 L 8.0625,30 L 8.0625,29 L 3.25,29 z"
         style="font-size:medium;font-style:normal;font-variant:normal;font-weight:normal;font-stretch:normal;text-indent:0;text-align:start;text-decoration:none;line-height:normal;letter-spacing:normal;word-spacing:normal;text-transform:none;direction:ltr;block-progression:tb;writing-mode:lr-tb;text-anchor:start;color:#000000;fill:#000000;fill-opacity:1;fill-rule:evenodd;stroke:none;stroke-width:1px;marker:none;visibility:visible;display:inline;overflow:visible;enable-background:accumulate;font-family:Arial;-inkscape-font-specification:Arial" />
    </g>
    <g
       style="fill:#000000;fill-opacity:1;stroke:none;opacity:1"
       id="g3182"
       inkscape:export-xdpi="90"
       inkscape:export-ydpi="90"
       transform="translate(384,-16.037158)">
      <path
         inkscape:connector-curvature="0"
         sodipodi:nodetypes="ccccc"
         id="path3137"
         d="M 0.5,21.5 L 0.5,31.5 L 9.5,31.5 L 9.5,21.5 L 0.5,21.5 z"
         style="fill:#000000;fill-opacity:1;fill-rule:evenodd;stroke:none" />
      <path
         inkscape:connector-curvature="0"
         style="fill:#000000;fill-opacity:1;stroke:none"
         d="M 2,23.5 L 8,23.5"
         id="path3139"
         sodipodi:nodetypes="cc" />
      <path
         inkscape:connector-curvature="0"
         style="fill:#000000;fill-opacity:1;stroke:none"
         d="M 2,25.625 L 8,25.625"
         id="path3141"
         sodipodi:nodetypes="cc" />
      <path
         inkscape:connector-curvature="0"
         style="fill:#000000;fill-opacity:1;stroke:none"
         d="M 2,27.5 L 8,27.5"
         id="path3143"
         sodipodi:nodetypes="cc" />
      <path
         inkscape:connector-curvature="0"
         style="fill:#000000;fill-opacity:1;stroke:none"
         d="M 2.0625,29.5 L 8.0625,29.5"
         id="path3155"
         sodipodi:nodetypes="cc" />
    </g>
    <path
       style="font-size:medium;font-style:normal;font-variant:normal;font-weight:normal;font-stretch:normal;text-indent:0;text-align:start;text-decoration:none;line-height:normal;letter-spacing:normal;word-spacing:normal;text-transform:none;direction:ltr;block-progression:tb;writing-mode:lr-tb;text-anchor:start;color:#000000;fill:#000000;fill-opacity:1;stroke:none;stroke-width:1;marker:none;visibility:visible;display:inline;overflow:visible;enable-background:accumulate;font-family:Arial;-inkscape-font-specification:Arial;opacity:1"
       d="M 624 1.96875 L 624 2.46875 L 624 13.46875 L 624 13.96875 L 624.5 13.96875 L 639.5 13.96875 L 640 13.96875 L 640 13.46875 L 640 2.71875 A 0.50005 0.50005 0 0 0 640 2.46875 L 640 1.96875 L 639.5 1.96875 L 624.5 1.96875 L 624 1.96875 z M 626 3.09375 L 638.1875 3.09375 L 631.875 8.78125 L 626 3.09375 z M 625 3.5 L 631.53125 9.8125 A 0.50005 0.50005 0 0 0 632.21875 9.84375 L 639 3.71875 L 639 12.96875 L 625 12.96875 L 625 3.5 z "
       id="rect3995" />
    <path
       style="font-size:medium;font-style:normal;font-variant:normal;font-weight:normal;font-stretch:normal;text-indent:0;text-align:start;text-decoration:none;line-height:normal;letter-spacing:normal;word-spacing:normal;text-transform:none;direction:ltr;block-progression:tb;writing-mode:lr-tb;text-anchor:start;baseline-shift:baseline;color:#000000;fill:#000000;fill-opacity:1;fill-rule:evenodd;stroke:none;stroke-width:0.84996324999999984px;marker:none;visibility:visible;display:inline;overflow:visible;enable-background:accumulate;font-family:Sans;-inkscape-font-specification:Sans;opacity:1"
       d="M 744,11.9375 L 744,12.375 L 744,15.53125 L 744,15.96875 L 744.4375,15.96875 L 759.5625,15.96875 L 760,15.96875 L 760,15.53125 L 760,12.375 L 760,11.9375 L 759.5625,11.9375 L 744.4375,11.9375 L 744,11.9375 z M 744.84375,12.8125 L 759.15625,12.8125 L 759.15625,15.125 L 744.84375,15.125 L 744.84375,12.8125 z"
       id="rect3695"
       inkscape:connector-curvature="0" />
    <path
       style="font-size:medium;font-style:normal;font-variant:normal;font-weight:normal;font-stretch:normal;text-indent:0;text-align:start;text-decoration:none;line-height:normal;letter-spacing:normal;word-spacing:normal;text-transform:none;direction:ltr;block-progression:tb;writing-mode:lr-tb;text-anchor:start;baseline-shift:baseline;color:#000000;fill:#000000;fill-opacity:1;fill-rule:evenodd;stroke:none;stroke-width:0.88314515000000005px;marker:none;visibility:visible;display:inline;overflow:visible;enable-background:accumulate;font-family:Sans;-inkscape-font-specification:Sans;opacity:1"
       d="M 753.0625,-0.03125 C 751.67238,-0.1353722 750.50319,0.3139623 749.59375,1 C 748.68431,1.6860377 748.0264,2.6023194 747.53125,3.53125 C 746.63946,5.2042905 746.40305,6.5849383 746.34375,6.90625 L 744.4375,6.90625 A 0.44161673,0.44161673 0 0 0 744.125,7.6875 L 748.96875,12.34375 A 0.44161673,0.44161673 0 0 0 749.59375,12.34375 L 754.4375,7.6875 A 0.44161673,0.44161673 0 0 0 754.125,6.90625 L 752.34375,6.90625 C 752.31654,6.6303978 752.25271,6.1599961 752.375,5.40625 C 752.45143,4.9351914 752.58448,4.4690295 752.8125,4.15625 C 753.04052,3.8434705 753.32784,3.6535572 753.8125,3.625 C 754.6353,3.5765196 756.07466,4.4044452 757.21875,5.3125 C 758.36284,6.2205548 759.25,7.15625 759.25,7.15625 A 0.44161673,0.44161673 0 0 0 760,6.71875 C 760,6.71875 759.56475,5.1546981 758.5,3.53125 C 757.43525,1.9078019 755.67933,0.164755 753.0625,-0.03125 z M 753,0.84375 C 755.26192,1.013172 756.7692,2.5045608 757.75,4 C 758.10202,4.5367264 758.03956,4.6021188 758.25,5.0625 C 758.00936,4.8517229 758.02931,4.8466855 757.75,4.625 C 756.54978,3.6723915 755.1093,2.6699077 753.75,2.75 C 753.02045,2.7929869 752.4458,3.142087 752.09375,3.625 C 751.7417,4.107913 751.5899,4.6959074 751.5,5.25 C 751.3202,6.3581853 751.46875,7.40625 751.46875,7.40625 A 0.44161673,0.44161673 0 0 0 751.90625,7.78125 L 753.03125,7.78125 L 749.28125,11.375 L 745.53125,7.78125 L 746.65625,7.78125 A 0.44161673,0.44161673 0 0 0 747.09375,7.4375 C 747.09375,7.4375 747.40305,5.6436753 748.3125,3.9375 C 748.76723,3.0844124 749.35839,2.2657974 750.125,1.6875 C 750.89161,1.1092026 751.8204,0.7553961 753,0.84375 z"
       id="path3019-6"
       inkscape:connector-curvature="0" />
    <path
       style="font-size:medium;font-style:normal;font-variant:normal;font-weight:normal;font-stretch:normal;text-indent:0;text-align:start;text-decoration:none;line-height:normal;letter-spacing:normal;word-spacing:normal;text-transform:none;direction:ltr;block-progression:tb;writing-mode:lr-tb;text-anchor:start;baseline-shift:baseline;color:#000000;fill:#000000;fill-opacity:1;fill-rule:nonzero;stroke:none;stroke-width:1px;marker:none;visibility:visible;display:inline;overflow:visible;enable-background:accumulate;font-family:Sans;-inkscape-font-specification:Sans;opacity:1"
       d="M 600,0 L 600,0.5 L 600,2.90625 L 600,3.125 L 600.125,3.25 L 606.0625,9.59375 L 606.0625,15.5 L 606.0625,16 L 606.5625,16 L 609.5,16 L 610,16 L 610,15.5 L 610,9.59375 L 615.875,3.25 L 616,3.125 L 616,2.90625 L 616,0.5 L 616,0 L 615.5,0 L 600.5,0 L 600,0 z M 601,1 L 615,1 L 615,2.71875 L 609.125,9.03125 L 609,9.15625 L 609,9.375 L 609,15 L 607.0625,15 L 607.0625,9.375 L 607.0625,9.15625 L 606.9375,9.03125 L 601,2.6875 L 601,1 z"
       id="path3696"
       inkscape:connector-curvature="0" />
    <path
       style="font-size:medium;font-style:normal;font-variant:normal;font-weight:normal;font-stretch:normal;text-indent:0;text-align:start;text-decoration:none;line-height:normal;letter-spacing:normal;word-spacing:normal;text-transform:none;direction:ltr;block-progression:tb;writing-mode:lr-tb;text-anchor:start;baseline-shift:baseline;opacity:1;color:#000000;fill:#000000;fill-opacity:1;fill-rule:nonzero;stroke:none;stroke-width:0.99999994000000003;marker:none;visibility:visible;display:inline;overflow:visible;enable-background:accumulate;font-family:Sans;-inkscape-font-specification:Sans"
       d="M 408,7.96875 L 408,8.46875 L 408,15.46875 L 408,15.96875 L 408.5,15.96875 L 415.5,15.96875 L 416,15.96875 L 416,15.46875 L 416,8.46875 L 416,7.96875 L 415.5,7.96875 L 408.5,7.96875 L 408,7.96875 z M 409,8.96875 L 415,8.96875 L 415,14.96875 L 409,14.96875 L 409,8.96875 z"
       id="rect3275"
       inkscape:connector-curvature="0" />
    <path
       inkscape:connector-curvature="0"
       sodipodi:nodetypes="ccccccc"
       style="opacity:1;fill:#000000;fill-opacity:1;fill-rule:nonzero;stroke:none"
       id="path3277"
       d="M 409.45444,10.690112 L 411.36335,12.599205 L 414.54488,9.417382 L 414.54488,11.326482 L 411.36335,14.508296 L 409.45444,12.599205 L 409.45444,10.690112 z"
       inkscape:export-xdpi="90"
       inkscape:export-ydpi="90" />
    <path
       style="font-size:medium;font-style:normal;font-variant:normal;font-weight:normal;font-stretch:normal;text-indent:0;text-align:start;text-decoration:none;line-height:normal;letter-spacing:normal;word-spacing:normal;text-transform:none;direction:ltr;block-progression:tb;writing-mode:lr-tb;text-anchor:start;baseline-shift:baseline;color:#000000;fill:#000000;fill-opacity:1;fill-rule:evenodd;stroke:none;stroke-width:0.98056047999999996;marker:none;visibility:visible;display:inline;overflow:visible;enable-background:accumulate;font-family:Sans;-inkscape-font-specification:Sans;opacity:1"
       d="M 420.84375,-0.03125 A 0.49032927,0.49032927 0 0 0 420.65625,0.09375 L 413.875,6.46875 A 0.49032927,0.49032927 0 0 0 413.75,6.65625 L 412.03125,11.3125 A 0.49032927,0.49032927 0 0 0 412.6875,11.9375 L 417.375,10 A 0.49032927,0.49032927 0 0 0 417.53125,9.875 L 423.875,3.375 A 0.49032927,0.49032927 0 0 0 424,2.96875 C 423.79734,1.3776232 422.68912,0.3013512 421.09375,-0.03125 A 0.49032927,0.49032927 0 0 0 420.84375,-0.03125 z M 421.09375,1.03125 C 422.1621,1.3103911 422.74097,1.8913511 422.9375,2.90625 L 416.84375,9.15625 L 416.8125,9.1875 L 413.3125,10.625 L 414.625,7.09375 L 421.09375,1.03125 z"
       id="path3269"
       inkscape:connector-curvature="0" />
    <g
       style="opacity:1;fill:#000000;fill-opacity:1;stroke:none"
       transform="matrix(0.8331491,0,0,0.88849856,177.69439,3.0240569)"
       id="letter-5"
       inkscape:export-xdpi="90"
       inkscape:export-ydpi="90">
      <text
         transform="scale(0.87080234,1.1483662)"
         sodipodi:linespacing="125%"
         id="text1785-0"
         y="12.681059"
         x="350.46814"
         style="font-size:10.10056113999999994px;font-style:normal;font-weight:normal;line-height:125%;fill:#000000;fill-opacity:1;stroke:none;font-family:Bitstream Vera Sans"
         xml:space="preserve"
         inkscape:export-xdpi="90"
         inkscape:export-ydpi="90"><tspan
           style="font-size:10.75474739000000035px;font-style:normal;font-variant:normal;font-weight:bold;font-stretch:normal;text-align:start;line-height:125%;writing-mode:lr-tb;text-anchor:start;fill:#000000;fill-opacity:1;stroke:none;font-family:DejaVu Sans;-inkscape-font-specification:DejaVu Sans Bold"
           y="12.681059"
           x="350.46814"
           id="tspan1787-6"
           sodipodi:role="line">AA</tspan></text>
    </g>
    <path
       style="font-size:medium;font-style:normal;font-variant:normal;font-weight:normal;font-stretch:normal;text-indent:0;text-align:start;text-decoration:none;line-height:normal;letter-spacing:normal;word-spacing:normal;text-transform:none;direction:ltr;block-progression:tb;writing-mode:lr-tb;text-anchor:start;baseline-shift:baseline;color:#000000;fill:#000000;fill-opacity:1;fill-rule:evenodd;stroke:none;stroke-width:0.98056042000000021;marker:none;visibility:visible;display:inline;overflow:visible;enable-background:accumulate;font-family:Sans;-inkscape-font-specification:Sans;opacity:1"
       d="M 444.3125,-0.03125 A 0.49032924,0.49032924 0 0 0 443.9375,0.21875 L 439.25,8.28125 A 0.49032924,0.49032924 0 0 0 439.1875,8.5 L 438.90625,13.4375 A 0.49032924,0.49032924 0 0 0 439.6875,13.84375 L 443.625,10.65625 A 0.49032924,0.49032924 0 0 0 443.75,10.5 L 447.9375,2.4375 A 0.49032924,0.49032924 0 0 0 447.96875,2.03125 C 447.31679,0.5658674 445.93591,-0.1719872 444.3125,-0.03125 z M 444.625,1 C 445.7234,0.9638685 446.45957,1.3317688 446.9375,2.25 L 442.9375,9.9375 L 439.9375,12.375 L 440.1875,8.6875 L 444.625,1 z"
       id="path3269-8"
       inkscape:connector-curvature="0" />
    <g
       style="opacity:1;fill:#000000;fill-opacity:1;stroke:none"
       transform="matrix(0.82869205,0,0,0.89328042,203.05484,2.9544467)"
       id="letter-5-2"
       inkscape:export-xdpi="90"
       inkscape:export-ydpi="90">
      <text
         transform="scale(0.87080234,1.1483662)"
         sodipodi:linespacing="125%"
         id="text1785-0-1"
         y="12.681059"
         x="350.46814"
         style="font-size:10.10056113999999994px;font-style:normal;font-weight:normal;line-height:125%;fill:#000000;fill-opacity:1;stroke:none;font-family:Bitstream Vera Sans"
         xml:space="preserve"
         inkscape:export-xdpi="90"
         inkscape:export-ydpi="90"><tspan
           style="font-size:10.75474739000000035px;font-style:normal;font-variant:normal;font-weight:bold;font-stretch:normal;text-align:start;line-height:125%;writing-mode:lr-tb;text-anchor:start;fill:#000000;fill-opacity:1;stroke:none;font-family:DejaVu Sans;-inkscape-font-specification:DejaVu Sans Bold"
           y="12.681059"
           x="350.46814"
           id="tspan1787-6-7"
           sodipodi:role="line">AA</tspan></text>
    </g>
    <g
       id="g4679"
       transform="matrix(0.89498739,0,0,0.82458397,428.54069,-49.166725)"
       inkscape:export-xdpi="90"
       inkscape:export-ydpi="90"
       style="fill:#000000;fill-opacity:1;stroke:none;opacity:1">
      <path
         inkscape:connector-curvature="0"
         sodipodi:nodetypes="ccccccc"
         id="path3841"
         d="M 36.125,71.125 L 40.3125,74.3125 L 47.0625,67.0625 L 48,62.5625 L 44,60.1875 L 37.125,67.0625 L 36.125,71.125 z"
         style="fill:#000000;fill-opacity:1;stroke:none" />
      <path
         inkscape:connector-curvature="0"
         sodipodi:nodetypes="ccccc"
         id="path3859"
         d="M 36.875,66.9375 L 41.5,69.625 L 48,62.4375 L 43.9375,59.875 L 36.875,66.9375 z"
         style="fill:#000000;fill-opacity:1;stroke:none" />
      <path
         inkscape:connector-curvature="0"
         sodipodi:nodetypes="ccccc"
         id="path4669"
         d="M 41.4375,70.0625 L 40.25,74.8125 L 47,67.0625 L 48,63 L 41.4375,70.0625 z"
         style="fill:#000000;fill-opacity:1;stroke:none" />
    </g>
    <path
       style="font-size:medium;font-style:normal;font-variant:normal;font-weight:normal;font-stretch:normal;text-indent:0;text-align:start;text-decoration:none;line-height:normal;letter-spacing:normal;word-spacing:normal;text-transform:none;direction:ltr;block-progression:tb;writing-mode:lr-tb;text-anchor:start;color:#000000;fill:#000000;fill-opacity:1;stroke:none;stroke-width:1.51938283000000007;marker:none;visibility:visible;display:inline;overflow:visible;enable-background:accumulate;font-family:Arial;-inkscape-font-specification:Arial;opacity:1"
       d="M 656 -0.03125 C 651.59575 -0.03125 648 3.554148 648 7.96875 C 648 12.383353 651.59575 15.96875 656 15.96875 C 660.40425 15.96875 664 12.383353 664 7.96875 C 664 3.554148 660.40425 -0.03125 656 -0.03125 z M 656 1.46875 C 659.60388 1.46875 662.5 4.375224 662.5 7.96875 C 662.5 9.909896 661.66112 11.651664 660.3125 12.84375 L 659.53125 11.65625 L 660.59375 11.65625 L 661.09375 11.65625 L 661.09375 11.15625 L 661.09375 4.75 A 0.50005 0.50005 0 0 0 661.09375 4.4375 L 661.09375 4.03125 L 660.59375 4.03125 L 654.46875 4.03125 L 653.1875 2.09375 C 654.04029 1.68449 654.98891 1.46875 656 1.46875 z M 651.5625 3.21875 L 652.125 4.03125 L 651.5625 4.03125 L 651.0625 4.03125 L 651.0625 4.53125 L 651.0625 11.15625 L 651.0625 11.65625 L 651.5625 11.65625 L 657.15625 11.65625 L 658.625 13.90625 C 657.81817 14.263706 656.94101 14.46875 656 14.46875 C 652.39612 14.46875 649.5 11.562277 649.5 7.96875 C 649.5 6.091774 650.29079 4.406247 651.5625 3.21875 z M 652.96875 5.125 L 659.28125 5.125 L 656 8.09375 L 652.96875 5.125 z M 652.0625 5.625 L 655.65625 9.125 A 0.50005 0.50005 0 0 0 656.34375 9.125 L 660.09375 5.75 L 660.09375 10.65625 L 652.0625 10.65625 L 652.0625 5.625 z "
       id="path4160" />
    <path
       style="font-size:medium;font-style:normal;font-variant:normal;font-weight:normal;font-stretch:normal;text-indent:0;text-align:start;text-decoration:none;line-height:normal;letter-spacing:normal;word-spacing:normal;text-transform:none;direction:ltr;block-progression:tb;writing-mode:lr-tb;text-anchor:start;baseline-shift:baseline;color:#000000;fill:#000000;fill-opacity:1;fill-rule:nonzero;stroke:none;stroke-width:0.99999994000000003;marker:none;visibility:visible;display:inline;overflow:visible;enable-background:accumulate;font-family:Sans;-inkscape-font-specification:Sans;opacity:1"
       d="M 530 0.96875 L 530 1.46875 L 530 15.46875 L 530 15.96875 L 530.5 15.96875 L 541.5 15.96875 L 542 15.96875 L 542 15.46875 L 542 4.78125 L 542 4.5625 L 541.84375 4.40625 L 538.53125 1.09375 L 538.40625 0.96875 L 538.1875 0.96875 L 530.5 0.96875 L 530 0.96875 z M 531 1.96875 L 538 1.96875 L 538 4.46875 L 538 4.96875 L 538.5 4.96875 L 541 4.96875 L 541 14.96875 L 531 14.96875 L 531 1.96875 z M 539 2.96875 L 540 3.96875 L 539 3.96875 L 539 2.96875 z "
       id="path4194" />
    <g
       id="g3400"
       inkscape:export-xdpi="90"
       inkscape:export-ydpi="90"
       transform="translate(296,15.962842)"
       style="fill:#000000;fill-opacity:1;stroke:none;opacity:1">
      <rect
         y="-12.5"
         x="64.5"
         height="12"
         width="15.000001"
         id="rect3402"
         style="fill:#000000;fill-opacity:1;fill-rule:evenodd;stroke:none" />
      <rect
         y="-15.5"
         x="64.5"
         height="3"
         width="15"
         id="rect3406"
         style="fill:#000000;fill-opacity:1;fill-rule:evenodd;stroke:none" />
      <path
         inkscape:connector-curvature="0"
         style="opacity:0.44954127999999999;fill:#000000;fill-opacity:1;fill-rule:evenodd;stroke:none"
         d="M 74,-15 L 74,-9.9375 L 70,-9.9375 L 70,-15 L 69,-15 L 69,-9.9375 L 65,-9.9375 L 65,-8.9375 L 69,-8.9375 L 69,-7 L 65,-7 L 65,-6 L 69,-6 L 69,-4 L 65,-4 L 65,-3 L 69,-3 L 69,-1 L 70,-1 L 70,-3 L 74,-3 L 74,-1 L 75,-1 L 75,-3 L 79,-3 L 79,-4 L 75,-4 L 75,-6 L 79,-6 L 79,-7 L 75,-7 L 75,-8.9375 L 79,-8.9375 L 79,-9.9375 L 75,-9.9375 L 75,-15 L 74,-15 z M 70,-8.9375 L 74,-8.9375 L 74,-7 L 70,-7 L 70,-8.9375 z M 70,-6 L 74,-6 L 74,-4 L 70,-4 L 70,-6 z"
         id="path4224"
         sodipodi:nodetypes="ccccccccccccccccccccccccccccccccccccccccccccccc" />
    </g>
    <g
       id="g4263"
       inkscape:export-xdpi="90"
       inkscape:export-ydpi="90"
       transform="matrix(1.1249859,0,0,1,266.93841,15.962842)"
       style="fill:#000000;fill-opacity:1;stroke:none;opacity:1">
      <rect
         y="-12.5"
         x="64.5"
         height="12"
         width="8"
         id="rect4265"
         style="fill:#000000;fill-opacity:1;fill-rule:evenodd;stroke:none"
         inkscape:export-xdpi="90"
         inkscape:export-ydpi="90" />
      <rect
         y="-15.5"
         x="64.5"
         height="3"
         width="8"
         id="rect4267"
         style="fill:#000000;fill-opacity:1;fill-rule:evenodd;stroke:none"
         inkscape:export-xdpi="90"
         inkscape:export-ydpi="90" />
      <path
         inkscape:connector-curvature="0"
         style="opacity:0.44954127999999999;fill:#000000;fill-opacity:1;fill-rule:evenodd;stroke:none"
         d="M 64.833332,-9.9375 L 64.833332,-8.9375 L 72.333332,-8.9375 L 72.333332,-7 L 64.833332,-7 L 64.833332,-6 L 72.333332,-6 L 72.333332,-4 L 64.833332,-4 L 64.833332,-3 L 72.333332,-3 L 72.333332,-9.9375 L 64.833332,-9.9375 z"
         id="path4269"
         sodipodi:nodetypes="ccccccccccccc"
         inkscape:export-xdpi="90"
         inkscape:export-ydpi="90" />
    </g>
    <path
       style="font-size:medium;font-style:normal;font-variant:normal;font-weight:normal;font-stretch:normal;text-indent:0;text-align:start;text-decoration:none;line-height:normal;letter-spacing:normal;word-spacing:normal;text-transform:none;direction:ltr;block-progression:tb;writing-mode:lr-tb;text-anchor:start;baseline-shift:baseline;color:#000000;fill:#000000;fill-opacity:1;fill-rule:evenodd;stroke:none;stroke-width:2;marker:none;visibility:visible;display:inline;overflow:visible;enable-background:accumulate;font-family:Sans;-inkscape-font-specification:Sans;opacity:1"
       d="M 727.34375 -0.03125 A 1.0001 1.0001 0 0 0 726.8125 0.25 L 720.3125 6.4375 A 1.0001 1.0001 0 0 0 720.34375 7.9375 L 723.96875 11 L 720.78125 14.03125 L 721.46875 14.78125 L 722.34375 13.9375 L 722.46875 14.09375 L 724.5625 11.96875 L 725.15625 15.15625 A 1.0001 1.0001 0 0 0 726.59375 15.84375 L 735.46875 11.3125 A 1.0001 1.0001 0 0 0 735.9375 10.09375 L 733.71875 3.09375 L 735.34375 1.53125 L 734.65625 0.78125 L 733.5 1.875 L 733.46875 1.84375 L 733.34375 1.96875 L 733.34375 1.90625 A 1.0001 1.0001 0 0 0 732.65625 1.25 L 727.75 0 A 1.0001 1.0001 0 0 0 727.34375 -0.03125 z M 727.78125 2.0625 L 731.59375 3.03125 L 731.75 3.53125 L 725.40625 9.59375 L 722.5 7.125 L 727.78125 2.0625 z M 732.09375 4.625 L 733.8125 9.90625 L 726.875 13.4375 L 726.375 10.75 A 1.0001 1.0001 0 0 0 726.21875 10.3125 L 728.0625 8.46875 L 732.09375 4.625 z "
       id="path3423" />
    <path
       inkscape:connector-curvature="0"
       sodipodi:nodetypes="ccccccc"
       style="fill:#000000;fill-opacity:1;fill-rule:nonzero;stroke:none;opacity:1"
       id="check"
       d="M 699,4.9835244 L 702.89475,8.864577 L 709,2.9628424 L 709,6.9356934 L 702.89475,12.962842 L 699,9.066511 L 699,4.9835244 z"
       inkscape:label="" />
    <path
       style="font-size:medium;font-style:normal;font-variant:normal;font-weight:normal;font-stretch:normal;text-indent:0;text-align:start;text-decoration:none;line-height:normal;letter-spacing:normal;word-spacing:normal;text-transform:none;direction:ltr;block-progression:tb;writing-mode:lr-tb;text-anchor:start;baseline-shift:baseline;opacity:1;color:#000000;fill:#000000;fill-opacity:1;fill-rule:nonzero;stroke:none;stroke-width:0.94100004000000004;marker:none;visibility:visible;display:inline;overflow:visible;enable-background:accumulate;font-family:Sans;-inkscape-font-specification:Sans"
       d="M 823.6875,-0.03125 C 819.98351,0.1073191 816.76766,2.833136 816.125,6.625 C 815.38846,10.970779 818.34508,15.107083 822.6875,15.84375 C 827.03156,16.580694 831.13874,13.625396 831.875,9.28125 C 832.61154,4.9354714 829.65493,0.7991673 825.3125,0.0625 L 825.28125,0.0625 C 825.26008,0.0589966 825.23986,0.0658208 825.21875,0.0625 C 824.69958,-0.0191519 824.19352,-0.0501806 823.6875,-0.03125 z M 823.75,0.90625 C 824.21862,0.8887183 824.64608,0.9207432 825.125,1 L 825.15625,1 L 825.1875,1 C 829.01153,1.6652906 831.61804,5.2940155 830.96875,9.125 C 830.31749,12.9676 826.68257,15.588732 822.84375,14.9375 C 819.00331,14.285991 816.38027,10.622217 817.03125,6.78125 C 817.59921,3.4301696 820.48743,1.0283051 823.75,0.90625 z M 818,5.71875 L 818,6.1875 L 818,9.78125 L 818,10.25 L 818.46875,10.25 L 829.40625,10.25 L 829.875,10.25 L 829.875,9.78125 L 829.875,6.1875 L 829.875,5.71875 L 829.40625,5.71875 L 818.46875,5.71875 L 818,5.71875 z M 818.9375,6.65625 L 828.9375,6.65625 L 828.9375,9.3125 L 818.9375,9.3125 L 818.9375,6.65625 z"
       id="decrement"
       inkscape:connector-curvature="0">
      <desc
         id="desc4038">Decrement, minus</desc>
      <title
         id="title4036">Decrement</title>
    </path>
    <path
       style="font-size:medium;font-style:normal;font-variant:normal;font-weight:normal;font-stretch:normal;text-indent:0;text-align:start;text-decoration:none;line-height:normal;letter-spacing:normal;word-spacing:normal;text-transform:none;direction:ltr;block-progression:tb;writing-mode:lr-tb;text-anchor:start;baseline-shift:baseline;opacity:1;color:#000000;fill:#000000;fill-opacity:1;fill-rule:nonzero;stroke:none;stroke-width:0.94099997999999996;marker:none;visibility:visible;display:inline;overflow:visible;enable-background:accumulate;font-family:Sans;-inkscape-font-specification:Sans"
       d="M 799.6875 -0.03125 C 795.9759 0.0979673 792.76874 2.8266724 792.125 6.625 C 791.38846 10.970866 794.34505 15.107065 798.6875 15.84375 C 803.03157 16.580712 807.13874 13.625484 807.875 9.28125 C 808.61154 4.9353835 805.65494 0.7991847 801.3125 0.0625 C 800.76453 -0.0298731 800.21305 -0.0495463 799.6875 -0.03125 z M 799.75 0.90625 C 800.22173 0.8898277 800.68194 0.9200451 801.15625 1 C 804.99669 1.6515227 807.61973 5.2839341 806.96875 9.125 C 806.31749 12.967698 802.68256 15.588746 798.84375 14.9375 C 795.0033 14.285977 792.38027 10.622317 793.03125 6.78125 C 793.60069 3.421312 796.48074 1.0200673 799.75 0.90625 z M 797.84375 1.5 L 797.84375 1.96875 L 797.84375 5.6875 L 794.25 5.6875 L 793.78125 5.6875 L 793.78125 6.15625 L 793.78125 9.78125 L 793.78125 10.25 L 794.25 10.25 L 797.84375 10.25 L 797.84375 13.9375 L 797.84375 14.40625 L 798.3125 14.40625 L 801.6875 14.40625 L 802.15625 14.40625 L 802.15625 13.9375 L 802.15625 10.25 L 805.75 10.25 L 806.21875 10.25 L 806.21875 9.78125 L 806.21875 6.15625 L 806.21875 5.6875 L 805.75 5.6875 L 802.15625 5.6875 L 802.15625 1.96875 L 802.15625 1.5 L 801.6875 1.5 L 798.3125 1.5 L 797.84375 1.5 z M 798.78125 2.4375 L 801.21875 2.4375 L 801.21875 6.15625 L 801.21875 6.625 L 801.6875 6.625 L 805.28125 6.625 L 805.28125 9.3125 L 801.6875 9.3125 L 801.21875 9.3125 L 801.21875 9.78125 L 801.21875 13.46875 L 798.78125 13.46875 L 798.78125 9.78125 L 798.78125 9.3125 L 798.3125 9.3125 L 794.71875 9.3125 L 794.71875 6.625 L 798.3125 6.625 L 798.78125 6.625 L 798.78125 6.15625 L 798.78125 2.4375 z "
       id="path3928" />
    <path
       style="font-size:medium;font-style:normal;font-variant:normal;font-weight:normal;font-stretch:normal;text-indent:0;text-align:start;text-decoration:none;line-height:normal;letter-spacing:normal;word-spacing:normal;text-transform:none;direction:ltr;block-progression:tb;writing-mode:lr-tb;text-anchor:start;baseline-shift:baseline;opacity:1;color:#000000;fill:#000000;fill-opacity:1;fill-rule:evenodd;stroke:none;stroke-width:1;marker:none;visibility:visible;display:inline;overflow:visible;enable-background:accumulate;font-family:Sans;-inkscape-font-specification:Sans"
       d="M 176,0.00244279 C 171.9424,-0.04963768 170,2.0244779 170,4 l 0,4.0012214 -2,0 L 168,16 l 16,0 0,-7.9987786 -11,0 L 173,5 c 0,-1.7625984 0.89328,-1.9239209 3,-2 2.10672,-0.076079 3.16235,0.5820316 3,2 l 3,0 c 0,-3.4135571 -1.9424,-4.94547674 -6,-4.99755721 z"
       id="unlock"
       inkscape:connector-curvature="0"
       sodipodi:nodetypes="zsccccccczccz"
       inkscape:label="" />
    <use
       height="88"
       width="832"
       transform="translate(24,0)"
       id="use23454"
       xlink:href="#path4194"
       y="0"
       x="0"
       style="fill:#000000;fill-opacity:1;stroke:none;opacity:1" />
    <path
       inkscape:connector-curvature="0"
       style="opacity:1;fill:#000000;fill-opacity:1;fill-rule:evenodd;stroke:none"
       d="M 561.0625,2.9628424 L 559.0625,2.9628424 L 558.0625,2.9628424 L 556,2.9628424 L 556,3.9628424 L 558.0625,3.9628424 L 558.0625,4.9628424 L 556,4.9628424 L 556,5.9628424 L 558.0625,5.9628424 L 558.0625,6.9628424 L 556,6.9628424 L 556,7.962842 L 558.0625,7.962842 L 558.0625,8.962842 L 556,8.962842 L 556,9.962842 L 558.0625,9.962842 L 558.0625,10.962842 L 556,10.962842 L 556,11.962842 L 558.0625,11.962842 L 558.0625,12.962842 L 556,12.962842 L 556,13.962842 L 558.0625,13.962842 L 559.0625,13.962842 L 561.0625,13.962842 L 562.0625,13.962842 L 564.125,13.962842 L 564.125,12.962842 L 562.0625,12.962842 L 562.0625,11.962842 L 564.125,11.962842 L 564.125,10.962842 L 562.0625,10.962842 L 562.0625,9.962842 L 564.125,9.962842 L 564.125,8.962842 L 562.0625,8.962842 L 562.0625,7.962842 L 564.125,7.962842 L 564.125,6.9628424 L 562.0625,6.9628424 L 562.0625,5.9628424 L 564.125,5.9628424 L 564.125,4.9628424 L 562.0625,4.9628424 L 562.0625,3.9628424 L 564.125,3.9628424 L 564.125,2.9628424 L 562.0625,2.9628424 L 561.0625,2.9628424 z M 559.0625,3.9628424 L 561.0625,3.9628424 L 561.0625,4.9628424 L 559.0625,4.9628424 L 559.0625,3.9628424 z M 559.0625,5.9628424 L 561.0625,5.9628424 L 561.0625,6.9628424 L 559.0625,6.9628424 L 559.0625,5.9628424 z M 559.0625,7.962842 L 561.0625,7.962842 L 561.0625,8.962842 L 559.0625,8.962842 L 559.0625,7.962842 z M 559.0625,9.962842 L 561.0625,9.962842 L 561.0625,10.962842 L 559.0625,10.962842 L 559.0625,9.962842 z M 559.0625,11.962842 L 561.0625,11.962842 L 561.0625,12.962842 L 559.0625,12.962842 L 559.0625,11.962842 z"
       id="path4046"
       sodipodi:nodetypes="cccccccccccccccccccccccccccccccccccccccccccccccccccccccccccccccccccccccccccccc" />
    <path
       inkscape:connector-curvature="0"
       id="use23456"
       d="M 562,1.96875 L 562,4.46875 L 562,4.96875 L 562.5,4.96875 L 565,4.96875 L 565,3.96875 L 563,3.96875 L 563,1.96875 L 562,1.96875 z"
       style="font-size:medium;font-style:normal;font-variant:normal;font-weight:normal;font-stretch:normal;text-indent:0;text-align:start;text-decoration:none;line-height:normal;letter-spacing:normal;word-spacing:normal;text-transform:none;direction:ltr;block-progression:tb;writing-mode:lr-tb;text-anchor:start;baseline-shift:baseline;color:#000000;fill:#000000;fill-opacity:1;fill-rule:nonzero;stroke:none;stroke-width:1px;marker:none;visibility:visible;display:inline;overflow:visible;enable-background:accumulate;font-family:Sans;-inkscape-font-specification:Sans;opacity:1" />
    <use
       height="88"
       width="832"
       transform="matrix(1,0,0,-1,24,16)"
       id="down"
       xlink:href="#up"
       y="0"
       x="0"
       style="fill:#000000;fill-opacity:1;stroke:none;opacity:1" />
    <use
       height="88"
       width="832"
       transform="matrix(0,-1,1,0,264.00591,232)"
       id="left"
       xlink:href="#up"
       y="0"
       x="0"
       style="fill:#000000;fill-opacity:1;stroke:none;opacity:1" />
    <use
       height="88"
       width="832"
       transform="matrix(0,-1,-1,0,303.99409,232)"
       id="right"
       xlink:href="#up"
       y="0"
       x="0"
       style="fill:#000000;fill-opacity:1;stroke:none;opacity:1" />
    <g
       transform="translate(0,-17.931592)"
       id="search"
       style="fill:#000000;fill-opacity:1;stroke:none;opacity:1"
       inkscape:label="">
      <path
         inkscape:connector-curvature="0"
         style="fill:#000000;fill-opacity:1;stroke:none"
         d="M 76.942085,17.931592 C 74.212647,17.931592 72,20.187795 72,22.970962 c 0,2.783168 2.212647,5.03937 4.942085,5.03937 1.054302,0 2.008463,-0.339774 2.810811,-0.913386 l 0.772201,0.72441 -0.617761,0.661417 5.80695,5.448819 L 88,31.380411 82.223938,25.963088 81.667954,26.561513 80.957529,25.900096 c 0.585886,-0.828315 0.926641,-1.82984 0.926641,-2.929134 0,-2.783167 -2.212647,-5.03937 -4.942085,-5.03937 z m 0,1.511811 c 1.910606,0 3.459459,1.579343 3.459459,3.527559 0,1.948217 -1.548853,3.527559 -3.459459,3.527559 -1.910606,0 -3.45946,-1.579342 -3.45946,-3.527559 0,-1.948216 1.548854,-3.527559 3.45946,-3.527559 z"
         id="path3318" />
    </g>
    <path
       inkscape:connector-curvature="0"
       style="fill:#000000;fill-opacity:1;fill-rule:nonzero;stroke:none;opacity:1"
       d="m 199.125,3e-6 -0.28125,1.281249 -0.1875,1.21875 -1.28125,0.5 -0.96875,-0.78125 -1.0625,-0.78125 -1.65625,1.53125 0.75,1.09375 0.71875,1 -0.5625,1.25 -1.25,0.156249 -1.3125,0.1875 -0.0312,2.218751 1.28125,0.281249 1.21875,0.1875 0.5,1.28125 -0.78125,0.96875 -0.78125,1.062499 1.53125,1.65625 1.09375,-0.75 1,-0.718749 1.25,0.562499 0.15625,1.25 0.1875,1.3125 2.21875,0.03125 0.28125,-1.28125 0.1875,-1.21875 1.28125,-0.5 0.96875,0.781251 1.0625,0.78125 1.65625,-1.53125 -0.75,-1.093751 -0.71875,-0.999999 0.5625,-1.25 1.25,-0.15625 1.3125,-0.187499 L 208,7.125002 206.71875,6.843752 205.5,6.656251 205,5.375001 l 0.78125,-0.968749 0.78125,-1.062499 -1.53125,-1.656251 -1.09375,0.75 -1,0.71875 -1.25,-0.562499 -0.15625,-1.25 -0.1875,-1.3124997 L 199.125,3e-7 z m 0.84375,4.999999 c 1.65587,-0.01914 3.01095,1.312862 3.03125,2.968749 0.0203,1.655887 -1.31289,3.012108 -2.96875,3.03125 -1.65587,0.01914 -3.01095,-1.312863 -3.03125,-2.96875 -0.0203,-1.655886 1.31289,-3.012107 2.96875,-3.031249 z"
       id="path4226-3-1"
       inkscape:export-xdpi="90"
       inkscape:export-ydpi="90" />
    <path
       style="font-size:medium;font-style:normal;font-variant:normal;font-weight:normal;font-stretch:normal;text-indent:0;text-align:start;text-decoration:none;line-height:normal;letter-spacing:normal;word-spacing:normal;text-transform:none;direction:ltr;block-progression:tb;writing-mode:lr-tb;text-anchor:start;baseline-shift:baseline;opacity:1;color:#000000;fill:#000000;fill-opacity:1;fill-rule:nonzero;stroke:none;stroke-width:0.94099997999999996;marker:none;visibility:visible;display:inline;overflow:visible;enable-background:accumulate;font-family:Sans;-inkscape-font-specification:Sans"
       d="M 849.3125,0.09375 C 847.29118,-0.2453939 845.13949,0.162674 843.34375,1.4375 C 842.89095,1.7596579 842.48368,2.1466851 842.125,2.53125 C 839.59187,5.2471203 839.23812,9.452733 841.46875,12.59375 C 844.02094,16.187551 849.03351,17.018409 852.625,14.46875 C 856.21783,11.91814 857.05123,6.9049518 854.5,3.3125 C 853.22391,1.5155983 851.33382,0.4328939 849.3125,0.09375 z M 849.15625,1 C 850.93853,1.2988669 852.62214,2.2868207 853.75,3.875 C 856.00669,7.0527082 855.2687,11.464802 852.09375,13.71875 C 848.91744,15.973665 844.50573,15.238859 842.25,12.0625 C 840.27683,9.284009 840.58127,5.5484443 842.8125,3.15625 C 843.13444,2.8110807 843.51433,2.4975989 843.90625,2.21875 C 845.4944,1.091296 847.37397,0.7011331 849.15625,1 z M 844.9375,1.875 L 844.625,2.1875 L 842.25,4.59375 L 841.90625,4.90625 L 842.25,5.25 L 844.84375,7.875 L 842.3125,10.40625 L 842,10.75 L 842.3125,11.0625 L 844.875,13.625 L 845.21875,13.96875 L 845.5625,13.625 L 848.09375,11.09375 L 850.71875,13.71875 L 851.03125,14.0625 L 851.375,13.71875 L 853.75,11.34375 L 854.09375,11 L 853.75,10.6875 L 851.125,8.03125 L 853.65625,5.5 L 854,5.1875 L 853.65625,4.84375 L 851.09375,2.28125 L 850.78125,1.96875 L 850.4375,2.28125 L 847.90625,4.8125 L 845.28125,2.1875 L 844.9375,1.875 z M 844.9375,3.21875 L 847.5625,5.8125 L 847.90625,6.15625 L 848.25,5.8125 L 850.78125,3.28125 L 852.65625,5.1875 L 850.125,7.71875 L 849.8125,8.0625 L 850.125,8.375 L 852.75,11.03125 L 851.0625,12.71875 L 848.40625,10.09375 L 848.09375,9.75 L 847.75,10.09375 L 845.21875,12.625 L 843.3125,10.71875 L 845.84375,8.21875 L 846.1875,7.875 L 845.84375,7.53125 L 843.25,4.90625 L 844.9375,3.21875 z"
       id="close"
       inkscape:connector-curvature="0" />
    <g
       id="help"
       style="fill:#000000;fill-opacity:1;stroke:none;opacity:1"
       transform="translate(0,-2.09375)">
      <g
         id="g3986"
         clip-path="url(#clipPath3990)"
         style="fill:#000000;fill-opacity:1;stroke:none">
        <path
           inkscape:connector-curvature="0"
           id="path3142"
           transform="translate(0,-69.943408)"
           d="M 872,72 C 867.58173,72 864,75.581722 864,80 C 864,84.418277 867.58173,88 872,88 C 876.41827,88 880,84.418277 880,80 C 880,75.581722 876.41827,72 872,72 z M 872,76 C 874.20914,76 876,77.790861 876,80 C 876,82.209139 874.20914,84 872,84 C 869.79086,84 868,82.209139 868,80 C 868,77.790861 869.79086,76 872,76 z"
           style="color:#000000;fill:#000000;fill-opacity:1;fill-rule:nonzero;stroke:none;stroke-width:1.63397299999999990;marker:none;visibility:visible;display:inline;overflow:visible;enable-background:accumulate" />
        <path
           inkscape:connector-curvature="0"
           sodipodi:nodetypes="ccccccccccccc"
           transform="translate(0,-69.943408)"
           id="path3976"
           d="M 864.0625,75.1875 C 866.78428,76.000328 867.83922,78.063291 869.3125,79.8125 C 867.0524,80.615527 864.98953,82.010258 863.0625,83.8125 L 865.8125,87.1875 C 866.74119,84.646547 869.31768,82.837948 871.6875,80.9375 C 874.51519,82.629704 877.56015,84.140848 879.4375,86.625 L 881.5,82.6875 C 879.11731,81.286205 876.52807,80.298028 873.8125,79.5625 C 875.49773,77.893561 877.5052,76.546869 880.1875,75.875 L 878.3125,72.5 C 875.33923,73.92035 873.80214,75.68363 872.0625,77.875 C 870.48176,75.937068 868.34654,74.341549 865.8125,72.5625 L 864.0625,75.1875 z"
           style="fill:#000000;fill-opacity:1;stroke:none" />
      </g>
      <path
         inkscape:connector-curvature="0"
         style="color:#000000;fill:#000000;fill-opacity:1;fill-rule:nonzero;stroke:none;stroke-width:1.63397299999999990;marker:none;visibility:visible;display:inline;overflow:visible;enable-background:accumulate"
         d="M 872,2.056592 C 867.58173,2.056592 864,5.638314 864,10.056592 C 864,14.474869 867.58173,18.056592 872,18.056592 C 876.41827,18.056592 880,14.474869 880,10.056592 C 880,5.638314 876.41827,2.056592 872,2.056592 z M 872,6.056592 C 874.20914,6.056592 876,7.847453 876,10.056592 C 876,12.265731 874.20914,14.056592 872,14.056592 C 869.79086,14.056592 868,12.265731 868,10.056592 C 868,7.847453 869.79086,6.056592 872,6.056592 z"
         id="path3142-5" />
    </g>
    <path
       style="font-size:medium;font-style:normal;font-variant:normal;font-weight:normal;font-stretch:normal;text-indent:0;text-align:start;text-decoration:none;line-height:normal;letter-spacing:normal;word-spacing:normal;text-transform:none;direction:ltr;block-progression:tb;writing-mode:lr-tb;text-anchor:start;baseline-shift:baseline;color:#000000;fill:#000000;fill-opacity:1;fill-rule:evenodd;stroke:none;stroke-width:0.99999994000000003px;marker:none;visibility:visible;display:inline;overflow:visible;enable-background:accumulate;font-family:Sans;-inkscape-font-specification:Sans;opacity:1"
       d="M 888.34375,1.96875 A 0.50004997,0.50004997 0 0 0 888,2.46875 L 888,5.46875 A 0.50004997,0.50004997 0 0 0 888.5,5.96875 C 890.3893,5.9537724 891.22084,6.3333825 891.59375,6.71875 C 891.96666,7.1041175 891.99416,7.5617184 892,7.96875 C 892.00588,8.379259 892.01681,8.835175 891.65625,9.21875 C 891.29569,9.602325 890.43415,10.009059 888.5,9.96875 A 0.50004997,0.50004997 0 0 0 888,10.46875 L 888,13.46875 A 0.50004997,0.50004997 0 0 0 888.5,13.9375 C 890.9416,14.00658 892.75203,13.740298 894.03125,13 C 895.1557,12.349271 895.71345,11.261108 895.875,9.96875 L 900,9.96875 L 900,10.96875 A 0.50004997,0.50004997 0 0 0 900.84375,11.3125 L 903.84375,8.3125 A 0.50004997,0.50004997 0 0 0 903.84375,7.59375 L 900.84375,4.59375 A 0.50004997,0.50004997 0 0 0 900,4.96875 L 900,5.96875 L 895.875,5.96875 C 895.71552,4.6411398 895.05447,3.5447481 893.875,2.90625 C 892.54458,2.1860352 890.71994,1.9326362 888.5,1.96875 A 0.50004997,0.50004997 0 0 0 888.34375,1.96875 z M 889,3 C 890.86326,3.0210478 892.38699,3.2776506 893.375,3.8125 C 894.45821,4.3988884 894.99866,5.20211 895,6.46875 A 0.50004997,0.50004997 0 0 0 895.5,6.96875 L 900.5,6.96875 A 0.50004997,0.50004997 0 0 0 901,6.46875 L 901,6.15625 L 902.8125,7.96875 L 901,9.75 L 901,9.46875 A 0.50004997,0.50004997 0 0 0 900.5,8.96875 L 895.5,8.96875 A 0.50004997,0.50004997 0 0 0 895,9.4375 C 894.97438,10.73117 894.54081,11.54076 893.53125,12.125 C 892.60496,12.661053 891.04885,12.943443 889,12.9375 L 889,10.90625 C 890.70584,10.861291 891.80082,10.485831 892.375,9.875 C 893.01397,9.195247 893.00602,8.35733 893,7.9375 C 892.99393,7.514193 892.95583,6.6960731 892.3125,6.03125 C 891.73523,5.4346885 890.66618,5.0970799 889,5.03125 L 889,3 z"
       id="merge"
       inkscape:connector-curvature="0" />
    <path
       style="font-size:medium;font-style:normal;font-variant:normal;font-weight:normal;font-stretch:normal;text-indent:0;text-align:start;text-decoration:none;line-height:normal;letter-spacing:normal;word-spacing:normal;text-transform:none;direction:ltr;block-progression:tb;writing-mode:lr-tb;text-anchor:start;baseline-shift:baseline;color:#000000;fill:#000000;fill-opacity:1;fill-rule:evenodd;stroke:none;stroke-width:1px;marker:none;visibility:visible;display:inline;overflow:visible;enable-background:accumulate;font-family:Sans;-inkscape-font-specification:Sans;opacity:1"
       d="M 924.4375,0.46875 A 0.50005,0.50005 0 0 0 924.0625,0.96875 L 924.0625,1.9375 C 922.68243,1.9330878 921.1358,2.1774505 919.8125,2.8125 C 918.49823,3.4432188 917.52415,4.5344978 917.28125,5.90625 L 912.5625,5.90625 A 0.50005,0.50005 0 0 0 912.0625,6.40625 L 912.0625,9.40625 A 0.50005,0.50005 0 0 0 912.5625,9.90625 L 917.21875,9.90625 C 917.40775,11.233932 918.09721,12.35749 919.28125,13.03125 C 920.50175,13.725759 922.16446,13.967897 924.0625,13.875 L 924.0625,14.96875 A 0.50005,0.50005 0 0 0 924.90625,15.3125 L 927.90625,12.3125 A 0.50005,0.50005 0 0 0 927.90625,11.59375 L 924.90625,8.59375 A 0.50005,0.50005 0 0 0 924.0625,8.96875 L 924.0625,9.84375 C 922.5723,9.789403 921.75535,9.496141 921.4375,9.15625 C 921.08011,8.774077 921.0879,8.313034 921.09375,7.90625 C 921.09956,7.502602 921.13059,7.0714806 921.5,6.6875 C 921.82527,6.3493981 922.63239,6.044927 924.0625,5.96875 L 924.0625,6.96875 A 0.50005,0.50005 0 0 0 924.90625,7.3125 L 927.90625,4.3125 A 0.50005,0.50005 0 0 0 927.90625,3.59375 L 924.90625,0.59375 A 0.50005,0.50005 0 0 0 924.4375,0.46875 z M 925.0625,2.1875 L 926.84375,3.96875 L 925.0625,5.71875 L 925.0625,5.40625 A 0.50005,0.50005 0 0 0 924.5625,4.90625 C 922.55468,4.9007488 921.41821,5.3379163 920.78125,6 C 920.14429,6.6620837 920.09984,7.48355 920.09375,7.90625 C 920.08771,8.325813 920.08597,9.135844 920.71875,9.8125 C 921.35153,10.489156 922.5099,10.938217 924.5625,10.90625 A 0.50005,0.50005 0 0 0 925.0625,10.40625 L 925.0625,10.1875 L 926.84375,11.96875 L 925.0625,13.71875 L 925.0625,13.40625 A 0.50005,0.50005 0 0 0 924.5,12.90625 C 922.49829,13.08188 920.8737,12.777896 919.78125,12.15625 C 918.6888,11.534604 918.1186,10.626697 918.09375,9.375 A 0.50005,0.50005 0 0 0 917.59375,8.90625 L 913.0625,8.90625 L 913.0625,6.90625 L 917.59375,6.90625 A 0.50005,0.50005 0 0 0 918.09375,6.40625 C 918.09493,5.2385455 918.95284,4.3412585 920.25,3.71875 C 921.54716,3.0962415 923.23048,2.825912 924.53125,2.90625 A 0.50005,0.50005 0 0 0 925.0625,2.40625 L 925.0625,2.1875 z"
       id="spread"
       inkscape:connector-curvature="0" />
    <path
       inkscape:export-ydpi="90"
       inkscape:export-xdpi="90"
       inkscape:label="#path2501"
       transform="matrix(0.4528302,0,0,0.4615385,944.73585,-6.4107838)"
       d="M 58,31.142853 A 6.625,6.5 0 1 1 44.75,31.142853 A 6.625,6.5 0 1 1 58,31.142853 z"
       sodipodi:ry="6.5"
       sodipodi:rx="6.625"
       sodipodi:cy="31.142853"
       sodipodi:cx="51.375"
       id="round-blue"
       style="fill:#000000;fill-opacity:1;stroke:none;opacity:1"
       sodipodi:type="arc" />
    <path
       inkscape:export-filename="/home/brice/dev/ekylibre/trunk/public/themes/tekyla/images/round-black.png"
       inkscape:export-ydpi="90"
       inkscape:export-xdpi="90"
       inkscape:label="#path2501"
       transform="matrix(0.4528302,0,0,0.4615385,968.73585,-6.4107838)"
       d="M 58,31.142853 A 6.625,6.5 0 1 1 44.75,31.142853 A 6.625,6.5 0 1 1 58,31.142853 z"
       sodipodi:ry="6.5"
       sodipodi:rx="6.625"
       sodipodi:cy="31.142853"
       sodipodi:cx="51.375"
       id="round_hover"
       style="fill:#000000;fill-opacity:1;stroke:none;opacity:1"
       sodipodi:type="arc" />
    <path
       inkscape:export-filename="/home/brice/dev/ekylibre/trunk/public/themes/tekyla/images/round-green.png"
       inkscape:export-ydpi="90"
       inkscape:export-xdpi="90"
       inkscape:label="#path2501"
       transform="matrix(0.4528302,0,0,0.4615385,920.73585,-6.4107838)"
       d="M 58,31.142853 A 6.625,6.5 0 1 1 44.75,31.142853 A 6.625,6.5 0 1 1 58,31.142853 z"
       sodipodi:ry="6.5"
       sodipodi:rx="6.625"
       sodipodi:cy="31.142853"
       sodipodi:cx="51.375"
       id="path2513"
       style="fill:#000000;fill-opacity:1;stroke:none;opacity:1"
       sodipodi:type="arc" />
    <path
       inkscape:connector-curvature="0"
       sodipodi:nodetypes="cccccccccccccccccccc"
       id="rect3193-3"
       d="M 1010,0.962842 L 1010,2.962842 L 1022,2.962842 L 1022,0.962842 L 1010,0.962842 z M 1010,4.962842 L 1010,6.962842 L 1022,6.962842 L 1022,4.962842 L 1010,4.962842 z M 1010,8.962842 L 1010,10.962842 L 1022,10.962842 L 1022,8.962842 L 1010,8.962842 z M 1010,12.962842 L 1010,14.962842 L 1022,14.962842 L 1022,12.962842 L 1010,12.962842 z"
       style="fill:#000000;fill-opacity:1;stroke:none;display:inline;opacity:1" />
    <g
       transform="matrix(0.5,0,0,0.5,1032,0.962842)"
       id="general-informations"
       style="fill:#000000;fill-opacity:1;stroke:none;opacity:1"
       inkscape:label="">
      <path
         inkscape:connector-curvature="0"
         id="path6"
         d="M 16,4 C 16,4 12,0 0,0 V 24 C 12.125,24 16,28 16,28 C 16,28 19.875,24 32,24 V 0 C 20,0 16,4 16,4 z M 4,4 C 9.084,4.426 12.203,5.602 14,6.555 V 22.664 C 12.203,21.715 9.084,20.539 4,20.109 V 4 z M 28,20.109 C 22.914,20.539 19.795,21.714 18,22.664 V 6.555 C 19.795,5.602 22.914,4.426 28,4 V 20.109 z"
         style="fill:#000000;fill-opacity:1;stroke:none" />
    </g>
    <path
       style="font-size:medium;font-style:normal;font-variant:normal;font-weight:normal;font-stretch:normal;text-indent:0;text-align:start;text-decoration:none;line-height:normal;letter-spacing:normal;word-spacing:normal;text-transform:none;direction:ltr;block-progression:tb;writing-mode:lr-tb;text-anchor:start;baseline-shift:baseline;opacity:1;color:#000000;fill:#000000;fill-opacity:1;stroke:none;stroke-width:5.87564801999999986;marker:none;visibility:visible;display:inline;overflow:visible;enable-background:accumulate;font-family:Sans;-inkscape-font-specification:Sans"
       d="M 1059.4688 0 C 1057.8441 0 1056.5313 1.3546213 1056.5312 3.03125 C 1056.5312 4.4615423 1057.8012 5.9687904 1059.0312 6 L 1059.0312 7.96875 L 1056 7.96875 L 1056 8.9375 L 1059.0312 8.9375 L 1059.0312 12.96875 L 1060 12.96875 L 1060 8.9375 L 1063 8.9375 L 1063 7.96875 L 1060 7.96875 L 1060 6.03125 C 1061.3869 5.7831516 1062.4375 4.5310245 1062.4375 3.03125 C 1062.4375 1.3546213 1061.0933 0 1059.4688 0 z M 1059.4688 1 C 1060.5618 1 1061.4375 1.9031556 1061.4375 3.03125 C 1061.4375 4.1593596 1060.5617 5.0625153 1059.4688 5.0625 C 1058.3756 5.0625 1057.5 4.1593596 1057.5 3.03125 C 1057.5 1.9031556 1058.3756 0.99998468 1059.4688 1 z M 1066.6875 5.6875 L 1066.6875 6.0625 L 1066.6875 6.28125 L 1066.6875 6.6875 L 1067.0625 6.6875 L 1070.2188 6.6875 L 1067.125 9.65625 L 1067.0312 9.75 C 1066.5003 9.36462 1065.8486 9.125 1065.1562 9.125 C 1063.351 9.125 1061.875 10.64986 1061.875 12.53125 C 1061.875 14.41264 1063.351 15.96875 1065.1562 15.96875 C 1066.9616 15.96875 1068.4688 14.41264 1068.4688 12.53125 C 1068.4688 11.73664 1068.1905 11.01996 1067.75 10.4375 L 1067.8438 10.34375 L 1071 7.3125 L 1071 10.71875 L 1071 11.09375 L 1071.4062 11.09375 L 1071.625 11.09375 L 1072.0312 11.09375 L 1072.0312 10.71875 L 1072.0312 6.375 L 1072.0312 5.96875 L 1072 5.96875 L 1072 5.6875 L 1071.5938 5.6875 L 1067.0625 5.6875 L 1066.6875 5.6875 z M 1065.1562 10.25 C 1066.3722 10.25 1067.375 11.26406 1067.375 12.53125 C 1067.375 13.79846 1066.3722 14.8125 1065.1562 14.8125 C 1063.9404 14.8125 1062.9687 13.79846 1062.9688 12.53125 C 1062.9688 11.26406 1063.9404 10.25 1065.1562 10.25 z "
       id="genealogy"
       inkscape:label="" />
    <path
       style="font-size:medium;font-style:normal;font-variant:normal;font-weight:normal;font-stretch:normal;text-indent:0;text-align:start;text-decoration:none;line-height:normal;letter-spacing:normal;word-spacing:normal;text-transform:none;direction:ltr;block-progression:tb;writing-mode:lr-tb;text-anchor:start;baseline-shift:baseline;color:#000000;fill:#000000;fill-opacity:1;stroke:none;stroke-width:1;marker:none;visibility:visible;display:inline;overflow:visible;enable-background:accumulate;font-family:Sans;-inkscape-font-specification:Sans;opacity:1"
       d="M 1080 0 L 1080 16 L 1096 16 L 1096 0 L 1080 0 z M 1081 1 L 1095 1 L 1095 15 L 1081 15 L 1081 1 z M 1085 1.5 C 1083.3431 1.5 1082 2.8431458 1082 4.5 C 1082 6.1568542 1083.3431 7.5 1085 7.5 C 1086.6569 7.5 1088 6.1568542 1088 4.5 C 1088 2.8431458 1086.6569 1.5 1085 1.5 z M 1091 5 C 1089.3431 5 1088 6.3431458 1088 8 C 1088 9.6568542 1089.3431 11 1091 11 C 1092.6569 11 1094 9.6568542 1094 8 C 1094 6.3431458 1092.6569 5 1091 5 z M 1085 8.5 C 1083.3431 8.5 1082 9.8431458 1082 11.5 C 1082 13.156854 1083.3431 14.5 1085 14.5 C 1086.6569 14.5 1088 13.156854 1088 11.5 C 1088 9.8431458 1086.6569 8.5 1085 8.5 z "
       id="rect5350" />
    <path
       inkscape:connector-curvature="0"
       id="rect5350-4"
       d="m 1107,1 0,0.46875 0,2.53125 -2.5,0 -0.5,0 0,0.5 0,11 0,0.5 0.5,0 15,0 0.5,0 0,-0.5 0,-11 0,-0.5 -0.5,0 -2.5,0 0,-2.53125 L 1117,1 1116.5312,1 1107.4688,1 1107,1 z m 0.9375,0.9375 8.125,0 0,2.0625 -8.125,0 0,-2.0625 z M 1105,5 l 2,0 10,0 2,0 0,10 -14,0 0,-10 z m 6.9062,0.78125 c -1.9556,0.06785 -3.6601,1.50163 -4,3.5 -0.3885,2.28554 1.1452,4.4562 3.4376,4.84375 2.2923,0.38755 4.4862,-1.15196 4.875,-3.4375 0.3886,-2.28554 -1.1766,-4.45621 -3.4688,-4.84375 -0.2863,-0.04811 -0.5645,-0.07219 -0.8438,-0.0625 z m -0.7812,0.875 1.875,0 0,2.3125 2.2812,0 0,2.03125 -2.2812,0 0,2.34375 -1.875,0 0,-2.34375 -2.2812,0 0,-2.03125 2.2812,0 0,-2.3125 z"
       style="font-size:medium;font-style:normal;font-variant:normal;font-weight:normal;font-stretch:normal;text-indent:0;text-align:start;text-decoration:none;line-height:normal;letter-spacing:normal;word-spacing:normal;text-transform:none;direction:ltr;block-progression:tb;writing-mode:lr-tb;text-anchor:start;baseline-shift:baseline;color:#000000;fill:#000000;fill-opacity:1;stroke:none;stroke-width:0.99999994000000003;marker:none;visibility:visible;display:inline;overflow:visible;enable-background:accumulate;font-family:Sans;-inkscape-font-specification:Sans;opacity:1" />
    <path
       sodipodi:nodetypes="cccccccccccccccccccccccccccccccccccccccccccc"
       inkscape:connector-curvature="0"
       id="rect11037-6-4-8-6-9"
       d="m 1132.0999,0 -0.2666,0.3050858 -3.5666,3.9661151 -0.2667,0.3050858 0.2999,0.2711874 0.1003,0.1355936 0.2999,0.2711874 0.2667,-0.3050858 1.5334,-1.694921 2.1998,2.2033973 -1.4666,1.6610226 -0.2999,0.3050858 0.2999,0.3050858 0.1003,0.101641 0.2999,0.3050862 0.3001,-0.3389846 0.5333,-0.6101716 0.5333,0.5423747 4.4333,4.4745915 0.8999,0.881359 0.8333,-0.949156 0.1667,-0.169492 c 1.3333,1.344677 2.6686,2.687206 3.9999,4.033912 l 0.2999,-0.305086 c 0.1314,-0.126818 0.2445,-0.271187 0.3667,-0.406781 -1.3385,-1.350632 -2.6879,-2.690222 -4.0332,-4.033912 l 0.1666,-0.20339 0.8,-0.915258 -0.8666,-0.881359 -4.4333,-4.4406926 -0.5333,-0.5423747 0.3667,-0.4406795 0.2667,-0.3050858 -0.2667,-0.2711873 -0.1333,-0.1355937 -0.3,-0.2711874 -0.2666,0.3050858 -1.4667,1.6610226 -2.2,-2.2033973 1.4333,-1.6271242 0.2667,-0.3050857 -0.2999,-0.2711874 -0.1003,-0.1355937 z"
       style="font-size:medium;font-style:normal;font-variant:normal;font-weight:normal;font-stretch:normal;text-indent:0;text-align:start;text-decoration:none;line-height:normal;letter-spacing:normal;word-spacing:normal;text-transform:none;direction:ltr;block-progression:tb;writing-mode:lr-tb;text-anchor:start;baseline-shift:baseline;opacity:1;color:#000000;fill:#000000;fill-opacity:1;fill-rule:evenodd;stroke:none;stroke-width:2.32998610000000017;marker:none;visibility:visible;display:inline;overflow:visible;enable-background:accumulate;font-family:Sans;-inkscape-font-specification:Sans" />
    <path
       sodipodi:nodetypes="cccccccccccccccc"
       inkscape:connector-curvature="0"
       id="rect11037-6-4-8-6-9-5"
       d="m 1156.15,0.79662887 -0.033,0.032388 c -0.011,0.010718 -0.022,0.021514 -0.033,0.032388 l -1.3888,1.58703963 c -1.1176,1.4013702 -0.8086,2.7833746 0.3637,4.0161819 l 3.9135,3.9602816 5.158,-5.5436689 -4.0786,-4.21416573 c -1.3249,-0.9803624 -2.7114,-0.8317651 -3.9025,0.1295548 z m 8.8496,4.84522273 -5.2573,5.5708334 4.1779,4.255965 c 1.1494,0.778569 2.9324,0.691238 3.9678,-0.194332 l 1.1903,-1.36032 c 1.2218,-1.593628 1.2798,-2.7682 -0.1323,-4.2429023 z"
       style="font-size:medium;font-style:normal;font-variant:normal;font-weight:normal;font-stretch:normal;text-indent:0;text-align:start;text-decoration:none;line-height:normal;letter-spacing:normal;word-spacing:normal;text-transform:none;direction:ltr;block-progression:tb;writing-mode:lr-tb;text-anchor:start;baseline-shift:baseline;opacity:1;color:#000000;fill:#000000;fill-opacity:1;fill-rule:evenodd;stroke:none;stroke-width:5.49179554000000003;marker:none;visibility:visible;display:inline;overflow:visible;enable-background:accumulate;font-family:Sans;-inkscape-font-specification:Sans" />
    <g
       style="fill:#000000;fill-opacity:1;stroke:none;opacity:1"
       transform="matrix(0.66666667,0,0,0.5,1176,-0.037158)"
       id="user">
      <g
         style="fill:#000000;fill-opacity:1;stroke:none"
         id="g3670">
        <path
           sodipodi:nodetypes="ssssss"
           id="path3672"
           d="M 12,16 C 5.375,16 0,21.375 0,28 C 0,30.211 0.78899998,32 3,32 L 21,32 C 23.211,32 24,30.211 24,28 C 24,21.375 18.625,16 12,16 z"
           style="fill:#000000;fill-opacity:1;stroke:none"
           inkscape:connector-curvature="0" />
        <circle
           transform="scale(1,1.2955132)"
           d="m 18,6 c 0,3.3137085 -2.686292,6 -6,6 C 8.6862915,12 6,9.3137085 6,6 6,2.6862915 8.6862915,0 12,0 c 3.313708,0 6,2.6862915 6,6 z"
           id="circle3674"
           r="6"
           cy="6"
           cx="12"
           style="fill:#000000;fill-opacity:1;stroke:none"
           sodipodi:cx="12"
           sodipodi:cy="6"
           sodipodi:rx="6"
           sodipodi:ry="6" />
      </g>
    </g>
    <g
       style="fill:#000000;fill-opacity:1;stroke:none;opacity:1"
       transform="matrix(0.5,0,0,0.5,1200,0)"
       id="clock">
      <g
         style="fill:#000000;fill-opacity:1;stroke:none"
         id="g3760">
        <path
           id="path3762"
           d="M 16,4 C 22.617,4 28,9.383 28,16 C 28,22.617 22.617,28 16,28 C 9.383,28 4,22.617 4,16 C 4,9.383 9.383,4 16,4 M 16,0 C 7.164,0 0,7.164 0,16 C 0,24.836 7.164,32 16,32 C 24.836,32 32,24.836 32,16 C 32,7.164 24.836,0 16,0 L 16,0 z"
           style="fill:#000000;fill-opacity:1;stroke:none"
           inkscape:connector-curvature="0" />
        <path
           id="path3764"
           d="M 21.422,18.578 L 18,15.152 V 8 H 13.977 V 15.992 C 13.977,16.594 14.254,17.113 14.672,17.484 L 18.594,21.406 L 21.422,18.578 z"
           style="fill:#000000;fill-opacity:1;stroke:none"
           inkscape:connector-curvature="0" />
      </g>
    </g>
    <g
       transform="matrix(0.4375,0,0,0.5,1225,0)"
       id="box"
       style="fill:#000000;fill-opacity:1;stroke:none;opacity:1">
      <g
         id="g3542"
         style="fill:#000000;fill-opacity:1;stroke:none">
        <rect
           id="rect3544"
           height="20"
           width="32"
           style="fill:#000000;fill-opacity:1;stroke:none"
           y="12"
           x="0" />
        <polygon
           id="polygon3546"
           points="18,0 18,8 32,8 28,0 "
           style="fill:#000000;fill-opacity:1;stroke:none" />
        <polygon
           id="polygon3548"
           points="14,8 14,0 4,0 0,8 "
           style="fill:#000000;fill-opacity:1;stroke:none" />
      </g>
    </g>
    <text
       transform="scale(1.1521003,0.86797999)"
       sodipodi:linespacing="125%"
       id="text3911"
       y="18.045685"
       x="1083.239"
       style="font-size:24.37186622999999841px;font-style:normal;font-weight:normal;line-height:125%;letter-spacing:0px;word-spacing:0px;fill:#000000;fill-opacity:1;stroke:none;font-family:Sans;opacity:1"
       xml:space="preserve"><tspan
         style="font-style:normal;font-variant:normal;font-weight:normal;font-stretch:normal;fill:#000000;fill-opacity:1;stroke:none;font-family:Courier 10 Pitch;-inkscape-font-specification:Courier 10 Pitch"
         y="18.045685"
         x="1083.239"
         id="tspan3913"
         sodipodi:role="line"></tspan></text>
    <path
       style="font-size:medium;font-style:normal;font-variant:normal;font-weight:normal;font-stretch:normal;text-indent:0;text-align:start;text-decoration:none;line-height:normal;letter-spacing:normal;word-spacing:normal;text-transform:none;direction:ltr;block-progression:tb;writing-mode:lr-tb;text-anchor:start;baseline-shift:baseline;opacity:1;color:#000000;fill:#000000;fill-opacity:1;fill-rule:evenodd;stroke:none;stroke-width:1;marker:none;visibility:visible;display:inline;overflow:visible;enable-background:accumulate;font-family:Sans;-inkscape-font-specification:Sans"
       d="M 60.8,2e-7 56,4.8 51.2,0 48,3.1999999 52.8,8 48,12.8 51.2,16 56,11.2 60.8,16 64,12.8 59.2,8 64,3.2 z"
       id="destroy"
       inkscape:connector-curvature="0"
       sodipodi:nodetypes="ccccccccccccc"
       inkscape:label="" />
  </g>
</svg>
