<?xml version="1.0" encoding="UTF-8" standalone="no"?>
<!-- Created with Inkscape (http://www.inkscape.org/) -->

<svg
   xmlns:dc="http://purl.org/dc/elements/1.1/"
   xmlns:cc="http://creativecommons.org/ns#"
   xmlns:rdf="http://www.w3.org/1999/02/22-rdf-syntax-ns#"
   xmlns:svg="http://www.w3.org/2000/svg"
   xmlns="http://www.w3.org/2000/svg"
   xmlns:sodipodi="http://sodipodi.sourceforge.net/DTD/sodipodi-0.dtd"
   xmlns:inkscape="http://www.inkscape.org/namespaces/inkscape"
   width="1264"
   height="16"
   id="icons"
   sodipodi:version="0.32"
   inkscape:version="0.48.2 r9819"
   version="1.0"
   inkscape:export-filename="/home/brice/Projets/ekylibre/app/assets/images/themes/tekyla/icons-16.png"
   inkscape:export-xdpi="90"
   inkscape:export-ydpi="90"
   sodipodi:docname="symbols.svg"
   inkscape:output_extension="org.inkscape.output.svg.inkscape"
   style="display:inline">
  <defs
     id="defs136" />
  <sodipodi:namedview
     id="base"
     pagecolor="#5ed175"
     bordercolor="#666666"
     borderopacity="1.0"
     inkscape:pageopacity="0"
     inkscape:pageshadow="2"
     inkscape:zoom="16"
     inkscape:cx="998.45393"
     inkscape:cy="8"
     inkscape:document-units="px"
     inkscape:current-layer="symbols"
     showguides="true"
     showgrid="true"
     inkscape:showpageshadow="false"
     gridtolerance="0.4px"
     inkscape:guide-bbox="true"
     inkscape:window-width="1440"
     inkscape:window-height="803"
     inkscape:window-x="0"
     inkscape:window-y="25"
     inkscape:window-maximized="1"
     borderlayer="true">
    <inkscape:grid
       id="Grid1"
       type="xygrid"
       originx="0px"
       originy="0px"
       spacingx="1px"
       spacingy="1px"
       color="#563fff"
       empcolor="#031b4b"
       opacity="0.21960784"
       empopacity="0.29019608"
       empspacing="8"
       visible="true"
       enabled="true"
       snapvisiblegridlinesonly="false"
       dotted="false" />
  </sodipodi:namedview>
  <metadata
     id="metadata7">
    <rdf:RDF>
      <cc:Work
         rdf:about="">
        <dc:format>image/svg+xml</dc:format>
        <dc:type
           rdf:resource="http://purl.org/dc/dcmitype/StillImage" />
        <dc:title />
      </cc:Work>
      <cc:Work
         rdf:about="">
        <dc:format>image/svg+xml</dc:format>
        <dc:type
           rdf:resource="http://purl.org/dc/dcmitype/StillImage" />
      </cc:Work>
    </rdf:RDF>
  </metadata>
  <g
     inkscape:label="Symbols"
     inkscape:groupmode="layer"
     id="symbols"
     style="display:inline">
    <path
       style="font-size:medium;font-style:normal;font-variant:normal;font-weight:normal;font-stretch:normal;text-indent:0;text-align:start;text-decoration:none;line-height:normal;letter-spacing:normal;word-spacing:normal;text-transform:none;direction:ltr;block-progression:tb;writing-mode:lr-tb;text-anchor:start;baseline-shift:baseline;color:#000000;fill:#000000;fill-opacity:1;fill-rule:evenodd;stroke:none;stroke-width:1;marker:none;visibility:visible;display:inline;overflow:visible;enable-background:accumulate;font-family:Sans;-inkscape-font-specification:Sans"
       d="M 152,6.3460474e-4 C 148.05319,-0.04152927 146,2.0247308 146,4.000476 L 146,8.0003173 L 144,8.0003173 L 144,16 L 160,16 L 160,8.0003173 L 158,8.0003173 L 158,4.000476 C 158.0344,2.0005553 155.93728,0.04269659 152,6.3460474e-4 z M 152,3.0005156 C 153.73935,3.0005156 155.08827,3.2107101 155,5.0004363 L 155,8.0003173 L 149,8.0003173 L 148.9688,5.0004363 C 148.85823,3.2484828 149.986,3.0005156 152,3.0005156 z"
       id="lock"
       inkscape:connector-curvature="0"
       sodipodi:nodetypes="sscccccccssccccs"
       inkscape:label="Lock" />
    <path
       style="font-size:medium;font-style:normal;font-variant:normal;font-weight:normal;font-stretch:normal;text-indent:0;text-align:start;text-decoration:none;line-height:normal;letter-spacing:normal;word-spacing:normal;text-transform:none;direction:ltr;block-progression:tb;writing-mode:lr-tb;text-anchor:start;baseline-shift:baseline;color:#000000;fill:#000000;fill-opacity:1;fill-rule:evenodd;stroke:none;stroke-width:0.98056054;marker:none;visibility:visible;display:inline;overflow:visible;enable-background:accumulate;font-family:Sans;-inkscape-font-specification:Sans"
       d="M 37.573944,0 L 25.741596,11.399226 L 24,16 L 28.252778,14.184046 L 40,2.4680556 C 39.746174,0.9039624 38.854162,0.1817798 37.573944,0 z"
       id="edit"
       inkscape:connector-curvature="0"
       sodipodi:nodetypes="cccccc"
       inkscape:label="Edit" />
    <path
       style="font-size:medium;font-style:normal;font-variant:normal;font-weight:normal;font-stretch:normal;text-indent:0;text-align:start;text-decoration:none;line-height:normal;letter-spacing:normal;word-spacing:normal;text-transform:none;direction:ltr;block-progression:tb;writing-mode:lr-tb;text-anchor:start;baseline-shift:baseline;color:#000000;fill:#000000;fill-opacity:1;fill-rule:evenodd;stroke:none;stroke-width:1;marker:none;visibility:visible;display:inline;overflow:visible;enable-background:accumulate;font-family:Sans;-inkscape-font-specification:Sans"
       d="M 6,0 L 6,6 L 0,6 L 0,10 L 6,10 L 6,16 L 10,16 L 10,10 L 16,10 L 16,6 L 10,6 L 10,0 z"
       id="new"
       inkscape:connector-curvature="0"
       sodipodi:nodetypes="ccccccccccccc"
       inkscape:label="New" />
    <path
       style="font-size:medium;font-style:normal;font-variant:normal;font-weight:normal;font-stretch:normal;text-indent:0;text-align:start;text-decoration:none;line-height:normal;letter-spacing:normal;word-spacing:normal;text-transform:none;direction:ltr;block-progression:tb;writing-mode:lr-tb;text-anchor:start;baseline-shift:baseline;color:#000000;fill:#000000;fill-opacity:1;fill-rule:evenodd;stroke:none;stroke-width:1;marker:none;visibility:visible;display:inline;overflow:visible;enable-background:accumulate;font-family:Sans;-inkscape-font-specification:Sans"
       d="M 224,0 L 217,7 L 221,7 L 221,16 L 227,16 L 227,7 L 231,7 z"
       id="up"
       inkscape:connector-curvature="0"
       sodipodi:nodetypes="cccccccc" />
    <path
       style="font-size:medium;font-style:normal;font-variant:normal;font-weight:normal;font-stretch:normal;text-indent:0;text-align:start;text-decoration:none;line-height:normal;letter-spacing:normal;word-spacing:normal;text-transform:none;direction:ltr;block-progression:tb;writing-mode:lr-tb;text-anchor:start;baseline-shift:baseline;color:#000000;fill:#000000;fill-opacity:1;fill-rule:evenodd;stroke:none;stroke-width:1;marker:none;visibility:visible;display:inline;overflow:visible;enable-background:accumulate;font-family:Sans;-inkscape-font-specification:Sans"
       d="M 110.36542,0 L 101.94106,9.890634 L 98.10609,3.3803433 L 96,7.0110823 L 101.83179,16 L 112,4.2254291 z"
       id="validate"
       inkscape:connector-curvature="0"
       sodipodi:nodetypes="ccccccc"
       inkscape:label="Validates" />
    <path
       style="fill:#000000;fill-opacity:1;fill-rule:evenodd;stroke:none;opacity:1"
       d="M 674.1875,0 672,7 l 1.875,0 0.6875,-1.90625 2,0 L 677.125,7 679,7 677,0 z M 681,0 l 0,11 -2,0 4.5,5 4.5,-5 -2,0 0,-11 -2.5,1 z m -5.75,1.875 0.5,0 0.4,1.53125 -1.3,0 z M 672,9 l 0,2.03125 3.15625,0 L 672,16 l 7,0 0,-2.0625 -3.21875,0 L 679,9 z"
       id="sort"
       inkscape:connector-curvature="0"
       sodipodi:nodetypes="cccccccccccccccccccccccccccccccc" />
    <path
       style="fill:#000000;fill-opacity:1;fill-rule:evenodd;stroke:none"
       d="M 579.09375,0 L 579.09375,8.53125 L 588.75,8.53125 L 588.75,0 z M 581,2 L 587,2 L 587,3 L 581,3 z M 581,4 L 587,4 L 587,5 L 581,5 z M 576.9375,5.46875 C 575.86024,8.777094 575.51786,11.983296 576.9375,14.9375 L 578.46875,14.9375 L 578.625,12.40625 L 589.5,12.40625 L 589.75,14.9375 L 590.9375,14.9375 C 592.30059,12.120269 592.43807,8.996753 590.9375,5.46875 L 589.40625,5.46875 L 589.40625,9.1875 L 578.46875,9.1875 L 578.46875,5.46875 z M 581,6 L 587,6 L 587,7 L 581,7 z M 579.21875,13 L 578.96875,16 L 589.25,16 L 588.84375,13 z"
       id="print"
       inkscape:connector-curvature="0"
       sodipodi:nodetypes="cccccccccccccccccccccccccccccccccccccc"
       inkscape:label="Print" />
    <path
       style="font-size:medium;font-style:normal;font-variant:normal;font-weight:normal;font-stretch:normal;text-indent:0;text-align:start;text-decoration:none;line-height:normal;letter-spacing:normal;word-spacing:normal;text-transform:none;direction:ltr;block-progression:tb;writing-mode:lr-tb;text-anchor:start;baseline-shift:baseline;color:#000000;fill:#000000;fill-opacity:1;fill-rule:evenodd;stroke:none;stroke-width:0.99999994px;marker:none;visibility:visible;display:inline;overflow:visible;enable-background:accumulate;font-family:Sans;-inkscape-font-specification:Sans"
       d="M 120,4.6841046 L 127.03745,9.8832998 L 127.03745,7.2434608 C 128.55435,7.08178 131.54509,7.6430444 131.48671,10.044266 C 131.42831,12.445487 127.55359,14.841445 125.40814,16 C 129.8207,15.769861 136.10647,13.437949 135.99863,8.8209256 C 135.8908,4.2039021 130.3924,2.4565255 127.03745,2.2535211 L 127.03745,0 z"
       id="cancel"
       inkscape:connector-curvature="0"
       sodipodi:nodetypes="ccczczccc"
       inkscape:label="Cancel" />
    <path
       style="font-size:medium;font-style:normal;font-variant:normal;font-weight:normal;font-stretch:normal;text-indent:0;text-align:start;text-decoration:none;line-height:normal;letter-spacing:normal;word-spacing:normal;text-transform:none;direction:ltr;block-progression:tb;writing-mode:lr-tb;text-anchor:start;baseline-shift:baseline;color:#000000;fill:#000000;fill-opacity:1;fill-rule:evenodd;stroke:none;stroke-width:1px;marker:none;visibility:visible;display:inline;overflow:visible;enable-background:accumulate;font-family:Sans;-inkscape-font-specification:Sans"
       d="M 313.91568,9.5791364e-4 L 315.69646,1.6252229 L 315.53457,3.2900947 L 313.64587,3.7096965 L 312,2.2207868 C 312.003,5.0981071 312.48298,6.1298084 315.96627,5.5776013 L 322.63069,11.912235 C 321.79434,15.13328 323.4941,16.006023 326.21922,15.999969 L 324.3575,14.159135 L 324.53288,12.467192 L 326.1113,12.29123 L 328,13.969637 C 327.993,10.535881 326.36071,10.057724 324.2226,10.396254 L 317.55818,3.8450519 C 318.209,0.26721316 316.37106,-0.01981068 313.91568,9.5791364e-4 z"
       id="configure"
       inkscape:connector-curvature="0"
       sodipodi:nodetypes="ccccccccccccccc"
       inkscape:label="" />
    <path
       style="fill:#000000;fill-opacity:1;fill-rule:nonzero;stroke:none"
       d="M 482,2 L 482,14 L 494,14 L 494,2 z M 483,3 L 493,3 L 493,13 L 483,13 z M 492,4 L 487,9 L 484,6 L 484,9 L 487,12 L 492,7 z"
       id="true"
       inkscape:label=""
       inkscape:connector-curvature="0"
       sodipodi:nodetypes="ccccccccccccccccc" />
    <path
       style="font-size:medium;font-style:normal;font-variant:normal;font-weight:normal;font-stretch:normal;text-indent:0;text-align:start;text-decoration:none;line-height:normal;letter-spacing:normal;word-spacing:normal;text-transform:none;direction:ltr;block-progression:tb;writing-mode:lr-tb;text-anchor:start;baseline-shift:baseline;color:#000000;fill:#000000;fill-opacity:1;fill-rule:nonzero;stroke:none;stroke-width:1;marker:none;visibility:visible;display:inline;overflow:visible;enable-background:accumulate;font-family:Sans;-inkscape-font-specification:Sans"
       d="M 506,2 L 506,14 L 518,14 L 518,2 z M 507,3 L 517,3 L 517,13 L 507,13 z"
       id="false"
       inkscape:connector-curvature="0"
       inkscape:label="#use3091"
       sodipodi:nodetypes="cccccccccc" />
    <path
       inkscape:connector-curvature="0"
       sodipodi:nodetypes="ccccccccccsssccsscccsccsccc"
       id="logout"
       d="M 771,-0.037158 C 769.338,-0.037158 768,1.300842 768,2.962842 L 768,12.962842 C 768,14.624842 769.338,15.962842 771,15.962842 L 781,15.962842 C 782.662,15.962842 784,14.624842 784,12.962842 L 784,2.962842 C 784,1.300842 782.662,-0.037158 781,-0.037158 L 771,-0.037158 z M 776.09375,1.462842 C 779.99975,1.416742 783.01782,4.825636 782.46875,9.025342 C 782.02663,12.406965 778.49025,14.966213 774.96875,14.369092 C 771.44724,13.771972 769.0234,10.38571 769.625,6.837842 C 770.16769,3.637364 772.9639,1.426967 776.09375,1.462842 z M 775.8125,3.431592 C 773.72546,3.527622 771.92296,5.055786 771.5625,7.181592 C 771.14613,9.637129 772.79935,11.948251 775.28125,12.369092 C 777.76315,12.789933 780.08363,11.137128 780.5,8.681592 C 780.93,5.526123 778.58344,3.604775 775.8125,3.431592 z M 775.9062,4.056592 C 775.9478,4.054492 775.9896,4.054492 776.0312,4.056592 C 776.69623,4.056452 777.29776,4.673021 777.2812,5.337842 L 777.2812,10.462842 C 777.2902,11.123233 776.69166,11.730645 776.0312,11.730645 C 775.37074,11.730645 774.77186,11.123233 774.7812,10.462842 L 774.7812,5.337842 C 774.7625,4.712698 775.28389,4.118911 775.9062,4.056592 z"
       style="fill:#000000;fill-opacity:1;fill-rule:nonzero;stroke:none;opacity:1">
      <desc
         id="desc23500">Log out, Exit</desc>
      <title
         id="title23498">Log out</title>
    </path>
    <path
       style="font-size:medium;font-style:normal;font-variant:normal;font-weight:normal;font-stretch:normal;text-indent:0;text-align:start;text-decoration:none;line-height:normal;letter-spacing:normal;word-spacing:normal;text-transform:none;direction:ltr;block-progression:tb;writing-mode:lr-tb;text-anchor:start;color:#000000;fill:#000000;fill-opacity:1;fill-rule:evenodd;stroke:none;stroke-width:1px;marker:none;visibility:visible;display:inline;overflow:visible;enable-background:accumulate;font-family:Arial;-inkscape-font-specification:Arial"
       d="M 390,-0.037158 L 390,0.462842 L 390,4.962842 L 391,4.962842 L 391,0.962842 L 399,0.962842 L 399,9.962842 L 393.9375,9.962842 L 393.9375,10.962842 L 399.5,10.962842 L 400,10.962842 L 400,10.462842 L 400,0.462842 L 400,-0.037158 L 399.5,-0.037158 L 390.5,-0.037158 L 390,-0.037158 z"
       id="path3191"
       inkscape:connector-curvature="0" />
    <path
       sodipodi:nodetypes="cc"
       id="path3193"
       d="M 392,2.462842 L 398,2.462842"
       style="fill:#000000;fill-opacity:1;fill-rule:evenodd;stroke:none"
       inkscape:connector-curvature="0" />
    <path
       sodipodi:nodetypes="cc"
       id="path3195"
       d="M 392,4.587842 L 398,4.587842"
       style="fill:#000000;fill-opacity:1;fill-rule:evenodd;stroke:none"
       inkscape:connector-curvature="0" />
    <path
       style="font-size:medium;font-style:normal;font-variant:normal;font-weight:normal;font-stretch:normal;text-indent:0;text-align:start;text-decoration:none;line-height:normal;letter-spacing:normal;word-spacing:normal;text-transform:none;direction:ltr;block-progression:tb;writing-mode:lr-tb;text-anchor:start;color:#000000;fill:#000000;fill-opacity:1;fill-rule:evenodd;stroke:none;stroke-width:1px;marker:none;visibility:visible;display:inline;overflow:visible;enable-background:accumulate;font-family:Arial;-inkscape-font-specification:Arial"
       d="M 393.875,5.962842 L 393.875,6.962842 L 398,6.962842 L 398,5.962842 L 393.875,5.962842 z"
       id="path3197"
       sodipodi:nodetypes="ccccc"
       inkscape:connector-curvature="0" />
    <path
       style="font-size:medium;font-style:normal;font-variant:normal;font-weight:normal;font-stretch:normal;text-indent:0;text-align:start;text-decoration:none;line-height:normal;letter-spacing:normal;word-spacing:normal;text-transform:none;direction:ltr;block-progression:tb;writing-mode:lr-tb;text-anchor:start;color:#000000;fill:#000000;fill-opacity:1;fill-rule:evenodd;stroke:none;stroke-width:1px;marker:none;visibility:visible;display:inline;overflow:visible;enable-background:accumulate;font-family:Arial;-inkscape-font-specification:Arial"
       d="M 393.25,7.962842 L 393.25,8.962842 L 398.0625,8.962842 L 398.0625,7.962842 L 393.25,7.962842 z"
       id="path3199"
       sodipodi:nodetypes="ccccc"
       inkscape:connector-curvature="0" />
    <path
       style="fill:#000000;fill-opacity:1;fill-rule:evenodd;stroke:none"
       d="M 384.5,5.462842 L 384.5,15.462842 L 393.5,15.462842 L 393.5,5.462842 L 384.5,5.462842 z"
       id="path3137"
       sodipodi:nodetypes="ccccc"
       inkscape:connector-curvature="0" />
    <path
       sodipodi:nodetypes="cc"
       id="path3139"
       d="M 386,7.462842 L 392,7.462842"
       style="fill:#000000;fill-opacity:1;stroke:none"
       inkscape:connector-curvature="0" />
    <path
       sodipodi:nodetypes="cc"
       id="path3141"
       d="M 386,9.587842 L 392,9.587842"
       style="fill:#000000;fill-opacity:1;stroke:none"
       inkscape:connector-curvature="0" />
    <path
       sodipodi:nodetypes="cc"
       id="path3143"
       d="M 386,11.462842 L 392,11.462842"
       style="fill:#000000;fill-opacity:1;stroke:none"
       inkscape:connector-curvature="0" />
    <path
       sodipodi:nodetypes="cc"
       id="path3155"
       d="M 386.0625,13.462842 L 392.0625,13.462842"
       style="fill:#000000;fill-opacity:1;stroke:none"
       inkscape:connector-curvature="0" />
    <path
       style="font-size:medium;font-style:normal;font-variant:normal;font-weight:normal;font-stretch:normal;text-indent:0;text-align:start;text-decoration:none;line-height:normal;letter-spacing:normal;word-spacing:normal;text-transform:none;direction:ltr;block-progression:tb;writing-mode:lr-tb;text-anchor:start;color:#000000;fill:#000000;fill-opacity:1;stroke:none;stroke-width:1;marker:none;visibility:visible;display:inline;overflow:visible;enable-background:accumulate;font-family:Arial;-inkscape-font-specification:Arial"
       d="M 624,2 L 624,14 L 640,14 L 640,2 z M 626,3.125 L 638.1875,3.125 L 631.875,8.8125 z M 625,3.53125 L 631.53125,9.84375 C 631.70673,10.026006 632.02746,10.040585 632.21875,9.875 L 639,3.75 L 639,13 L 625,13 z"
       id="mail"
       inkscape:label="#rect3995"
       inkscape:connector-curvature="0"
       sodipodi:nodetypes="cccccccccccccccc" />
    <path
       style="font-size:medium;font-style:normal;font-variant:normal;font-weight:normal;font-stretch:normal;text-indent:0;text-align:start;text-decoration:none;line-height:normal;letter-spacing:normal;word-spacing:normal;text-transform:none;direction:ltr;block-progression:tb;writing-mode:lr-tb;text-anchor:start;baseline-shift:baseline;color:#000000;fill:#000000;fill-opacity:1;fill-rule:evenodd;stroke:none;stroke-width:0.84996325px;marker:none;visibility:visible;display:inline;overflow:visible;enable-background:accumulate;font-family:Sans;-inkscape-font-specification:Sans"
       d="M 753.0625,-0.03125 C 751.67238,-0.1353722 750.50319,0.3139623 749.59375,1 C 748.68431,1.6860377 748.0264,2.6023194 747.53125,3.53125 C 746.63946,5.2042905 746.40305,6.6786883 746.34375,7 L 744,7 L 749.21875,12 L 754.5,7 L 752.34375,7 C 752.31654,6.7241478 752.25271,6.1599961 752.375,5.40625 C 752.45143,4.9351914 752.58448,4.4690295 752.8125,4.15625 C 753.04052,3.8434705 753.32784,3.6535572 753.8125,3.625 C 754.6353,3.5765196 756.07466,4.4044452 757.21875,5.3125 C 758.36284,6.2205548 760,8.65625 760,8.65625 C 759.92569,6.4703261 759.35088,4.8548295 758.5,3.53125 C 757.43525,1.9078019 755.67933,0.164755 753.0625,-0.03125 z M 749.21875,12 L 744,12 L 744,16 L 760,16 L 760,12 z"
       id="download"
       inkscape:label="Download"
       inkscape:connector-curvature="0"
       sodipodi:nodetypes="ssscccccssssccscccccc" />
    <path
       style="font-size:medium;font-style:normal;font-variant:normal;font-weight:normal;font-stretch:normal;text-indent:0;text-align:start;text-decoration:none;line-height:normal;letter-spacing:normal;word-spacing:normal;text-transform:none;direction:ltr;block-progression:tb;writing-mode:lr-tb;text-anchor:start;baseline-shift:baseline;color:#000000;fill:#000000;fill-opacity:1;fill-rule:nonzero;stroke:none;stroke-width:1px;marker:none;visibility:visible;display:inline;overflow:visible;enable-background:accumulate;font-family:Sans;-inkscape-font-specification:Sans"
       d="M 600,0 L 600,3.125 L 606.0625,9.59375 L 606.0625,16 L 610,16 L 610,9.59375 L 616,3.125 L 616,0 z M 601,3 L 607,8.812 L 606.9375,15 L 606.6875,9 z"
       id="filter"
       inkscape:connector-curvature="0"
       sodipodi:nodetypes="cccccccccccccc" />
    <path
       style="font-size:medium;font-style:normal;font-variant:normal;font-weight:normal;font-stretch:normal;text-indent:0;text-align:start;text-decoration:none;line-height:normal;letter-spacing:normal;word-spacing:normal;text-transform:none;direction:ltr;block-progression:tb;writing-mode:lr-tb;text-anchor:start;baseline-shift:baseline;opacity:1;color:#000000;fill:#000000;fill-opacity:1;fill-rule:nonzero;stroke:none;stroke-width:0.99999994000000003;marker:none;visibility:visible;display:inline;overflow:visible;enable-background:accumulate;font-family:Sans;-inkscape-font-specification:Sans"
       d="M 408,7.96875 L 408,8.46875 L 408,15.46875 L 408,15.96875 L 408.5,15.96875 L 415.5,15.96875 L 416,15.96875 L 416,15.46875 L 416,8.46875 L 416,7.96875 L 415.5,7.96875 L 408.5,7.96875 L 408,7.96875 z M 409,8.96875 L 415,8.96875 L 415,14.96875 L 409,14.96875 L 409,8.96875 z"
       id="rect3275"
       inkscape:connector-curvature="0" />
    <path
       inkscape:connector-curvature="0"
       sodipodi:nodetypes="ccccccc"
       style="opacity:1;fill:#000000;fill-opacity:1;fill-rule:nonzero;stroke:none"
       id="path3277"
       d="M 409.45444,10.690112 L 411.36335,12.599205 L 414.54488,9.417382 L 414.54488,11.326482 L 411.36335,14.508296 L 409.45444,12.599205 L 409.45444,10.690112 z"
       inkscape:export-xdpi="90"
       inkscape:export-ydpi="90" />
    <path
       style="font-size:medium;font-style:normal;font-variant:normal;font-weight:normal;font-stretch:normal;text-indent:0;text-align:start;text-decoration:none;line-height:normal;letter-spacing:normal;word-spacing:normal;text-transform:none;direction:ltr;block-progression:tb;writing-mode:lr-tb;text-anchor:start;baseline-shift:baseline;color:#000000;fill:#000000;fill-opacity:1;fill-rule:evenodd;stroke:none;stroke-width:0.98056047999999996;marker:none;visibility:visible;display:inline;overflow:visible;enable-background:accumulate;font-family:Sans;-inkscape-font-specification:Sans;opacity:1"
       d="M 420.84375,-0.03125 A 0.49032927,0.49032927 0 0 0 420.65625,0.09375 L 413.875,6.46875 A 0.49032927,0.49032927 0 0 0 413.75,6.65625 L 412.03125,11.3125 A 0.49032927,0.49032927 0 0 0 412.6875,11.9375 L 417.375,10 A 0.49032927,0.49032927 0 0 0 417.53125,9.875 L 423.875,3.375 A 0.49032927,0.49032927 0 0 0 424,2.96875 C 423.79734,1.3776232 422.68912,0.3013512 421.09375,-0.03125 A 0.49032927,0.49032927 0 0 0 420.84375,-0.03125 z M 421.09375,1.03125 C 422.1621,1.3103911 422.74097,1.8913511 422.9375,2.90625 L 416.84375,9.15625 L 416.8125,9.1875 L 413.3125,10.625 L 414.625,7.09375 L 421.09375,1.03125 z"
       id="path3269"
       inkscape:connector-curvature="0" />
    <text
       inkscape:export-ydpi="90"
       inkscape:export-xdpi="90"
       xml:space="preserve"
       style="font-size:8.69030952px;font-style:normal;font-weight:normal;line-height:125%;fill:#000000;fill-opacity:1;stroke:none;font-family:Bitstream Vera Sans"
       x="512.26282"
       y="13.460528"
       id="text1785-0"
       sodipodi:linespacing="125%"
       transform="scale(0.84324272,1.1858982)"><tspan
         sodipodi:role="line"
         id="tspan1787-6"
         x="512.26282"
         y="13.460528"
         style="font-size:9.25315666px;font-style:normal;font-variant:normal;font-weight:bold;font-stretch:normal;text-align:start;line-height:125%;writing-mode:lr-tb;text-anchor:start;fill:#000000;fill-opacity:1;stroke:none;font-family:DejaVu Sans;-inkscape-font-specification:DejaVu Sans Bold">AA</tspan></text>
    <path
       style="font-size:medium;font-style:normal;font-variant:normal;font-weight:normal;font-stretch:normal;text-indent:0;text-align:start;text-decoration:none;line-height:normal;letter-spacing:normal;word-spacing:normal;text-transform:none;direction:ltr;block-progression:tb;writing-mode:lr-tb;text-anchor:start;baseline-shift:baseline;color:#000000;fill:#000000;fill-opacity:1;fill-rule:evenodd;stroke:none;stroke-width:0.98056042000000021;marker:none;visibility:visible;display:inline;overflow:visible;enable-background:accumulate;font-family:Sans;-inkscape-font-specification:Sans;opacity:1"
       d="M 444.3125,-0.03125 A 0.49032924,0.49032924 0 0 0 443.9375,0.21875 L 439.25,8.28125 A 0.49032924,0.49032924 0 0 0 439.1875,8.5 L 438.90625,13.4375 A 0.49032924,0.49032924 0 0 0 439.6875,13.84375 L 443.625,10.65625 A 0.49032924,0.49032924 0 0 0 443.75,10.5 L 447.9375,2.4375 A 0.49032924,0.49032924 0 0 0 447.96875,2.03125 C 447.31679,0.5658674 445.93591,-0.1719872 444.3125,-0.03125 z M 444.625,1 C 445.7234,0.9638685 446.45957,1.3317688 446.9375,2.25 L 442.9375,9.9375 L 439.9375,12.375 L 440.1875,8.6875 L 444.625,1 z"
       id="path3269-8"
       inkscape:connector-curvature="0" />
    <text
       inkscape:export-ydpi="90"
       inkscape:export-xdpi="90"
       xml:space="preserve"
       style="font-size:8.69032383px;font-style:normal;font-weight:normal;line-height:125%;fill:#000000;fill-opacity:1;stroke:none;font-family:Bitstream Vera Sans"
       x="543.63385"
       y="13.388517"
       id="text1785-0-1"
       sodipodi:linespacing="125%"
       transform="scale(0.8387302,1.1922785)"><tspan
         sodipodi:role="line"
         id="tspan1787-6-7"
         x="543.63385"
         y="13.388517"
         style="font-size:9.25317287px;font-style:normal;font-variant:normal;font-weight:bold;font-stretch:normal;text-align:start;line-height:125%;writing-mode:lr-tb;text-anchor:start;fill:#000000;fill-opacity:1;stroke:none;font-family:DejaVu Sans;-inkscape-font-specification:DejaVu Sans Bold">AA</tspan></text>
    <path
       style="fill:#000000;fill-opacity:1;stroke:none"
       d="M 460.87211,9.4818099 L 464.61987,12.110171 L 470.66103,6.1319375 L 471.50008,2.4213096 L 467.92014,0.46292269 L 461.7671,6.1319375 L 460.87211,9.4818099 z"
       id="path3841"
       sodipodi:nodetypes="ccccccc"
       inkscape:connector-curvature="0" />
    <path
       style="fill:#000000;fill-opacity:1;stroke:none"
       d="M 461.54335,6.0288645 L 465.68267,8.2449339 L 471.50008,2.3182366 L 467.8642,0.2052402 L 461.54335,6.0288645 z"
       id="path3859"
       sodipodi:nodetypes="ccccc"
       inkscape:connector-curvature="0" />
    <path
       style="fill:#000000;fill-opacity:1;stroke:none"
       d="M 465.62673,8.6056894 L 464.56393,12.522463 L 470.6051,6.1319375 L 471.50008,2.7820651 L 465.62673,8.6056894 z"
       id="path4669"
       sodipodi:nodetypes="ccccc"
       inkscape:connector-curvature="0" />
    <path
       style="font-size:medium;font-style:normal;font-variant:normal;font-weight:normal;font-stretch:normal;text-indent:0;text-align:start;text-decoration:none;line-height:normal;letter-spacing:normal;word-spacing:normal;text-transform:none;direction:ltr;block-progression:tb;writing-mode:lr-tb;text-anchor:start;color:#000000;fill:#000000;fill-opacity:1;stroke:none;stroke-width:1.51938283;marker:none;visibility:visible;display:inline;overflow:visible;enable-background:accumulate;font-family:Arial;-inkscape-font-specification:Arial"
       d="M 656,-0.03125 C 651.59575,-0.03125 648,3.554148 648,7.96875 C 648,12.383353 651.59575,15.96875 656,15.96875 C 660.40425,15.96875 664,12.383353 664,7.96875 C 664,3.554148 660.40425,-0.03125 656,-0.03125 z M 656,1.46875 C 659.60388,1.46875 662.5,4.375224 662.5,7.96875 C 662.5,9.909896 661.66112,11.651664 660.3125,12.84375 L 659.53125,11.65625 L 661.09375,11.65625 L 661.09375,4.03125 L 654.46875,4.03125 L 653.1875,2.09375 C 654.04029,1.68449 654.98891,1.46875 656,1.46875 z M 651.5625,3.21875 L 652.125,4.03125 L 651.0625,4.03125 L 651.0625,11.65625 L 657.15625,11.65625 L 658.625,13.90625 C 657.81817,14.263706 656.94101,14.46875 656,14.46875 C 652.39612,14.46875 649.5,11.562277 649.5,7.96875 C 649.5,6.091774 650.29079,4.406247 651.5625,3.21875 z M 652.96875,5.125 L 659.28125,5.125 L 656,8.09375 z M 652.0625,5.625 L 655.65625,9.125 C 655.83975,9.298696 656.16025,9.298696 656.34375,9.125 L 660.09375,5.75 L 660.09375,10.65625 L 652.0625,10.65625 z"
       id="no-mail"
       inkscape:label="#path4160"
       inkscape:connector-curvature="0"
       sodipodi:nodetypes="sssssssccccccsccccccsscccccccccccc" />
    <path
       style="font-size:medium;font-style:normal;font-variant:normal;font-weight:normal;font-stretch:normal;text-indent:0;text-align:start;text-decoration:none;line-height:normal;letter-spacing:normal;word-spacing:normal;text-transform:none;direction:ltr;block-progression:tb;writing-mode:lr-tb;text-anchor:start;baseline-shift:baseline;color:#000000;fill:#000000;fill-opacity:1;fill-rule:nonzero;stroke:none;stroke-width:0.99999994;marker:none;visibility:visible;display:inline;overflow:visible;enable-background:accumulate;font-family:Sans;-inkscape-font-specification:Sans"
       d="M 530,1 L 530,1.5 L 530,15.5 L 530,16 L 530.5,16 L 541.5,16 L 542,16 L 542,15.5 L 542,4.8125 L 542,4.59375 L 541.84375,4.4375 L 538.53125,1.125 L 538.40625,1 L 538.1875,1 L 530.5,1 L 530,1 z M 531,2 L 538,2 L 538,4.5 L 538,5 L 538.5,5 L 541,5 L 541,15 L 531,15 L 531,2 z M 539,3 L 540,4 L 539,4 L 539,3 z"
       id="page"
       inkscape:connector-curvature="0"
       inkscape:label="#path4194" />
    <rect
       style="fill:#000000;fill-opacity:1;fill-rule:evenodd;stroke:none"
       id="rect3402"
       width="15.000001"
       height="12"
       x="360.5"
       y="3.462842" />
    <rect
       style="fill:#000000;fill-opacity:1;fill-rule:evenodd;stroke:none"
       id="rect3406"
       width="15"
       height="3"
       x="360.5"
       y="0.46284199" />
    <path
       sodipodi:nodetypes="ccccccccccccccccccccccccccccccccccccccccccccccc"
       id="path4224"
       d="M 370,0.962842 L 370,6.025342 L 366,6.025342 L 366,0.962842 L 365,0.962842 L 365,6.025342 L 361,6.025342 L 361,7.025342 L 365,7.025342 L 365,8.962842 L 361,8.962842 L 361,9.962842 L 365,9.962842 L 365,11.962842 L 361,11.962842 L 361,12.962842 L 365,12.962842 L 365,14.962842 L 366,14.962842 L 366,12.962842 L 370,12.962842 L 370,14.962842 L 371,14.962842 L 371,12.962842 L 375,12.962842 L 375,11.962842 L 371,11.962842 L 371,9.962842 L 375,9.962842 L 375,8.962842 L 371,8.962842 L 371,7.025342 L 375,7.025342 L 375,6.025342 L 371,6.025342 L 371,0.962842 L 370,0.962842 z M 366,7.025342 L 370,7.025342 L 370,8.962842 L 366,8.962842 L 366,7.025342 z M 366,9.962842 L 370,9.962842 L 370,11.962842 L 366,11.962842 L 366,9.962842 z"
       style="opacity:0.44954128;fill:#000000;fill-opacity:1;fill-rule:evenodd;stroke:none"
       inkscape:connector-curvature="0" />
    <rect
       inkscape:export-ydpi="90"
       inkscape:export-xdpi="90"
       style="fill:#000000;fill-opacity:1;fill-rule:evenodd;stroke:none"
       id="rect4265"
       width="8.9998875"
       height="12"
       x="339.5"
       y="3.462842" />
    <rect
       inkscape:export-ydpi="90"
       inkscape:export-xdpi="90"
       style="fill:#000000;fill-opacity:1;fill-rule:evenodd;stroke:none"
       id="rect4267"
       width="8.9998875"
       height="3"
       x="339.5"
       y="0.46284199" />
    <path
       inkscape:export-ydpi="90"
       inkscape:export-xdpi="90"
       sodipodi:nodetypes="ccccccccccccc"
       id="path4269"
       d="M 339.87499,6.025342 L 339.87499,7.025342 L 348.31239,7.025342 L 348.31239,8.962842 L 339.87499,8.962842 L 339.87499,9.962842 L 348.31239,9.962842 L 348.31239,11.962842 L 339.87499,11.962842 L 339.87499,12.962842 L 348.31239,12.962842 L 348.31239,6.025342 L 339.87499,6.025342 z"
       style="opacity:0.44954128;fill:#000000;fill-opacity:1;fill-rule:evenodd;stroke:none"
       inkscape:connector-curvature="0" />
    <path
       style="font-size:medium;font-style:normal;font-variant:normal;font-weight:normal;font-stretch:normal;text-indent:0;text-align:start;text-decoration:none;line-height:normal;letter-spacing:normal;word-spacing:normal;text-transform:none;direction:ltr;block-progression:tb;writing-mode:lr-tb;text-anchor:start;baseline-shift:baseline;color:#000000;fill:#000000;fill-opacity:1;fill-rule:evenodd;stroke:none;stroke-width:2;marker:none;visibility:visible;display:inline;overflow:visible;enable-background:accumulate;font-family:Sans;-inkscape-font-specification:Sans"
       d="M 729.35131,0.00823028 A 0.99967182,1.000461 0 0 0 728.82029,0.2895818 L 722.32307,6.4793153 A 0.99967182,1.000461 0 0 0 722.35431,7.9798567 L 725.97776,11.043463 L 722.79162,14.075807 L 723.47883,14.826077 L 724.35345,13.982023 L 724.4784,14.138329 L 726.57125,12.012562 L 727.16475,15.201213 A 0.99967182,1.000461 0 0 0 728.60163,15.888961 L 737.47283,11.356075 A 0.99967182,1.000461 0 0 0 737.94138,10.136885 L 735.72358,3.1343583 L 737.34789,1.5712943 L 736.66068,0.82102356 L 735.50493,1.9151684 L 735.47369,1.8839071 L 735.34874,2.0089522 L 735.34874,1.9464297 A 0.99967182,1.000461 0 0 0 734.66154,1.2899428 L 729.75739,0.03949156 A 0.99967182,1.000461 0 0 0 729.35131,0.00823028 z M 729.78862,2.1027361 L 733.59949,3.0718358 L 733.75567,3.5720162 L 727.41464,9.6367046 L 724.50964,7.1670635 L 729.78862,2.1027361 z M 734.09928,4.666161 L 735.81729,9.9493174 L 728.88276,13.481842 L 728.38298,10.793372 A 0.99967182,1.000461 0 0 0 728.22679,10.355714 L 730.06975,8.5112985 L 734.09928,4.666161 z"
       id="path3423"
       inkscape:connector-curvature="0" />
    <path
       inkscape:connector-curvature="0"
       sodipodi:nodetypes="ccccccc"
       style="fill:#000000;fill-opacity:1;fill-rule:nonzero;stroke:none;opacity:1"
       id="check"
       d="M 699,4.9835244 L 702.89475,8.864577 L 709,2.9628424 L 709,6.9356934 L 702.89475,12.962842 L 699,9.066511 L 699,4.9835244 z"
       inkscape:label="" />
    <path
       style="font-size:medium;font-style:normal;font-variant:normal;font-weight:normal;font-stretch:normal;text-indent:0;text-align:start;text-decoration:none;line-height:normal;letter-spacing:normal;word-spacing:normal;text-transform:none;direction:ltr;block-progression:tb;writing-mode:lr-tb;text-anchor:start;baseline-shift:baseline;opacity:1;color:#000000;fill:#000000;fill-opacity:1;fill-rule:nonzero;stroke:none;stroke-width:0.94100004000000004;marker:none;visibility:visible;display:inline;overflow:visible;enable-background:accumulate;font-family:Sans;-inkscape-font-specification:Sans"
       d="M 823.6875,-0.03125 C 819.98351,0.1073191 816.76766,2.833136 816.125,6.625 C 815.38846,10.970779 818.34508,15.107083 822.6875,15.84375 C 827.03156,16.580694 831.13874,13.625396 831.875,9.28125 C 832.61154,4.9354714 829.65493,0.7991673 825.3125,0.0625 L 825.28125,0.0625 C 825.26008,0.0589966 825.23986,0.0658208 825.21875,0.0625 C 824.69958,-0.0191519 824.19352,-0.0501806 823.6875,-0.03125 z M 823.75,0.90625 C 824.21862,0.8887183 824.64608,0.9207432 825.125,1 L 825.15625,1 L 825.1875,1 C 829.01153,1.6652906 831.61804,5.2940155 830.96875,9.125 C 830.31749,12.9676 826.68257,15.588732 822.84375,14.9375 C 819.00331,14.285991 816.38027,10.622217 817.03125,6.78125 C 817.59921,3.4301696 820.48743,1.0283051 823.75,0.90625 z M 818,5.71875 L 818,6.1875 L 818,9.78125 L 818,10.25 L 818.46875,10.25 L 829.40625,10.25 L 829.875,10.25 L 829.875,9.78125 L 829.875,6.1875 L 829.875,5.71875 L 829.40625,5.71875 L 818.46875,5.71875 L 818,5.71875 z M 818.9375,6.65625 L 828.9375,6.65625 L 828.9375,9.3125 L 818.9375,9.3125 L 818.9375,6.65625 z"
       id="decrement"
       inkscape:connector-curvature="0">
      <desc
         id="desc4038">Decrement, minus</desc>
      <title
         id="title4036">Decrement</title>
    </path>
    <path
       style="font-size:medium;font-style:normal;font-variant:normal;font-weight:normal;font-stretch:normal;text-indent:0;text-align:start;text-decoration:none;line-height:normal;letter-spacing:normal;word-spacing:normal;text-transform:none;direction:ltr;block-progression:tb;writing-mode:lr-tb;text-anchor:start;baseline-shift:baseline;opacity:1;color:#000000;fill:#000000;fill-opacity:1;fill-rule:nonzero;stroke:none;stroke-width:0.94099997999999996;marker:none;visibility:visible;display:inline;overflow:visible;enable-background:accumulate;font-family:Sans;-inkscape-font-specification:Sans"
       d="M 799.6875 -0.03125 C 795.9759 0.0979673 792.76874 2.8266724 792.125 6.625 C 791.38846 10.970866 794.34505 15.107065 798.6875 15.84375 C 803.03157 16.580712 807.13874 13.625484 807.875 9.28125 C 808.61154 4.9353835 805.65494 0.7991847 801.3125 0.0625 C 800.76453 -0.0298731 800.21305 -0.0495463 799.6875 -0.03125 z M 799.75 0.90625 C 800.22173 0.8898277 800.68194 0.9200451 801.15625 1 C 804.99669 1.6515227 807.61973 5.2839341 806.96875 9.125 C 806.31749 12.967698 802.68256 15.588746 798.84375 14.9375 C 795.0033 14.285977 792.38027 10.622317 793.03125 6.78125 C 793.60069 3.421312 796.48074 1.0200673 799.75 0.90625 z M 797.84375 1.5 L 797.84375 1.96875 L 797.84375 5.6875 L 794.25 5.6875 L 793.78125 5.6875 L 793.78125 6.15625 L 793.78125 9.78125 L 793.78125 10.25 L 794.25 10.25 L 797.84375 10.25 L 797.84375 13.9375 L 797.84375 14.40625 L 798.3125 14.40625 L 801.6875 14.40625 L 802.15625 14.40625 L 802.15625 13.9375 L 802.15625 10.25 L 805.75 10.25 L 806.21875 10.25 L 806.21875 9.78125 L 806.21875 6.15625 L 806.21875 5.6875 L 805.75 5.6875 L 802.15625 5.6875 L 802.15625 1.96875 L 802.15625 1.5 L 801.6875 1.5 L 798.3125 1.5 L 797.84375 1.5 z M 798.78125 2.4375 L 801.21875 2.4375 L 801.21875 6.15625 L 801.21875 6.625 L 801.6875 6.625 L 805.28125 6.625 L 805.28125 9.3125 L 801.6875 9.3125 L 801.21875 9.3125 L 801.21875 9.78125 L 801.21875 13.46875 L 798.78125 13.46875 L 798.78125 9.78125 L 798.78125 9.3125 L 798.3125 9.3125 L 794.71875 9.3125 L 794.71875 6.625 L 798.3125 6.625 L 798.78125 6.625 L 798.78125 6.15625 L 798.78125 2.4375 z "
       id="path3928" />
    <path
       style="font-size:medium;font-style:normal;font-variant:normal;font-weight:normal;font-stretch:normal;text-indent:0;text-align:start;text-decoration:none;line-height:normal;letter-spacing:normal;word-spacing:normal;text-transform:none;direction:ltr;block-progression:tb;writing-mode:lr-tb;text-anchor:start;baseline-shift:baseline;color:#000000;fill:#000000;fill-opacity:1;fill-rule:evenodd;stroke:none;stroke-width:1;marker:none;visibility:visible;display:inline;overflow:visible;enable-background:accumulate;font-family:Sans;-inkscape-font-specification:Sans"
       d="M 176,0.00244279 C 171.9424,-0.04963768 170,2.0244779 170,4 L 170,8.0012214 L 168,8.0012214 L 168,16 L 184,16 L 184,8.0012214 L 173,8.0012214 L 173,5 C 173,3.2374016 173.89328,3.0760791 176,3 C 178.10672,2.923921 179.16235,3.5820316 179,5 L 182,5 C 182,1.5864429 180.0576,0.05452326 176,0.00244279 z"
       id="unlock"
       inkscape:connector-curvature="0"
       sodipodi:nodetypes="zsccccccczccz"
       inkscape:label="" />
    <path
       style="font-size:medium;font-style:normal;font-variant:normal;font-weight:normal;font-stretch:normal;text-indent:0;text-align:start;text-decoration:none;line-height:normal;letter-spacing:normal;word-spacing:normal;text-transform:none;direction:ltr;block-progression:tb;writing-mode:lr-tb;text-anchor:start;baseline-shift:baseline;color:#000000;fill:#000000;fill-opacity:1;fill-rule:nonzero;stroke:none;stroke-width:0.99999994;marker:none;visibility:visible;display:inline;overflow:visible;enable-background:accumulate;font-family:Sans;-inkscape-font-specification:Sans"
       d="M 554,1 L 554,16 L 566,16 L 566,4.59375 L 562.40625,1 z M 555,2 L 562,2 L 562,5 L 565,5 L 565,15 L 555,15 z M 557.78125,3 L 557.78125,3.90625 L 556,3.90625 L 556,4.8125 L 557.78125,4.8125 L 557.78125,5.71875 L 556,5.71875 L 556,6.65625 L 557.78125,6.65625 L 557.78125,7.5625 L 556,7.5625 L 556,8.46875 L 557.78125,8.46875 L 557.78125,9.375 L 556,9.375 L 556,10.3125 L 557.78125,10.3125 L 557.78125,11.21875 L 556,11.21875 L 556,12.125 L 557.78125,12.125 L 557.78125,13.0625 L 556,13.0625 L 556,13.96875 L 557.78125,13.96875 L 558.65625,13.96875 L 560.40625,13.96875 L 561.28125,13.96875 L 564,13.96875 L 564,13.0625 L 561.28125,13.0625 L 561.28125,12.125 L 564,12.125 L 564,11.21875 L 561.28125,11.21875 L 561.28125,10.3125 L 564,10.3125 L 564,9.375 L 561.28125,9.375 L 561.28125,8.46875 L 564,8.46875 L 564,7.5625 L 561.28125,7.5625 L 561.28125,6.65625 L 564,6.65625 L 564,5.71875 L 561.28125,5.71875 L 561.28125,4.8125 L 561.28125,3.90625 L 561.28125,3 L 560.40625,3 L 560.40625,3.90625 L 558.65625,3.90625 L 558.65625,3 z M 563,3 L 564,4 L 563,4 z M 558.65625,4.8125 L 560.40625,4.8125 L 560.40625,5.71875 L 558.65625,5.71875 z M 558.65625,6.65625 L 560.40625,6.65625 L 560.40625,7.5625 L 558.65625,7.5625 z M 558.65625,8.46875 L 560.40625,8.46875 L 560.40625,9.375 L 558.65625,9.375 z M 558.65625,10.3125 L 560.40625,10.3125 L 560.40625,11.21875 L 558.65625,11.21875 z M 558.65625,12.125 L 560.40625,12.125 L 560.40625,13.0625 L 558.65625,13.0625 z"
       id="spreadsheet"
       inkscape:label="Spreadsheet"
       inkscape:connector-curvature="0"
       sodipodi:nodetypes="ccccccccccccccccccccccccccccccccccccccccccccccccccccccccccccccccccccccccccccccccccccccccccccccccc" />
    <path
       sodipodi:nodetypes="cccccccc"
       inkscape:connector-curvature="0"
       id="down"
       d="M 248,16 L 241,9 L 245,9 L 245,0 L 251,0 L 251,9 L 255,9 z"
       style="font-size:medium;font-style:normal;font-variant:normal;font-weight:normal;font-stretch:normal;text-indent:0;text-align:start;text-decoration:none;line-height:normal;letter-spacing:normal;word-spacing:normal;text-transform:none;direction:ltr;block-progression:tb;writing-mode:lr-tb;text-anchor:start;baseline-shift:baseline;color:#000000;fill:#000000;fill-opacity:1;fill-rule:evenodd;stroke:none;stroke-width:1;marker:none;visibility:visible;display:inline;overflow:visible;enable-background:accumulate;font-family:Sans;-inkscape-font-specification:Sans" />
    <path
       sodipodi:nodetypes="cccccccc"
       inkscape:connector-curvature="0"
       id="left"
       d="M 264.00591,8 L 271.00591,15 L 271.00591,11 L 280.00591,11 L 280.00591,5 L 271.00591,5 L 271.00591,1 z"
       style="font-size:medium;font-style:normal;font-variant:normal;font-weight:normal;font-stretch:normal;text-indent:0;text-align:start;text-decoration:none;line-height:normal;letter-spacing:normal;word-spacing:normal;text-transform:none;direction:ltr;block-progression:tb;writing-mode:lr-tb;text-anchor:start;baseline-shift:baseline;color:#000000;fill:#000000;fill-opacity:1;fill-rule:evenodd;stroke:none;stroke-width:1;marker:none;visibility:visible;display:inline;overflow:visible;enable-background:accumulate;font-family:Sans;-inkscape-font-specification:Sans" />
    <path
       sodipodi:nodetypes="cccccccc"
       inkscape:connector-curvature="0"
       id="right"
       d="M 303.99409,8 L 296.99409,15 L 296.99409,11 L 287.99409,11 L 287.99409,5 L 296.99409,5 L 296.99409,1 z"
       style="font-size:medium;font-style:normal;font-variant:normal;font-weight:normal;font-stretch:normal;text-indent:0;text-align:start;text-decoration:none;line-height:normal;letter-spacing:normal;word-spacing:normal;text-transform:none;direction:ltr;block-progression:tb;writing-mode:lr-tb;text-anchor:start;baseline-shift:baseline;color:#000000;fill:#000000;fill-opacity:1;fill-rule:evenodd;stroke:none;stroke-width:1;marker:none;visibility:visible;display:inline;overflow:visible;enable-background:accumulate;font-family:Sans;-inkscape-font-specification:Sans" />
    <path
       sodipodi:nodetypes="sssccccccccsssssss"
       id="path3318"
       d="M 76.942085,0 C 74.212647,0 72,2.256203 72,5.03937 C 72,7.822538 74.212647,10.07874 76.942085,10.07874 C 77.996387,10.07874 78.950548,9.738966 79.752896,9.165354 L 80.525097,9.889764 L 79.907336,10.551181 L 85.714286,16 L 88,13.448819 L 82.223938,8.031496 L 81.667954,8.629921 L 80.957529,7.968504 C 81.543415,7.140189 81.88417,6.138664 81.88417,5.03937 C 81.88417,2.256203 79.671523,0 76.942085,0 z M 76.942085,1.511811 C 78.852691,1.511811 80.401544,3.091154 80.401544,5.03937 C 80.401544,6.987587 78.852691,8.566929 76.942085,8.566929 C 75.031479,8.566929 73.482625,6.987587 73.482625,5.03937 C 73.482625,3.091154 75.031479,1.511811 76.942085,1.511811 z"
       style="fill:#000000;fill-opacity:1;stroke:none"
       inkscape:connector-curvature="0" />
    <path
       inkscape:connector-curvature="0"
       style="fill:#000000;fill-opacity:1;fill-rule:nonzero;stroke:none"
       d="M 199.125,3e-6 L 198.84375,1.281252 L 198.65625,2.500002 L 197.375,3.000002 L 196.40625,2.218752 L 195.34375,1.437502 L 193.6875,2.968752 L 194.4375,4.062502 L 195.15625,5.062502 L 194.59375,6.312502 L 193.34375,6.468751 L 192.03125,6.656251 L 192.00005,8.875002 L 193.2813,9.156251 L 194.50005,9.343751 L 195.00005,10.625001 L 194.2188,11.593751 L 193.43755,12.65625 L 194.9688,14.3125 L 196.06255,13.5625 L 197.06255,12.843751 L 198.31255,13.40625 L 198.4688,14.65625 L 198.6563,15.96875 L 200.87505,16 L 201.1563,14.71875 L 201.3438,13.5 L 202.62505,13 L 203.5938,13.781251 L 204.6563,14.562501 L 206.31255,13.031251 L 205.56255,11.9375 L 204.8438,10.937501 L 205.4063,9.687501 L 206.6563,9.531251 L 207.9688,9.343752 L 208,7.125002 L 206.71875,6.843752 L 205.5,6.656251 L 205,5.375001 L 205.78125,4.406252 L 206.5625,3.343753 L 205.03125,1.687502 L 203.9375,2.437502 L 202.9375,3.156252 L 201.6875,2.593753 L 201.53125,1.343753 L 201.34375,0.0312533 z M 199.96875,5.000002 C 201.62462,4.980862 202.9797,6.312864 203,7.968751 C 203.0203,9.624638 201.68711,10.980859 200.03125,11.000001 C 198.37538,11.019141 197.0203,9.687138 197,8.031251 C 196.9797,6.375365 198.31289,5.019144 199.96875,5.000002 z"
       id="path4226-3-1"
       inkscape:export-xdpi="90"
       inkscape:export-ydpi="90"
       sodipodi:nodetypes="cccccccccccccccccccccccccccccccccccccccccccccccccsssss" />
    <path
       style="font-size:medium;font-style:normal;font-variant:normal;font-weight:normal;font-stretch:normal;text-indent:0;text-align:start;text-decoration:none;line-height:normal;letter-spacing:normal;word-spacing:normal;text-transform:none;direction:ltr;block-progression:tb;writing-mode:lr-tb;text-anchor:start;baseline-shift:baseline;opacity:1;color:#000000;fill:#000000;fill-opacity:1;fill-rule:nonzero;stroke:none;stroke-width:0.94099997999999996;marker:none;visibility:visible;display:inline;overflow:visible;enable-background:accumulate;font-family:Sans;-inkscape-font-specification:Sans"
       d="M 849.3125,0.09375 C 847.29118,-0.2453939 845.13949,0.162674 843.34375,1.4375 C 842.89095,1.7596579 842.48368,2.1466851 842.125,2.53125 C 839.59187,5.2471203 839.23812,9.452733 841.46875,12.59375 C 844.02094,16.187551 849.03351,17.018409 852.625,14.46875 C 856.21783,11.91814 857.05123,6.9049518 854.5,3.3125 C 853.22391,1.5155983 851.33382,0.4328939 849.3125,0.09375 z M 849.15625,1 C 850.93853,1.2988669 852.62214,2.2868207 853.75,3.875 C 856.00669,7.0527082 855.2687,11.464802 852.09375,13.71875 C 848.91744,15.973665 844.50573,15.238859 842.25,12.0625 C 840.27683,9.284009 840.58127,5.5484443 842.8125,3.15625 C 843.13444,2.8110807 843.51433,2.4975989 843.90625,2.21875 C 845.4944,1.091296 847.37397,0.7011331 849.15625,1 z M 844.9375,1.875 L 844.625,2.1875 L 842.25,4.59375 L 841.90625,4.90625 L 842.25,5.25 L 844.84375,7.875 L 842.3125,10.40625 L 842,10.75 L 842.3125,11.0625 L 844.875,13.625 L 845.21875,13.96875 L 845.5625,13.625 L 848.09375,11.09375 L 850.71875,13.71875 L 851.03125,14.0625 L 851.375,13.71875 L 853.75,11.34375 L 854.09375,11 L 853.75,10.6875 L 851.125,8.03125 L 853.65625,5.5 L 854,5.1875 L 853.65625,4.84375 L 851.09375,2.28125 L 850.78125,1.96875 L 850.4375,2.28125 L 847.90625,4.8125 L 845.28125,2.1875 L 844.9375,1.875 z M 844.9375,3.21875 L 847.5625,5.8125 L 847.90625,6.15625 L 848.25,5.8125 L 850.78125,3.28125 L 852.65625,5.1875 L 850.125,7.71875 L 849.8125,8.0625 L 850.125,8.375 L 852.75,11.03125 L 851.0625,12.71875 L 848.40625,10.09375 L 848.09375,9.75 L 847.75,10.09375 L 845.21875,12.625 L 843.3125,10.71875 L 845.84375,8.21875 L 846.1875,7.875 L 845.84375,7.53125 L 843.25,4.90625 L 844.9375,3.21875 z"
       id="close"
       inkscape:connector-curvature="0" />
    <path
       inkscape:connector-curvature="0"
       id="path3142"
       d="M 872,-0.037158 C 867.58173,-0.037158 864,3.544564 864,7.962842 C 864,12.381119 867.58173,15.962842 872,15.962842 C 876.41827,15.962842 880,12.381119 880,7.962842 C 880,3.544564 876.41827,-0.037158 872,-0.037158 z M 872,3.962842 C 874.20914,3.962842 876,5.753703 876,7.962842 C 876,10.171981 874.20914,11.962842 872,11.962842 C 869.79086,11.962842 868,10.171981 868,7.962842 C 868,5.753703 869.79086,3.962842 872,3.962842 z"
       style="color:#000000;fill:#000000;fill-opacity:1;fill-rule:nonzero;stroke:none;stroke-width:1.633973;marker:none;visibility:visible;display:inline;overflow:visible;enable-background:accumulate" />
    <path
       inkscape:connector-curvature="0"
       sodipodi:nodetypes="ccccccccccccc"
       id="path3976"
       d="M 864.0625,3.150342 C 866.78428,3.96317 867.83922,6.026133 869.3125,7.775342 C 867.0524,8.578369 864.98953,9.9731 863.0625,11.775342 L 865.8125,15.150342 C 866.74119,12.609389 869.31768,10.80079 871.6875,8.900342 C 874.51519,10.592546 877.56015,12.10369 879.4375,14.587842 L 881.5,10.650342 C 879.11731,9.249047 876.52807,8.26087 873.8125,7.525342 C 875.49773,5.856403 877.5052,4.509711 880.1875,3.837842 L 878.3125,0.462842 C 875.33923,1.883192 873.80214,3.646472 872.0625,5.837842 C 870.48176,3.89991 868.34654,2.304391 865.8125,0.525342 L 864.0625,3.150342 z"
       style="fill:#000000;fill-opacity:1;stroke:none" />
    <path
       id="path3142-5"
       d="M 872,-0.037158 C 867.58173,-0.037158 864,3.544564 864,7.962842 C 864,12.381119 867.58173,15.962842 872,15.962842 C 876.41827,15.962842 880,12.381119 880,7.962842 C 880,3.544564 876.41827,-0.037158 872,-0.037158 z M 872,3.962842 C 874.20914,3.962842 876,5.753703 876,7.962842 C 876,10.171981 874.20914,11.962842 872,11.962842 C 869.79086,11.962842 868,10.171981 868,7.962842 C 868,5.753703 869.79086,3.962842 872,3.962842 z"
       style="color:#000000;fill:#000000;fill-opacity:1;fill-rule:nonzero;stroke:none;stroke-width:1.633973;marker:none;visibility:visible;display:inline;overflow:visible;enable-background:accumulate"
       inkscape:connector-curvature="0" />
    <path
       style="font-size:medium;font-style:normal;font-variant:normal;font-weight:normal;font-stretch:normal;text-indent:0;text-align:start;text-decoration:none;line-height:normal;letter-spacing:normal;word-spacing:normal;text-transform:none;direction:ltr;block-progression:tb;writing-mode:lr-tb;text-anchor:start;baseline-shift:baseline;color:#000000;fill:#000000;fill-opacity:1;fill-rule:evenodd;stroke:none;stroke-width:0.99999994000000003px;marker:none;visibility:visible;display:inline;overflow:visible;enable-background:accumulate;font-family:Sans;-inkscape-font-specification:Sans;opacity:1"
       d="M 888.34375,1.96875 A 0.50004997,0.50004997 0 0 0 888,2.46875 L 888,5.46875 A 0.50004997,0.50004997 0 0 0 888.5,5.96875 C 890.3893,5.9537724 891.22084,6.3333825 891.59375,6.71875 C 891.96666,7.1041175 891.99416,7.5617184 892,7.96875 C 892.00588,8.379259 892.01681,8.835175 891.65625,9.21875 C 891.29569,9.602325 890.43415,10.009059 888.5,9.96875 A 0.50004997,0.50004997 0 0 0 888,10.46875 L 888,13.46875 A 0.50004997,0.50004997 0 0 0 888.5,13.9375 C 890.9416,14.00658 892.75203,13.740298 894.03125,13 C 895.1557,12.349271 895.71345,11.261108 895.875,9.96875 L 900,9.96875 L 900,10.96875 A 0.50004997,0.50004997 0 0 0 900.84375,11.3125 L 903.84375,8.3125 A 0.50004997,0.50004997 0 0 0 903.84375,7.59375 L 900.84375,4.59375 A 0.50004997,0.50004997 0 0 0 900,4.96875 L 900,5.96875 L 895.875,5.96875 C 895.71552,4.6411398 895.05447,3.5447481 893.875,2.90625 C 892.54458,2.1860352 890.71994,1.9326362 888.5,1.96875 A 0.50004997,0.50004997 0 0 0 888.34375,1.96875 z M 889,3 C 890.86326,3.0210478 892.38699,3.2776506 893.375,3.8125 C 894.45821,4.3988884 894.99866,5.20211 895,6.46875 A 0.50004997,0.50004997 0 0 0 895.5,6.96875 L 900.5,6.96875 A 0.50004997,0.50004997 0 0 0 901,6.46875 L 901,6.15625 L 902.8125,7.96875 L 901,9.75 L 901,9.46875 A 0.50004997,0.50004997 0 0 0 900.5,8.96875 L 895.5,8.96875 A 0.50004997,0.50004997 0 0 0 895,9.4375 C 894.97438,10.73117 894.54081,11.54076 893.53125,12.125 C 892.60496,12.661053 891.04885,12.943443 889,12.9375 L 889,10.90625 C 890.70584,10.861291 891.80082,10.485831 892.375,9.875 C 893.01397,9.195247 893.00602,8.35733 893,7.9375 C 892.99393,7.514193 892.95583,6.6960731 892.3125,6.03125 C 891.73523,5.4346885 890.66618,5.0970799 889,5.03125 L 889,3 z"
       id="merge"
       inkscape:connector-curvature="0" />
    <path
       style="font-size:medium;font-style:normal;font-variant:normal;font-weight:normal;font-stretch:normal;text-indent:0;text-align:start;text-decoration:none;line-height:normal;letter-spacing:normal;word-spacing:normal;text-transform:none;direction:ltr;block-progression:tb;writing-mode:lr-tb;text-anchor:start;baseline-shift:baseline;color:#000000;fill:#000000;fill-opacity:1;fill-rule:evenodd;stroke:none;stroke-width:1px;marker:none;visibility:visible;display:inline;overflow:visible;enable-background:accumulate;font-family:Sans;-inkscape-font-specification:Sans;opacity:1"
       d="M 924.4375,0.46875 A 0.50005,0.50005 0 0 0 924.0625,0.96875 L 924.0625,1.9375 C 922.68243,1.9330878 921.1358,2.1774505 919.8125,2.8125 C 918.49823,3.4432188 917.52415,4.5344978 917.28125,5.90625 L 912.5625,5.90625 A 0.50005,0.50005 0 0 0 912.0625,6.40625 L 912.0625,9.40625 A 0.50005,0.50005 0 0 0 912.5625,9.90625 L 917.21875,9.90625 C 917.40775,11.233932 918.09721,12.35749 919.28125,13.03125 C 920.50175,13.725759 922.16446,13.967897 924.0625,13.875 L 924.0625,14.96875 A 0.50005,0.50005 0 0 0 924.90625,15.3125 L 927.90625,12.3125 A 0.50005,0.50005 0 0 0 927.90625,11.59375 L 924.90625,8.59375 A 0.50005,0.50005 0 0 0 924.0625,8.96875 L 924.0625,9.84375 C 922.5723,9.789403 921.75535,9.496141 921.4375,9.15625 C 921.08011,8.774077 921.0879,8.313034 921.09375,7.90625 C 921.09956,7.502602 921.13059,7.0714806 921.5,6.6875 C 921.82527,6.3493981 922.63239,6.044927 924.0625,5.96875 L 924.0625,6.96875 A 0.50005,0.50005 0 0 0 924.90625,7.3125 L 927.90625,4.3125 A 0.50005,0.50005 0 0 0 927.90625,3.59375 L 924.90625,0.59375 A 0.50005,0.50005 0 0 0 924.4375,0.46875 z M 925.0625,2.1875 L 926.84375,3.96875 L 925.0625,5.71875 L 925.0625,5.40625 A 0.50005,0.50005 0 0 0 924.5625,4.90625 C 922.55468,4.9007488 921.41821,5.3379163 920.78125,6 C 920.14429,6.6620837 920.09984,7.48355 920.09375,7.90625 C 920.08771,8.325813 920.08597,9.135844 920.71875,9.8125 C 921.35153,10.489156 922.5099,10.938217 924.5625,10.90625 A 0.50005,0.50005 0 0 0 925.0625,10.40625 L 925.0625,10.1875 L 926.84375,11.96875 L 925.0625,13.71875 L 925.0625,13.40625 A 0.50005,0.50005 0 0 0 924.5,12.90625 C 922.49829,13.08188 920.8737,12.777896 919.78125,12.15625 C 918.6888,11.534604 918.1186,10.626697 918.09375,9.375 A 0.50005,0.50005 0 0 0 917.59375,8.90625 L 913.0625,8.90625 L 913.0625,6.90625 L 917.59375,6.90625 A 0.50005,0.50005 0 0 0 918.09375,6.40625 C 918.09493,5.2385455 918.95284,4.3412585 920.25,3.71875 C 921.54716,3.0962415 923.23048,2.825912 924.53125,2.90625 A 0.50005,0.50005 0 0 0 925.0625,2.40625 L 925.0625,2.1875 z"
       id="spread"
       inkscape:connector-curvature="0" />
    <path
       inkscape:export-ydpi="90"
       inkscape:export-xdpi="90"
       inkscape:label="#path2501"
       transform="matrix(0.4528302,0,0,0.4615385,944.73585,-6.4107838)"
       d="M 58,31.142853 A 6.625,6.5 0 1 1 44.75,31.142853 A 6.625,6.5 0 1 1 58,31.142853 z"
       sodipodi:ry="6.5"
       sodipodi:rx="6.625"
       sodipodi:cy="31.142853"
       sodipodi:cx="51.375"
       id="round-blue"
       style="fill:#000000;fill-opacity:1;stroke:none;opacity:1"
       sodipodi:type="arc" />
    <path
       inkscape:export-filename="/home/brice/dev/ekylibre/trunk/public/themes/tekyla/images/round-black.png"
       inkscape:export-ydpi="90"
       inkscape:export-xdpi="90"
       inkscape:label="#path2501"
       transform="matrix(0.4528302,0,0,0.4615385,968.73585,-6.4107838)"
       d="M 58,31.142853 A 6.625,6.5 0 1 1 44.75,31.142853 A 6.625,6.5 0 1 1 58,31.142853 z"
       sodipodi:ry="6.5"
       sodipodi:rx="6.625"
       sodipodi:cy="31.142853"
       sodipodi:cx="51.375"
       id="round_hover"
       style="fill:#000000;fill-opacity:1;stroke:none;opacity:1"
       sodipodi:type="arc" />
    <path
       inkscape:export-filename="/home/brice/dev/ekylibre/trunk/public/themes/tekyla/images/round-green.png"
       inkscape:export-ydpi="90"
       inkscape:export-xdpi="90"
       inkscape:label="#path2501"
       transform="matrix(0.4528302,0,0,0.4615385,920.73585,-6.4107838)"
       d="M 58,31.142853 A 6.625,6.5 0 1 1 44.75,31.142853 A 6.625,6.5 0 1 1 58,31.142853 z"
       sodipodi:ry="6.5"
       sodipodi:rx="6.625"
       sodipodi:cy="31.142853"
       sodipodi:cx="51.375"
       id="path2513"
       style="fill:#000000;fill-opacity:1;stroke:none;opacity:1"
       sodipodi:type="arc" />
    <path
       inkscape:connector-curvature="0"
       sodipodi:nodetypes="cccccccccccccccccccc"
       id="items"
       d="M 1010,0.962842 L 1010,2.962842 L 1022,2.962842 L 1022,0.962842 L 1010,0.962842 z M 1010,4.962842 L 1010,6.962842 L 1022,6.962842 L 1022,4.962842 L 1010,4.962842 z M 1010,8.962842 L 1010,10.962842 L 1022,10.962842 L 1022,8.962842 L 1010,8.962842 z M 1010,12.962842 L 1010,14.962842 L 1022,14.962842 L 1022,12.962842 L 1010,12.962842 z"
       style="fill:#000000;fill-opacity:1;stroke:none;display:inline;opacity:1"
       inkscape:label="#rect3193-3" />
    <path
       style="fill:#000000;fill-opacity:1;stroke:none"
       d="M 1040,2.8125 C 1040,2.8125 1038,1 1032,1 L 1032,13 C 1038.0625,13 1040,15 1040,15 C 1040,15 1041.9375,13 1048,13 L 1048,1 C 1042,1 1040,2.8125 1040,2.8125 z M 1034,3 C 1036.542,3.213 1038.1015,3.801 1039,4.2775 L 1039,12.332 C 1038.1015,11.8575 1036.542,11.2695 1034,11.0545 z M 1046,11.0545 C 1043.457,11.2695 1041.8975,11.857 1041,12.332 L 1041,4.2775 C 1041.8975,3.801 1043.457,3.213 1046,3 z"
       id="general-informations"
       inkscape:connector-curvature="0"
       inkscape:label="#path6"
       sodipodi:nodetypes="ccccccccccccccccc" />
    <path
       style="font-size:medium;font-style:normal;font-variant:normal;font-weight:normal;font-stretch:normal;text-indent:0;text-align:start;text-decoration:none;line-height:normal;letter-spacing:normal;word-spacing:normal;text-transform:none;direction:ltr;block-progression:tb;writing-mode:lr-tb;text-anchor:start;baseline-shift:baseline;color:#000000;fill:#000000;fill-opacity:1;stroke:none;stroke-width:5.87564802;marker:none;visibility:visible;display:inline;overflow:visible;enable-background:accumulate;font-family:Sans;-inkscape-font-specification:Sans"
       d="M 1059.4621,0 C 1057.8405,0 1056.5303,1.3572722 1056.5302,3.037182 C 1056.5302,4.4702733 1057.7977,5.980471 1059.0253,6.0117417 L 1059.0253,8.0156556 L 1056,8.0156556 L 1056,9.0176125 L 1059.0253,9.0176125 L 1059.0253,12.023483 L 1059.9923,12.023483 L 1059.9923,9.0176125 L 1062.9864,9.0176125 L 1062.9864,8.0156556 L 1059.9923,8.0156556 L 1059.9923,6.0430528 C 1061.3764,5.7944689 1062.425,4.5398915 1062.425,3.037182 C 1062.425,1.3572722 1061.0834,0 1059.4621,0 z M 1059.4621,1.0019569 C 1060.5529,1.0019569 1061.4269,1.90688 1061.4269,3.037182 C 1061.4269,4.1674992 1060.5528,5.0724224 1059.4621,5.072407 C 1058.371,5.072407 1057.4971,4.1674992 1057.4971,3.037182 C 1057.4971,1.90688 1058.371,1.0019416 1059.4621,1.0019569 z M 1066.6667,5.6986301 L 1066.6667,6.7005871 L 1070.1911,6.7005871 L 1067.0098,9.7690802 C 1066.4799,9.3829461 1065.8295,9.1428571 1065.1384,9.1428571 C 1063.3367,9.1428571 1061.8635,10.670701 1061.8635,12.555773 C 1061.8635,14.440845 1063.3367,16 1065.1384,16 C 1066.9403,16 1068.4445,14.440845 1068.4445,12.555773 C 1068.4445,11.759608 1068.1667,11.041525 1067.7272,10.457926 L 1070.9708,7.3268102 L 1070.9708,11.11546 L 1072,11.11546 L 1072,5.9804305 L 1071.9689,5.9804305 L 1071.9689,5.6986301 z M 1065.1384,10.270059 C 1066.352,10.270059 1067.3529,11.286103 1067.3529,12.555773 C 1067.3529,13.825463 1066.352,14.841487 1065.1384,14.841487 C 1063.9249,14.841487 1062.9551,13.825463 1062.9552,12.555773 C 1062.9552,11.286103 1063.9249,10.270059 1065.1384,10.270059 z"
       id="genealogy"
       inkscape:label=""
       inkscape:connector-curvature="0"
       sodipodi:nodetypes="scccccccccccccsscscscccccssssccccccccssscs" />
    <path
       style="font-size:medium;font-style:normal;font-variant:normal;font-weight:normal;font-stretch:normal;text-indent:0;text-align:start;text-decoration:none;line-height:normal;letter-spacing:normal;word-spacing:normal;text-transform:none;direction:ltr;block-progression:tb;writing-mode:lr-tb;text-anchor:start;baseline-shift:baseline;color:#000000;fill:#000000;fill-opacity:1;stroke:none;stroke-width:1;marker:none;visibility:visible;display:inline;overflow:visible;enable-background:accumulate;font-family:Sans;-inkscape-font-specification:Sans;opacity:1"
       d="M 1080 0 L 1080 16 L 1096 16 L 1096 0 L 1080 0 z M 1081 1 L 1095 1 L 1095 15 L 1081 15 L 1081 1 z M 1085 1.5 C 1083.3431 1.5 1082 2.8431458 1082 4.5 C 1082 6.1568542 1083.3431 7.5 1085 7.5 C 1086.6569 7.5 1088 6.1568542 1088 4.5 C 1088 2.8431458 1086.6569 1.5 1085 1.5 z M 1091 5 C 1089.3431 5 1088 6.3431458 1088 8 C 1088 9.6568542 1089.3431 11 1091 11 C 1092.6569 11 1094 9.6568542 1094 8 C 1094 6.3431458 1092.6569 5 1091 5 z M 1085 8.5 C 1083.3431 8.5 1082 9.8431458 1082 11.5 C 1082 13.156854 1083.3431 14.5 1085 14.5 C 1086.6569 14.5 1088 13.156854 1088 11.5 C 1088 9.8431458 1086.6569 8.5 1085 8.5 z "
       id="rect5350" />
    <path
       inkscape:connector-curvature="0"
       id="rect5350-4"
       d="m 1107,1 0,0.46875 0,2.53125 -2.5,0 -0.5,0 0,0.5 0,11 0,0.5 0.5,0 15,0 0.5,0 0,-0.5 0,-11 0,-0.5 -0.5,0 -2.5,0 0,-2.53125 L 1117,1 1116.5312,1 1107.4688,1 1107,1 z m 0.9375,0.9375 8.125,0 0,2.0625 -8.125,0 0,-2.0625 z M 1105,5 l 2,0 10,0 2,0 0,10 -14,0 0,-10 z m 6.9062,0.78125 c -1.9556,0.06785 -3.6601,1.50163 -4,3.5 -0.3885,2.28554 1.1452,4.4562 3.4376,4.84375 2.2923,0.38755 4.4862,-1.15196 4.875,-3.4375 0.3886,-2.28554 -1.1766,-4.45621 -3.4688,-4.84375 -0.2863,-0.04811 -0.5645,-0.07219 -0.8438,-0.0625 z m -0.7812,0.875 1.875,0 0,2.3125 2.2812,0 0,2.03125 -2.2812,0 0,2.34375 -1.875,0 0,-2.34375 -2.2812,0 0,-2.03125 2.2812,0 0,-2.3125 z"
       style="font-size:medium;font-style:normal;font-variant:normal;font-weight:normal;font-stretch:normal;text-indent:0;text-align:start;text-decoration:none;line-height:normal;letter-spacing:normal;word-spacing:normal;text-transform:none;direction:ltr;block-progression:tb;writing-mode:lr-tb;text-anchor:start;baseline-shift:baseline;color:#000000;fill:#000000;fill-opacity:1;stroke:none;stroke-width:0.99999994000000003;marker:none;visibility:visible;display:inline;overflow:visible;enable-background:accumulate;font-family:Sans;-inkscape-font-specification:Sans;opacity:1" />
    <path
       sodipodi:nodetypes="cccccccccccccccccccccccccccccccccccccccccccc"
       inkscape:connector-curvature="0"
       id="rect11037-6-4-8-6-9"
       d="m 1132.0999,0 -0.2666,0.3050858 -3.5666,3.9661151 -0.2667,0.3050858 0.2999,0.2711874 0.1003,0.1355936 0.2999,0.2711874 0.2667,-0.3050858 1.5334,-1.694921 2.1998,2.2033973 -1.4666,1.6610226 -0.2999,0.3050858 0.2999,0.3050858 0.1003,0.101641 0.2999,0.3050862 0.3001,-0.3389846 0.5333,-0.6101716 0.5333,0.5423747 4.4333,4.4745915 0.8999,0.881359 0.8333,-0.949156 0.1667,-0.169492 c 1.3333,1.344677 2.6686,2.687206 3.9999,4.033912 l 0.2999,-0.305086 c 0.1314,-0.126818 0.2445,-0.271187 0.3667,-0.406781 -1.3385,-1.350632 -2.6879,-2.690222 -4.0332,-4.033912 l 0.1666,-0.20339 0.8,-0.915258 -0.8666,-0.881359 -4.4333,-4.4406926 -0.5333,-0.5423747 0.3667,-0.4406795 0.2667,-0.3050858 -0.2667,-0.2711873 -0.1333,-0.1355937 -0.3,-0.2711874 -0.2666,0.3050858 -1.4667,1.6610226 -2.2,-2.2033973 1.4333,-1.6271242 0.2667,-0.3050857 -0.2999,-0.2711874 -0.1003,-0.1355937 z"
       style="font-size:medium;font-style:normal;font-variant:normal;font-weight:normal;font-stretch:normal;text-indent:0;text-align:start;text-decoration:none;line-height:normal;letter-spacing:normal;word-spacing:normal;text-transform:none;direction:ltr;block-progression:tb;writing-mode:lr-tb;text-anchor:start;baseline-shift:baseline;opacity:1;color:#000000;fill:#000000;fill-opacity:1;fill-rule:evenodd;stroke:none;stroke-width:2.32998610000000017;marker:none;visibility:visible;display:inline;overflow:visible;enable-background:accumulate;font-family:Sans;-inkscape-font-specification:Sans" />
    <path
       sodipodi:nodetypes="cccccccccccccccc"
       inkscape:connector-curvature="0"
       id="rect11037-6-4-8-6-9-5"
       d="m 1156.15,0.79662887 -0.033,0.032388 c -0.011,0.010718 -0.022,0.021514 -0.033,0.032388 l -1.3888,1.58703963 c -1.1176,1.4013702 -0.8086,2.7833746 0.3637,4.0161819 l 3.9135,3.9602816 5.158,-5.5436689 -4.0786,-4.21416573 c -1.3249,-0.9803624 -2.7114,-0.8317651 -3.9025,0.1295548 z m 8.8496,4.84522273 -5.2573,5.5708334 4.1779,4.255965 c 1.1494,0.778569 2.9324,0.691238 3.9678,-0.194332 l 1.1903,-1.36032 c 1.2218,-1.593628 1.2798,-2.7682 -0.1323,-4.2429023 z"
       style="font-size:medium;font-style:normal;font-variant:normal;font-weight:normal;font-stretch:normal;text-indent:0;text-align:start;text-decoration:none;line-height:normal;letter-spacing:normal;word-spacing:normal;text-transform:none;direction:ltr;block-progression:tb;writing-mode:lr-tb;text-anchor:start;baseline-shift:baseline;opacity:1;color:#000000;fill:#000000;fill-opacity:1;fill-rule:evenodd;stroke:none;stroke-width:5.49179554000000003;marker:none;visibility:visible;display:inline;overflow:visible;enable-background:accumulate;font-family:Sans;-inkscape-font-specification:Sans" />
    <path
       sodipodi:nodetypes="ssssss"
       id="path3672"
       d="M 1184,7.962842 C 1179.5833,7.962842 1176,10.650342 1176,13.962842 C 1176,15.068342 1176.526,15.962842 1178,15.962842 L 1190,15.962842 C 1191.474,15.962842 1192,15.068342 1192,13.962842 C 1192,10.650342 1188.4167,7.962842 1184,7.962842 z"
       style="fill:#000000;fill-opacity:1;stroke:none"
       inkscape:connector-curvature="0" />
    <circle
       transform="matrix(0.66666667,0,0,0.6477566,1176,-0.037158)"
       d="M 18,6 C 18,9.3137085 15.313708,12 12,12 C 8.6862915,12 6,9.3137085 6,6 C 6,2.6862915 8.6862915,0 12,0 C 15.313708,0 18,2.6862915 18,6 z"
       id="circle3674"
       r="6"
       cy="6"
       cx="12"
       style="fill:#000000;fill-opacity:1;stroke:none"
       sodipodi:cx="12"
       sodipodi:cy="6"
       sodipodi:rx="6"
       sodipodi:ry="6" />
    <path
       style="fill:#000000;fill-opacity:1;stroke:none"
       d="M 1208,0 C 1203.582,0 1200,3.582 1200,8 C 1200,12.418 1203.582,16 1208,16 C 1212.418,16 1216,12.418 1216,8 C 1216,3.582 1212.418,0 1208,0 z M 1208,2 C 1211.3085,2 1214,4.6915 1214,8 C 1214,11.3085 1211.3085,14 1208,14 C 1204.6915,14 1202,11.3085 1202,8 C 1202,4.6915 1204.6915,2 1208,2 z M 1207,3 L 1207,8 C 1207,8.301 1207.1348,8.5645 1207.3438,8.75 L 1209.3125,10.6875 L 1210.7188,9.28125 L 1209,7.5625 L 1209,3 z"
       id="delay"
       inkscape:label="#path3762"
       inkscape:connector-curvature="0"
       sodipodi:nodetypes="sssssssssscscccccc" />
    <g
       transform="scale(1.1521003,0.86797999)"
       style="font-size:24.37186623px;font-style:normal;font-weight:normal;line-height:125%;letter-spacing:0px;word-spacing:0px;fill:#000000;fill-opacity:1;stroke:none;font-family:Sans"
       id="accountancy">
      <path
         d="M 1097.1267,1.6470365 L 1097.1267,4.1818058 C 1096.4047,3.3487978 1095.7066,2.7537821 1095.0322,2.396757 C 1094.3658,2.0397633 1093.628,1.8612586 1092.8188,1.8612424 C 1091.5732,1.8612586 1090.5498,2.2579357 1089.7485,3.0512749 C 1088.9472,3.8446442 1088.4196,4.9831075 1088.1657,6.4666683 L 1095.0322,6.4666683 L 1094.3777,7.9304083 L 1087.9753,7.9304083 C 1087.9595,8.1208234 1087.9476,8.3072617 1087.9396,8.4897236 C 1087.9396,8.6722046 1087.9396,8.9022773 1087.9396,9.1799425 C 1087.9396,9.4338247 1087.9396,9.6519971 1087.9396,9.8344604 C 1087.9476,10.01694 1087.9595,10.203378 1087.9753,10.393776 L 1093.2829,10.393776 L 1092.6165,11.857516 L 1088.1657,11.857516 C 1088.4196,13.341094 1088.9472,14.483524 1089.7485,15.284809 C 1090.5498,16.0861 1091.5732,16.486744 1092.8188,16.486742 C 1093.628,16.486744 1094.3658,16.308239 1095.0322,15.951228 C 1095.7066,15.59422 1096.4047,14.999205 1097.1267,14.166179 L 1097.1267,16.677147 C 1096.4206,17.248364 1095.6986,17.676775 1094.9608,17.962383 C 1094.2309,18.24799 1093.4852,18.390794 1092.7236,18.390794 C 1090.8433,18.390794 1089.2883,17.815612 1088.0586,16.665247 C 1086.8369,15.514885 1086.0673,13.912309 1085.75,11.857516 L 1083.239,11.857516 L 1083.8935,10.393776 L 1085.5477,10.393776 C 1085.5477,10.211312 1085.5437,10.02884 1085.5358,9.8463607 C 1085.5358,9.6559639 1085.5358,9.4338247 1085.5358,9.1799425 C 1085.5358,8.9022773 1085.5358,8.6722046 1085.5358,8.4897236 C 1085.5437,8.2993281 1085.5477,8.1128899 1085.5477,7.9304083 L 1083.239,7.9304083 L 1083.8935,6.4666683 L 1085.75,6.4666683 C 1086.0673,4.4277595 1086.8408,2.8331175 1088.0705,1.6827375 C 1089.3002,0.53239025 1090.8512,-0.04279156 1092.7236,-0.04280965 C 1093.5011,-0.04279156 1094.2547,0.1000122 1094.9846,0.38560206 C 1095.7224,0.6632937 1096.4365,1.0837714 1097.1267,1.6470365"
         style="font-variant:normal;font-stretch:normal;fill:#000000;font-family:Courier 10 Pitch;-inkscape-font-specification:Courier 10 Pitch"
         id="path3915" />
    </g>
    <path
       style="font-size:medium;font-style:normal;font-variant:normal;font-weight:normal;font-stretch:normal;text-indent:0;text-align:start;text-decoration:none;line-height:normal;letter-spacing:normal;word-spacing:normal;text-transform:none;direction:ltr;block-progression:tb;writing-mode:lr-tb;text-anchor:start;baseline-shift:baseline;color:#000000;fill:#000000;fill-opacity:1;fill-rule:evenodd;stroke:none;stroke-width:1;marker:none;visibility:visible;display:inline;overflow:visible;enable-background:accumulate;font-family:Sans;-inkscape-font-specification:Sans"
       d="M 60.8,2e-7 L 56,4.8 L 51.2,0 L 48,3.1999999 L 52.8,8 L 48,12.8 L 51.2,16 L 56,11.2 L 60.8,16 L 64,12.8 L 59.2,8 L 64,3.2 z"
       id="destroy"
       inkscape:connector-curvature="0"
       sodipodi:nodetypes="ccccccccccccc"
       inkscape:label="" />
  </g>
</svg>
