<?xml version="1.0" encoding="UTF-8" standalone="no"?>
<!-- Created with Inkscape (http://www.inkscape.org/) -->
<svg
   xmlns:dc="http://purl.org/dc/elements/1.1/"
   xmlns:cc="http://creativecommons.org/ns#"
   xmlns:rdf="http://www.w3.org/1999/02/22-rdf-syntax-ns#"
   xmlns:svg="http://www.w3.org/2000/svg"
   xmlns="http://www.w3.org/2000/svg"
   xmlns:sodipodi="http://sodipodi.sourceforge.net/DTD/sodipodi-0.dtd"
   xmlns:inkscape="http://www.inkscape.org/namespaces/inkscape"
   width="32"
   height="32"
   id="svg2"
   sodipodi:version="0.32"
   inkscape:version="0.46"
   version="1.0"
   sodipodi:docname="help.svg"
   inkscape:output_extension="org.inkscape.output.svg.inkscape"
   inkscape:export-filename="/home/brice/Informatique/Developpement/ekylibre/trunk/ekylibre/public/images/template/help-close.png"
   inkscape:export-xdpi="90"
   inkscape:export-ydpi="90">
  <defs
     id="defs4">
    <inkscape:perspective
       sodipodi:type="inkscape:persp3d"
       inkscape:vp_x="0 : 526.18109 : 1"
       inkscape:vp_y="0 : 1000 : 0"
       inkscape:vp_z="744.09448 : 526.18109 : 1"
       inkscape:persp3d-origin="372.04724 : 350.78739 : 1"
       id="perspective10" />
  </defs>
  <sodipodi:namedview
     id="base"
     pagecolor="#ffffff"
     bordercolor="#666666"
     borderopacity="1.0"
     inkscape:pageopacity="0.0"
     inkscape:pageshadow="2"
     inkscape:zoom="8"
     inkscape:cx="37.188372"
     inkscape:cy="30"
     inkscape:document-units="pt"
     inkscape:current-layer="layer2"
     showgrid="false"
     borderlayer="true"
     inkscape:window-width="1280"
     inkscape:window-height="979"
     inkscape:window-x="0"
     inkscape:window-y="0" />
  <metadata
     id="metadata7">
    <rdf:RDF>
      <cc:Work
         rdf:about="">
        <dc:format>image/svg+xml</dc:format>
        <dc:type
           rdf:resource="http://purl.org/dc/dcmitype/StillImage" />
      </cc:Work>
    </rdf:RDF>
  </metadata>
  <g
     inkscape:label="Calque 1"
     inkscape:groupmode="layer"
     id="layer1">
    <path
       transform="matrix(0.8231511,0,0,1.1636364,13.376205,26.763636)"
       style="fill:#c9d7f1;fill-opacity:1;fill-rule:nonzero;stroke:none;stroke-width:1.5;stroke-linecap:round;stroke-linejoin:round;stroke-miterlimit:4;stroke-dashoffset:0;stroke-opacity:1"
       d="M 61.5,-23 C 61.5,-7.82 44.08292,4.3476837 22.625,4.5 C -7.6416175,4.7148437 -16.25,-1.8043752 -16.25,-23 C -16.25,-38.18 1.166,-50.5 22.625,-50.5 C 44.084,-50.5 61.5,-38.18 61.5,-23 z"
       id="path2383"
       sodipodi:nodetypes="csssc" />
  </g>
  <g
     inkscape:groupmode="layer"
     id="layer2"
     inkscape:label="aide"
     style="display:none">
    <path
       style="font-size:12px;font-style:normal;font-weight:normal;fill:#ffffff;fill-opacity:1;stroke:none;stroke-width:1px;stroke-linecap:butt;stroke-linejoin:miter;stroke-opacity:1;font-family:Bitstream Vera Sans"
       d="M 18.568806,19.418506 C 17.613269,20.884612 15.549162,19.801476 15.580525,18.793506 C 15.681762,15.539887 15.789849,14.193835 17.291462,12.023975 C 23.984143,4.36666 13.542128,3.400115 13.650837,9.957569 C 13.681935,11.833432 11.491301,12.345881 11.400837,10.129444 C 11.079554,2.257768 19.415783,2.73675 21.553181,4.816944 C 24.15548,7.349596 22.327954,9.740587 20.717243,11.94585 C 19.177066,14.054543 18.740474,14.422366 18.443806,17.293506"
       id="text3163"
       sodipodi:nodetypes="cscsssss" />
    <path
       sodipodi:type="arc"
       style="opacity:1;fill:#ffffff;fill-opacity:1;fill-rule:nonzero;stroke:none;stroke-width:1.5;stroke-linecap:round;stroke-linejoin:round;stroke-miterlimit:4;stroke-dasharray:none;stroke-dashoffset:0;stroke-opacity:1"
       id="path3168"
       sodipodi:cx="17.0625"
       sodipodi:cy="24.6875"
       sodipodi:rx="1.5625"
       sodipodi:ry="1.5625"
       d="M 18.625,24.6875 A 1.5625,1.5625 0 1 1 15.5,24.6875 A 1.5625,1.5625 0 1 1 18.625,24.6875 z"
       transform="translate(0.1781806,-0.507275)" />
  </g>
  <g
     inkscape:groupmode="layer"
     id="layer3"
     inkscape:label="close"
     style="display:inline">
    <path
       style="fill:#ffffff;fill-opacity:1;fill-rule:evenodd;stroke:none;stroke-width:3.74999976;stroke-linecap:butt;stroke-linejoin:miter;stroke-miterlimit:4;stroke-dasharray:none;stroke-opacity:1"
       d="M 10.1875,3.5625 L 7.5625,6.1875 C 11.8125,10.4375 12.563622,11.188622 15,13.625 C 13.647551,14.977449 10.5,18.125 9.75,18.875 C 8.6562499,19.96875 8.0859375,20.507813 7.8125,20.78125 C 7.6757812,20.917969 7.6279297,20.96582 7.59375,21 C 7.5766602,21.01709 7.5667725,21.026978 7.5625,21.03125 C 7.5603638,21.033386 7.5630341,21.061966 7.5625,21.0625 C 7.5625,21.0625 8.875,22.375 8.875,22.375 L 10.1875,23.6875 C 10.1875,23.6875 16.281602,17.593399 17.625,16.25 C 18.977449,17.602449 22.125,20.75 22.875,21.5 C 23.96875,22.59375 24.507813,23.164062 24.78125,23.4375 C 24.917969,23.574219 24.96582,23.62207 25,23.65625 C 25.01709,23.67334 25.026978,23.683228 25.03125,23.6875 C 25.033386,23.689636 25.061966,23.686966 25.0625,23.6875 L 26.375,22.375 L 27.6875,21.0625 C 27.6875,21.0625 21.593399,14.968398 20.25,13.625 C 22.709023,11.165976 20.249999,13.625 27.6875,6.1875 L 25.0625,3.5625 C 20.8125,7.8124995 20.061377,8.5636223 17.625,11 C 15.165976,8.5409766 17.625,11 10.1875,3.5625 z"
       id="path2384" />
  </g>
</svg>
