<?xml version="1.0" encoding="UTF-8" standalone="no"?>
<!-- Created with Inkscape (http://www.inkscape.org/) -->
<svg
   xmlns:dc="http://purl.org/dc/elements/1.1/"
   xmlns:cc="http://creativecommons.org/ns#"
   xmlns:rdf="http://www.w3.org/1999/02/22-rdf-syntax-ns#"
   xmlns:svg="http://www.w3.org/2000/svg"
   xmlns="http://www.w3.org/2000/svg"
   xmlns:xlink="http://www.w3.org/1999/xlink"
   xmlns:sodipodi="http://sodipodi.sourceforge.net/DTD/sodipodi-0.dtd"
   xmlns:inkscape="http://www.inkscape.org/namespaces/inkscape"
   width="32"
   height="32"
   id="svg2"
   sodipodi:version="0.32"
   inkscape:version="0.46"
   version="1.0"
   sodipodi:docname="help.svg"
   inkscape:output_extension="org.inkscape.output.svg.inkscape"
   inkscape:export-filename="/home/brice/Informatique/Developpement/ekylibre/trunk/ekylibre/public/images/template/help-web.png"
   inkscape:export-xdpi="90"
   inkscape:export-ydpi="90">
  <defs
     id="defs4">
    <linearGradient
       id="linearGradient3174">
      <stop
         style="stop-color:#ffad67;stop-opacity:1;"
         offset="0"
         id="stop3176" />
      <stop
         style="stop-color:#ff0000;stop-opacity:1;"
         offset="1"
         id="stop3178" />
    </linearGradient>
    <linearGradient
       id="linearGradient3164">
      <stop
         style="stop-color:#c9d7f1;stop-opacity:1;"
         offset="0"
         id="stop3166" />
      <stop
         style="stop-color:#6990d9;stop-opacity:1;"
         offset="1"
         id="stop3168" />
    </linearGradient>
    <inkscape:perspective
       sodipodi:type="inkscape:persp3d"
       inkscape:vp_x="0 : 526.18109 : 1"
       inkscape:vp_y="0 : 1000 : 0"
       inkscape:vp_z="744.09448 : 526.18109 : 1"
       inkscape:persp3d-origin="372.04724 : 350.78739 : 1"
       id="perspective10" />
    <linearGradient
       inkscape:collect="always"
       xlink:href="#linearGradient3164"
       id="linearGradient3170"
       x1="-39.261051"
       y1="23.876953"
       x2="26.624998"
       y2="6.4228525"
       gradientUnits="userSpaceOnUse"
       gradientTransform="matrix(0.9239437,0,0,0.8737202,7.4,1.6382253)" />
    <linearGradient
       inkscape:collect="always"
       xlink:href="#linearGradient3174"
       id="linearGradient3180"
       x1="3"
       y1="68.25"
       x2="3"
       y2="36.125"
       gradientUnits="userSpaceOnUse"
       gradientTransform="matrix(7.4766355e-2,0,0,0.9961089,-0.2242991,-3.9844358)" />
  </defs>
  <sodipodi:namedview
     id="base"
     pagecolor="#ffffff"
     bordercolor="#666666"
     borderopacity="1.0"
     inkscape:pageopacity="0.0"
     inkscape:pageshadow="2"
     inkscape:zoom="8"
     inkscape:cx="7.4375"
     inkscape:cy="61.9875"
     inkscape:document-units="pt"
     inkscape:current-layer="layer1"
     showgrid="false"
     borderlayer="true"
     inkscape:window-width="1280"
     inkscape:window-height="979"
     inkscape:window-x="0"
     inkscape:window-y="0"
     showguides="true"
     inkscape:guide-bbox="true" />
  <metadata
     id="metadata7">
    <rdf:RDF>
      <cc:Work
         rdf:about="">
        <dc:format>image/svg+xml</dc:format>
        <dc:type
           rdf:resource="http://purl.org/dc/dcmitype/StillImage" />
      </cc:Work>
    </rdf:RDF>
  </metadata>
  <g
     inkscape:label="Calque 1"
     inkscape:groupmode="layer"
     id="layer1"
     style="display:inline">
    <rect
       style="opacity:1;fill:url(#linearGradient3170);fill-opacity:1.0;fill-rule:nonzero;stroke:none;stroke-width:3.75000000000000000;stroke-linecap:round;stroke-linejoin:round;stroke-miterlimit:4;stroke-dasharray:none;stroke-dashoffset:0;stroke-opacity:1"
       id="rect2392"
       width="82"
       height="32"
       x="-50"
       y="4.4408921e-16"
       inkscape:export-filename="/home/brice/Informatique/Developpement/ekylibre/trunk/ekylibre/public/images/template/help-end.png"
       inkscape:export-xdpi="54.880001"
       inkscape:export-ydpi="54.880001" />
    <path
       transform="matrix(0.8231511,0,0,1.1636364,13.376205,26.763636)"
       style="fill:#c9d7f1;fill-opacity:1;fill-rule:nonzero;stroke:none;stroke-width:1.5;stroke-linecap:round;stroke-linejoin:round;stroke-miterlimit:4;stroke-dashoffset:0;stroke-opacity:1"
       d="M 61.5,-23 C 61.5,-7.82 44.08292,4.3476837 22.625,4.5 C -7.6416175,4.7148437 -16.25,-1.8043752 -16.25,-23 C -16.25,-38.18 1.166,-50.5 22.625,-50.5 C 44.084,-50.5 61.5,-38.18 61.5,-23 z"
       id="path2383"
       sodipodi:nodetypes="csssc" />
    <path
       style="fill:#c9d7f1;fill-opacity:1;fill-rule:evenodd;stroke:none;stroke-width:1px;stroke-linecap:butt;stroke-linejoin:miter;stroke-opacity:1"
       d="M 46.375,35.375 L 62.375,35.375 L 62.375,67.374965 C 46.503526,67.408478 46.431792,43.608891 46.375,35.375 z"
       id="help-begin"
       sodipodi:nodetypes="cccc"
       inkscape:export-xdpi="90"
       inkscape:export-ydpi="90" />
    <rect
       style="opacity:1;fill:#c9d7f1;fill-opacity:1;fill-rule:nonzero;stroke:none;stroke-width:3.75;stroke-linecap:round;stroke-linejoin:round;stroke-miterlimit:4;stroke-dasharray:none;stroke-dashoffset:0;stroke-opacity:1"
       id="rect3157"
       width="32"
       height="32"
       x="-32"
       y="-40"
       inkscape:export-filename="/home/brice/Informatique/Developpement/ekylibre/trunk/ekylibre/public/images/template/help-close.png"
       inkscape:export-xdpi="90"
       inkscape:export-ydpi="90" />
    <rect
       style="opacity:1;fill:#c9d7f1;fill-opacity:1;fill-rule:nonzero;stroke:none;stroke-width:3.75;stroke-linecap:round;stroke-linejoin:round;stroke-miterlimit:4;stroke-dasharray:none;stroke-dashoffset:0;stroke-opacity:1;display:inline"
       id="rect3161"
       width="32"
       height="32"
       x="-4.375"
       y="-73.75"
       inkscape:transform-center-x="0.625"
       inkscape:export-filename="/home/brice/Informatique/Developpement/ekylibre/trunk/ekylibre/public/images/template/help-previous.png"
       inkscape:export-xdpi="90"
       inkscape:export-ydpi="90" />
    <path
       style="fill:#ffffff;fill-opacity:1;fill-rule:evenodd;stroke:none;stroke-width:1px;stroke-linecap:butt;stroke-linejoin:miter;stroke-opacity:1"
       d="M 0.125,-57.814538 L 11.079042,-69.375 L 13.812027,-67.201373 L 7.7086966,-60.602689 L 21.875,-60.714531 L 21.875,-54.914545 L 7.7086966,-55.250071 L 13.356529,-48.315861 L 11.079042,-46 L 0.125,-57.814538 z"
       id="path3163"
       sodipodi:nodetypes="cccccccccc" />
    <rect
       style="opacity:1;fill:url(#linearGradient3180);fill-opacity:1;fill-rule:nonzero;stroke:none;stroke-width:3.75;stroke-linecap:round;stroke-linejoin:round;stroke-miterlimit:4;stroke-dasharray:none;stroke-dashoffset:0;stroke-opacity:1"
       id="help-error"
       width="1"
       height="32"
       x="0"
       y="32"
       inkscape:label="#rect3172"
       inkscape:export-xdpi="90"
       inkscape:export-ydpi="90" />
  </g>
  <g
     inkscape:groupmode="layer"
     id="layer2"
     inkscape:label="aide"
     style="display:none">
    <path
       style="font-size:12px;font-style:normal;font-weight:normal;fill:#ffffff;fill-opacity:1;stroke:none;stroke-width:1px;stroke-linecap:butt;stroke-linejoin:miter;stroke-opacity:1;font-family:Bitstream Vera Sans"
       d="M 18.568806,19.418506 C 17.613269,20.884612 15.549162,19.801476 15.580525,18.793506 C 15.681762,15.539887 15.789849,14.193835 17.291462,12.023975 C 23.984143,4.36666 13.542128,3.400115 13.650837,9.957569 C 13.681935,11.833432 11.491301,12.345881 11.400837,10.129444 C 11.079554,2.257768 19.415783,2.73675 21.553181,4.816944 C 24.15548,7.349596 22.327954,9.740587 20.717243,11.94585 C 19.177066,14.054543 18.740474,14.422366 18.443806,17.293506"
       id="text3163"
       sodipodi:nodetypes="cscsssss" />
    <path
       sodipodi:type="arc"
       style="opacity:1;fill:#ffffff;fill-opacity:1;fill-rule:nonzero;stroke:none;stroke-width:1.5;stroke-linecap:round;stroke-linejoin:round;stroke-miterlimit:4;stroke-dasharray:none;stroke-dashoffset:0;stroke-opacity:1"
       id="path3168"
       sodipodi:cx="17.0625"
       sodipodi:cy="24.6875"
       sodipodi:rx="1.5625"
       sodipodi:ry="1.5625"
       d="M 18.625,24.6875 A 1.5625,1.5625 0 1 1 15.5,24.6875 A 1.5625,1.5625 0 1 1 18.625,24.6875 z"
       transform="translate(0.1781806,-0.507275)" />
  </g>
  <g
     inkscape:groupmode="layer"
     id="layer3"
     inkscape:label="close"
     style="display:inline">
    <path
       style="fill:#ffffff;fill-opacity:1;fill-rule:evenodd;stroke:none;stroke-width:3.74999976;stroke-linecap:butt;stroke-linejoin:miter;stroke-miterlimit:4;stroke-dasharray:none;stroke-opacity:1"
       d="M 12.0625,-22.9375 L 9.4375,-20.3125 C 13.6875,-16.0625 14.438622,-15.311378 16.875,-12.875 C 15.522551,-11.522551 12.375,-8.375 11.625,-7.625 C 10.53125,-6.53125 9.9609375,-5.992187 9.6875,-5.71875 C 9.5507812,-5.582031 9.5029297,-5.53418 9.46875,-5.5 C 9.4516602,-5.48291 9.4417725,-5.473022 9.4375,-5.46875 C 9.4353638,-5.466614 9.4380341,-5.438034 9.4375,-5.4375 C 9.4375,-5.4375 10.75,-4.125 10.75,-4.125 L 12.0625,-2.8125 C 12.0625,-2.8125 18.156602,-8.906601 19.5,-10.25 C 20.852449,-8.897551 24,-5.75 24.75,-5 C 25.84375,-3.90625 26.382813,-3.335938 26.65625,-3.0625 C 26.792969,-2.925781 26.84082,-2.87793 26.875,-2.84375 C 26.89209,-2.82666 26.901978,-2.816772 26.90625,-2.8125 C 26.908386,-2.810364 26.936966,-2.813034 26.9375,-2.8125 L 28.25,-4.125 L 29.5625,-5.4375 C 29.5625,-5.4375 23.468399,-11.531602 22.125,-12.875 C 24.584023,-15.334024 22.124999,-12.875 29.5625,-20.3125 L 26.9375,-22.9375 C 22.6875,-18.6875 21.936377,-17.936378 19.5,-15.5 C 17.040976,-17.959023 19.5,-15.5 12.0625,-22.9375 z"
       id="path2384" />
    <path
       style="fill:#ffffff;fill-opacity:1;fill-rule:evenodd;stroke:none;stroke-width:3.74999976;stroke-linecap:butt;stroke-linejoin:miter;stroke-miterlimit:4;stroke-dasharray:none;stroke-opacity:1;display:inline"
       d="M -23.562079,-34.187921 L -26.187079,-31.562921 C -21.937079,-27.312921 -21.185957,-26.561799 -18.749579,-24.125421 C -20.102028,-22.772972 -23.249579,-19.625421 -23.999579,-18.875421 C -25.093329,-17.781671 -25.663642,-17.242608 -25.937079,-16.969171 C -26.073798,-16.832452 -26.12165,-16.784601 -26.155829,-16.750421 C -26.172919,-16.733331 -26.182807,-16.723443 -26.187079,-16.719171 C -26.189215,-16.717035 -26.186545,-16.688455 -26.187079,-16.687921 C -26.187079,-16.687921 -24.874579,-15.375421 -24.874579,-15.375421 L -23.562079,-14.062921 C -23.562079,-14.062921 -17.467977,-20.157022 -16.124579,-21.500421 C -14.77213,-20.147972 -11.624579,-17.000421 -10.874579,-16.250421 C -9.780829,-15.156671 -9.241766,-14.586359 -8.968329,-14.312921 C -8.83161,-14.176202 -8.783759,-14.128351 -8.749579,-14.094171 C -8.732489,-14.077081 -8.722601,-14.067193 -8.718329,-14.062921 C -8.716193,-14.060785 -8.687613,-14.063455 -8.687079,-14.062921 L -7.374579,-15.375421 L -6.062079,-16.687921 C -6.062079,-16.687921 -12.15618,-22.782023 -13.499579,-24.125421 C -11.040556,-26.584445 -13.49958,-24.125421 -6.062079,-31.562921 L -8.687079,-34.187921 C -12.937079,-29.937921 -13.688202,-29.186798 -16.124579,-26.750421 C -18.583603,-29.209444 -16.124579,-26.750421 -23.562079,-34.187921 z"
       id="path3159" />
    <text
       xml:space="preserve"
       style="font-size:26.26066971px;font-style:normal;font-weight:normal;line-height:125%;fill:#ffffff;fill-opacity:1;stroke:none;stroke-width:1px;stroke-linecap:butt;stroke-linejoin:miter;stroke-opacity:1;font-family:Bitstream Vera Sans"
       x="8.6669044"
       y="20.418003"
       id="text3169"
       sodipodi:linespacing="125%"
       transform="scale(1.0294622,0.971381)"><tspan
         sodipodi:role="line"
         id="tspan3171"
         x="8.6669044"
         y="20.418003"
         style="font-size:26.26066971px;font-style:normal;font-variant:normal;font-weight:bold;font-stretch:normal;text-align:start;line-height:125%;writing-mode:lr-tb;text-anchor:start;fill:#ffffff;fill-opacity:1;font-family:Qlassik Bold;-inkscape-font-specification:'Qlassik Bold, Bold'">@</tspan></text>
  </g>
</svg>
