<?xml version="1.0" encoding="utf-8"?>
<!-- Generator: Adobe Illustrator 24.3.0, SVG Export Plug-In . SVG Version: 6.00 Build 0)  -->
<svg version="1.1" id="Calque_1" xmlns="http://www.w3.org/2000/svg" xmlns:xlink="http://www.w3.org/1999/xlink" x="0px" y="0px"
	 viewBox="0 0 500 500" style="enable-background:new 0 0 500 500;" xml:space="preserve">
<style type="text/css">
	.st0{fill:#FFFFFF;}
</style>
<g>
	<circle class="st0" cx="250" cy="250" r="250"/>
	<g id="e4a06493-15a0-4bd9-9d4c-f375ea92d0b8">
		<g id="a08fb54a-4564-4f81-991c-735ebbfe3dc5">
			<path d="M207.5984192,136.1725159c-15.3919067,0.355423-27.5813751,13.1211395-27.2259521,28.5130463
				c0.0001221,0.0050659,0.0002289,0.0101471,0.000351,0.015213c-0.0073547,15.0362701,12.1760101,27.2315521,27.2122803,27.2389069
				c15.0362854,0.0073547,27.2315521-12.1759949,27.2389069-27.2122803c0-0.0088806,0-0.017746,0-0.0266266
				c0.3638153-15.3917084-11.8186798-28.1640778-27.2103882-28.5278931
				C207.608551,136.17276,207.6034851,136.1726379,207.5984192,136.1725159z M214.5025177,169.7811432
				c-6.3530884-0.2819824-11.2932281-5.6289673-11.0726166-11.9844666
				c-0.666214-6.1511993,3.7802582-11.6778107,9.9314575-12.3440247s11.6778259,3.7802582,12.3440247,9.9314728
				c0.0868378,0.8018341,0.0868378,1.6107178,0,2.4125519c0.2193451,6.3992462-4.7904663,11.764679-11.1896973,11.984024
				C214.5112762,169.7808533,214.506897,169.7810059,214.5025177,169.7811432z"/>
			<path d="M301.9109802,136.1725159c-15.3918762,0.355423-27.5813599,13.1211395-27.2259521,28.5130463
				c0.0001221,0.0050659,0.0002441,0.0101471,0.0003662,0.015213c0,15.0362854,12.1893005,27.2256012,27.2255859,27.2256012
				s27.2255859-12.1893158,27.2255859-27.2256012c0.3638306-15.3917084-11.8186646-28.1640778-27.2103882-28.5278931
				C301.9211121,136.17276,301.9160461,136.1726379,301.9109802,136.1725159z M308.815094,169.7811432
				c-6.6047668,0.4316406-12.3088684-4.5726471-12.7405396-11.1773987
				c-0.4316406-6.6047516,4.5726624-12.3088684,11.1773987-12.740509
				c6.6047668-0.4316559,12.3088989,4.5726471,12.7405396,11.1773987c0.016449,0.2516785,0.0249329,0.5038147,0.0254822,0.7560425
				c0.2193298,6.3992462-4.7904663,11.764679-11.1897278,11.984024
				C308.8238831,169.7808533,308.8194885,169.7810059,308.815094,169.7811432z"/>
			<path d="M306.6005554,399.570343c-0.9254456,4.2376404-2.4612122,8.3184509-4.5592957,12.1147461
				c-0.8694458,1.4078979-2.7155762,1.8443604-4.1234741,0.9749451c-0.6842651-0.4225769-1.1699219-1.102478-1.3477173-1.8867798
				v-0.6513367c-0.5877686-1.546814-2.3182068-2.3242188-3.8649902-1.7364502
				c-0.8003235,0.3041382-1.432312,0.9361267-1.7364502,1.7364502c-0.8274536,2.5019836-2.012085,4.8712463-3.5171814,7.0343933
				c-0.9324951,1.3669128-2.7965393,1.7190857-4.1634827,0.7865906c-0.309021-0.2107849-0.5758362-0.4776001-0.7866211-0.7865906
				c-2.795166-5.4613342-4.9375916-11.2327576-6.3830261-17.1951294l0,0
				c-1.0726624,3.9396667-1.899292,7.9422302-2.4750671,11.9844666c-0.144043,1.5762024-1.5386047,2.7371826-3.1148071,2.5931091
				c-0.7015381-0.0640869-1.3548889-0.3843994-1.8352966-0.8996582c-3.4502869-3.7877197-5.5960083-8.5814209-6.1224976-13.6779175
				h-20.7122803c-0.6132355,4.8542786-2.705307,9.4022522-5.9922333,13.0266113
				c-1.0715485,1.164856-2.8845367,1.240509-4.049408,0.1689148c-0.4936981-0.4541626-0.812439-1.0671082-0.9006958-1.7321167
				c-0.5757751-4.0422668-1.4023895-8.0448303-2.4750519-11.9844666l0,0
				c-1.4114075,5.9726868-3.5553436,11.7481079-6.3830261,17.1950989c-0.7978973,1.3669434-2.5528412,1.8282471-3.9197693,1.0303345
				c-0.4264832-0.2489624-0.7814026-0.6038513-1.0303345-1.0303345c-1.4123077-2.1512146-2.5501099-4.4705811-3.3869324-6.9041138
				c-0.3355103-1.546814-1.8614197-2.528717-3.4082336-2.1932068c-1.0976868,0.2380981-1.9550934,1.0954895-2.1932068,2.1932068l0,0
				c-0.3658295,1.6137695-1.9706116,2.6253967-3.5843811,2.2595825c-0.7843018-0.1777954-1.4642334-0.6634521-1.8867798-1.3477173
				c-2.0628357-3.7665405-3.5970154-7.7992859-4.5593262-11.9844666H75.5086975v24.0992126h348.982605V399.570343H306.6005554z"/>
			<path d="M333.6958923,112.5943756c9.3600464-3.2287903,18.5358582-6.9687042,27.486145-11.2028732
				c0.7559509-0.290802,1.3336792-0.9166641,1.5632019-1.6934586l5.8619385-17.4556427
				c0.5064087-1.4995728-0.2987671-3.1257248-1.7983398-3.632103c-0.788208-0.2661591-1.6531372-0.1766815-2.3701782,0.2451859
				c-16.3139648,8.5642929-33.4701233,15.4180298-51.194519,20.451767
				c-18.8209229-8.9642563-39.4702454-13.4241486-60.3131561-13.0266037
				c-19.6462555-0.3066559-39.1073303,3.8349457-56.926239,12.1147385
				c-17.6287384-5.6742783-34.6475525-13.0927429-50.8037415-22.1452179
				c-1.0431976-1.2590179-2.9095001-1.4339828-4.1685181-0.3908005c-1.2590179,1.04319-1.4339752,2.9094925-0.3907928,4.1685104
				l5.4711761,17.4556427c0.2481232,0.7576065,0.7555389,1.4034042,1.4329224,1.8237305
				c8.9790344,4.3831863,18.199295,8.253952,27.616394,11.5936661
				c-26.5742645,22.0149612-43.6391144,59.1407547-43.6391144,113.7222214
				c0,68.519928,27.7466583,127.660675,67.9988556,156.3191833c1.3026733-2.9961243,2.996109-5.2106323,5.4711761-5.2106323
				c1.7694092-0.1405029,3.5293427,0.3689575,4.9501038,1.4329224c1.0863342,1.1510925,2.9001312,1.2036133,4.051239,0.1172791
				c0.0402069-0.0379333,0.0793152-0.0770569,0.1172791-0.1172791c1.4604645-2.0717163,3.8485107-3.2900696,6.3830261-3.2566528
				c2.6992493-0.2709656,5.231781,1.3455505,6.1224976,3.9079895c0.7635193,1.3864136,2.5063934,1.8913879,3.8928375,1.1278687
				c0.0493011-0.0271301,0.0977936-0.0557556,0.1454163-0.0857544c1.8327484-0.8379517,3.8612976-1.1535034,5.861969-0.9118652
				c5.0803833,0,5.9922333,6.1224976,5.4711761,20.7123108l0,0c4.3186188,0.5783691,8.6695099,0.8829346,13.0265961,0.9118347
				c2.4750519,0,4.950119,0,7.4251556,0c-0.0632629-0.3006592-0.0632629-0.6111755,0-0.9118347
				c0-14.5898132,0-20.7123108,5.4711609-20.7123108c2.0432739-0.2524414,4.1165771,0.0630798,5.9922485,0.9118652
				c1.3390808,0.8438416,3.1086426,0.4423523,3.9524841-0.896698c0.0299988-0.0476379,0.0586243-0.0960999,0.0857544-0.1454163
				c0.9412231-2.5826416,3.5188904-4.1936646,6.2527771-3.9079895c2.5650635-0.0103455,4.9825439,1.1983948,6.5133057,3.2566528
				c1.0863342,1.1510925,2.900116,1.2036133,4.051239,0.1172791c0.0401917-0.0379333,0.0792847-0.0770569,0.1172485-0.1172791
				c1.4450378-1.0142822,3.1867065-1.5184631,4.9501038-1.4329224c3.2566528,0,5.3409119,3.5171814,6.5133057,7.946228
				c42.4667053-27.616394,72.0371094-88.450592,72.0371094-159.1850433
				C377.9863281,171.3443451,360.6609497,134.7395935,333.6958923,112.5943756z M207.3378754,336.7821655
				c-0.3355255,1.5467834-1.8614349,2.528717-3.4082336,2.1932068c-1.0976868-0.2381287-1.9551086-1.09552-2.1932068-2.1932068
				l-3.77771-15.7621765l4.1685028,5.6014404c0.9100342,1.2949829,2.6975555,1.6070557,3.9925385,0.6970215
				c0.2708588-0.1903381,0.5066833-0.426178,0.6970367-0.6970215l4.5593109-6.1224976L207.3378754,336.7821655z
				 M221.0158081,294.9667664c-0.482605,1.5827637-2.1569366,2.4746399-3.7397003,1.9920044
				c-0.9542236-0.2909546-1.7010345-1.0377808-1.9919891-1.9920044l-3.6474457-16.2832336l4.1685028,5.7316895
				c1.0300751,1.2950134,2.9149323,1.5097656,4.2099152,0.4796753c0.1775208-0.1412354,0.3384399-0.3021545,0.47966-0.4796753
				l4.5593109-6.1224976L221.0158081,294.9667664z M257.881073,271.6491699
				c-0.482605,1.5827637-2.1569214,2.4746094-3.7397003,1.9919739c-0.9542236-0.2909546-1.7010193-1.0377808-1.9919891-1.9919739
				l-3.6474457-16.2832642l4.1685181,5.6014404c0.9100342,1.2949829,2.6975403,1.6070557,3.9925385,0.697052
				c0.2708435-0.1903687,0.5066833-0.426178,0.6970215-0.697052l4.5593262-6.1224976L257.881073,271.6491699z
				 M294.3555603,295.3575745c-0.482605,1.5827332-2.1569214,2.4746094-3.7396851,1.9920044
				c-0.9542542-0.2909546-1.7010803-1.0377808-1.9920349-1.9920044l-3.6474609-16.2832642l4.0382385,5.73172
				c1.0999451,1.3309631,3.0705872,1.5182495,4.4015503,0.4183044c0.1523438-0.125885,0.2924194-0.2659607,0.4183044-0.4183044
				l4.4290466-6.1224976L294.3555603,295.3575745z M307.3821411,337.1729431
				c-0.3355103,1.5467834-1.8614197,2.528717-3.4082336,2.1932068c-1.0976868-0.2380981-1.9551086-1.09552-2.1932068-2.1932068
				l-3.77771-16.2832642l4.1685181,5.6014404c0.9100037,1.2949829,2.6975098,1.6070862,3.9925232,0.697052
				c0.2708435-0.1903381,0.5067139-0.426178,0.697052-0.697052l4.5592957-6.1224976L307.3821411,337.1729431z
				 M338.5157166,218.3703461c-26.0531921,11.2028809-51.1945496,0-72.0371094-22.4057465
				c-1.6135864,7.1569214-4.527771,13.9566803-8.5975342,20.0609741c-0.8565369,1.3309631-2.6298828,1.7155457-3.9608459,0.8589783
				c-0.3444214-0.2216492-0.6373291-0.5145569-0.8589783-0.8589783c-3.6365051-5.0054169-6.572876-10.4837189-8.727829-16.2832489
				c-22.536026,22.2754822-49.3708038,32.8270264-75.6845398,19.8004303
				c-30.4822388-14.7200623-22.5360107-69.8225708,14.0687256-104.2127914c0.8694763-0.5726013,1.9963684-0.5726013,2.86586,0l0,0
				c5.2106323,1.6934586,10.5515442,3.1263885,16.0227203,4.4290466l2.996109,0.7815933l13.0265961,2.6053162l3.9079895,0.651329
				c4.5593109,0.781601,9.1186066,1.3026657,13.0265961,1.6934586h2.3447876c5.3409119,0,10.8120728,0.7815933,16.2832489,0.9118652
				h2.2145233c4.5593262,0,9.2489014,0,13.938446,0h4.038269c4.4290466,0,8.7278137-0.781601,13.0265808-1.3026581h3.3869324
				c5.6014404-0.781601,11.0726013-1.8237305,16.6740417-2.9961243l0,0
				c5.2106628-1.1723938,10.5515442-2.6053162,15.762207-4.1685104h1.6934509c0.838501-0.5172272,1.8970642-0.5172272,2.7355652,0
				c42.3364563,32.1757126,41.033783,88.5808792,11.9844971,100.5653458L338.5157166,218.3703461z"/>
		</g>
	</g>
</g>
</svg>
