<?xml version="1.0" encoding="utf-8"?>
<!-- Generator: Adobe Illustrator 24.0.2, SVG Export Plug-In . SVG Version: 6.00 Build 0)  -->
<svg version="1.1" id="Calque_1" xmlns="http://www.w3.org/2000/svg" xmlns:xlink="http://www.w3.org/1999/xlink" x="0px" y="0px"
	 viewBox="0 0 100 100" style="enable-background:new 0 0 100 100;" xml:space="preserve">
<style type="text/css">
	.st0{fill:#6E555E;}
	.st1{fill:#FFC850;}
	.st2{fill:#BDCCD4;}
</style>
<g>
	<g>
		<path d="M46.8269501,17.4618969c-0.4960938,0-0.982811-0.2310543-1.2927742-0.6650391
			C38.0070267,6.2593555,27.447649,3.1452916,27.3423748,3.1150184c-0.8431644-0.2410157-1.3314457-1.1191406-1.0912132-1.9625003
			c0.2417984-0.8439456,1.125391-1.3306644,1.9625015-1.0896487c0.4757824,0.1355469,11.7388706,3.4582036,19.9031315,14.8894567
			c0.5099602,0.7130871,0.3441391,1.704298-0.3689461,2.2142582C47.4687462,17.3658028,47.146286,17.4618969,46.8269501,17.4618969z
			"/>
		<path d="M53.1730461,17.4618969c-0.3193398,0-0.6417999-0.0960922-0.9207001-0.2953129
			c-0.713089-0.5099602-0.8789062-1.5011711-0.3689499-2.2142582C60.047657,3.5210738,71.3105545,0.1984165,71.7865219,0.0628696
			c0.8417969-0.2417969,1.7175827,0.2464844,1.9593811,1.0880862s-0.2433624,1.7197269-1.0851593,1.9632818
			c-0.1070251,0.0310545-10.7001953,3.1900399-18.1949196,13.68262
			C54.1558609,17.2308426,53.6691399,17.4618969,53.1730461,17.4618969z"/>
	</g>
	<ellipse class="st0" cx="49.9999962" cy="20.1728344" rx="8.7968788" ry="8.4003916"/>
	<ellipse class="st1" cx="50" cy="30.1591663" rx="14.285162" ry="12.6992197"/>
	<ellipse class="st0" cx="49.9999962" cy="71.4287033" rx="23.8085976" ry="28.5703182"/>
	<path class="st1" d="M49.9999962,68.2550735c8.5132866,0,16.2564507-2.7585983,22.1476631-7.2601585
		C68.671875,50.3826103,60.0771484,42.858387,49.9999962,42.858387s-18.6720734,7.524025-22.1476593,18.136528
		C33.7435493,65.4964752,41.4867134,68.2550735,49.9999962,68.2550735z"/>
	<g>
		<path d="M61.1111336,42.8585815H38.8890572c-0.3287086,0-0.6494141-0.1023445-0.9191399-0.2929688l-9.8416042-6.9847641
			c-1.2246113-0.9160194-1.9376965-2.3406258-1.9376965-3.8334007v-1.8593769c0-0.4240246-0.1658211-0.8230476-0.4650383-1.1230469
			l-8.5937519-8.5937519c-0.6201191-0.6201172-0.6201191-1.6244144,0-2.2445297
			c0.6201172-0.6201191,1.6244144-0.6201191,2.2445297,0l8.5937538,8.59375
			c0.8990231,0.8990231,1.3951187,2.0957031,1.3951187,3.3675785v1.8593769c0,0.4976578,0.2371101,0.971096,0.6324234,1.267971
			l9.3966808,6.6685562h21.2113304l9.4277306-6.6917992c0.3642578-0.273632,0.6013718-0.7478523,0.6013718-1.2447281v-1.8593769
			c0-1.2718735,0.4960938-2.4685555,1.3951187-3.3675785l8.59375-8.5937519c0.6201172-0.6201191,1.6244125-0.6201191,2.2445374,0
			c0.6201096,0.6201172,0.6201096,1.6244144,0,2.2445316l-8.59375,8.5937519
			c-0.2992249,0.2999992-0.4650421,0.6990223-0.4650421,1.1230469v1.8593769c0,1.4912109-0.711525,2.9156227-1.9050827,3.8085938
			l-9.8740234,7.0095711C61.7605438,42.756237,61.4396515,42.8585815,61.1111336,42.8585815z"/>
		<path d="M89.6806717,55.5568314c-0.3580093,0-0.7177734-0.1208992-1.0152359-0.3673859l-8.2000046-6.8328171
			c-0.5689392-0.4744148-1.2896423-0.7363281-2.0306625-0.7363281h-56.869545c-0.7410145,0-1.4617195,0.2619133-2.0306644,0.7363281
			l-8.2000027,6.8328171c-0.6757812,0.5595665-1.6740236,0.4697266-2.2367191-0.2031288
			c-0.5611324-0.6742172-0.4697256-1.6755867,0.203126-2.2367172l8.2000017-6.8328171
			c1.1392574-0.9486313,2.5824223-1.4710922,4.0642567-1.4710922H78.434967c1.4818344,0,2.9250031,0.5224609,4.0642548,1.4710922
			l8.2000046,6.8328171c0.6726532,0.5611305,0.7642593,1.5625,0.203125,2.2367172
			C90.5875092,55.3630791,90.136528,55.5568314,89.6806717,55.5568314z"/>
	</g>
	<path class="st1" d="M73.7644577,70.3609314c-5.1240234,4.933403-13.85215,8.1847687-23.7644615,8.1847687
		s-18.6402378-3.2513657-23.7644596-8.1847687c-0.0111332,0.3945312-0.04492,0.78125-0.04492,1.1792984
		c0,1.16465,0.0552731,2.3113251,0.148243,3.4433594c5.8136749,7.542778,14.2457047,12.3189468,23.6611366,12.3189468
		s17.8474693-4.7761688,23.6611366-12.3189468c0.0929718-1.1320267,0.1482468-2.2787094,0.1482468-3.4433594
		C73.8093796,71.1421814,73.7753983,70.7554626,73.7644577,70.3609314z"/>
	<path class="st2" d="M34.3916626,48.3479614l0.0001221-0.0003052l-0.6613159-6.6799316L5.4431763,69.9550781
		c-2.9768066,2.9767456-4.6490479,7.0140381-4.6490479,11.2238159c0,4.3019409,4.4980469,7.1236572,8.3710938,5.2511597
		l11.9760132-5.7510986c0.44104,1.727478,2.3359985,2.9472046,4.2609253,2.1772461l6.1411743-2.4564209
		c1.5963135-0.6384888,2.7244263-2.0878906,2.9515991-3.7919922l3.2036743-24.291626L34.3916626,48.3479614z"/>
	<path class="st2" d="M94.5568237,69.9550781L66.2697144,41.6679688l-0.6613159,6.6798706l-3.3070068,3.9683228l3.2036743,24.291626
		c0.2271729,1.7041016,1.3552856,3.1535034,2.9515991,3.7919922l6.1411743,2.4564209
		c1.9249268,0.7699585,3.8199463-0.4497681,4.2609253-2.1772461l11.9760132,5.7510986
		c3.8730469,1.8724976,8.3710938-0.9492188,8.3710938-5.2511597C99.2058716,76.9691162,97.5336304,72.9318237,94.5568237,69.9550781
		z"/>
	<path class="st0" d="M49.9999962,30.160141c9.6429749,0,17.4601631,6.7511711,17.4601631,15.0792999
		S59.642971,57.1441307,49.9999962,57.1441307s-17.4601593-3.5765648-17.4601593-11.9046898
		S40.357029,30.160141,49.9999962,30.160141z"/>
</g>
</svg>
