<?xml version="1.0" encoding="utf-8"?>
<!-- Generator: Adobe Illustrator 24.0.2, SVG Export Plug-In . SVG Version: 6.00 Build 0)  -->
<svg version="1.1" id="Calque_1" xmlns="http://www.w3.org/2000/svg" xmlns:xlink="http://www.w3.org/1999/xlink" x="0px" y="0px"
	 viewBox="0 0 100 100" style="enable-background:new 0 0 100 100;" xml:space="preserve">
<style type="text/css">
	.st0{fill:#FF193D;}
	.st1{fill:#88CC2A;}
	.st2{fill:#169A3B;}
</style>
<g>
	<g>
		<path d="M56.2503395,5.8593721v18.9453125H47.461277c-1.6403198,0-2.9296875-1.2893677-2.9296875-2.9296875v-4.1015625
			C44.5315895,11.3281221,49.805027,5.8593721,56.2503395,5.8593721z"/>
		<path d="M13.1633348,99.1416931c-1.1444092-1.1444092-1.1444092-2.9983521,0-4.1427612l5.0010672-5.1963806V85.15625
			c0-0.7781982,0.3089905-1.5220642,0.8583069-2.0713806l5.6503296-5.6503296c1.1444092-1.1444092,2.999115-1.1444092,4.1427612,0
			c1.1444092,1.1444092,1.1444092,2.9983521,0,4.1427612l-4.7920227,4.7920227v4.6463013
			c0,0.7781982-0.3089905,1.7173767-0.8583069,2.2666931l-5.859375,5.859375
			C16.1616859,100.2861023,14.307744,100.2861023,13.1633348,99.1416931z"/>
		<path d="M7.1086473,63.7901268c-1.1444092-1.1444092-1.1444092-2.9983521,0-4.1427612l5.859375-5.859375
			c0.5493164-0.5493164,1.4884949-0.8583069,2.2666931-0.8583069h5.9623709c1.6197205,0,2.9296875,1.31073,2.9296875,2.9296875
			s-1.309967,2.9296875-2.9296875,2.9296875h-4.7492981l-5.1963797,5.0010681
			C10.1069994,64.9345398,8.2530565,64.9345398,7.1086473,63.7901268z"/>
		<path d="M56.2503395,11.7187471c-4.8461914,0-8.7890625-3.9428711-8.7890625-8.7890625
			c0-1.6189575,1.31073-2.9296875,2.9296875-2.9296875c1.6197205,0,2.9296875,1.3107301,2.9296875,2.9296875
			c0,1.6166685,1.3137817,2.9296873,2.9296875,2.9296873V11.7187471z"/>
		<path class="st0" d="M56.2503395,100c-21.355545,0-38.6676331-18.4070435-38.6676331-41.1132851
			s17.312088-41.1132812,38.6676331-41.1132812V100z"/>
		<circle cx="41.3354607" cy="77.5782394" r="9.765625"/>
		<path d="M56.2503395,60.5639343c-5.3934059,0-9.765625-4.3722191-9.765625-9.765625s4.3722191-9.765625,9.765625-9.765625
			V60.5639343z"/>
		<g>
			<path d="M28.8151321,44.4890709c5.3934097,0,9.765625-4.3722153,9.765625-9.765625
				c0-3.8630009-2.2434006-7.2013741-5.4980507-8.7853317c-4.9246559,3.9701939-8.9273338,9.1939583-11.6039753,15.2271652
				C23.2684803,43.2019463,25.8907375,44.4890709,28.8151321,44.4890709z"/>
		</g>
		<path d="M27.0396767,36.6500816l-8.0169678-8.0162029c-0.5493164-0.5493164-0.8583069-1.2931824-0.8583069-2.0713806v-4.6463013
			l-5.0010672-5.0010681c-1.1444092-1.1444101-1.1444092-2.998353,0-4.1427622s2.9983511-1.1444092,4.1427603,0l5.859375,5.859376
			c0.5493164,0.5493164,0.8583069,1.2931824,0.8583069,2.0713806v4.6463013l7.1586609,7.157896
			c1.1436462,1.1444092,1.1436462,2.9983521,0,4.1427612c-0.5722046,0.5722046-1.3221741,0.8590698-2.0713806,0.8590698
			C28.3610878,37.5091515,27.6118813,37.2222862,27.0396767,36.6500816z"/>
	</g>
	<g>
		<path class="st1" d="M58.3521118,6.6067982c-0.5961876-0.5099382-1.3493233-0.76509-2.1023254-0.7651653v94.1583557
			c0.000206,0,0.0004234,0.0000076,0.0006294,0.0000076c10.0010185,0,19.4153328-3.6761551,26.5055046-10.3521347
			c7.0901642-6.6759872,10.9937286-15.5394974,10.9937363-24.9565277
			C93.7511063,37.2246361,59.7900124,7.8401518,58.3521118,6.6067982z"/>
	</g>
	<path class="st2" d="M69.6652832,66.5394897L59.3746338,76.8300781l-0.0001831-19.2855263l14.7103271-14.7102661
		c1.2205811-1.2206421,1.2199097-3.199585,0-4.4195557c-1.2199707-1.2199097-3.1987915-1.2207031-4.4194946,0L59.3743896,48.7056236
		l-0.0001831-20.5804424c0-1.7261353-1.3983765-3.1245728-3.1243896-3.1246948
		c0.0001221-0.000061,0.0003052,0.0001221,0.0003052,0.0001221l0.0001221,26.8291607v7.5449219l0.000061,20.5797768v7.5449829
		L56.2503662,100c0.000061,0,0.0001221,0,0.0001831,0c1.0487061,0,2.0904541-0.0455322,3.1243286-0.1305542l-0.0001221-14.2004395
		l14.710022-14.710022c1.2205811-1.2205811,1.2199097-3.199585,0-4.4194946
		C72.8648071,65.319519,70.8859863,65.3187256,69.6652832,66.5394897z"/>
</g>
</svg>
