<?xml version="1.0" encoding="utf-8"?>
<!-- Generator: Adobe Illustrator 24.0.2, SVG Export Plug-In . SVG Version: 6.00 Build 0)  -->
<svg version="1.1" id="Calque_1" xmlns="http://www.w3.org/2000/svg" xmlns:xlink="http://www.w3.org/1999/xlink" x="0px" y="0px"
	 viewBox="0 0 100 100" style="enable-background:new 0 0 100 100;" xml:space="preserve">
<style type="text/css">
	.st0{fill-rule:evenodd;clip-rule:evenodd;fill:#169A3B;}
</style>
<g>
	<path class="st0" d="M68.1741409,13.5618792c16.2247314,0,25.4286728,7.0198164,25.4286728,18.7201729
		s-7.488266,15.288826-7.488266,15.288826S100,50.8470535,100,67.2269592c0,19.0334549-21.9963531,19.2416458-21.9963531,19.2416458
		h-19.03442v-72.906723H68.1741409L68.1741409,13.5618792z M68.1741409,22.1412163V45.853241c0,0,4.2111053,0,7.0198212-0.3113174
		c2.8077316-0.3113174,10.1398468-1.8718185,9.983696-11.8555183c-0.155159-9.9846783-7.0198212-11.2328835-12.0116653-11.7003517
		L68.1741409,22.1412163L68.1741409,22.1412163z M68.1741409,53.4976501v24.6489105c0,0,7.1759644,0,9.3600845,0
		c2.1841125,0,13.4160233-1.4043579,13.5711899-12.1687927c0.1561432-10.7644424-12.1688004-12.7914352-14.9755478-12.7914352
		C73.3231277,53.1863403,68.1741409,53.4976501,68.1741409,53.4976501L68.1741409,53.4976501z"/>
	<path class="st0" d="M51.9503899,86.4676285h-9.2049217V69.0978012H11.3890371c0,0-2.4964151,6.5523529-2.4964151,17.0045013H0
		c0-18.7201691,10.3392067-51.5703278,38.5323982-70.6695709c10.6082954-5.4602966,13.4170036,2.3402691,13.4170036,4.6805325
		S51.9503899,86.4676285,51.9503899,86.4676285L51.9503899,86.4676285z M42.7454681,23.0771294
		c-24.6489124,20.1245308-27.925087,36.9728737-27.925087,36.9728737h27.925087V23.0771294L42.7454681,23.0771294z"/>
</g>
</svg>
