<?xml version="1.0" encoding="UTF-8" standalone="no"?>
<!-- Created with Inkscape (http://www.inkscape.org/) -->

<svg
   xmlns:dc="http://purl.org/dc/elements/1.1/"
   xmlns:cc="http://creativecommons.org/ns#"
   xmlns:rdf="http://www.w3.org/1999/02/22-rdf-syntax-ns#"
   xmlns:svg="http://www.w3.org/2000/svg"
   xmlns="http://www.w3.org/2000/svg"
   xmlns:xlink="http://www.w3.org/1999/xlink"
   xmlns:sodipodi="http://sodipodi.sourceforge.net/DTD/sodipodi-0.dtd"
   xmlns:inkscape="http://www.inkscape.org/namespaces/inkscape"
   width="112"
   height="32"
   id="svg2"
   sodipodi:version="0.32"
   inkscape:version="0.47 r22583"
   version="1.0"
   inkscape:export-filename="/home/brice/dev/ekylibre/app/assets/images/themes/tekyla/list-aaaa.png"
   inkscape:export-xdpi="90"
   inkscape:export-ydpi="90"
   sodipodi:docname="list.svg"
   inkscape:output_extension="org.inkscape.output.svg.inkscape">
  <defs
     id="defs4">
    <linearGradient
       id="linearGradient3708">
      <stop
         style="stop-color:#555555;stop-opacity:1;"
         offset="0"
         id="stop3710" />
      <stop
         style="stop-color:#555555;stop-opacity:0;"
         offset="1"
         id="stop3712" />
    </linearGradient>
    <linearGradient
       id="linearGradient4477">
      <stop
         id="stop4479"
         offset="0"
         style="stop-color:#6f82d1;stop-opacity:1;" />
      <stop
         id="stop4481"
         offset="1"
         style="stop-color:#b9c6f2;stop-opacity:1;" />
    </linearGradient>
    <linearGradient
       id="linearGradient4155">
      <stop
         id="stop4157"
         offset="0"
         style="stop-color:#121848;stop-opacity:1;" />
      <stop
         id="stop4159"
         offset="1"
         style="stop-color:#4a58d2;stop-opacity:1" />
    </linearGradient>
    <linearGradient
       id="linearGradient3877">
      <stop
         style="stop-color:#d0d0d0;stop-opacity:1;"
         offset="0"
         id="stop3879" />
      <stop
         style="stop-color:#ffffff;stop-opacity:1;"
         offset="1"
         id="stop3881" />
    </linearGradient>
    <linearGradient
       id="linearGradient3910">
      <stop
         style="stop-color:#ffffff;stop-opacity:1;"
         offset="0"
         id="stop3912" />
      <stop
         style="stop-color:#b9c6f2;stop-opacity:1;"
         offset="1"
         id="stop3914" />
    </linearGradient>
    <linearGradient
       id="linearGradient3772">
      <stop
         style="stop-color:#ffffff;stop-opacity:1;"
         offset="0"
         id="stop3774" />
      <stop
         style="stop-color:#6e94db;stop-opacity:1;"
         offset="1"
         id="stop3776" />
    </linearGradient>
    <linearGradient
       id="linearGradient3745">
      <stop
         style="stop-color:#535d80;stop-opacity:1;"
         offset="0"
         id="stop3747" />
      <stop
         style="stop-color:#9ca5b8;stop-opacity:1;"
         offset="1"
         id="stop3749" />
    </linearGradient>
    <linearGradient
       inkscape:collect="always"
       xlink:href="#linearGradient3745"
       id="linearGradient3093"
       gradientUnits="userSpaceOnUse"
       gradientTransform="matrix(1.1000001,0,0,1.1000001,-34.249982,-45.550002)"
       x1="322"
       y1="16.1875"
       x2="321.875"
       y2="4.5" />
    <radialGradient
       inkscape:collect="always"
       xlink:href="#linearGradient3877"
       id="radialGradient3885"
       cx="321"
       cy="-39.375"
       fx="321"
       fy="-39.375"
       r="6"
       gradientTransform="matrix(-0.02083187,1.7291667,-1.6873781,-0.02032843,261.24652,-595.23794)"
       gradientUnits="userSpaceOnUse" />
    <filter
       inkscape:collect="always"
       id="filter4180"
       x="-0.23999999"
       width="1.48"
       y="-0.23999999"
       height="1.48"
       color-interpolation-filters="sRGB">
      <feGaussianBlur
         inkscape:collect="always"
         stdDeviation="0.375"
         id="feGaussianBlur4182" />
    </filter>
    <linearGradient
       inkscape:collect="always"
       xlink:href="#linearGradient3772"
       id="linearGradient3395"
       gradientUnits="userSpaceOnUse"
       gradientTransform="translate(-22.000012,0.937501)"
       x1="288.78125"
       y1="19.15625"
       x2="290.78125"
       y2="17.03125" />
    <linearGradient
       inkscape:collect="always"
       xlink:href="#linearGradient3910"
       id="linearGradient3399"
       gradientUnits="userSpaceOnUse"
       gradientTransform="translate(-22.000012,0.937501)"
       x1="288.125"
       y1="18.625"
       x2="291.5625"
       y2="26.1875" />
    <linearGradient
       inkscape:collect="always"
       xlink:href="#linearGradient4477"
       id="linearGradient3401"
       gradientUnits="userSpaceOnUse"
       gradientTransform="translate(-22.000012,0.937501)"
       x1="291.5625"
       y1="31.3125"
       x2="291.5"
       y2="22.375" />
    <radialGradient
       inkscape:collect="always"
       xlink:href="#linearGradient3877"
       id="radialGradient3566"
       gradientUnits="userSpaceOnUse"
       gradientTransform="matrix(2.5565351e-7,2.0000003,-2.0000003,2.5587876e-7,233.99945,-622.00003)"
       cx="319.99997"
       cy="-28.000002"
       fx="319.99997"
       fy="-28.000002"
       r="6" />
    <linearGradient
       inkscape:collect="always"
       xlink:href="#linearGradient3745"
       id="linearGradient3568"
       gradientUnits="userSpaceOnUse"
       gradientTransform="matrix(1.1000001,0,0,1.1000001,-64.250451,12.449998)"
       x1="322.04544"
       y1="15.954545"
       x2="321.875"
       y2="4.5" />
    <linearGradient
       inkscape:collect="always"
       xlink:href="#linearGradient3708"
       id="linearGradient3714"
       x1="304"
       y1="-5.5"
       x2="304"
       y2="1"
       gradientUnits="userSpaceOnUse"
       gradientTransform="translate(-16,-1)" />
    <linearGradient
       inkscape:collect="always"
       xlink:href="#linearGradient3910"
       id="linearGradient3718"
       gradientUnits="userSpaceOnUse"
       gradientTransform="translate(-38,-15.0625)"
       x1="288.125"
       y1="18.625"
       x2="291.5625"
       y2="26.1875" />
    <linearGradient
       inkscape:collect="always"
       xlink:href="#linearGradient4477"
       id="linearGradient3720"
       gradientUnits="userSpaceOnUse"
       gradientTransform="translate(-38,-15.0625)"
       x1="291.5625"
       y1="31.3125"
       x2="291.5"
       y2="22.375" />
    <linearGradient
       inkscape:collect="always"
       xlink:href="#linearGradient4155"
       id="linearGradient3722"
       gradientUnits="userSpaceOnUse"
       gradientTransform="translate(-38,-15)"
       x1="286.69965"
       y1="30.125"
       x2="286.34903"
       y2="20.6875" />
    <linearGradient
       inkscape:collect="always"
       xlink:href="#linearGradient3772"
       id="linearGradient3724"
       gradientUnits="userSpaceOnUse"
       gradientTransform="translate(-38,-15.0625)"
       x1="288.78125"
       y1="19.15625"
       x2="290.78125"
       y2="17.03125" />
    <linearGradient
       inkscape:collect="always"
       xlink:href="#linearGradient3877"
       id="linearGradient3743"
       x1="2"
       y1="21.375"
       x2="13"
       y2="27.0625"
       gradientUnits="userSpaceOnUse"
       gradientTransform="translate(288,-32)" />
    <filter
       id="filter2934"
       inkscape:label="Colorize"
       inkscape:menu="Color"
       inkscape:menu-tooltip="Blend image or object with a flood color and set lightness and contrast"
       x="0"
       y="0"
       width="1"
       height="1"
       color-interpolation-filters="sRGB">
      <feColorMatrix
         id="feColorMatrix2936"
         values="1"
         in="SourceGraphic"
         type="saturate"
         result="result2" />
      <feFlood
         id="feFlood2938"
         flood-color="rgb(107,107,107)"
         flood-opacity="1"
         result="result1" />
      <feBlend
         id="feBlend2940"
         in2="result2"
         mode="multiply"
         in="result1"
         result="result3" />
      <feComposite
         id="feComposite2942"
         in2="SourceGraphic"
         operator="in"
         result="result4" />
    </filter>
    <linearGradient
       inkscape:collect="always"
       xlink:href="#linearGradient3877"
       id="linearGradient4052"
       gradientUnits="userSpaceOnUse"
       gradientTransform="translate(48,-16)"
       x1="273.5"
       y1="1.6875"
       x2="286.5625"
       y2="13.75" />
  </defs>
  <sodipodi:namedview
     id="base"
     pagecolor="#6f6f6f"
     bordercolor="#666666"
     borderopacity="1.0"
     inkscape:pageopacity="0"
     inkscape:pageshadow="2"
     inkscape:zoom="8"
     inkscape:cx="48.070672"
     inkscape:cy="14.090179"
     inkscape:document-units="px"
     inkscape:current-layer="layer1"
     showguides="true"
     showgrid="true"
     inkscape:showpageshadow="false"
     gridtolerance="0.4px"
     inkscape:guide-bbox="true"
     inkscape:window-width="1680"
     inkscape:window-height="949"
     inkscape:window-x="0"
     inkscape:window-y="25"
     inkscape:window-maximized="1">
    <sodipodi:guide
       orientation="vertical"
       position="-224,0"
       id="guide1309" />
    <sodipodi:guide
       orientation="vertical"
       position="-208,0"
       id="guide1311" />
    <sodipodi:guide
       orientation="vertical"
       position="-192,0"
       id="guide2246" />
    <sodipodi:guide
       orientation="vertical"
       position="-176,0"
       id="guide3168" />
    <sodipodi:guide
       orientation="vertical"
       position="-160,36.0625"
       id="guide3170" />
    <sodipodi:guide
       orientation="vertical"
       position="-144,0"
       id="guide3172" />
    <sodipodi:guide
       orientation="vertical"
       position="-128,0"
       id="guide8460" />
    <sodipodi:guide
       orientation="horizontal"
       position="-215.1875,0"
       id="guide1533" />
    <sodipodi:guide
       orientation="vertical"
       position="-112,0"
       id="guide1535" />
    <sodipodi:guide
       orientation="vertical"
       position="-96,0"
       id="guide1602" />
    <sodipodi:guide
       orientation="vertical"
       position="-240,0"
       id="guide2635" />
    <sodipodi:guide
       orientation="vertical"
       position="-80,0"
       id="guide2637" />
    <sodipodi:guide
       orientation="vertical"
       position="32,0"
       id="guide1789" />
    <sodipodi:guide
       orientation="vertical"
       position="-64,0"
       id="guide1764" />
    <sodipodi:guide
       orientation="vertical"
       position="-48,0"
       id="guide1765" />
    <sodipodi:guide
       orientation="vertical"
       position="-32,0"
       id="guide2677" />
    <sodipodi:guide
       orientation="vertical"
       position="16,0"
       id="guide2679" />
    <sodipodi:guide
       orientation="vertical"
       position="-16,0"
       id="guide3556" />
    <sodipodi:guide
       orientation="vertical"
       position="0,0"
       id="guide3558" />
    <sodipodi:guide
       orientation="vertical"
       position="-184,0"
       id="guide7001" />
    <sodipodi:guide
       orientation="horizontal"
       position="-240,32"
       id="guide2646" />
    <inkscape:grid
       id="GridFromPre046Settings"
       type="xygrid"
       originx="0px"
       originy="0px"
       spacingx="1px"
       spacingy="1px"
       color="#3f3fff"
       empcolor="#b73fff"
       opacity="0.15294118"
       empopacity="0.3372549"
       empspacing="8"
       visible="true"
       enabled="true"
       snapvisiblegridlinesonly="false" />
  </sodipodi:namedview>
  <metadata
     id="metadata7">
    <rdf:RDF>
      <cc:Work
         rdf:about="">
        <dc:format>image/svg+xml</dc:format>
        <dc:type
           rdf:resource="http://purl.org/dc/dcmitype/StillImage" />
        <dc:title></dc:title>
      </cc:Work>
      <cc:Work
         rdf:about="">
        <dc:format>image/svg+xml</dc:format>
        <dc:type
           rdf:resource="http://purl.org/dc/dcmitype/StillImage" />
      </cc:Work>
    </rdf:RDF>
  </metadata>
  <g
     inkscape:label="Calque 1"
     inkscape:groupmode="layer"
     id="layer1"
     transform="translate(-240,16)">
    <path
       style="fill:#555555;fill-opacity:1;fill-rule:nonzero;stroke:none"
       d="M 344,2 L 338.5,7 L 341.25,7 L 344,4.5 L 346.75,7 L 349.5,7 L 344,2 z"
       id="up3"
       sodipodi:nodetypes="ccccccc"
       inkscape:export-filename="/home/brice/dev/ekylibre/app/assets/images/themes/tekyla/list/sort-up.png"
       inkscape:export-xdpi="90"
       inkscape:export-ydpi="90" />
    <g
       id="checked"
       transform="translate(-46,57.999999)">
      <title
         id="title2915">Checked</title>
      <rect
         inkscape:export-ydpi="90"
         inkscape:export-xdpi="90"
         inkscape:export-filename="/home/brice/dev/ekylibre/public/images/buttons/true.png"
         style="fill:url(#radialGradient3885);fill-opacity:1;fill-rule:nonzero;stroke:url(#linearGradient3093);stroke-width:1;stroke-linecap:round;stroke-linejoin:miter;stroke-miterlimit:4;stroke-opacity:1;stroke-dasharray:none;stroke-dashoffset:0"
         id="rect3087"
         width="11"
         height="11.000001"
         x="320.5"
         y="-39.5" />
      <path
         inkscape:export-ydpi="90"
         inkscape:export-xdpi="90"
         inkscape:export-filename="/home/brice/dev/ekylibre/public/images/buttons/true.png"
         d="M 322,-36 L 325,-33 L 330.00006,-38 L 330.00006,-35 L 325,-30 L 322,-33 L 322,-36 z"
         id="path3089"
         style="fill:#1fbf06;fill-opacity:1;fill-rule:nonzero;stroke:none"
         sodipodi:nodetypes="ccccccc" />
    </g>
    <rect
       inkscape:export-ydpi="90"
       inkscape:export-xdpi="90"
       inkscape:export-filename="/home/brice/Informatique/Developpement/ekylibre/trunk/ekylibre/public/images/buttons/checkbox_true.png"
       style="fill:url(#radialGradient3566);fill-opacity:1;fill-rule:nonzero;stroke:url(#linearGradient3568);stroke-width:1;stroke-linecap:round;stroke-linejoin:miter;stroke-miterlimit:4;stroke-opacity:1;stroke-dasharray:none;stroke-dashoffset:0"
       id="use3091"
       width="11"
       height="11.000001"
       x="290.49957"
       y="18.5" />
    <g
       id="export"
       transform="translate(0,16.000001)">
      <title
         id="title2911">Export</title>
      <path
         inkscape:export-ydpi="90"
         inkscape:export-xdpi="90"
         inkscape:export-filename="/home/brice/dev/ekylibre/trunk/public/templates/tekyla/images/buttons/spreadsheet.png"
         sodipodi:nodetypes="cccccc"
         id="rect3245"
         d="M 242.5,1.4375 L 250,1.4375 L 253.5,4.9375 L 253.5,15.499999 L 242.5,15.499999 L 242.5,1.4375 z"
         style="fill:url(#linearGradient3718);fill-opacity:1;fill-rule:nonzero;stroke:url(#linearGradient3720);stroke-width:1;stroke-linecap:square;stroke-linejoin:miter;stroke-miterlimit:4;stroke-opacity:1;stroke-dashoffset:0" />
      <path
         sodipodi:nodetypes="cccccccccccccccccccccccccccccccccccccccccccccccccccccccccccccccccccccccccccccc"
         id="path4046"
         d="M 249,3 L 247,3 L 246,3 L 243.9375,3 L 243.9375,4 L 246,4 L 246,5 L 243.9375,5 L 243.9375,6 L 246,6 L 246,7 L 243.9375,7 L 243.9375,8 L 246,8 L 246,9 L 243.9375,9 L 243.9375,10 L 246,10 L 246,11 L 243.9375,11 L 243.9375,12 L 246,12 L 246,13 L 243.9375,13 L 243.9375,14 L 246,14 L 247,14 L 249,14 L 250,14 L 252.0625,14 L 252.0625,13 L 250,13 L 250,12 L 252.0625,12 L 252.0625,11 L 250,11 L 250,10 L 252.0625,10 L 252.0625,9 L 250,9 L 250,8 L 252.0625,8 L 252.0625,7 L 250,7 L 250,6 L 252.0625,6 L 252.0625,5 L 250,5 L 250,4 L 252.0625,4 L 252.0625,3 L 250,3 L 249,3 z M 247,4 L 249,4 L 249,5 L 247,5 L 247,4 z M 247,6 L 249,6 L 249,7 L 247,7 L 247,6 z M 247,8 L 249,8 L 249,9 L 247,9 L 247,8 z M 247,10 L 249,10 L 249,11 L 247,11 L 247,10 z M 247,12 L 249,12 L 249,13 L 247,13 L 247,12 z"
         style="opacity:0.42019546;fill:url(#linearGradient3722);fill-opacity:1;fill-rule:evenodd;stroke:none" />
      <path
         transform="matrix(1.007391,0,0,0.9278885,-40.065659,-13.973616)"
         sodipodi:nodetypes="cccc"
         id="path4174"
         d="M 287.9375,16 C 286.60301,17.138362 285.92331,18.101183 286.375,22 C 289.6852,22.01426 291.28477,21.668884 291.4375,20.1875 L 287.9375,16 z"
         style="opacity:0.41891892;fill:#000000;fill-opacity:1;fill-rule:evenodd;stroke:none;filter:url(#filter4180)" />
      <path
         sodipodi:nodetypes="cccc"
         id="path4172"
         d="M 250.5,1.4375 L 250.5,4.4375 L 253.5,4.4375 L 250.5,1.4375 z"
         style="fill:#ffffff;fill-opacity:1;fill-rule:evenodd;stroke:url(#linearGradient3724);stroke-width:1px;stroke-linecap:butt;stroke-linejoin:round;stroke-opacity:1" />
    </g>
    <path
       inkscape:export-ydpi="90"
       inkscape:export-xdpi="90"
       inkscape:export-filename="/home/brice/dev/ekylibre/trunk/public/themes/tekyla/images/buttons/page.png"
       sodipodi:nodetypes="cccccc"
       id="pages"
       d="M 258.5,17.437501 L 265.99999,17.437501 L 269.5,20.937501 L 269.5,31.5 L 258.5,31.5 L 258.5,17.437501 z"
       style="fill:url(#linearGradient3399);fill-opacity:1;fill-rule:nonzero;stroke:url(#linearGradient3401);stroke-width:1;stroke-linecap:square;stroke-linejoin:miter;stroke-miterlimit:4;stroke-opacity:1;stroke-dashoffset:0"
       inkscape:label="#pages">
      <title
         id="title2913">Pages</title>
    </path>
    <path
       inkscape:export-ydpi="90"
       inkscape:export-xdpi="90"
       inkscape:export-filename="/home/brice/dev/ekylibre/trunk/public/themes/tekyla/images/buttons/page.png"
       transform="matrix(1.007391,0,0,0.9278885,-24.065671,2.026384)"
       sodipodi:nodetypes="cccc"
       id="path4198"
       d="M 287.9375,16 C 286.60301,17.138362 285.92331,18.101183 286.375,22 C 289.6852,22.01426 291.28477,21.668884 291.4375,20.1875 L 287.9375,16 z"
       style="opacity:0.41891892;fill:#000000;fill-opacity:1;fill-rule:evenodd;stroke:none;filter:url(#filter4180)" />
    <path
       inkscape:export-ydpi="90"
       inkscape:export-xdpi="90"
       inkscape:export-filename="/home/brice/dev/ekylibre/trunk/public/themes/tekyla/images/buttons/page.png"
       sodipodi:nodetypes="cccc"
       id="path4200"
       d="M 266.5,17.437501 L 266.5,20.437501 L 269.5,20.437501 L 266.5,17.437501 z"
       style="fill:#ffffff;fill-opacity:1;fill-rule:evenodd;stroke:url(#linearGradient3395);stroke-width:1px;stroke-linecap:butt;stroke-linejoin:round;stroke-opacity:1" />
    <path
       style="fill:#555555;fill-opacity:1;fill-rule:nonzero;stroke:none"
       d="M 247.12495,-16 L 246.8437,-14.71875 L 246.6562,-13.5 L 245.37495,-13 L 244.4062,-13.78125 L 243.3437,-14.5625 L 241.68745,-13.03125 L 242.43745,-11.9375 L 243.1562,-10.9375 L 242.5937,-9.6875 L 241.3437,-9.53125 L 240.0312,-9.34375 L 240,-7.124999 L 241.28125,-6.84375 L 242.5,-6.65625 L 243,-5.374999 L 242.21875,-4.40625 L 241.4375,-3.34375 L 242.96875,-1.6875 L 244.0625,-2.4375 L 245.0625,-3.15625 L 246.3125,-2.59375 L 246.46875,-1.34375 L 246.65625,-0.03125 L 248.875,0 L 249.15625,-1.28125 L 249.34375,-2.5 L 250.625,-3 L 251.59375,-2.21875 L 252.65625,-1.4375 L 254.3125,-2.96875 L 253.5625,-4.0625 L 252.84375,-5.0625 L 253.40625,-6.3125 L 254.65625,-6.46875 L 255.96875,-6.65625 L 255.99995,-8.874999 L 254.7187,-9.15625 L 253.49995,-9.34375 L 252.99995,-10.625001 L 253.7812,-11.59375 L 254.56245,-12.65625 L 253.0312,-14.3125 L 251.93745,-13.5625 L 250.93745,-12.84375 L 249.68745,-13.40625 L 249.5312,-14.65625 L 249.3437,-15.96875 L 247.12495,-16 z M 247.9687,-11 C 249.62457,-11.01914 250.97965,-9.687137 250.99995,-8.03125 C 251.02025,-6.375363 249.68706,-5.019141 248.0312,-5 C 246.37533,-4.98086 245.02025,-6.312863 244.99995,-7.96875 C 244.97965,-9.624637 246.31284,-10.980858 247.9687,-11 z"
       id="path4226-90"
       inkscape:export-filename="/home/brice/dev/ekylibre/trunk/public/themes/tekyla/images/buttons/list-start.png"
       inkscape:export-xdpi="90"
       inkscape:export-ydpi="90" />
    <path
       sodipodi:nodetypes="ccccccc"
       style="fill:#555555;fill-opacity:1;fill-rule:nonzero;stroke:none"
       id="path2947-4"
       d="M 258.99995,-10.979318 L 262.8947,-7.098265 L 268.99995,-13 L 268.99995,-9.027149 L 262.8947,-3 L 258.99995,-6.896331 L 258.99995,-10.979318 z" />
    <path
       style="font-size:medium;font-style:normal;font-variant:normal;font-weight:normal;font-stretch:normal;text-indent:0;text-align:start;text-decoration:none;line-height:normal;letter-spacing:normal;word-spacing:normal;text-transform:none;direction:ltr;block-progression:tb;writing-mode:lr-tb;text-anchor:start;color:#000000;fill:url(#linearGradient3714);fill-opacity:1;stroke:none;stroke-width:1px;marker:none;visibility:visible;display:inline;overflow:visible;enable-background:accumulate;font-family:Arial;-inkscape-font-specification:Arial"
       d="M 272,-16 L 272,0 L 274,0 L 274,-10 L 279,-10 L 279,0 L 281,0 L 281,-10 L 286,-10 L 286,0 L 288,0 L 288,-16 L 272,-16 z M 274,-14 L 279,-14 L 279,-12 L 274,-12 L 274,-14 z M 281,-14 L 286,-14 L 286,-12 L 281,-12 L 281,-14 z"
       id="path2917"
       sodipodi:nodetypes="ccccccccccccccccccccccc"
       inkscape:export-xdpi="90"
       inkscape:export-ydpi="90"
       inkscape:export-filename="/home/brice/dev/ekylibre/app/assets/images/themes/tekyla/list/columns.png" />
    <path
       style="fill:url(#linearGradient3743);fill-opacity:1;stroke:none"
       d="M 290,-15 L 297.1875,-15 L 301,-11.5 L 301,-1 L 290,-1 L 290,-15 z"
       id="path3735"
       sodipodi:nodetypes="cccccc" />
    <path
       style="font-size:medium;font-style:normal;font-variant:normal;font-weight:normal;font-stretch:normal;text-indent:0;text-align:start;text-decoration:none;line-height:normal;letter-spacing:normal;word-spacing:normal;text-transform:none;direction:ltr;block-progression:tb;writing-mode:lr-tb;text-anchor:start;color:#000000;fill:#555555;fill-opacity:1;stroke:none;stroke-width:2;marker:none;visibility:visible;display:inline;overflow:visible;enable-background:accumulate;font-family:Arial;-inkscape-font-specification:Arial"
       d="M 289,-16 L 289,0 L 302,0 L 302,-11.9375 L 297.875,-16 L 289,-16 z M 291,-14 L 297,-14 L 297,-11 L 300,-11 L 300,-2 L 291,-2 L 291,-14 z"
       id="path2913"
       sodipodi:nodetypes="ccccccccccccc" />
    <path
       style="font-size:medium;font-style:normal;font-variant:normal;font-weight:normal;font-stretch:normal;text-indent:0;text-align:start;text-decoration:none;line-height:normal;letter-spacing:normal;word-spacing:normal;text-transform:none;direction:ltr;block-progression:tb;writing-mode:lr-tb;text-anchor:start;color:#000000;fill:#555555;fill-opacity:1;stroke:none;stroke-width:1.99999988;marker:none;visibility:visible;display:inline;overflow:visible;enable-background:accumulate;font-family:Arial;-inkscape-font-specification:Arial"
       d="M 306,-15 L 306,-13 L 318,-13 L 318,-15 L 306,-15 z M 306,-11 L 306,-9 L 318,-9 L 318,-11 L 306,-11 z M 306,-7 L 306,-5 L 318,-5 L 318,-7 L 306,-7 z M 306,-3 L 306,-1 L 318,-1 L 318,-3 L 306,-3 z"
       id="path3691"
       inkscape:export-filename="/home/brice/dev/ekylibre/app/assets/images/themes/tekyla/list/pages.png"
       inkscape:export-xdpi="90"
       inkscape:export-ydpi="90" />
    <rect
       style="fill:url(#linearGradient4052);fill-opacity:1;stroke:#555555;stroke-width:2;stroke-linecap:butt;stroke-linejoin:miter;stroke-miterlimit:4;stroke-opacity:1;stroke-dasharray:none"
       id="rect3723"
       width="14"
       height="14"
       x="321"
       y="-15"
       inkscape:export-filename="/home/brice/dev/ekylibre/app/assets/images/themes/tekyla/list/checked.png"
       inkscape:export-xdpi="90"
       inkscape:export-ydpi="90" />
    <use
       x="0"
       y="0"
       xlink:href="#path2947-4"
       id="use2939"
       transform="translate(64.00005,0)"
       width="96"
       height="32" />
    <rect
       style="fill:none;stroke:#5555ff;stroke-width:2;stroke-linecap:butt;stroke-linejoin:miter;stroke-miterlimit:4;stroke-opacity:0;stroke-dasharray:none"
       id="rect2943"
       width="14"
       height="14"
       x="321"
       y="-15" />
    <use
       x="0"
       y="0"
       xlink:href="#rect3723"
       id="use3733"
       transform="translate(16,0)"
       width="96"
       height="32"
       inkscape:export-filename="/home/brice/dev/ekylibre/app/assets/images/themes/tekyla/list/unchecked.png"
       inkscape:export-xdpi="90"
       inkscape:export-ydpi="90" />
    <use
       x="0"
       y="0"
       xlink:href="#up3"
       id="use2924"
       transform="matrix(1,0,0,-1,0,15.999994)"
       width="96"
       height="32"
       inkscape:export-filename="/home/brice/dev/ekylibre/app/assets/images/themes/tekyla/list/sort-down.png"
       inkscape:export-xdpi="90"
       inkscape:export-ydpi="90"
       style="fill:#555555;fill-opacity:1" />
    <path
       style="fill:#555555;fill-opacity:1;fill-rule:nonzero;stroke:none"
       d="M 315.4375,21.5 L 310.4375,16.5 L 320.4375,16.5 L 315.4375,21.5 z"
       id="path4015-8"
       sodipodi:nodetypes="cccc" />
    <path
       style="fill:#555555;fill-opacity:1;fill-rule:nonzero;stroke:none"
       d="M 275,8 L 281.375,0 L 284,0 L 277.625,8 L 284,16 L 281.375,16 L 275,8 z"
       id="path4015-8-4-6-8"
       sodipodi:nodetypes="ccccccc"
       inkscape:export-filename="/home/brice/dev/ekylibre/app/assets/images/themes/tekyla/list/home.png"
       inkscape:export-xdpi="90"
       inkscape:export-ydpi="90" />
    <g
       id="g3914"
       transform="translate(-1,32)"
       inkscape:export-filename="/home/brice/dev/ekylibre/app/assets/images/themes/tekyla/list/previous-page.png"
       inkscape:export-xdpi="90"
       inkscape:export-ydpi="90">
      <path
         style="fill:#baba6b;stroke:none;stroke-width:1px;stroke-linecap:butt;stroke-linejoin:miter;stroke-opacity:1;fill-opacity:0.52916664"
         d="M 24.4375,16 L 18.75,24 L 24.5625,32 L 29.875,32 L 24,24 L 29.8125,16 L 24.4375,16 z"
         id="path4056"
         transform="translate(241,-48)"
         sodipodi:nodetypes="ccccccc" />
      <use
         height="32"
         width="96"
         transform="translate(-12,-32)"
         id="use3904"
         xlink:href="#path4015-8-4-6-8"
         y="0"
         x="0" />
      <use
         height="32"
         width="96"
         transform="translate(-17,-32)"
         id="use3906"
         xlink:href="#path4015-8-4-6-8"
         y="0"
         x="0" />
    </g>
    <g
       id="g3958"
       transform="translate(0,32)"
       inkscape:export-filename="/home/brice/dev/ekylibre/app/assets/images/themes/tekyla/list/begin.png"
       inkscape:export-xdpi="90"
       inkscape:export-ydpi="90">
      <use
         height="32"
         width="96"
         transform="translate(-15,-32)"
         id="use3918"
         xlink:href="#g3914"
         y="0"
         x="0" />
      <rect
         inkscape:export-ydpi="90"
         inkscape:export-xdpi="90"
         inkscape:export-filename="/home/brice/dev/ekylibre/app/assets/images/themes/tekyla/list/home.png"
         y="-32"
         x="240"
         height="16"
         width="2"
         id="rect2994-3-0"
         style="fill:#555555;fill-opacity:1;fill-rule:nonzero;stroke:none" />
    </g>
    <use
       x="0"
       y="0"
       xlink:href="#path4015-8-4-6-8"
       id="use3962"
       transform="matrix(-1,0,0,1,576,0)"
       width="96"
       height="32" />
    <use
       x="0"
       y="0"
       xlink:href="#g3914"
       id="use3964"
       transform="matrix(-1,0,0,1,576,0)"
       width="96"
       height="32" />
    <use
       x="0"
       y="0"
       xlink:href="#g3958"
       id="use3966"
       transform="matrix(-1,0,0,1,576,0)"
       width="96"
       height="32"
       inkscape:export-filename="/home/brice/dev/ekylibre/app/assets/images/themes/tekyla/list/end.png"
       inkscape:export-xdpi="90"
       inkscape:export-ydpi="90" />
    <path
       inkscape:export-ydpi="90"
       inkscape:export-xdpi="90"
       inkscape:export-filename="/home/brice/dev/ekylibre/app/assets/images/themes/tekyla/list/sort.png"
       sodipodi:nodetypes="cccc"
       id="path4177"
       d="M 346.375,21.875 L 340.875,26.875 L 351.875,26.875 L 346.375,21.875 z"
       style="fill:#555555;fill-opacity:1;fill-rule:nonzero;stroke:none" />
    <use
       style="fill:#555555;fill-opacity:1"
       inkscape:export-ydpi="90"
       inkscape:export-xdpi="90"
       inkscape:export-filename="/home/brice/dev/ekylibre/app/assets/images/themes/tekyla/list/sort.png"
       height="32"
       width="96"
       transform="matrix(1,0,0,-1,2.375,35.874994)"
       id="use4179"
       xlink:href="#up3"
       y="0"
       x="0" />
  </g>
</svg>
