<?xml version="1.0" encoding="UTF-8" standalone="no"?>
<!-- Created with Inkscape (http://www.inkscape.org/) -->

<svg
   xmlns:dc="http://purl.org/dc/elements/1.1/"
   xmlns:cc="http://creativecommons.org/ns#"
   xmlns:rdf="http://www.w3.org/1999/02/22-rdf-syntax-ns#"
   xmlns:svg="http://www.w3.org/2000/svg"
   xmlns="http://www.w3.org/2000/svg"
   xmlns:xlink="http://www.w3.org/1999/xlink"
   xmlns:sodipodi="http://sodipodi.sourceforge.net/DTD/sodipodi-0.dtd"
   xmlns:inkscape="http://www.inkscape.org/namespaces/inkscape"
   width="600"
   height="100"
   id="svg2"
   version="1.1"
   inkscape:version="0.47 r22583"
   sodipodi:docname="menus.svg">
  <defs
     id="defs4">
    <inkscape:perspective
       sodipodi:type="inkscape:persp3d"
       inkscape:vp_x="84.5 : -2824.7521 : 1"
       inkscape:vp_y="0 : 1000 : 0"
       inkscape:vp_z="573.59448 : -2793.7521 : 1"
       inkscape:persp3d-origin="268.54724 : -2724.1458 : 1"
       id="perspective10" />
    <inkscape:perspective
       id="perspective3678"
       inkscape:persp3d-origin="0.5 : 0.33333333 : 1"
       inkscape:vp_z="1 : 0.5 : 1"
       inkscape:vp_y="0 : 1000 : 0"
       inkscape:vp_x="0 : 0.5 : 1"
       sodipodi:type="inkscape:persp3d" />
    <inkscape:perspective
       id="perspective3694"
       inkscape:persp3d-origin="0.5 : 0.33333333 : 1"
       inkscape:vp_z="1 : 0.5 : 1"
       inkscape:vp_y="0 : 1000 : 0"
       inkscape:vp_x="0 : 0.5 : 1"
       sodipodi:type="inkscape:persp3d" />
    <inkscape:perspective
       id="perspective3719"
       inkscape:persp3d-origin="0.5 : 0.33333333 : 1"
       inkscape:vp_z="1 : 0.5 : 1"
       inkscape:vp_y="0 : 1000 : 0"
       inkscape:vp_x="0 : 0.5 : 1"
       sodipodi:type="inkscape:persp3d" />
    <inkscape:perspective
       id="perspective3741"
       inkscape:persp3d-origin="0.5 : 0.33333333 : 1"
       inkscape:vp_z="1 : 0.5 : 1"
       inkscape:vp_y="0 : 1000 : 0"
       inkscape:vp_x="0 : 0.5 : 1"
       sodipodi:type="inkscape:persp3d" />
    <inkscape:perspective
       id="perspective3872"
       inkscape:persp3d-origin="0.5 : 0.33333333 : 1"
       inkscape:vp_z="1 : 0.5 : 1"
       inkscape:vp_y="0 : 1000 : 0"
       inkscape:vp_x="0 : 0.5 : 1"
       sodipodi:type="inkscape:persp3d" />
    <inkscape:perspective
       id="perspective3910"
       inkscape:persp3d-origin="0.5 : 0.33333333 : 1"
       inkscape:vp_z="1 : 0.5 : 1"
       inkscape:vp_y="0 : 1000 : 0"
       inkscape:vp_x="0 : 0.5 : 1"
       sodipodi:type="inkscape:persp3d" />
    <inkscape:perspective
       id="perspective3910-6"
       inkscape:persp3d-origin="0.5 : 0.33333333 : 1"
       inkscape:vp_z="1 : 0.5 : 1"
       inkscape:vp_y="0 : 1000 : 0"
       inkscape:vp_x="0 : 0.5 : 1"
       sodipodi:type="inkscape:persp3d" />
    <inkscape:perspective
       id="perspective3910-9"
       inkscape:persp3d-origin="0.5 : 0.33333333 : 1"
       inkscape:vp_z="1 : 0.5 : 1"
       inkscape:vp_y="0 : 1000 : 0"
       inkscape:vp_x="0 : 0.5 : 1"
       sodipodi:type="inkscape:persp3d" />
    <inkscape:perspective
       id="perspective3910-7"
       inkscape:persp3d-origin="0.5 : 0.33333333 : 1"
       inkscape:vp_z="1 : 0.5 : 1"
       inkscape:vp_y="0 : 1000 : 0"
       inkscape:vp_x="0 : 0.5 : 1"
       sodipodi:type="inkscape:persp3d" />
    <inkscape:perspective
       id="perspective3910-1"
       inkscape:persp3d-origin="0.5 : 0.33333333 : 1"
       inkscape:vp_z="1 : 0.5 : 1"
       inkscape:vp_y="0 : 1000 : 0"
       inkscape:vp_x="0 : 0.5 : 1"
       sodipodi:type="inkscape:persp3d" />
    <inkscape:perspective
       id="perspective3910-8"
       inkscape:persp3d-origin="0.5 : 0.33333333 : 1"
       inkscape:vp_z="1 : 0.5 : 1"
       inkscape:vp_y="0 : 1000 : 0"
       inkscape:vp_x="0 : 0.5 : 1"
       sodipodi:type="inkscape:persp3d" />
    <inkscape:perspective
       id="perspective3910-4"
       inkscape:persp3d-origin="0.5 : 0.33333333 : 1"
       inkscape:vp_z="1 : 0.5 : 1"
       inkscape:vp_y="0 : 1000 : 0"
       inkscape:vp_x="0 : 0.5 : 1"
       sodipodi:type="inkscape:persp3d" />
    <inkscape:perspective
       id="perspective3910-2"
       inkscape:persp3d-origin="0.5 : 0.33333333 : 1"
       inkscape:vp_z="1 : 0.5 : 1"
       inkscape:vp_y="0 : 1000 : 0"
       inkscape:vp_x="0 : 0.5 : 1"
       sodipodi:type="inkscape:persp3d" />
    <inkscape:perspective
       id="perspective3910-0"
       inkscape:persp3d-origin="0.5 : 0.33333333 : 1"
       inkscape:vp_z="1 : 0.5 : 1"
       inkscape:vp_y="0 : 1000 : 0"
       inkscape:vp_x="0 : 0.5 : 1"
       sodipodi:type="inkscape:persp3d" />
    <inkscape:perspective
       id="perspective4021"
       inkscape:persp3d-origin="0.5 : 0.33333333 : 1"
       inkscape:vp_z="1 : 0.5 : 1"
       inkscape:vp_y="0 : 1000 : 0"
       inkscape:vp_x="0 : 0.5 : 1"
       sodipodi:type="inkscape:persp3d" />
    <inkscape:perspective
       id="perspective4051"
       inkscape:persp3d-origin="0.5 : 0.33333333 : 1"
       inkscape:vp_z="1 : 0.5 : 1"
       inkscape:vp_y="0 : 1000 : 0"
       inkscape:vp_x="0 : 0.5 : 1"
       sodipodi:type="inkscape:persp3d" />
    <inkscape:perspective
       id="perspective4051-0"
       inkscape:persp3d-origin="0.5 : 0.33333333 : 1"
       inkscape:vp_z="1 : 0.5 : 1"
       inkscape:vp_y="0 : 1000 : 0"
       inkscape:vp_x="0 : 0.5 : 1"
       sodipodi:type="inkscape:persp3d" />
    <inkscape:perspective
       id="perspective4051-2"
       inkscape:persp3d-origin="0.5 : 0.33333333 : 1"
       inkscape:vp_z="1 : 0.5 : 1"
       inkscape:vp_y="0 : 1000 : 0"
       inkscape:vp_x="0 : 0.5 : 1"
       sodipodi:type="inkscape:persp3d" />
    <inkscape:perspective
       id="perspective4184"
       inkscape:persp3d-origin="0.5 : 0.33333333 : 1"
       inkscape:vp_z="1 : 0.5 : 1"
       inkscape:vp_y="0 : 1000 : 0"
       inkscape:vp_x="0 : 0.5 : 1"
       sodipodi:type="inkscape:persp3d" />
    <inkscape:perspective
       id="perspective4356"
       inkscape:persp3d-origin="0.5 : 0.33333333 : 1"
       inkscape:vp_z="1 : 0.5 : 1"
       inkscape:vp_y="0 : 1000 : 0"
       inkscape:vp_x="0 : 0.5 : 1"
       sodipodi:type="inkscape:persp3d" />
    <inkscape:perspective
       id="perspective4455"
       inkscape:persp3d-origin="0.5 : 0.33333333 : 1"
       inkscape:vp_z="1 : 0.5 : 1"
       inkscape:vp_y="0 : 1000 : 0"
       inkscape:vp_x="0 : 0.5 : 1"
       sodipodi:type="inkscape:persp3d" />
    <inkscape:perspective
       id="perspective4633"
       inkscape:persp3d-origin="0.5 : 0.33333333 : 1"
       inkscape:vp_z="1 : 0.5 : 1"
       inkscape:vp_y="0 : 1000 : 0"
       inkscape:vp_x="0 : 0.5 : 1"
       sodipodi:type="inkscape:persp3d" />
    <inkscape:perspective
       id="perspective4657"
       inkscape:persp3d-origin="0.5 : 0.33333333 : 1"
       inkscape:vp_z="1 : 0.5 : 1"
       inkscape:vp_y="0 : 1000 : 0"
       inkscape:vp_x="0 : 0.5 : 1"
       sodipodi:type="inkscape:persp3d" />
    <inkscape:perspective
       id="perspective4680"
       inkscape:persp3d-origin="0.5 : 0.33333333 : 1"
       inkscape:vp_z="1 : 0.5 : 1"
       inkscape:vp_y="0 : 1000 : 0"
       inkscape:vp_x="0 : 0.5 : 1"
       sodipodi:type="inkscape:persp3d" />
    <inkscape:perspective
       id="perspective4869"
       inkscape:persp3d-origin="0.5 : 0.33333333 : 1"
       inkscape:vp_z="1 : 0.5 : 1"
       inkscape:vp_y="0 : 1000 : 0"
       inkscape:vp_x="0 : 0.5 : 1"
       sodipodi:type="inkscape:persp3d" />
    <inkscape:perspective
       id="perspective4869-6"
       inkscape:persp3d-origin="0.5 : 0.33333333 : 1"
       inkscape:vp_z="1 : 0.5 : 1"
       inkscape:vp_y="0 : 1000 : 0"
       inkscape:vp_x="0 : 0.5 : 1"
       sodipodi:type="inkscape:persp3d" />
    <inkscape:perspective
       id="perspective5657"
       inkscape:persp3d-origin="0.5 : 0.33333333 : 1"
       inkscape:vp_z="1 : 0.5 : 1"
       inkscape:vp_y="0 : 1000 : 0"
       inkscape:vp_x="0 : 0.5 : 1"
       sodipodi:type="inkscape:persp3d" />
    <inkscape:perspective
       id="perspective5697"
       inkscape:persp3d-origin="0.5 : 0.33333333 : 1"
       inkscape:vp_z="1 : 0.5 : 1"
       inkscape:vp_y="0 : 1000 : 0"
       inkscape:vp_x="0 : 0.5 : 1"
       sodipodi:type="inkscape:persp3d" />
    <inkscape:perspective
       id="perspective5815"
       inkscape:persp3d-origin="0.5 : 0.33333333 : 1"
       inkscape:vp_z="1 : 0.5 : 1"
       inkscape:vp_y="0 : 1000 : 0"
       inkscape:vp_x="0 : 0.5 : 1"
       sodipodi:type="inkscape:persp3d" />
    <filter
       id="filter6085"
       y="-0.15"
       height="1.3"
       x="-0.15"
       width="1.3"
       inkscape:menu-tooltip="Aquarelle paper effect which can be used for pictures as for objects"
       inkscape:menu="Textures"
       inkscape:label="Rough paper"
       color-interpolation-filters="sRGB">
      <feTurbulence
         id="feTurbulence6087"
         type="fractalNoise"
         baseFrequency="0.0049999999999999966"
         numOctaves="5"
         seed="0"
         result="result4" />
      <feDisplacementMap
         id="feDisplacementMap6089"
         in2="result4"
         in="SourceGraphic"
         yChannelSelector="G"
         xChannelSelector="R"
         scale="10"
         result="result3" />
      <feDiffuseLighting
         id="feDiffuseLighting6091"
         lighting-color="rgb(233,230,215)"
         diffuseConstant="1"
         surfaceScale="2"
         result="result1"
         in="result4">
        <feDistantLight
           id="feDistantLight6093"
           azimuth="235"
           elevation="40" />
      </feDiffuseLighting>
      <feComposite
         id="feComposite6095"
         in2="result1"
         operator="in"
         in="result3"
         result="result2" />
      <feComposite
         id="feComposite6097"
         in2="result1"
         result="result5"
         operator="arithmetic"
         k1="1.7" />
      <feBlend
         id="feBlend6099"
         in2="result3"
         in="result5"
         mode="normal" />
    </filter>
    <inkscape:perspective
       id="perspective2912"
       inkscape:persp3d-origin="0.5 : 0.33333333 : 1"
       inkscape:vp_z="1 : 0.5 : 1"
       inkscape:vp_y="0 : 1000 : 0"
       inkscape:vp_x="0 : 0.5 : 1"
       sodipodi:type="inkscape:persp3d" />
    <inkscape:perspective
       id="perspective2912-5"
       inkscape:persp3d-origin="0.5 : 0.33333333 : 1"
       inkscape:vp_z="1 : 0.5 : 1"
       inkscape:vp_y="0 : 1000 : 0"
       inkscape:vp_x="0 : 0.5 : 1"
       sodipodi:type="inkscape:persp3d" />
    <inkscape:perspective
       id="perspective3715"
       inkscape:persp3d-origin="0.5 : 0.33333333 : 1"
       inkscape:vp_z="1 : 0.5 : 1"
       inkscape:vp_y="0 : 1000 : 0"
       inkscape:vp_x="0 : 0.5 : 1"
       sodipodi:type="inkscape:persp3d" />
    <inkscape:perspective
       id="perspective3737"
       inkscape:persp3d-origin="0.5 : 0.33333333 : 1"
       inkscape:vp_z="1 : 0.5 : 1"
       inkscape:vp_y="0 : 1000 : 0"
       inkscape:vp_x="0 : 0.5 : 1"
       sodipodi:type="inkscape:persp3d" />
    <inkscape:perspective
       id="perspective3759"
       inkscape:persp3d-origin="0.5 : 0.33333333 : 1"
       inkscape:vp_z="1 : 0.5 : 1"
       inkscape:vp_y="0 : 1000 : 0"
       inkscape:vp_x="0 : 0.5 : 1"
       sodipodi:type="inkscape:persp3d" />
    <inkscape:perspective
       id="perspective3703"
       inkscape:persp3d-origin="0.5 : 0.33333333 : 1"
       inkscape:vp_z="1 : 0.5 : 1"
       inkscape:vp_y="0 : 1000 : 0"
       inkscape:vp_x="0 : 0.5 : 1"
       sodipodi:type="inkscape:persp3d" />
    <inkscape:perspective
       id="perspective3703-7"
       inkscape:persp3d-origin="0.5 : 0.33333333 : 1"
       inkscape:vp_z="1 : 0.5 : 1"
       inkscape:vp_y="0 : 1000 : 0"
       inkscape:vp_x="0 : 0.5 : 1"
       sodipodi:type="inkscape:persp3d" />
    <inkscape:perspective
       id="perspective3754"
       inkscape:persp3d-origin="0.5 : 0.33333333 : 1"
       inkscape:vp_z="1 : 0.5 : 1"
       inkscape:vp_y="0 : 1000 : 0"
       inkscape:vp_x="0 : 0.5 : 1"
       sodipodi:type="inkscape:persp3d" />
    <inkscape:perspective
       id="perspective3823"
       inkscape:persp3d-origin="0.5 : 0.33333333 : 1"
       inkscape:vp_z="1 : 0.5 : 1"
       inkscape:vp_y="0 : 1000 : 0"
       inkscape:vp_x="0 : 0.5 : 1"
       sodipodi:type="inkscape:persp3d" />
    <inkscape:perspective
       id="perspective3848"
       inkscape:persp3d-origin="0.5 : 0.33333333 : 1"
       inkscape:vp_z="1 : 0.5 : 1"
       inkscape:vp_y="0 : 1000 : 0"
       inkscape:vp_x="0 : 0.5 : 1"
       sodipodi:type="inkscape:persp3d" />
    <inkscape:perspective
       id="perspective3848-9"
       inkscape:persp3d-origin="0.5 : 0.33333333 : 1"
       inkscape:vp_z="1 : 0.5 : 1"
       inkscape:vp_y="0 : 1000 : 0"
       inkscape:vp_x="0 : 0.5 : 1"
       sodipodi:type="inkscape:persp3d" />
    <inkscape:perspective
       id="perspective3880"
       inkscape:persp3d-origin="0.5 : 0.33333333 : 1"
       inkscape:vp_z="1 : 0.5 : 1"
       inkscape:vp_y="0 : 1000 : 0"
       inkscape:vp_x="0 : 0.5 : 1"
       sodipodi:type="inkscape:persp3d" />
    <inkscape:perspective
       id="perspective3880-2"
       inkscape:persp3d-origin="0.5 : 0.33333333 : 1"
       inkscape:vp_z="1 : 0.5 : 1"
       inkscape:vp_y="0 : 1000 : 0"
       inkscape:vp_x="0 : 0.5 : 1"
       sodipodi:type="inkscape:persp3d" />
    <inkscape:perspective
       id="perspective3913"
       inkscape:persp3d-origin="0.5 : 0.33333333 : 1"
       inkscape:vp_z="1 : 0.5 : 1"
       inkscape:vp_y="0 : 1000 : 0"
       inkscape:vp_x="0 : 0.5 : 1"
       sodipodi:type="inkscape:persp3d" />
    <inkscape:perspective
       id="perspective3913-9"
       inkscape:persp3d-origin="0.5 : 0.33333333 : 1"
       inkscape:vp_z="1 : 0.5 : 1"
       inkscape:vp_y="0 : 1000 : 0"
       inkscape:vp_x="0 : 0.5 : 1"
       sodipodi:type="inkscape:persp3d" />
    <inkscape:perspective
       id="perspective3946"
       inkscape:persp3d-origin="0.5 : 0.33333333 : 1"
       inkscape:vp_z="1 : 0.5 : 1"
       inkscape:vp_y="0 : 1000 : 0"
       inkscape:vp_x="0 : 0.5 : 1"
       sodipodi:type="inkscape:persp3d" />
    <inkscape:perspective
       id="perspective3946-0"
       inkscape:persp3d-origin="0.5 : 0.33333333 : 1"
       inkscape:vp_z="1 : 0.5 : 1"
       inkscape:vp_y="0 : 1000 : 0"
       inkscape:vp_x="0 : 0.5 : 1"
       sodipodi:type="inkscape:persp3d" />
    <inkscape:perspective
       id="perspective3977"
       inkscape:persp3d-origin="0.5 : 0.33333333 : 1"
       inkscape:vp_z="1 : 0.5 : 1"
       inkscape:vp_y="0 : 1000 : 0"
       inkscape:vp_x="0 : 0.5 : 1"
       sodipodi:type="inkscape:persp3d" />
    <inkscape:perspective
       id="perspective3977-9"
       inkscape:persp3d-origin="0.5 : 0.33333333 : 1"
       inkscape:vp_z="1 : 0.5 : 1"
       inkscape:vp_y="0 : 1000 : 0"
       inkscape:vp_x="0 : 0.5 : 1"
       sodipodi:type="inkscape:persp3d" />
    <inkscape:perspective
       id="perspective4021-1"
       inkscape:persp3d-origin="0.5 : 0.33333333 : 1"
       inkscape:vp_z="1 : 0.5 : 1"
       inkscape:vp_y="0 : 1000 : 0"
       inkscape:vp_x="0 : 0.5 : 1"
       sodipodi:type="inkscape:persp3d" />
    <inkscape:perspective
       id="perspective4057"
       inkscape:persp3d-origin="0.5 : 0.33333333 : 1"
       inkscape:vp_z="1 : 0.5 : 1"
       inkscape:vp_y="0 : 1000 : 0"
       inkscape:vp_x="0 : 0.5 : 1"
       sodipodi:type="inkscape:persp3d" />
    <inkscape:perspective
       id="perspective4079"
       inkscape:persp3d-origin="0.5 : 0.33333333 : 1"
       inkscape:vp_z="1 : 0.5 : 1"
       inkscape:vp_y="0 : 1000 : 0"
       inkscape:vp_x="0 : 0.5 : 1"
       sodipodi:type="inkscape:persp3d" />
    <inkscape:perspective
       id="perspective4116"
       inkscape:persp3d-origin="0.5 : 0.33333333 : 1"
       inkscape:vp_z="1 : 0.5 : 1"
       inkscape:vp_y="0 : 1000 : 0"
       inkscape:vp_x="0 : 0.5 : 1"
       sodipodi:type="inkscape:persp3d" />
    <inkscape:perspective
       id="perspective4138"
       inkscape:persp3d-origin="0.5 : 0.33333333 : 1"
       inkscape:vp_z="1 : 0.5 : 1"
       inkscape:vp_y="0 : 1000 : 0"
       inkscape:vp_x="0 : 0.5 : 1"
       sodipodi:type="inkscape:persp3d" />
    <inkscape:perspective
       id="perspective4160"
       inkscape:persp3d-origin="0.5 : 0.33333333 : 1"
       inkscape:vp_z="1 : 0.5 : 1"
       inkscape:vp_y="0 : 1000 : 0"
       inkscape:vp_x="0 : 0.5 : 1"
       sodipodi:type="inkscape:persp3d" />
    <inkscape:perspective
       id="perspective4185"
       inkscape:persp3d-origin="0.5 : 0.33333333 : 1"
       inkscape:vp_z="1 : 0.5 : 1"
       inkscape:vp_y="0 : 1000 : 0"
       inkscape:vp_x="0 : 0.5 : 1"
       sodipodi:type="inkscape:persp3d" />
  </defs>
  <sodipodi:namedview
     id="base"
     pagecolor="#305fc4"
     bordercolor="#666666"
     borderopacity="1.0"
     inkscape:pageopacity="1"
     inkscape:pageshadow="2"
     inkscape:zoom="2"
     inkscape:cx="139.90321"
     inkscape:cy="-36.416755"
     inkscape:document-units="px"
     inkscape:current-layer="g4039"
     showgrid="true"
     borderlayer="true"
     inkscape:showpageshadow="false"
     showguides="true"
     inkscape:guide-bbox="true"
     gridtolerance="12"
     objecttolerance="1"
     guidetolerance="1"
     inkscape:window-width="1440"
     inkscape:window-height="801"
     inkscape:window-x="0"
     inkscape:window-y="25"
     inkscape:window-maximized="1">
    <inkscape:grid
       type="xygrid"
       id="grid3588"
       empspacing="10"
       visible="true"
       enabled="false"
       snapvisiblegridlinesonly="true"
       empcolor="#4b00ff"
       empopacity="0.25098039" />
    <sodipodi:guide
       orientation="1,0"
       position="100,50"
       id="guide3590" />
    <sodipodi:guide
       orientation="1,0"
       position="200,42.25"
       id="guide3757" />
    <sodipodi:guide
       orientation="1,0"
       position="300,46.5"
       id="guide3787" />
    <sodipodi:guide
       orientation="1,0"
       position="400,1"
       id="guide4584" />
    <inkscape:grid
       type="axonomgrid"
       id="grid4785"
       units="mm"
       empspacing="5"
       visible="true"
       enabled="false"
       snapvisiblegridlinesonly="true" />
    <sodipodi:guide
       orientation="1,0"
       position="500.05385,5.2416599"
       id="guide4787" />
    <sodipodi:guide
       orientation="0,1"
       position="554.5,-100"
       id="guide2911" />
    <sodipodi:guide
       orientation="1,0"
       position="600,-54.5"
       id="guide2913" />
  </sodipodi:namedview>
  <metadata
     id="metadata7">
    <rdf:RDF>
      <cc:Work
         rdf:about="">
        <dc:format>image/svg+xml</dc:format>
        <dc:type
           rdf:resource="http://purl.org/dc/dcmitype/StillImage" />
        <dc:title />
      </cc:Work>
    </rdf:RDF>
  </metadata>
  <g
     inkscape:label="Calque 1"
     inkscape:groupmode="layer"
     id="layer1"
     transform="translate(0,-952.36218)">
    <path
       style="fill:#000000"
       d=""
       id="path3884" />
    <path
       style="fill:#000000"
       d=""
       id="path3880" />
    <path
       style="fill:#000000"
       d=""
       id="path3878" />
    <path
       style="opacity:0.60546875;fill:#ffffff;fill-opacity:1;stroke:none"
       d="m 243.91123,757.71365 -10.43786,5.61097 0,14.81297 c -11.99888,7.58754 -20.29114,19.20436 -20.62723,33.66588 l -6.46153,4.0399 0,10.9975 45.47929,20.8728 38.52071,-21.995 0,-47.58108 -46.47338,-20.42394 z m -6.71005,9.87531 36.78107,16.15959 0,10.77307 -36.78107,-17.05735 0,-9.87531 z m -0.49704,14.13964 c 2.13147,0 4.46,1.35655 5.21893,3.02993 0.75893,1.67338 -0.35373,3.02992 -2.48521,3.02992 -2.13148,0 -4.46,-1.35654 -5.21893,-3.02992 -0.75893,-1.67338 0.35373,-3.02993 2.48521,-3.02993 z m 42.74556,4.93766 0,10.77309 c 0,0 -11.30521,9.07462 -15.15977,15.03742 -3.85454,5.9627 -7.45561,20.6484 -7.45561,20.6484 l -5.9645,3.8154 5.22041,-5.361 c 0,0 1.65651,-13.0329 7.21302,-20.6739 5.67103,-7.79846 14.65681,-14.28742 14.65681,-14.28742 l 1.48964,-9.95199 z m -30.56805,1.34663 c 2.04608,0 4.44423,1.25606 5.37425,2.80549 0.93005,1.54943 0.0268,2.80548 -2.01922,2.80548 -2.04608,0 -4.44423,-1.25605 -5.37425,-2.80548 -0.93004,-1.54943 -0.0268,-2.80549 2.01922,-2.80549 z m -18.63905,0.78554 c 2.26468,0 4.43439,1.40678 4.84614,3.14214 0.41177,1.73536 -1.09032,3.14215 -3.35502,3.14215 -2.26468,0 -4.43439,-1.40679 -4.84615,-3.14215 -0.41176,-1.73536 1.09033,-3.14214 3.35503,-3.14214 z m 31.37573,5.16209 c 2.08445,0 4.51998,1.30633 5.46746,2.91773 0.94748,1.61144 0.0342,2.91774 -2.05029,2.91774 -2.08446,0 -4.55104,-1.3063 -5.49853,-2.91774 -0.94747,-1.6114 -0.003,-2.91773 2.08136,-2.91773 z m -19.07396,0.89776 c 2.2647,0 4.54568,1.40677 5.09467,3.14217 0.54902,1.73534 -0.84181,3.14216 -3.1065,3.14216 -2.2647,0 -4.54566,-1.40682 -5.09468,-3.14216 -0.54901,-1.7354 0.84182,-3.14217 3.10651,-3.14217 z m -18.88758,3.14217 c 2.40196,0 4.57167,1.45704 4.84617,3.25436 0.2745,1.7974 -1.45013,3.2544 -3.85207,3.2544 -2.40196,0 -4.57166,-1.457 -4.84617,-3.2544 -0.2745,-1.79732 1.45013,-3.25436 3.85207,-3.25436 z m 31.43788,3.14216 c 2.26468,0 4.43439,1.4068 4.84615,3.1422 0.41176,1.73526 -1.09033,3.14206 -3.35503,3.14206 -2.26469,0 -4.43439,-1.4068 -4.84615,-3.14206 -0.41176,-1.7354 1.09034,-3.1422 3.35503,-3.1422 z m -17.67604,1.9919 c 0.26012,0.018 0.5154,0.074 0.77663,0.1403 2.08981,0.5329 3.34487,2.48336 2.79586,4.34846 -0.54902,1.8651 -2.69422,2.9456 -4.78402,2.4127 -2.08981,-0.5329 -3.34487,-2.4834 -2.79586,-4.3485 0.41176,-1.39876 1.72174,-2.35856 3.23077,-2.52486 0.2515,-0.028 0.51649,-0.046 0.77662,-0.028 l 0,-10e-5 z m -16.74408,4.85346 c 2.40195,0 4.34912,1.4821 4.34912,3.3105 0,1.8283 -1.94717,3.3104 -4.34912,3.3104 -2.40195,0 -4.34911,-1.4821 -4.34911,-3.3104 0,-1.8284 1.94716,-3.3105 4.34911,-3.3105 z M 250,809.11017 c 2.33331,0 4.22485,1.5575 4.22485,3.4788 0,1.9213 -1.89154,3.4788 -4.22485,3.4788 -2.33333,0 -4.22485,-1.5575 -4.22485,-3.4788 0,-1.9213 1.89152,-3.4788 4.22485,-3.4788 z m -16.27811,4.4888 c 2.33331,0 4.33611,1.4068 4.47337,3.1421 0.13725,1.7354 -1.643,3.1422 -3.97633,3.1422 -2.33332,0 -4.33611,-1.4068 -4.47337,-3.1422 -0.13726,-1.7353 1.643,-3.1421 3.97633,-3.1421 z m 13.1716,5.4987 c 2.26469,0 4.10058,1.4068 4.10058,3.1422 0,1.7353 -1.83589,3.1421 -4.10058,3.1421 -2.2647,0 -4.10059,-1.4068 -4.10059,-3.1421 0,-1.7354 1.83589,-3.1422 4.10059,-3.1422 z m -28.2071,4.7132 15.6568,7.0343 0,2.841 -15.6568,-7.182 0,-2.6933 z"
       id="path3886-2"
       sodipodi:nodetypes="ccccccccccccccccssscccscccscccsssccsssccsssccsssccsssccsssccssssscccsssccsssccsssccssscccccc" />
    <path
       style="opacity:0.60546875;fill:#ffffff;fill-opacity:1;stroke:none"
       d="m 243.4375,857.23718 -10.4375,5.625 0,14.8125 c -11.99888,7.58754 -20.28891,19.19469 -20.625,33.65625 l -6.46875,4.03125 0,11 45.46875,20.875 38.53125,-22 0,-47.5625 -46.46875,-20.4375 z m -6.71875,9.875 36.78125,16.15625 0,10.78125 -36.78125,-17.0625 0,-9.875 z m -1.46875,13.25 c 2.29592,0.0809 4.79038,1.32619 5.90625,3.0625 1.27528,1.98436 0.27168,3.84829 -2.25,4.15625 -2.52168,0.30796 -5.59972,-1.04689 -6.875,-3.03125 -1.27528,-1.98436 -0.27168,-3.84829 2.25,-4.15625 0.31521,-0.0385 0.64076,-0.0428 0.96875,-0.0312 z m 43.71875,5.8125 0,10.78125 c 0,0 -11.30169,9.06845 -15.15625,15.03125 -3.85454,5.9627 -7.46875,20.65625 -7.46875,20.65625 l -5.9375,3.8125 5.21875,-5.34375 c 0,0 1.63099,-13.0465 7.1875,-20.6875 5.67103,-7.7985 14.65625,-14.28125 14.65625,-14.28125 l 1.5,-9.96875 z M 247.5,886.36218 c 2.29592,0.0809 4.79038,1.32619 5.90625,3.0625 1.27528,1.98436 0.27168,3.84829 -2.25,4.15625 -2.52168,0.30796 -5.59972,-1.04689 -6.875,-3.03125 -1.27528,-1.98436 -0.27168,-3.84829 2.25,-4.15625 0.31521,-0.0385 0.64076,-0.0428 0.96875,-0.0312 z m -19.34375,0.78125 c 2.83046,-0.0522 5.68464,1.73457 6.375,4 0.69036,2.26544 -1.04454,4.13527 -3.875,4.1875 -2.83046,0.0522 -5.68464,-1.73456 -6.375,-4 -0.69036,-2.26543 1.04454,-4.13527 3.875,-4.1875 z M 260,892.36218 c 2.29592,0.0809 4.79038,1.32619 5.90625,3.0625 1.27528,1.98436 0.27168,3.84829 -2.25,4.15625 -2.52168,0.30796 -5.59972,-1.04689 -6.875,-3.03125 -1.27528,-1.98436 -0.27168,-3.84829 2.25,-4.15625 0.31521,-0.0385 0.64076,-0.0428 0.96875,-0.0312 z m -19.34375,1.03125 c 2.83046,-0.0522 5.68464,1.73457 6.375,4 0.69036,2.26544 -1.04454,4.13527 -3.875,4.1875 -2.83046,0.0522 -5.68464,-1.73456 -6.375,-4 -0.69036,-2.26543 1.04454,-4.13527 3.875,-4.1875 z m -18,2.78125 c 2.83046,-0.13807 5.79657,1.57474 6.625,3.8125 0.82843,2.23776 -0.79454,4.17443 -3.625,4.3125 -2.83046,0.13807 -5.79657,-1.57474 -6.625,-3.8125 -0.82843,-2.23776 0.79454,-4.17443 3.625,-4.3125 z m 30.75,3.21875 c 2.83046,-0.0522 5.68464,1.73457 6.375,4 0.69036,2.26544 -1.04454,4.13527 -3.875,4.1875 -2.83046,0.0522 -5.68464,-1.73456 -6.375,-4 -0.69036,-2.26543 1.04454,-4.13527 3.875,-4.1875 z m -18.25,2.78125 c 2.83046,-0.13807 5.79657,1.57474 6.625,3.8125 0.82843,2.23776 -0.79454,4.17443 -3.625,4.3125 -2.83046,0.13807 -5.79657,-1.57474 -6.625,-3.8125 -0.82843,-2.23776 0.79454,-4.17443 3.625,-4.3125 z m -16.75,4.0625 c 2.83046,0 5.74061,1.84683 6.5,4.125 0.75939,2.27818 -0.91954,4.125 -3.75,4.125 -2.83046,0 -5.74061,-1.84682 -6.5,-4.125 -0.75939,-2.27817 0.91954,-4.125 3.75,-4.125 z m 29.5,1.6875 c 2.83046,-0.13807 5.79657,1.57474 6.625,3.8125 0.82843,2.23776 -0.79454,4.17443 -3.625,4.3125 -2.83046,0.13807 -5.79657,-1.57474 -6.625,-3.8125 -0.82843,-2.23776 0.79454,-4.17443 3.625,-4.3125 z m -16.25,3.5625 c 2.83046,0 5.74061,1.84683 6.5,4.125 0.75939,2.27818 -0.91954,4.125 -3.75,4.125 -2.83046,0 -5.74061,-1.84682 -6.5,-4.125 -0.75939,-2.27817 0.91954,-4.125 3.75,-4.125 z m 13.5,5.5 c 2.83046,0 5.74061,1.84683 6.5,4.125 0.75939,2.27818 -0.91954,4.125 -3.75,4.125 -2.83046,0 -5.74061,-1.84682 -6.5,-4.125 -0.75939,-2.27817 0.91954,-4.125 3.75,-4.125 z m -26.9375,6.34375 15.65625,7.03125 0,2.84375 -15.65625,-7.1875 0,-2.6875 z"
       id="path3886" />
    <g
       id="g4331"
       transform="translate(6.0820129,-11.5188)">
      <path
         sodipodi:nodetypes="ccccccccccc"
         id="path4011-2"
         d="m 218.625,1098.6122 c 56.75,28 58,28 58,28 l -7.75,7.25 -58.5,-27.75 -5.25,9 59,27.25 -1.75,8.75 -62.25,-26 -2.75,-16.75 12,-13.25 9.25,3.5 z"
         style="fill:none;stroke:#000000;stroke-width:1px;stroke-linecap:butt;stroke-linejoin:miter;stroke-opacity:1" />
      <path
         sodipodi:nodetypes="ccccccccccc"
         id="path4035-6"
         d="m 261.125,1112.1122 c -15.31182,10.1481 -20.46699,22.6182 -22.5,36.75 l -13.5,-6.25 c 3.04099,-13.9218 8.64066,-26.8229 23,-36.75 l -12.5,-6 c -11.68627,8.6437 -20.4508,20.548 -23.5,36.5 l -5,3.5 36.25,17.5 6.10256,-4.066 c -0.92552,-11.8425 11.51121,-30.974 23.14744,-36.184 l -11.5,-5 z"
         style="fill:none;stroke:#000000;stroke-width:1px;stroke-linecap:butt;stroke-linejoin:miter;stroke-opacity:1" />
      <path
         sodipodi:nodetypes="cccccccccccccccccscccsccccccc"
         id="path3886-5"
         d="m 237.15162,1077.8622 -10.43786,5.6109 0,14.813 c -11.99888,7.5875 -20.29114,19.2043 -20.62723,33.6659 l -6.46153,4.0399 0,10.9975 45.47929,20.8728 38.52071,-21.995 0,-47.5811 -46.47338,-20.4239 z m -6.71005,9.8753 36.78107,16.1596 0,10.773 -36.78107,-17.0573 0,-9.8753 z m 42.24852,19.0773 0,10.7731 c 0,0 -11.30521,9.0746 -15.15977,15.0374 -3.85454,5.9627 -7.45561,20.6484 -7.45561,20.6484 l -5.9645,3.8154 5.22041,-5.361 c 0,0 1.65651,-13.0329 7.21302,-20.6739 5.67103,-7.7985 14.65681,-14.2875 14.65681,-14.2875 l 1.48964,-9.9519 z m -60.76331,37.1446 15.6568,7.0343 0,2.841 -15.6568,-7.182 0,-2.6933 z"
         style="opacity:0.60546875;fill:#ffffff;fill-opacity:1;stroke:none" />
      <path
         transform="matrix(0.64131249,-0.1924541,0.68205827,0.58312688,45.667152,1150.5655)"
         d="m 241.25,62.875 c 0,2.278175 -2.29454,4.125 -5.125,4.125 -2.83046,0 -5.125,-1.846825 -5.125,-4.125 0,-2.278175 2.29454,-4.125 5.125,-4.125 2.83046,0 5.125,1.846825 5.125,4.125 z"
         sodipodi:ry="4.125"
         sodipodi:rx="5.125"
         sodipodi:cy="62.875"
         sodipodi:cx="236.125"
         id="path4037-75"
         style="opacity:0.60546875;fill:#ffffff;fill-opacity:1;stroke:none"
         sodipodi:type="arc" />
      <use
         height="100"
         width="600"
         transform="translate(-13.25,-5.5)"
         id="use4039-2"
         xlink:href="#path4037-75"
         y="0"
         x="0" />
      <use
         height="100"
         width="600"
         transform="translate(-26.75,-10.75)"
         id="use4041-1"
         xlink:href="#path4037-75"
         y="0"
         x="0" />
      <use
         height="100"
         width="600"
         transform="translate(3,-8.875)"
         id="use4313"
         xlink:href="#path4037-75"
         y="0"
         x="0" />
      <use
         height="100"
         width="600"
         transform="translate(8.125,-17.5)"
         id="use4315"
         xlink:href="#path4037-75"
         y="0"
         x="0" />
      <use
         height="100"
         width="600"
         transform="matrix(1,0,0,0.83539166,15.005147,162.89547)"
         id="use4317"
         xlink:href="#path4037-75"
         y="0"
         x="0" />
      <use
         height="100"
         width="600"
         transform="translate(-12.75,-5.7547501)"
         id="use4319"
         xlink:href="#use4313"
         y="0"
         x="0" />
      <use
         height="100"
         width="600"
         transform="translate(-25.5,-11.875)"
         id="use4321"
         xlink:href="#use4313"
         y="0"
         x="0" />
      <use
         height="100"
         width="600"
         transform="translate(-12.5,-5.8774384)"
         id="use4323"
         xlink:href="#use4315"
         y="0"
         x="0" />
      <use
         height="100"
         width="600"
         transform="translate(-24.931218,-11.877438)"
         id="use4325"
         xlink:href="#use4315"
         y="0"
         x="0" />
      <use
         height="100"
         width="600"
         transform="translate(-12.375,-6.1297501)"
         id="use4327"
         xlink:href="#use4317"
         y="0"
         x="0" />
      <use
         height="100"
         width="600"
         transform="translate(-24.75,-12.092526)"
         id="use4329"
         xlink:href="#use4317"
         y="0"
         x="0" />
    </g>
    <g
       id="g4430"
       transform="translate(20.020659,-42.900054)">
      <path
         sodipodi:nodetypes="ccccccccccc"
         id="path4011-2-5"
         d="m 205.375,1228.6122 c 56.75,28 58,28 58,28 l -7.75,7.25 -58.5,-27.75 -5.25,9 59,27.25 -1.75,8.75 -62.25,-26 -2.75,-16.75 12,-13.25 9.25,3.5 z"
         style="fill:none;stroke:#000000;stroke-width:1px;stroke-linecap:butt;stroke-linejoin:miter;stroke-opacity:1" />
      <path
         sodipodi:nodetypes="ccccccccccc"
         id="path4035-6-2"
         d="m 247.875,1242.1122 c -15.31182,10.1481 -20.46699,22.6182 -22.5,36.75 l -13.5,-6.25 c 3.04099,-13.9218 8.64066,-26.8229 23,-36.75 l -12.5,-6 c -11.68627,8.6437 -20.4508,20.548 -23.5,36.5 l -5,3.5 36.25,17.5 6.10256,-4.066 c -0.92552,-11.8425 11.51121,-30.974 23.14744,-36.184 l -11.5,-5 z"
         style="fill:none;stroke:#000000;stroke-width:1px;stroke-linecap:butt;stroke-linejoin:miter;stroke-opacity:1" />
      <path
         sodipodi:nodetypes="cccccccccccccccccscccsccccccc"
         id="path3886-5-0"
         d="m 223.90162,1207.8622 -10.43786,5.6109 0,14.813 c -11.99888,7.5875 -20.29114,19.2043 -20.62723,33.6659 l -6.46153,4.0399 0,10.9975 45.47929,20.8728 38.52071,-21.995 0,-47.5811 -46.47338,-20.4239 z m -6.71005,9.8753 36.78107,16.1596 0,10.773 -36.78107,-17.0573 0,-9.8753 z m 42.24852,19.0773 0,10.7731 c 0,0 -11.30521,9.0746 -15.15977,15.0374 -3.85454,5.9627 -7.45561,20.6484 -7.45561,20.6484 l -5.9645,3.8154 5.22041,-5.361 c 0,0 1.65651,-13.0329 7.21302,-20.6739 5.67103,-7.7985 14.65681,-14.2875 14.65681,-14.2875 l 1.48964,-9.9519 z m -60.76331,37.1446 15.6568,7.0343 0,2.841 -15.6568,-7.182 0,-2.6933 z"
         style="opacity:0.60546875;fill:#ffffff;fill-opacity:1;stroke:none" />
      <path
         transform="matrix(0.27542373,-0.48188608,0.81995469,0.46214626,109.96181,1356.3659)"
         d="m 241.25,62.875 c 0,2.278175 -2.29454,4.125 -5.125,4.125 -2.83046,0 -5.125,-1.846825 -5.125,-4.125 0,-2.278175 2.29454,-4.125 5.125,-4.125 2.83046,0 5.125,1.846825 5.125,4.125 z"
         sodipodi:ry="4.125"
         sodipodi:rx="5.125"
         sodipodi:cy="62.875"
         sodipodi:cx="236.125"
         id="path4037-75-0"
         style="opacity:0.60546875;fill:#ffffff;fill-opacity:1;stroke:none"
         sodipodi:type="arc" />
      <use
         height="100"
         width="600"
         transform="translate(-13.435289,-5.8125)"
         id="use4039-2-4"
         xlink:href="#path4037-75-0"
         y="0"
         x="0" />
      <use
         height="100"
         width="600"
         transform="translate(-26.935289,-11.0625)"
         id="use4041-1-6"
         xlink:href="#path4037-75-0"
         y="0"
         x="0" />
      <use
         height="100"
         width="600"
         transform="matrix(0.98802208,-0.15431257,0.15431257,0.98802208,-190.7014,41.003726)"
         id="use4313-0"
         xlink:href="#path4037-75-0"
         y="0"
         x="0" />
      <use
         height="100"
         width="600"
         transform="matrix(0.94516213,-0.24096278,0.23783685,0.93290084,-282.08992,122.12328)"
         id="use4315-6"
         xlink:href="#path4037-75-0"
         y="0"
         x="0" />
      <use
         height="100"
         width="600"
         transform="matrix(0.89815953,-0.16575099,0.15160746,0.82151957,-154.86618,239.22481)"
         id="use4317-3"
         xlink:href="#path4037-75-0"
         y="0"
         x="0" />
      <use
         height="100"
         width="600"
         transform="translate(-12.75,-5.7547501)"
         id="use4319-3"
         xlink:href="#use4313-0"
         y="0"
         x="0" />
      <use
         height="100"
         width="600"
         transform="translate(-25.5,-11.875)"
         id="use4321-6"
         xlink:href="#use4313-0"
         y="0"
         x="0" />
      <use
         height="100"
         width="600"
         transform="translate(-12.5,-5.8774384)"
         id="use4323-6"
         xlink:href="#use4315-6"
         y="0"
         x="0" />
      <use
         height="100"
         width="600"
         transform="translate(-24.931218,-11.877438)"
         id="use4325-1"
         xlink:href="#use4315-6"
         y="0"
         x="0" />
      <use
         height="100"
         width="600"
         transform="translate(-12.375,-6.1297501)"
         id="use4327-1"
         xlink:href="#use4317-3"
         y="0"
         x="0" />
      <use
         height="100"
         width="600"
         transform="translate(-24.75,-12.092526)"
         id="use4329-5"
         xlink:href="#use4317-3"
         y="0"
         x="0" />
    </g>
    <path
       style="fill:#ffffff;fill-opacity:0.8627451;stroke:none"
       d="m 562.4375,857.36216 c -10.77557,1.41222 -19.32396,8.96532 -30.1875,9.75 -6.72607,-0.57392 -17.75,-9.75 -17.75,-9.75 0,0 9.69026,13.81182 18.5,15.75 10.18638,2.24105 19.10435,-4.99223 29,-5.75 9.89565,-0.75777 26.25,4.5 26.25,4.5 -1.45312,-0.24219 -13.36198,-15.17947 -25.8125,-14.5 z m 23.5625,18.5625 -4.03125,38.90622 -1.34375,0 -1.6875,-16.90622 -23.53125,16.90622 -1.6875,-16.90622 -23.5,16.90622 -1.71875,-16.90622 -23.5,16.90622 0,32.5313 90,0 -3,-71.43752 -6,0 z m -72.25,49.93752 10,0 0,10 -10,0 0,-10 z m 24.625,0 10,0 0,10 -10,0 0,-10 z m 24.625,0 10,0 0,10 -10,0 0,-10 z"
       id="path4854"
       sodipodi:nodetypes="cccsscccccccccccccccccccccccccccccc" />
    <rect
       style="fill:#223399;fill-opacity:1;stroke:none"
       id="rect2902"
       width="59"
       height="57.5"
       x="-119"
       y="22.5"
       transform="translate(0,952.36218)" />
    <rect
       style="fill:#2288cc;fill-opacity:1;stroke:none"
       id="rect2902-9"
       width="59"
       height="57.5"
       x="-119"
       y="1030.4872" />
    <rect
       style="fill:#22eeff;fill-opacity:1;stroke:none"
       id="rect2902-4"
       width="59"
       height="57.5"
       x="-119"
       y="1086.1122" />
    <rect
       style="fill:#3377ee;fill-opacity:1;stroke:none"
       id="rect2902-97"
       width="59"
       height="57.5"
       x="-179.5"
       y="974.11218" />
    <rect
       style="fill:#22eeff;fill-opacity:1;stroke:none"
       id="rect2902-4-2"
       width="59"
       height="57.5"
       x="-179"
       y="1032.1122" />
    <rect
       style="fill:#11dd77;fill-opacity:1;stroke:none"
       id="rect2902-4-2-6"
       width="59"
       height="57.5"
       x="-180.5"
       y="1090.1122" />
    <g
       id="g4039"
       style="opacity:0.85">
      <path
         id="path3684"
         d="m 60.755012,959.36223 c -9.841309,0 -17.819267,8.13513 -17.819267,18.17036 0,10.03522 7.977958,18.17037 17.819267,18.17037 9.841309,0 17.819265,-8.13515 17.819265,-18.17037 0,-10.03523 -7.977956,-18.17036 -17.819265,-18.17036 z m -34.211826,8.55076 c -6.272705,0 -11.355415,5.18284 -11.355415,11.57915 0,6.39629 5.08271,11.57917 11.355415,11.57917 6.272705,0 11.355414,-5.18288 11.355414,-11.57917 0,-6.39631 -5.082709,-11.57915 -11.355414,-11.57915 z m -6.987948,22.56451 c -5.79869,2.12572 -15.1123279,9.8476 -14.5291074,20.5751 0.2682244,4.9337 1.9456614,4.3756 3.5522067,5.0177 -0.2655365,2.3758 4.1175567,6.6021 16.1013957,6.6505 1.399984,-12.0534 9.883528,-21.4298 17.848382,-26.69124 -2.389446,-2.33064 -5.428386,-4.13694 -8.996982,-5.40361 -6.093823,2.97671 -10.095923,2.30439 -13.975895,-0.14845 z m 30.25199,4.27538 c -9.097623,3.33507 -23.742316,15.47212 -22.827296,32.30262 0.420821,7.7407 3.069834,6.8311 5.590358,7.8384 -0.431244,3.8584 6.914457,10.8632 27.252995,10.4508 20.338538,-0.4124 28.360112,-4.7503 28.650587,-9.9758 3.327545,-0.2496 6.449484,-3.071 6.522078,-8.3134 0.22329,-16.1226 -8.802061,-26.9217 -23.293154,-32.0651 -9.560661,4.67005 -15.808241,3.61075 -21.895568,-0.23752 z"
         style="fill:#ffffff;fill-opacity:1;stroke:none" />
      <path
         sodipodi:nodetypes="cccccccccsccccccccccccscccc"
         id="path3777"
         d="m 162.42548,957.36218 c -19.8844,0 -36.84268,13.04312 -42.8038,32.30388 l -9.93449,0 -4.68719,11.09434 12.76449,0 c -0.17248,1.0804 -0.0833,2.1513 0,3.2333 l -7.98886,0 -4.59875,11.0646 14.4448,0 c 5.96112,19.2607 22.9194,32.3039 42.8038,32.3039 10.30262,0 19.55637,-3.4092 28.44743,-10.3823 l 0.73698,-0.5637 0,-16.3151 c -7.22571,10.0453 -17.10541,15.1451 -29.30232,16.1964 -13.61406,0 -26.26132,-8.826 -31.13004,-21.2392 l 45.81068,0 4.68719,-11.0646 -52.94464,0 c -0.083,-1.0786 -0.0459,-2.1547 0,-3.2333 l 54.27121,0 4.45135,-11.09434 -56.21683,0 c 5.03749,-12.63924 17.29981,-21.20962 31.18899,-21.20962 10.13881,0 18.96328,4.1593 25.88274,12.22149 l 1.97511,2.31378 L 195,971.71946 c -8.67731,-9.63356 -20.10159,-13.40184 -32.57452,-14.35728 z"
         style="font-size:32px;font-style:normal;font-variant:normal;font-weight:normal;font-stretch:normal;text-indent:0;text-align:start;text-decoration:none;line-height:125%;letter-spacing:normal;word-spacing:normal;text-transform:none;direction:ltr;block-progression:tb;writing-mode:lr-tb;text-anchor:start;color:#000000;fill:#ffffff;fill-opacity:1;fill-rule:nonzero;stroke:none;stroke-width:4;marker:none;visibility:visible;display:inline;overflow:visible;enable-background:accumulate;font-family:Standard Symbols L;-inkscape-font-specification:Standard Symbols L" />
      <path
         id="path3886-5-0-8"
         d="m 245.53125,957.65476 -10.4375,6.30841 0,14.8125 c -11.99888,8.37313 -19.53891,20.97394 -19.875,35.45753 l -7.21875,4.004 0,11 45.469,17.8978 38.531,-24.5228 0,-47.56254 -46.46875,-17.3949 z m -6.71875,10.31491 36.78125,13.74796 0,10.78125 -36.78125,-14.65421 0,-9.875 z m -0.25,15.04762 c 0.44323,-0.023 0.8844,0.0218 1.34375,0.13077 1.83738,0.435 2.9309,1.83961 2.4375,3.12165 -0.4934,1.28204 -2.38137,1.96124 -4.21875,1.52623 -1.83738,-0.435 -2.9309,-1.83962 -2.4375,-3.12165 0.37005,-0.96153 1.54531,-1.5873 2.875,-1.657 z m 41.25,-2.66969 0.5,16.24851 c 0,0 -8.65661,3.64429 -15.15625,14.02359 -5.09389,8.1346 -4.96875,21.4816 -4.96875,21.4816 l -6.7185,4.2527 5.99975,-4.9868 c 0,0 -0.11901,-13.7887 5.4375,-21.7935 5.67103,-8.1698 14.40625,-13.47461 14.40625,-13.47461 l 0.5,-15.75149 z m -28.875,7.82812 c 0.44323,-0.023 0.8844,0.0218 1.34375,0.13078 1.83738,0.435 2.9309,1.8396 2.4375,3.12164 -0.4934,1.28204 -2.38137,1.96124 -4.21875,1.52623 -1.83738,-0.435 -2.9309,-1.83962 -2.4375,-3.12165 0.37005,-0.96153 1.54531,-1.58729 2.875,-1.657 z m -19.75,1.44941 c 0.4745,-0.0495 0.96476,-0.009 1.46875,0.0913 2.01597,0.40009 3.31868,1.91617 2.90625,3.40346 -0.41243,1.48729 -2.35903,2.37405 -4.375,1.97396 -2.01597,-0.40009 -3.31868,-1.91617 -2.90625,-3.40345 0.30932,-1.11547 1.48276,-1.91649 2.90625,-2.0653 z m 32.125,3.86532 c 0.44323,-0.023 0.8844,0.0218 1.34375,0.13078 1.83738,0.435 2.9309,1.83961 2.4375,3.12165 -0.4934,1.28203 -2.38137,1.96123 -4.21875,1.52622 -1.83738,-0.435 -2.9309,-1.83962 -2.4375,-3.12165 0.37005,-0.96153 1.54531,-1.58729 2.875,-1.657 z m -19.6875,1.32027 c 0.4745,-0.0495 0.96476,-0.009 1.46875,0.0913 2.01597,0.4001 3.31868,1.91617 2.90625,3.40347 -0.41243,1.48729 -2.39028,2.37618 -4.40625,1.97608 -2.01597,-0.4002 -3.28743,-1.91829 -2.875,-3.40559 0.30932,-1.11546 1.48276,-1.91648 2.90625,-2.06529 z m -17.90625,4.35994 c 0.17537,-0.0222 0.34889,-0.0335 0.53125,-0.0348 0.48629,-0.003 0.99798,0.0904 1.5,0.24554 2.00809,0.62052 3.18476,2.32352 2.625,3.82812 -0.55976,1.5046 -2.64816,2.2379 -4.65625,1.6174 -2.00809,-0.6205 -3.18476,-2.3549 -2.625,-3.8594 0.36734,-0.98734 1.3974,-1.64191 2.625,-1.79687 z m 30.40625,0.69659 c 0.4745,-0.05 0.96476,-0.009 1.46875,0.0913 2.01597,0.40012 3.31868,1.91622 2.90625,3.40352 -0.41243,1.4873 -2.39028,2.3761 -4.40625,1.976 -2.01597,-0.4001 -3.28743,-1.9183 -2.875,-3.4055 0.30932,-1.1155 1.48276,-1.9165 2.90625,-2.06535 z m -17.65625,4.59355 c 0.17537,-0.023 0.34889,-0.034 0.53125,-0.034 0.48629,-0 0.99798,0.091 1.5,0.2456 2.00809,0.6204 3.18476,2.3235 2.625,3.828 -0.55976,1.5046 -2.64816,2.2379 -4.65625,1.6174 -2.00809,-0.6205 -3.18476,-2.3548 -2.625,-3.8594 0.36734,-0.9873 1.3974,-1.6419 2.625,-1.7969 z m -15.6875,5.5272 c 0.69202,-0.01 1.4245,0.1682 2.125,0.5171 1.868,0.9306 2.74833,2.8311 1.96875,4.2462 -0.77958,1.4148 -2.91325,1.806 -4.78125,0.8755 -1.868,-0.9306 -2.77958,-2.8291 -2,-4.244 0.48723,-0.8844 1.53413,-1.3825 2.6875,-1.3948 z m 28.4375,-0.612 c 0.17537,-0.023 0.34889,-0.034 0.53125,-0.035 0.48629,-0 0.99798,0.091 1.5,0.2456 2.00809,0.6205 3.18476,2.3236 2.625,3.8281 -0.55976,1.5046 -2.64816,2.2379 -4.65625,1.6174 -2.00809,-0.6205 -3.18476,-2.3548 -2.625,-3.8594 0.36734,-0.9874 1.3974,-1.642 2.625,-1.7969 z m -14.9375,4.978 c 0.69202,-0.01 1.4245,0.1683 2.125,0.5172 1.868,0.9305 2.74833,2.831 1.96875,4.2461 -0.77958,1.4149 -2.91325,1.8061 -4.78125,0.8755 -1.868,-0.9305 -2.77958,-2.829 -2,-4.244 0.48723,-0.8844 1.53413,-1.3825 2.6875,-1.3948 z m 13.4375,4.9327 c 0.69202,-0.01 1.4245,0.1682 2.125,0.5172 1.868,0.9305 2.74833,2.831 1.96875,4.2461 -0.77958,1.415 -2.9445,1.8081 -4.8125,0.8775 -1.868,-0.9305 -2.74833,-2.831 -1.96875,-4.246 0.48723,-0.8844 1.53413,-1.3824 2.6875,-1.3948 z m -29.40625,6.113 15.65625,6.0061 0,2.8437 -15.65625,-6.1623 0,-2.6875 z"
         style="opacity:1;fill:#ffffff;fill-opacity:1;stroke:none"
         sodipodi:nodetypes="ccccccccccccccccsssscccscccscccssssccssssccssssccssssccsssssccssssccsssssccssssccsssssccssssccsssscccccc" />
      <path
         id="path4639"
         d="m 379.38723,963.36258 a 3.9512521,4.0132414 0 0 0 -3.82739,2.97828 l -2.50015,9.56184 -8.24125,0 -18.67397,0 -8.76596,0 -18.64311,0 -10.71053,0 -3.02487,0 0.61732,3.00964 6.914,33.85826 0.40126,2.0065 2.00629,0 18.64311,0 15.24784,0 5.30896,0 8.79683,0 -1.41983,5.5177 -44.35455,0 a 3.9512521,4.0132414 0 1 0 0,8.0257 l 47.41029,0 a 3.9512521,4.0132414 0 0 0 3.82739,-2.9784 l 14.04406,-53.95384 8.5499,0 a 3.9512521,4.0132414 0 1 0 0,-8.02568 l -11.60564,0 z m -68.33748,17.55618 8.24124,0 0.74079,6.27006 -7.68566,0 -1.29637,-6.27006 z m 13.24154,0 8.30298,0 0.18519,6.27006 -7.74738,0 -0.74079,-6.27006 z m 13.24155,0 8.33384,0 -0.3704,6.27006 -7.77825,0 -0.18519,-6.27006 z m 13.27241,0 8.27211,0 -0.92599,6.27006 -7.71651,0 0.37039,-6.27006 z m 13.27241,0 7.68565,0 -1.6359,6.27006 -6.97573,0 0.92598,-6.27006 z m -50.71295,11.28611 7.25352,0 0.61732,5.26685 -6.79053,0 -1.08031,-5.26685 z m 12.25383,0 7.31525,0 0.15433,5.26685 -6.85226,0 -0.61732,-5.26685 z m 12.25383,0 7.31525,0 -0.30866,5.26685 -6.85226,0 -0.15433,-5.26685 z m 12.25383,0 7.31525,0 -0.77165,5.26685 -6.85227,0 0.30867,-5.26685 z m 12.31556,0 6.38927,0 -1.3581,5.26685 -5.80282,0 0.77165,-5.26685 z m -46.97816,10.28293 6.35841,0 0.83338,7.2732 -5.71022,0 -1.48157,-7.2732 z m 11.35871,0 6.42014,0 0.21607,7.2732 -5.80282,0 -0.83339,-7.2732 z m 11.35872,0 6.42014,0 -0.43213,7.2732 -5.77195,0 -0.21606,-7.2732 z m 11.35871,0 6.38928,0 -1.04945,7.2732 -5.77195,0 0.43212,-7.2732 z m 11.38958,0 5.21637,0 -1.88283,7.2732 -4.38299,0 1.04945,-7.2732 z m -36.85409,26.8358 c -3.273,0 -5.92628,2.695 -5.92628,6.0193 0,3.3243 2.65328,6.0193 5.92628,6.0193 3.273,0 5.92629,-2.695 5.92629,-6.0193 0,-3.3243 -2.65329,-6.0193 -5.92629,-6.0193 z m 35.55772,0 c -3.273,0 -5.92629,2.695 -5.92629,6.0193 0,3.3243 2.65329,6.0193 5.92629,6.0193 3.27299,0 5.92628,-2.695 5.92628,-6.0193 0,-3.3243 -2.65329,-6.0193 -5.92628,-6.0193 z"
         style="font-size:medium;font-style:normal;font-variant:normal;font-weight:normal;font-stretch:normal;text-indent:0;text-align:start;text-decoration:none;line-height:normal;letter-spacing:normal;word-spacing:normal;text-transform:none;direction:ltr;block-progression:tb;writing-mode:lr-tb;text-anchor:start;color:#000000;fill:#ffffff;fill-opacity:1;stroke:none;stroke-width:8;marker:none;visibility:visible;display:inline;overflow:visible;enable-background:accumulate;font-family:Bitstream Charter;-inkscape-font-specification:Bitstream Charter" />
      <path
         id="path4797"
         d="m 449.9999,957.36218 -13.80556,6.92308 -0.9074,0.44872 -9.00927,4.51922 4.86112,-2.01923 4.24537,-2.46794 42.09722,14.39102 0,11.92307 -1.68518,3.84615 -1.68519,-2.30769 -1.81482,4.7436 -1.94444,-2.82051 -1.68518,3.84611 0,-14.35894 -42.3889,-14.77564 -0.0323,0 -0.25926,0.12821 -0.22685,0.0961 -17.75926,8.91025 0,47.94884 41.48149,21.0256 19.18518,-12.5 0,-0.032 8.81481,-5.7051 0.38889,-0.2564 L 492,1019.67 l 0,-48.2052 -42,-14.10256 z m 27.41667,21.92308 -8.49075,4.61538 4.27778,-1.21795 4.21297,-3.39743 z m -66.30556,0.64102 39.375,13.78205 12.86574,-6.73077 -12.21759,7.5 -1.13426,50.83334 0,-50.76923 -38.88888,-14.61539 z m 2.33334,34.74362 1.29629,0.641 0,9.0385 2.26852,-1.0898 1.81481,0.8974 -4.34259,1.859 4.34259,2.0513 0,1.4744 -8.87963,-4.295 0,-1.4102 3.37038,1.6026 -3.37038,-5.4488 1.68518,0.8335 1.81483,2.8204 0,-8.9743 z m 64.03703,4.4871 0,9.9359 -4.40741,2.3718 -4.4074,3.3013 0,-6.3781 1.68518,-3.7181 1.94444,2.1796 1.81482,-4.8718 1.81482,1.7949 1.55555,-4.6155 z"
         style="fill:#ffffff;fill-opacity:1;stroke:none" />
      <path
         id="path3689"
         d="m 561.8862,957.36326 c -6.69354,0.12781 -13.77839,8.40837 -19.14913,8.79887 -5.72879,0.41654 -11.99553,-3.16364 -11.99553,-3.16364 0,0 4.21733,6.22498 9.74638,7.38182 5.52903,1.15684 14.50222,-5.56505 21.24209,-5.27273 6.73986,0.29232 17.74339,6.06364 17.74339,6.06364 0,0 -9.17141,-12.61152 -16.24394,-13.7091 -0.44204,-0.0685 -0.89703,-0.10719 -1.34326,-0.0988 l 0,-6e-5 z M 550.14058,970.64395 508,991.73486 l 0,33.21824 41.89067,22.4091 42.10933,-28.9341 0,-20.8273 -7.80955,-9.20457 0.21862,3.73409 -0.12496,6.19546 -0.99962,-24.65001 c -1.77955,-1.54196 -4.54634,-1.48807 -6.09149,0 l -2.71773,21.5523 c 0,0 0.92556,2.46068 2.06173,3.36141 1.14249,0.9056 4.06098,1.384 4.06098,1.384 0,0 -3.16183,-0.1067 -4.43584,-0.9227 -1.40732,-0.9014 -2.37411,-3.82271 -2.37411,-3.82271 l 1.8117,-12.43412 -21.24198,12.52041 -18.18063,10.13304 13.80726,18.5829 41.85942,-26.42958 -41.48456,27.02278 -0.62477,21.7546 -0.0624,-21.7546 -13.86989,-18.8636 0.68729,14.6733 -14.27584,-21.08702 0.28104,14.53412 -14.36964,-22.01369 13.86987,19.91829 -0.2187,-13.18872 36.58016,-19.73298 -8.21565,-8.21933 -8e-5,8e-5 -5e-5,0 z m -27.89576,28.20233 13.61981,19.77952 -0.3125,-13.3659 36.45527,-20.72845 -7.80955,-8.48296 -17.83711,9.92046 -24.11592,12.87733 z m 55.47924,-25.1046 c 0,0 1.57105,0.50829 2.74897,0.52727 0.75425,0.0124 1.93679,-0.32955 1.93679,-0.32955 0,0 -0.6996,0.79988 -1.93679,0.85682 -1.47235,0.068 -2.74897,-1.05454 -2.74897,-1.05454 z m -65.72555,39.74322 5.81034,2.9988 0,6.0637 -5.81034,-3.0319 0,-6.0307 0,1e-4 z m 1.49972,1.1591 0,4.5091 3.93576,2.0636 0,-4.6341 -3.93576,-1.9386 z m 11.43297,5.5636 5.81034,2.9989 0,6.0636 -5.81034,-3.0318 0,-6.0306 0,-1e-4 z m 1.49972,1.1591 0,4.5091 3.93575,2.0637 0,-4.6341 -3.93575,-1.9387 z m 11.99526,5.8932 5.81034,2.9988 0,6.0637 -5.81034,-3.0318 0,-6.0307 z m 1.49972,1.1591 0,4.5091 3.93575,2.0636 0,-4.6341 -3.93575,-1.9386 z"
         style="fill:#ffffff;fill-opacity:1;stroke:none"
         sodipodi:nodetypes="cscsscsccccccccccccccscscccccccccccccccccccccccccccccscccccccccccccccccccccccccccccccccc" />
      <path
         id="path4797-9"
         d="m 150.2499,1057.6122 -13.80556,6.9231 -0.9074,0.4487 -9.00927,4.5192 4.86112,-2.0192 4.24537,-2.468 42.09722,14.391 0,11.9231 -1.68518,3.8462 -1.68519,-2.3077 -1.81482,4.7436 -1.94444,-2.8205 -1.68518,3.8461 0,-14.359 -42.3889,-14.7756 -0.0323,0 -0.25926,0.1282 -0.22685,0.096 -17.75926,8.9102 0,47.9489 41.48149,21.0256 19.18518,-12.5 0,-0.032 8.81481,-5.7051 0.38889,-0.2564 14.12963,-9.1987 0,-48.2052 -42,-14.1026 z m 27.41667,21.9231 -8.49075,4.6153 4.27778,-1.2179 4.21297,-3.3974 z m -66.30556,0.641 39.375,13.782 12.86574,-6.7307 -12.21759,7.5 -1.13426,50.8333 0,-50.7692 -38.88888,-14.6154 z m 2.33334,34.7436 1.29629,0.641 0,9.0385 2.26852,-1.0898 1.81481,0.8974 -4.34259,1.859 4.34259,2.0513 0,1.4744 -8.87963,-4.295 0,-1.4102 3.37038,1.6026 -3.37038,-5.4488 1.68518,0.8335 1.81483,2.8204 0,-8.9743 z m 64.03703,4.4871 0,9.9359 -4.40741,2.3718 -4.4074,3.3013 0,-6.3781 1.68518,-3.7181 1.94444,2.1796 1.81482,-4.8718 1.81482,1.7949 1.55555,-4.6155 z"
         style="opacity:0.85;fill:#000000;fill-opacity:1;stroke:none" />
      <path
         style="fill:#ffffff;stroke:none;stroke-width:1px;stroke-linecap:butt;stroke-linejoin:miter;stroke-opacity:1;fill-opacity:0.65289259"
         d="M 150.5 105.25 L 114.75 122.75 L 114.75 168.75 L 119.9375 171.125 L 119.9375 163 L 141.8125 172.5 L 141.8125 181.5 L 149.125 185.25 L 156.5 180.75 L 156.25 171.5 L 181 157.25 L 181 165.75 L 185.75 162.75 L 185.75 117.25 L 150.5 105.25 z M 176.96875 129.46875 C 178.0733 129.47334 179.08707 129.71838 180 130.28125 L 178.6875 134.4375 L 178.125 134.0625 C 176.1837 132.7511 173.7195 132.9275 170.875 134.5625 C 166.97831 136.8022 163.5383 141.35115 162.125 145.96875 L 177.875 136.90625 L 176.625 140.96875 L 161.40625 149.71875 C 161.39335 150.05095 161.38295 150.3762 161.40625 150.6875 L 176.25 142.15625 L 174.9375 146.21875 L 162.09375 153.625 C 163.4597 156.5771 166.99301 157.1954 170.8125 155 C 174.23441 152.7166 177.03528 149.59555 179.0625 145.40625 L 179.0625 150.3125 L 178.84375 150.59375 C 176.34931 154.12685 173.76545 156.6512 170.875 158.3125 C 165.29632 161.519 160.51618 160.3374 158.84375 155.5 L 154.8125 157.8125 L 156.09375 153.75 L 158.34375 152.4375 C 158.32045 152.1252 158.29535 151.82175 158.34375 151.46875 L 154.75 153.53125 L 156.0625 149.4375 L 158.84375 147.84375 C 160.51618 141.08375 165.29632 134.42515 170.875 131.21875 C 173.06209 130.14138 175.12783 129.46111 176.96875 129.46875 z M 120.25 130.375 L 142.875 139.15625 L 142.875 169.125 L 120.25 158.90625 L 120.25 130.375 z M 180.25 158.25 L 176.5 160.75 L 176.25 163.75 L 180.25 166 L 180.25 158.25 z M 120.25 163.5625 L 120.25 171.125 L 125.5 168.75 L 125.5 166.875 L 120.25 163.5625 z "
         transform="translate(0,952.36218)"
         id="path4093" />
      <path
         style="fill:#7e7e7e;fill-opacity:0.56198348;stroke:none"
         d="m 120.62498,1081.4909 -11.74999,10.6756 0,31.3171 11.74999,-12.1756 0,-29.8171 z"
         id="rect4099"
         sodipodi:nodetypes="ccccc" />
      <path
         style="fill:none;stroke:#000000;stroke-width:1px;stroke-linecap:butt;stroke-linejoin:miter;stroke-opacity:1"
         d="m 108.75,1072.9247 52.25,19.75"
         id="path4101"
         sodipodi:nodetypes="cc" />
      <path
         style="fill:none;stroke:#000000;stroke-width:1px;stroke-linecap:butt;stroke-linejoin:miter;stroke-opacity:1"
         d="m 192.125,1066.3622 -41.3125,22.8125"
         id="path4103"
         sodipodi:nodetypes="cc" />
      <path
         style="fill:none;stroke:#000000;stroke-width:1px;stroke-linecap:butt;stroke-linejoin:miter;stroke-opacity:1"
         d="m 149.9375,1150.8622 0,-68"
         id="path4105"
         sodipodi:nodetypes="cc" />
      <path
         style="opacity:0.85;fill:none;stroke:#000000;stroke-width:1px;stroke-linecap:butt;stroke-linejoin:miter;stroke-opacity:1"
         d="m 113.3125,1120.2372 48.625,23.875"
         id="path4101-4"
         sodipodi:nodetypes="cc" />
      <path
         style="opacity:0.85;fill:none;stroke:#000000;stroke-width:1px;stroke-linecap:butt;stroke-linejoin:miter;stroke-opacity:1"
         d="m 113.6875,1112.7997 48.75,21.875"
         id="path4101-4-0"
         sodipodi:nodetypes="cc" />
      <path
         style="fill:none;stroke:#000000;stroke-width:1px;stroke-linecap:butt;stroke-linejoin:miter;stroke-opacity:1"
         d="m 140.375,190.25 c 52.625,-32.125 52.75,-32.125 52.75,-32.125"
         id="path4175"
         transform="translate(0,952.36218)"
         sodipodi:nodetypes="cc" />
    </g>
    <path
       style="opacity:0.59854012;fill:#000000;fill-opacity:1;stroke:none"
       d="m 460.625,1113.9046 5.5,2.9386 0,5.7265 -5.5,-2.9386 0,-5.7265 z"
       id="rect3837-1" />
    <path
       style="opacity:0.87890625;fill:#ffffff;fill-opacity:1;stroke:none"
       d="m 562.89062,1156.6909 c -6.69602,0.1212 -13.7835,7.9735 -19.15625,8.3438 -5.73091,0.395 -12,-3 -12,-3 0,0 4.21892,5.903 9.75,7 5.53109,1.097 14.50763,-5.2772 21.25,-5 6.74238,0.2772 17.75,5.75 17.75,5.75 0,0 -9.17483,-11.9592 -16.25,-13 -0.44219,-0.065 -0.89734,-0.1019 -1.34375,-0.094 z m -11.75,12.5938 -42.15625,20 0,31.5 41.90625,21.25 42.125,-27.4375 0,-19.75 -8.125,-9.125 -0.59375,-13.5625 c -1.78021,-1.4622 -4.54804,-1.4111 -6.09375,0 l -1.1875,8.4062 -3.875,2.125 -7.9375,-8.2812 -5.6875,2.9375 -8.375,-8.0625 z"
       id="path3689-0" />
    <path
       style="fill:#000000;fill-opacity:1;stroke:none"
       d="m 578.73437,1172.2222 c 0,0 1.27711,1.0645 2.75,1 1.23766,-0.054 1.9375,-0.8125 1.9375,-0.8125 0,0 -1.18298,0.3243 -1.9375,0.3125 -1.17836,-0.018 -2.75,-0.5 -2.75,-0.5 z m -14.25,2.5625 -41.5625,21.125 24.4375,-11.5 17.125,-9.625 z m -41.5625,21.125 14.5625,20.5 -0.5625,-14.0625 -0.0625,12.4375 -13.9375,-18.875 z m 0,0 -0.0625,12.625 -13.75,-19.125 14.375,20.875 -0.5625,-14.375 z m 14,6.4375 18.4375,-9.3125 21.25,-12.25 -39.6875,21.5625 z m 0,0 13.75,18.125 0.0625,19.5625 0.625,-19.5625 41.5,-25.625 -41.875,25.0625 -14.0625,-17.5625 z m 40.6875,-25.5625 -2.8125,15.8125 c 0,0 0.96717,2.7702 2.375,3.625 1.27449,0.7738 4.4375,0.875 4.4375,0.875 0,0 -2.91958,-0.4537 -4.0625,-1.3125 -1.13658,-0.8541 -2.0625,-3.1875 -2.0625,-3.1875 l 2.125,-15.8125 z m 7.125,5.25 0.5625,13.5 0.125,-5.875 -0.6875,-7.625 z m -71.75,27.875 0,5.7188 5.4375,2.6875 0,0.031 0.375,0.1562 0,-5.75 -5.0625,-2.4685 -0.4375,-0.2187 -0.3125,-0.1563 z m 0.75,0.625 4.6875,2.3125 0,4.75 -4.6875,-2.3125 0,-4.75 z m 12.1875,5.75 0,5.7188 5.4375,2.6875 0,0.031 0.375,0.1562 0,-5.75 -5.0625,-2.4687 -0.4375,-0.2187 -0.3125,-0.1563 z m 0.75,0.625 4.6875,2.3125 0,4.75 -4.6875,-2.3125 0,-4.75 z m 12.75,6.0625 0,5.7188 5.4375,2.6875 0,0.031 0.375,0.1562 0,-5.75 -5.0625,-2.4687 -0.4375,-0.2188 -0.3125,-0.1562 z m 0.75,0.625 4.6875,2.3125 0,4.75 -4.6875,-2.3125 0,-4.75 z"
       id="path3786-2" />
  </g>
</svg>
