<?xml version="1.0" encoding="UTF-8" standalone="no"?>
<svg
   xmlns:dc="http://purl.org/dc/elements/1.1/"
   xmlns:cc="http://creativecommons.org/ns#"
   xmlns:rdf="http://www.w3.org/1999/02/22-rdf-syntax-ns#"
   xmlns:svg="http://www.w3.org/2000/svg"
   xmlns="http://www.w3.org/2000/svg"
   xmlns:sodipodi="http://sodipodi.sourceforge.net/DTD/sodipodi-0.dtd"
   xmlns:inkscape="http://www.inkscape.org/namespaces/inkscape"
   height="1000"
   width="3506.849315068493"
   id="svg2"
   version="1.1"
   inkscape:version="0.47 r22583"
   sodipodi:docname="ekylibre.svg">
  <metadata
     id="metadata10">
    <rdf:RDF>
      <cc:Work
         rdf:about="">
        <dc:format>image/svg+xml</dc:format>
        <dc:type
           rdf:resource="http://purl.org/dc/dcmitype/StillImage" />
      </cc:Work>
    </rdf:RDF>
  </metadata>
  <defs
     id="defs8">
    <inkscape:perspective
       sodipodi:type="inkscape:persp3d"
       inkscape:vp_x="0 : 500 : 1"
       inkscape:vp_y="0 : 1000 : 0"
       inkscape:vp_z="3506.8494 : 500 : 1"
       inkscape:persp3d-origin="1753.4247 : 333.33333 : 1"
       id="perspective12" />
  </defs>
  <sodipodi:namedview
     pagecolor="#ffffff"
     bordercolor="#666666"
     borderopacity="1"
     objecttolerance="10"
     gridtolerance="10"
     guidetolerance="10"
     inkscape:pageopacity="0"
     inkscape:pageshadow="2"
     inkscape:window-width="1680"
     inkscape:window-height="949"
     id="namedview6"
     showgrid="false"
     inkscape:zoom="0.1531289"
     inkscape:cx="1753.4247"
     inkscape:cy="1531.8104"
     inkscape:window-x="0"
     inkscape:window-y="25"
     inkscape:window-maximized="1"
     inkscape:current-layer="svg2" />
  <path
     d="M 0,0 L 0,800 L 800,800 L 800,0 L 0,0 z M 49.999999,50.000007 L 750,50.000007 L 750,750 L 49.999999,750 L 49.999999,50.000007 z M 2033.7499,125 L 1993.75,146.40626 C 1989.434,162.09101 1982.1867,174.03625 1972.0312,182.5 L 1972.0312,246.40626 C 1970.5087,249.8925 1968.4765,251.84625 1965.9374,252.34376 C 1964.415,275.248 1960.2929,293.432 1953.4375,306.875 L 1956.4063,316.25 L 1956.4063,361.40625 C 1954.3737,385.30575 1953.4375,405.6642 1953.4375,422.34375 L 1941.25,437.18751 L 1941.25,455.46875 L 1938.125,461.5625 L 1938.125,470.78125 C 1936.0949,480.24205 1935.1563,488.4345 1935.1563,495.15625 C 1922.9692,520.55 1917.7536,551.81176 1919.5312,588.90625 C 1919.0237,612.8058 1919.0237,633.0075 1919.5312,649.6875 C 1932.7337,658.89876 1940.9182,670.02345 1944.2188,682.96875 L 1953.4375,682.96875 C 1961.8164,685.7075 1970.0005,686.684 1978.1249,685.9375 L 1987.3437,674.06251 L 1990.7812,655.625 C 1984.1797,610.06625 1989.1809,568.74955 2005.9375,531.40626 L 2005.9375,522.34374 L 2002.9687,512.96875 L 2005.9375,507.03125 C 2014.8239,482.38525 2020.0389,461.26976 2021.5624,443.59375 L 2027.6562,440.15626 C 2025.8788,420.24025 2026.8155,403.19025 2030.6249,388.75001 L 2033.7499,370.78125 L 2045.9374,361.40625 L 2049.375,352.5 L 2049.375,337.18751 L 2049.375,328.125 C 2064.3544,293.02276 2071.3865,258.76551 2070.625,225.15625 C 2081.7965,216.69225 2088.1054,206.54525 2089.375,194.84376 C 2084.043,187.12651 2082.0112,179.08975 2083.2811,170.625 C 2070.5862,160.91625 2065.3712,148.81481 2067.6562,134.375 C 2055.7232,127.654 2044.413,124.50251 2033.7499,125 z M 2344.8436,125.46875 C 2336.4651,131.6935 2328.0659,135.25475 2319.6874,136.25 C 2315.8784,148.94705 2309.7853,159.09426 2301.4062,166.56251 C 2296.3283,195.93926 2300.607,220.83626 2314.0625,241.25 L 2314.0625,281.09375 C 2313.0475,287.31775 2312.7137,295.51076 2312.9688,305.46875 L 2314.0625,308.4375 L 2315.625,311.40625 L 2315.625,329.6875 L 2317.0312,339.0625 L 2321.2499,347.96875 C 2319.98,363.40425 2316.4059,376.76601 2310.3125,387.96875 C 2312.8514,399.172 2313.7302,409.163 2312.9688,418.125 L 2304.5311,424.53125 L 2302.9687,432.03126 L 2296.0937,465.62501 C 2307.7728,476.3303 2315.2343,489.06175 2318.2813,503.75 L 2323.9062,510 C 2339.1397,513.4855 2352.696,513.4855 2364.3749,510 C 2367.676,506.26625 2370.9182,503.6815 2374.2187,502.1875 C 2378.5348,488.7445 2386.329,481.118 2397.5,479.375 L 2402.0313,468.59376 L 2406.2499,465.62501 L 2407.3438,461.09375 C 2410.6442,457.11076 2412.4022,452.9825 2412.6563,448.75001 L 2416.0937,445.78126 L 2417.1875,442.81251 C 2425.312,435.09501 2431.3472,427.40525 2435.1562,419.6875 C 2448.1048,417.945 2455.8984,421.44275 2458.4375,430.15625 L 2462.4999,431.56251 C 2484.335,430.07001 2503.1057,432.59125 2518.5937,439.0625 C 2537.8897,437.32 2553.5942,442.42551 2565.7812,454.37501 C 2574.6676,454.37526 2581.5818,458.09325 2586.4062,465.3125 C 2593.5146,464.815 2602.5195,472.15795 2613.4375,487.34375 C 2637.8109,497.302 2655.2735,513.59525 2665.9375,536.25 L 2665.9375,542.1875 L 2664.8437,551.56251 C 2678.0462,567.7445 2673.7685,587.5992 2652.1875,611.25001 C 2639.4925,615.23325 2629.2768,620.90575 2621.4062,628.12501 C 2613.0277,625.38675 2605.7224,624.25325 2599.3749,624.99999 C 2592.5195,626.49501 2586.4842,626.49501 2581.4063,624.99999 L 2577.1875,626.5625 L 2572.6562,628.12501 C 2553.1058,628.12526 2536.9132,630.07976 2524.2187,634.06251 C 2509.7463,628.83449 2496.3467,627.29025 2483.9062,629.53125 C 2480.8591,627.04125 2478.4957,624.11075 2476.7187,620.625 L 2474.0624,618.75 C 2465.43,604.80871 2457.9685,596.48825 2451.8749,593.74999 L 2449.2188,590.78124 C 2448.9637,577.58701 2445.7225,566.80926 2439.375,558.59375 C 2432.266,557.34875 2425.6833,557.34875 2419.8437,558.59375 C 2395.2153,600.916 2391.0937,629.37426 2407.3438,644.0625 C 2413.9447,660.99151 2425.1955,670.7917 2440.9375,673.28125 L 2448.1249,680.78125 C 2463.6125,682.27625 2476.4064,687.79075 2486.5625,697.5 L 2493.4375,697.5 C 2496.738,692.76975 2500.5272,689.2085 2504.8437,686.71875 L 2515.9374,690 C 2522.7925,689.5025 2528.3397,690.4785 2532.6561,692.96875 C 2542.0496,691.97376 2549.902,690.36576 2556.2499,688.12501 L 2571.5625,691.5625 L 2577.1875,690 L 2584.0625,690 L 2589.375,690 L 2596.5624,690 L 2600.7812,688.12501 L 2604.6874,688.12501 L 2624.375,688.12501 C 2635.0385,684.88849 2644.8634,683.91151 2653.75,685.15626 C 2669.4914,672.2105 2685.7424,664.584 2702.5,662.34376 C 2705.546,657.61375 2708.1832,654.05226 2710.4687,651.5625 C 2761.2482,644.09401 2780.8972,601.36005 2769.2188,523.4375 C 2754.4928,509.24725 2747.5192,492.5438 2748.2812,473.125 C 2735.0783,464.66075 2725.3118,454.10326 2719.2187,441.40625 C 2711.8552,437.17425 2706.308,432.069 2702.5,426.09376 L 2697.9687,426.09376 C 2692.6367,424.60126 2687.4797,424.03375 2682.6563,424.53125 C 2675.5462,414.57325 2670.5464,404.92925 2667.5,395.46875 C 2659.3749,390.98775 2652.9485,385.88225 2648.1249,380.15626 L 2645.3125,378.59375 C 2627.2855,371.12575 2612.9483,361.54475 2602.0313,349.84375 L 2598.125,349.84375 C 2594.0624,351.33875 2590.2727,351.90625 2586.7188,351.40624 L 2584.0625,346.56251 C 2567.8125,343.07721 2554.4719,336.83825 2544.0624,328.125 C 2537.7149,329.86751 2532.4995,331.065 2528.4375,331.56251 C 2515.2344,322.84951 2502.3825,319.69851 2489.6875,322.1875 C 2483.34,318.4535 2478.1244,314.32525 2474.0624,309.84375 L 2470.1562,309.84375 L 2464.5312,309.84375 L 2460.3124,312.8125 C 2454.9805,312.81275 2450.312,312.40375 2446.25,311.40625 L 2442.0312,311.40625 C 2433.3988,314.394 2425.605,315.43475 2418.75,314.68751 C 2411.8944,320.9115 2404.8635,324.41 2397.5,325.15625 C 2394.1995,329.887 2390.5272,333.03775 2386.7188,334.53126 C 2382.4027,318.10051 2382.8907,303.35125 2387.9687,290.15625 C 2381.1133,265.26121 2382.9296,243.3595 2393.5938,224.6875 C 2393.0863,212.738 2394.4544,202.52775 2397.5,194.0625 L 2397.5,189.68751 C 2397.7549,177.73825 2397.2674,167.52776 2396.25,159.0625 C 2395.235,158.0675 2394.8437,157.09076 2394.8437,156.09375 L 2392.1875,153.125 L 2390.625,149.68751 C 2388.0859,142.2192 2385.234,136.137 2382.1875,131.40625 L 2377.9687,131.40625 C 2372.6366,129.91375 2367.6364,128.93476 2362.8125,128.4375 C 2355.703,128.1875 2349.6678,127.21151 2344.8436,125.46875 z M 2176.25,147.8125 L 2141.0938,167.65625 C 2141.3487,182.59401 2138.9257,195.6725 2133.5938,206.87501 C 2136.3867,208.6175 2137.9295,210.28895 2138.4375,212.03126 C 2140.4699,213.52625 2141.3477,215.13275 2141.0938,216.875 C 2146.1717,230.319 2151.1135,241.0965 2155.9375,249.06251 C 2170.1555,250.5575 2182.0122,255.37875 2191.4063,263.59376 C 2201.3083,260.10925 2211.4065,259.41476 2221.5624,261.40625 C 2239.335,280.3273 2255.9767,285.1488 2271.7187,275.9375 C 2275.2732,266.47775 2276.0934,256.61426 2274.0624,246.40626 L 2256.5624,238.90625 L 2251.5625,231.87501 C 2243.438,209.22045 2232.6167,191.03675 2218.9062,177.34375 C 2218.3987,168.382 2215.8199,161.03901 2211.25,155.31251 C 2197.2855,150.83175 2185.6445,148.311 2176.25,147.8125 z M 150.00001,150.00001 L 150.00001,650 L 650,650 L 650,550 L 250,550 L 250,450 L 650,450 L 650,350 L 250,350 L 250,250 L 650,250 L 650,150.00001 L 150.00001,150.00001 z M 1075.3125,157.1875 C 1073.8238,157.24095 1072.2887,157.36 1070.7813,157.5 C 1059.3552,173.18475 1045.7415,184.65575 1030,191.87501 L 1024.2187,210.625 C 1016.6013,238.0108 1012.2065,260.16625 1010.9375,277.34376 L 1005.3125,282.65625 C 999.473,303.071 990.46824,319.01725 978.28124,330.46875 C 980.81975,352.87505 975.3315,371.46926 961.87501,386.40626 C 960.3525,404.08201 954.86325,418.35725 945.46875,429.06251 C 945.72376,458.937 939.41326,484.59125 926.71875,506.25 C 927.73375,521.18725 924.16026,532.8782 915.78124,541.09375 C 916.03625,554.28825 913.3975,565.76 907.81251,575.46875 C 887.24651,586.672 876.2695,602.6817 875,623.59375 C 875.25251,650.48099 884.25875,671.81595 902.03126,687.5 C 915.23425,687.5 926.21125,688.25876 934.84375,690 C 937.63625,688.00751 940.2735,687.25101 942.8125,687.5 C 958.3005,676.29725 973.73075,669.081 989.21875,666.09375 C 991.50375,663.10626 994.14101,661.43526 997.1875,660.9375 L 1005.3125,655.3125 C 1014.199,644.3585 1025.0203,638.2125 1037.9687,636.71876 L 1037.9687,628.75 C 1052.9488,624.51825 1064.805,617.45825 1073.4375,607.5 C 1086.1325,609.74 1096.016,615.12926 1103.125,623.59375 C 1130.5455,627.826 1153.223,637.47025 1171.25,652.65625 C 1226.345,687.01205 1279.7085,690.72954 1331.25,663.59375 L 1331.25,655.3125 C 1326.6795,648.84 1324.0423,641.78001 1323.2812,634.06251 C 1313.3787,629.83 1306.1325,624.44125 1301.5625,617.96875 C 1276.4265,618.46625 1257.3235,609.58031 1244.375,591.40626 C 1225.84,586.17876 1220.3512,577.448 1227.9687,565 C 1208.1642,556.78475 1195.5855,542.50929 1190,522.34374 C 1196.6015,513.87925 1202.0898,507.7335 1206.4062,503.75 C 1215.2923,499.518 1222.3827,496.7135 1227.9687,495.46875 C 1231.5228,488.996 1237.012,484.74126 1244.375,482.49999 C 1247.6755,476.02776 1251.4058,470.6385 1255.4688,466.40625 L 1263.4375,458.59375 L 1271.4062,455.46875 L 1282.5,450.3125 L 1285.1562,442.5 L 1293.5937,442.5 L 1320.625,426.40625 C 1330.273,416.4485 1340.156,409.38905 1350.3125,405.15625 C 1357.675,390.4685 1362.2845,377.10625 1364.0625,365.15625 C 1347.0515,358.9325 1332.558,358.9325 1320.625,365.15625 C 1307.422,377.604 1293.8077,384.66401 1279.8437,386.40626 C 1271.7193,401.34375 1260.7413,411.14425 1247.0313,415.625 L 1227.9687,418.59375 C 1223.6517,430.79275 1215.5267,438.766 1203.5937,442.5 C 1190.3913,446.73251 1179.628,450.988 1171.25,455.46875 C 1154.2385,468.66375 1137.0502,476.85625 1119.5313,479.84376 C 1109.8832,490.79801 1099.9993,498.77101 1089.8437,503.75 C 1081.9728,520.42976 1069.2372,528.40301 1051.7187,527.65625 C 1043.3402,539.35701 1033.2415,546.417 1021.5625,548.90625 C 1018.0075,558.36675 1012.676,565.42626 1005.3125,570.15625 C 993.63349,577.62499 987.2655,575.95424 986.25,565 C 987.7725,531.1427 995.07875,508.89376 1008.2813,498.4375 C 1007.2662,475.534 1012.5393,456.026 1024.2187,439.84376 C 1025.4888,429.139 1025.4888,419.275 1024.2187,410.3125 L 1030,399.84374 L 1035.3125,391.71876 L 1037.9687,383.90625 L 1040.625,375.9375 L 1043.2812,367.8125 C 1058.5148,349.3905 1068.6135,331.61675 1073.4375,314.68751 L 1078.75,309.21876 L 1103.125,285.3125 C 1110.9955,269.13095 1120.215,256.68301 1130.625,247.96875 L 1130.625,240 L 1130.625,231.87501 L 1133.2813,213.59375 C 1133.2807,202.14246 1134.1595,192.27825 1135.9375,184.06251 C 1117.8475,165.3915 1097.6424,156.38555 1075.3125,157.1875 z M 3380.4687,309.21876 C 3378.9462,311.21125 3377.3047,311.968 3375.7812,311.71876 C 3338.2047,314.45775 3305.6428,323.91075 3277.9688,339.84375 L 3270.7812,353.90625 L 3251.7187,358.4375 C 3239.5316,366.90276 3228.281,372.35475 3218.125,374.84376 C 3217.11,377.83175 3215.5662,379.439 3213.2813,379.6875 C 3210.2343,387.65425 3207.0504,393.95675 3203.75,398.4375 C 3180.8989,424.57806 3167.3433,451.08195 3163.2812,477.96875 C 3162.0112,483.446 3159.6482,488.20451 3156.0937,492.1875 L 3156.0937,501.40625 L 3161.0937,512.96875 L 3156.0937,529.53125 C 3158.6322,538.49326 3160.3322,546.247 3161.0937,552.96875 L 3165.625,590.3125 L 3167.9687,597.5 L 3175.1562,601.875 L 3180.1562,618.28125 C 3190.3117,627.9905 3197.3438,637.444 3201.4062,646.40625 L 3208.5937,648.90625 L 3213.2813,655.625 L 3225.4688,658.28125 L 3232.6562,660.46875 L 3237.1875,665.46876 L 3244.5313,665.46876 L 3249.375,667.65624 L 3294.6875,686.25 L 3304.2187,684.0625 C 3311.5818,682.5675 3317.9493,682.5675 3323.2812,684.0625 L 3330.4688,681.40625 L 3344.6874,681.40625 L 3364.0625,679.21874 C 3382.0885,675.73326 3398.0082,674.18974 3411.7186,674.6875 L 3416.5625,665.46876 L 3423.4375,665.46876 C 3432.5775,660.98751 3442.1877,658.53025 3452.3437,658.28125 C 3460.4688,649.07026 3470.8402,645.1615 3483.2813,646.40625 C 3487.3433,639.18676 3492.8904,634.49175 3500,632.5 L 3497.6561,611.25001 C 3479.8833,612.9925 3464.7842,612.2975 3452.3437,609.0625 C 3440.1562,613.29475 3429.0617,613.989 3418.9062,611.25001 C 3365.5878,622.453 3315.408,620.2153 3268.4375,604.53125 C 3264.121,596.56476 3258.5737,591.11275 3251.7187,588.12501 C 3261.3667,575.17949 3271.5824,565.66225 3282.5,559.68751 L 3292.0312,550.3125 L 3304.2187,543.28125 L 3316.0938,538.75 C 3335.1352,517.83826 3354.9617,503.08851 3375.7812,494.37501 L 3378.1249,487.34375 L 3385.3125,485 C 3398.5144,469.8142 3412.9494,458.9095 3428.4374,452.1875 C 3433.2615,438.74425 3441.992,430.14075 3454.6875,426.40625 L 3459.2187,398.4375 C 3477.4992,375.78325 3477.4992,353.81755 3459.2187,332.65625 C 3447.2857,324.44126 3435.3699,319.90225 3423.4375,318.90625 L 3418.9062,316.25 C 3403.4182,316.5 3390.6247,314.19901 3380.4687,309.21876 z M 3035.3124,317.34376 C 3027.949,327.0535 3018.066,329.5745 3005.6249,324.84375 C 2997.7545,342.02201 2985.507,352.51625 2968.75,356.25 C 2964.1794,365.71076 2960.7804,374.66101 2958.75,383.12501 C 2941.7385,373.665 2925.37,370.4505 2909.375,373.4375 L 2874.6874,416.71875 L 2872.0312,426.40625 L 2869.6875,445.78126 L 2864.6874,467.8125 L 2859.8438,470.46875 C 2858.0662,482.9168 2854.6672,493.41075 2849.8438,501.875 C 2849.5887,519.551 2846.348,534.93045 2840,548.12499 C 2842.2849,554.10025 2843.1057,560.52926 2842.3438,567.5 C 2822.0322,598.61925 2814.5702,630.16526 2820.1563,662.03124 C 2832.3432,674.7278 2845.6253,682.76475 2859.8438,686.25 L 2869.6875,684.0625 C 2875.019,677.8385 2878.2617,671.40925 2879.5313,664.6875 L 2901.7187,652.34375 C 2908.8278,642.38575 2916.3477,635.0425 2924.2187,630.3125 C 2916.8557,584.75396 2925.86,545.17155 2951.25,511.56251 C 2956.3274,483.43126 2968.7892,460.772 2988.5937,443.59375 C 3014.9982,389.5712 3061.174,381.53445 3127.1874,419.375 C 3147.7534,409.91525 3155.9364,396.90001 3151.875,380.46876 L 3147.0312,373.4375 L 3144.2188,370.78125 C 3132.7926,361.07225 3124.6092,352.18551 3119.5312,344.21875 L 3119.5312,341.5625 C 3106.0746,337.82825 3094.4917,332.31276 3084.8438,324.84375 L 3079.9999,322.1875 C 3062.9884,324.43 3048.0069,322.82076 3035.3124,317.34376 z M 1462.9688,332.65625 C 1412.9512,357.30281 1399.6683,388.28219 1423.2813,425.62501 L 1432.5,428.59376 C 1436.5625,460.46026 1443.8678,485.22951 1454.5313,502.65626 C 1465.4487,520.08301 1474.453,535.4632 1481.5624,548.90625 C 1497.3034,561.85225 1508.2815,571.99925 1514.3749,579.21875 C 1520.4685,586.43875 1537.872,599.29696 1566.5625,617.96875 L 1621.7188,620.9375 L 1621.7188,630 C 1608.7698,644.93726 1602.6754,660.94695 1603.4374,678.125 C 1591.2499,692.56425 1586.2503,707.597 1588.2813,723.28125 C 1552.7353,802.69756 1541.4259,881.8627 1554.375,960.78125 C 1561.2295,965.511 1566.4449,971.5935 1569.9999,979.06251 C 1581.1715,986.28175 1590.2342,993.27801 1597.3437,1000 C 1613.5927,999.99956 1628.0272,997.06832 1640.4687,991.09375 L 1640.4687,969.68749 C 1617.6177,926.1202 1613.5548,883.03955 1628.2812,840.46875 C 1627.0113,806.61075 1635.1368,777.742 1652.6562,753.59376 C 1651.6412,716.00144 1661.8559,685.77979 1683.4375,663.125 C 1692.8314,618.06425 1715.2351,585.06751 1750.7812,563.90625 C 1767.7918,540.00671 1786.2897,522.86375 1806.0937,512.65625 L 1812.1875,494.68751 L 1821.25,488.75001 L 1870.4688,440.625 C 1877.8313,409.00795 1875.7995,380.96 1864.375,356.5625 C 1833.9064,336.6467 1804.1002,335.6692 1775.1562,353.59375 L 1775.1562,368.59376 L 1756.8749,374.53126 C 1749.5114,390.2155 1745.4485,405.24795 1744.6874,419.6875 L 1732.1875,425.62501 C 1728.1245,440.56275 1718.905,451.62326 1704.6875,458.59375 C 1699.863,470.544 1693.7688,480.53475 1686.4063,488.75001 C 1683.6127,508.41751 1674.4909,522.47325 1658.7499,530.93749 C 1654.6875,542.88755 1648.5932,552.81475 1640.4687,560.78125 C 1584.1032,545.34625 1546.3857,480.45661 1527.3437,365.93751 C 1510.0783,358.967 1496.7962,348.82006 1487.6562,335.625 C 1477.7542,335.62525 1469.5701,334.6485 1462.9688,332.65625 z M 3364.0625,384.21875 L 3385.3125,389.06251 C 3379.98,414.20755 3365.7022,430.50026 3342.3437,437.96875 C 3325.8403,461.86825 3304.3737,470.47225 3277.9688,463.75 C 3270.8592,473.2105 3262.1282,477.119 3251.7187,475.625 C 3254.0037,454.71295 3264.2195,439.96325 3282.5,431.24999 C 3298.2419,409.09325 3319.044,398.18926 3344.6874,398.4375 C 3350.527,391.71625 3356.9524,386.95751 3364.0625,384.21875 z M 2167.4999,402.5 L 2152.5,414.84376 C 2146.66,424.553 2140.8395,431.95976 2135,437.18751 L 2135,446.875 C 2126.6215,476.25181 2118.7107,514.7302 2111.0937,562.03125 C 2104.2387,567.25926 2099.0823,573.05849 2095.7812,579.53124 C 2088.1647,679.36161 2111.6625,711.318 2166.25,675.46875 L 2168.5938,667.96876 C 2161.9922,652.53375 2158.5938,638.6975 2158.5938,626.25 C 2162.1487,614.051 2166.4255,604.1875 2171.2499,596.71876 C 2173.535,586.01375 2177.6564,576.84375 2183.75,569.375 C 2197.9679,517.09496 2212.7347,482.90106 2227.9687,466.71875 C 2225.1758,428.87801 2205.0765,407.4795 2167.4999,402.5 z"
     id="path4" />
</svg>
