<?xml version="1.0" encoding="UTF-8" standalone="no"?>
<svg
   xmlns:dc="http://purl.org/dc/elements/1.1/"
   xmlns:cc="http://creativecommons.org/ns#"
   xmlns:rdf="http://www.w3.org/1999/02/22-rdf-syntax-ns#"
   xmlns:svg="http://www.w3.org/2000/svg"
   xmlns="http://www.w3.org/2000/svg"
   xmlns:xlink="http://www.w3.org/1999/xlink"
   xmlns:sodipodi="http://sodipodi.sourceforge.net/DTD/sodipodi-0.dtd"
   xmlns:inkscape="http://www.inkscape.org/namespaces/inkscape"
   height="41.400074"
   width="25.401268"
   id="svg2"
   version="1.1"
   inkscape:version="0.91 r13725"
   sodipodi:docname="sensor.svg"
   inkscape:export-filename="/home/jbonal/Code/ekylibre/app/assets/images/map/marker/sensor.png"
   inkscape:export-xdpi="89.130272"
   inkscape:export-ydpi="89.130272">
  <metadata
     id="metadata10">
    <rdf:RDF>
      <cc:Work
         rdf:about="">
        <dc:format>image/svg+xml</dc:format>
        <dc:type
           rdf:resource="http://purl.org/dc/dcmitype/StillImage" />
        <dc:title></dc:title>
      </cc:Work>
    </rdf:RDF>
  </metadata>
  <defs
     id="defs8" />
  <sodipodi:namedview
     pagecolor="#ffffff"
     bordercolor="#666666"
     borderopacity="1"
     objecttolerance="10"
     gridtolerance="10"
     guidetolerance="10"
     inkscape:pageopacity="0"
     inkscape:pageshadow="2"
     inkscape:window-width="1920"
     inkscape:window-height="1004"
     id="namedview6"
     showgrid="false"
     fit-margin-top="0.2"
     fit-margin-left="0.2"
     fit-margin-right="0.2"
     fit-margin-bottom="0.2"
     inkscape:zoom="15.104"
     inkscape:cx="11.01958"
     inkscape:cy="20.431762"
     inkscape:window-x="0"
     inkscape:window-y="24"
     inkscape:window-maximized="1"
     inkscape:current-layer="svg2" />
  <g
     id="g3344"
     transform="translate(0.2012125,0.20061191)">
    <path
       sodipodi:nodetypes="sscss"
       inkscape:connector-curvature="0"
       id="path4138"
       d="M 12.5,1 C 6.8467643,0.94037552 0.90011975,5.0932125 1,13 1.101235,21.014031 10.609264,28.121771 12.5,40 14.347762,28.312508 23.976551,21.962273 24,13 24.02093,5.0006739 18.153235,1.0596245 12.5,1 Z"
       style="fill:#187fce;fill-opacity:1;fill-rule:evenodd;stroke:#ffffff;stroke-width:2;stroke-linecap:round;stroke-linejoin:round;stroke-miterlimit:4;stroke-dasharray:none;stroke-opacity:0.75420873" />
    <path
       sodipodi:nodetypes="sscss"
       inkscape:connector-curvature="0"
       id="path4138-3"
       d="M 12.509053,0.90052064 C 6.855818,0.84089624 0.90917349,4.9937331 1.0090537,12.900521 c 0.101235,8.014031 9.6092633,15.121771 11.4999993,27 1.847762,-11.687492 11.476551,-18.037727 11.5,-27 0.02093,-7.9993265 -5.846765,-11.94037586 -11.5,-12.00000036 z"
       style="fill:#1886d8;fill-opacity:0.85858585;fill-rule:evenodd;stroke:#000000;stroke-width:1;stroke-linecap:round;stroke-linejoin:round;stroke-miterlimit:4;stroke-dasharray:none;stroke-opacity:0.53535354" />
  </g>
  <g
     inkscape:groupmode="layer"
     id="layer3"
     inkscape:label="Layer 2"
     style="opacity:0.75"
     transform="translate(-558.74938,-485.29996)">
    <path
       sodipodi:type="inkscape:offset"
       inkscape:radius="0.27703261"
       inkscape:original="M 602.16211 656.07812 C 598.93221 656.07813 595.60022 657.42166 593.29102 659.84766 C 593.23602 659.9048 593.19922 659.98371 593.19922 660.07031 C 593.19922 660.3023 594.52322 661.69336 594.73242 661.69336 C 594.80602 661.69336 594.87759 661.65367 594.93359 661.60547 C 597.04169 659.64355 599.31296 658.55273 602.16016 658.55273 C 605.00746 658.55273 607.28057 659.64355 609.38867 661.60547 C 609.44267 661.65397 609.51684 661.69336 609.58984 661.69336 L 609.5918 661.69336 C 609.8012 661.69336 611.12305 660.3023 611.12305 660.07031 C 611.12305 659.98366 611.08725 659.90496 611.03125 659.84766 C 608.72355 657.42166 605.39201 656.07812 602.16211 656.07812 z M 602.16211 659.78906 C 599.87261 659.78906 597.40734 660.74641 595.77344 662.47461 C 595.71844 662.53349 595.68164 662.6111 595.68164 662.6875 C 595.68164 662.91959 596.99568 664.3125 597.20508 664.3125 C 597.30638 664.3125 599.40456 662.26367 602.16016 662.26367 C 604.13246 662.26367 605.40005 662.99797 606.90625 664.23438 C 606.96175 664.27257 607.04323 664.3125 607.11523 664.3125 L 607.11719 664.3125 C 607.32819 664.3125 608.64062 662.91959 608.64062 662.6875 C 608.64063 662.61124 608.60478 662.53341 608.55078 662.47461 C 606.91698 660.74641 604.45181 659.78906 602.16211 659.78906 z M 602.16016 663.5 C 600.80936 663.5 599.22239 664.0706 598.24609 665.0957 C 598.19209 665.15283 598.15625 665.22981 598.15625 665.31641 C 598.15625 665.54847 599.47807 666.94141 599.69727 666.94141 C 599.83297 666.94141 600.80936 665.97461 602.16016 665.97461 C 603.50296 665.97461 604.4973 666.94141 604.625 666.94141 C 604.8443 666.94141 606.16797 665.54847 606.16797 665.31641 C 606.16797 665.22983 606.13217 665.153 606.07617 665.0957 C 605.09977 664.0706 603.51096 663.5 602.16016 663.5 z M 602.16016 667.21094 C 601.81356 667.21094 600.64648 667.47254 600.64648 667.94531 C 600.64648 668.20677 601.92296 669.55859 602.16016 669.55859 C 602.39726 669.55859 603.67773 668.20677 603.67773 667.94531 C 603.67773 667.47254 602.50686 667.21094 602.16016 667.21094 z "
       xlink:href="#path3398"
       style="fill:#666666"
       id="path3404"
       d="m 602.16211,655.80078 c -3.30624,10e-6 -6.70462,1.37076 -9.07031,3.85547 -0.10056,0.10447 -0.16993,0.24898 -0.16992,0.41406 0,0.16076 0.0518,0.20386 0.0977,0.2793 0.0458,0.0754 0.10403,0.15536 0.17188,0.24219 0.13569,0.17366 0.3108,0.37495 0.49414,0.56836 0.18334,0.1934 0.37352,0.37867 0.53711,0.52148 0.0818,0.0714 0.1554,0.13098 0.22656,0.17969 0.0712,0.0487 0.10354,0.10937 0.2832,0.10937 0.1732,0 0.29535,-0.079 0.38281,-0.15429 a 0.27706032,0.27706032 0 0 0 0.008,-0.008 c 2.07294,-1.9292 4.26066,-2.97851 7.03711,-2.97851 2.77654,0 4.96617,1.04937 7.03906,2.97851 a 0.27706032,0.27706032 0 0 0 0.004,0.004 c 0.0924,0.0829 0.21407,0.1582 0.38672,0.1582 l 0.002,0 c 0.17953,0 0.21206,-0.0606 0.2832,-0.10937 0.0711,-0.0487 0.14485,-0.10827 0.22656,-0.17969 0.16344,-0.14283 0.35207,-0.32807 0.53516,-0.52148 0.18308,-0.19342 0.35865,-0.3947 0.49414,-0.56836 0.0677,-0.0868 0.1261,-0.16676 0.17187,-0.24219 0.0458,-0.0754 0.0977,-0.11876 0.0977,-0.2793 0,-0.16295 -0.0685,-0.31024 -0.17187,-0.41601 -2.36415,-2.48351 -5.76106,-3.85352 -9.06641,-3.85352 z m 0,3.71094 c -2.36673,0 -4.89546,0.98126 -6.58984,2.77344 a 0.27706032,0.27706032 0 0 0 -0.002,0 c -0.0958,0.10257 -0.16601,0.23698 -0.16601,0.40234 0,0.15972 0.0522,0.20383 0.0976,0.2793 0.0455,0.0755 0.10257,0.15525 0.16993,0.24218 0.1347,0.17387 0.30813,0.37468 0.49023,0.56836 0.1821,0.19368 0.37048,0.37841 0.5332,0.52149 0.0814,0.0715 0.15558,0.13276 0.22657,0.18164 0.071,0.0489 0.10346,0.10937 0.2832,0.10937 7.9e-4,0 0.0499,-0.004 0.0664,-0.008 0.0165,-0.004 0.029,-0.008 0.0391,-0.0117 0.0201,-0.008 0.0322,-0.0155 0.043,-0.0215 0.0215,-0.0119 0.0357,-0.0208 0.0508,-0.0312 0.0302,-0.021 0.0622,-0.0453 0.0996,-0.0742 0.0748,-0.0579 0.17255,-0.13646 0.29687,-0.23047 0.24865,-0.18802 0.59761,-0.43703 1.02539,-0.68555 0.85556,-0.49704 2.02485,-0.98632 3.33399,-0.98632 1.90354,0 3.08145,0.68602 4.57031,1.9082 a 0.27706032,0.27706032 0 0 0 0.0195,0.0137 c 0.0855,0.0589 0.19081,0.12695 0.36523,0.12695 l 0.002,0 c 0.17877,0 0.21202,-0.0605 0.2832,-0.10937 0.0712,-0.0489 0.14513,-0.11008 0.22656,-0.18164 0.16286,-0.14313 0.35119,-0.32779 0.53321,-0.52149 0.18201,-0.1937 0.35565,-0.39448 0.49023,-0.56836 0.0673,-0.0869 0.12449,-0.16671 0.16992,-0.24218 0.0454,-0.0755 0.0977,-0.11974 0.0977,-0.2793 2e-5,-0.16311 -0.069,-0.29688 -0.16406,-0.40039 a 0.27706032,0.27706032 0 0 0 -0.002,-0.002 c -1.69428,-1.79218 -4.22292,-2.77344 -6.58984,-2.77344 z m -0.002,3.71094 c -1.42882,0 -3.07095,0.58515 -4.11524,1.68164 a 0.27706032,0.27706032 0 0 0 0,0.002 c -0.0973,0.10294 -0.16601,0.24712 -0.16601,0.41016 0,0.1605 0.0519,0.20379 0.0976,0.27929 0.0458,0.0755 0.10404,0.15524 0.17188,0.24219 0.13567,0.1739 0.31229,0.37461 0.49609,0.56836 0.1838,0.19375 0.37195,0.38019 0.53711,0.52344 0.0826,0.0716 0.15993,0.13272 0.23242,0.18164 0.0725,0.0489 0.1091,0.10742 0.28321,0.10742 0.0907,0 0.12292,-0.0222 0.15429,-0.0371 0.0314,-0.0149 0.056,-0.0306 0.082,-0.0469 0.0522,-0.0326 0.10638,-0.0702 0.17188,-0.11524 0.131,-0.0901 0.3011,-0.20629 0.50391,-0.32031 0.40561,-0.22804 0.94147,-0.44727 1.55078,-0.44727 0.60491,0 1.14445,0.21905 1.55273,0.44727 0.20414,0.11411 0.37479,0.23042 0.50586,0.32031 0.0655,0.0449 0.12065,0.083 0.17187,0.11524 0.0256,0.0161 0.0496,0.0301 0.0801,0.0449 0.0305,0.0148 0.0589,0.0391 0.1543,0.0391 0.17405,0 0.21066,-0.0585 0.2832,-0.10742 0.0725,-0.0489 0.14975,-0.11003 0.23242,-0.18164 0.16535,-0.14324 0.35503,-0.32969 0.53907,-0.52344 0.18403,-0.19375 0.36023,-0.39446 0.49609,-0.56836 0.0679,-0.087 0.12602,-0.16668 0.17188,-0.24219 0.0459,-0.0755 0.0976,-0.1186 0.0976,-0.27929 0,-0.16295 -0.0706,-0.31045 -0.17187,-0.41407 -1.04465,-1.09462 -2.6858,-1.67968 -4.11328,-1.67968 z m 0,3.71093 c -0.243,0 -0.61319,0.0699 -0.98243,0.20703 -0.18461,0.0686 -0.36426,0.15348 -0.51562,0.27344 -0.15136,0.11996 -0.29297,0.29908 -0.29297,0.53125 0,0.14539 0.0471,0.20282 0.0918,0.28125 0.0447,0.0784 0.10173,0.16028 0.16797,0.24805 0.13246,0.17555 0.30452,0.37332 0.48437,0.56445 0.17986,0.19113 0.36671,0.37496 0.53125,0.51563 0.0823,0.0703 0.15638,0.12953 0.23047,0.17773 0.0741,0.0482 0.12394,0.10352 0.28516,0.10352 0.16126,0 0.20905,-0.0554 0.2832,-0.10352 0.0742,-0.0482 0.15193,-0.10742 0.23437,-0.17773 0.16489,-0.14063 0.35091,-0.32256 0.53125,-0.51367 0.18035,-0.19112 0.35347,-0.39087 0.48633,-0.56641 0.0664,-0.0878 0.12308,-0.16961 0.16797,-0.24805 0.0449,-0.0784 0.0918,-0.1355 0.0918,-0.28125 0,-0.23254 -0.1432,-0.41137 -0.29492,-0.53125 -0.15173,-0.11988 -0.33057,-0.20488 -0.51563,-0.27344 -0.37011,-0.13711 -0.74135,-0.20703 -0.98437,-0.20703 z"
       transform="translate(-30.711123,-162.81836)" />
  </g>
  <g
     inkscape:groupmode="layer"
     id="layer2"
     inkscape:label="Layer 1"
     transform="translate(-558.74938,-485.29996)">
    <path
       d="m 571.44946,506.74038 c -0.2372,0 -1.5143,-1.3524 -1.5143,-1.61386 0,-0.47277 1.1677,-0.73424 1.5143,-0.73424 0.3467,0 1.5161,0.26147 1.5161,0.73424 0,0.26146 -1.279,1.61386 -1.5161,1.61386 z m 2.4646,-2.61821 c -0.1277,0 -1.1218,-0.96629 -2.4646,-0.96629 -1.3508,0 -2.3272,0.96629 -2.4629,0.96629 -0.2192,0 -1.5423,-1.39225 -1.5423,-1.62431 0,-0.0866 0.036,-0.1645 0.09,-0.22163 0.9763,-1.0251 2.5643,-1.59484 3.9151,-1.59484 1.3508,0 2.9389,0.56974 3.9153,1.59484 0.056,0.0573 0.092,0.13505 0.092,0.22163 0,0.23206 -1.323,1.62431 -1.5423,1.62431 z m 2.4907,-2.62866 c -0.072,0 -0.1537,-0.0397 -0.2092,-0.0779 -1.5062,-1.23641 -2.7738,-1.97065 -4.7461,-1.97065 -2.7556,0 -4.8539,2.04854 -4.9552,2.04854 -0.2094,0 -1.5243,-1.39217 -1.5243,-1.62426 0,-0.0764 0.037,-0.15409 0.092,-0.21297 1.6339,-1.7282 4.0985,-2.68578 6.388,-2.68578 2.2897,0 4.7558,0.95758 6.3896,2.68578 0.054,0.0588 0.09,0.13671 0.09,0.21297 0,0.23209 -1.3133,1.62426 -1.5243,1.62426 z m 2.4745,-2.61995 c -0.073,0 -0.1472,-0.0381 -0.2012,-0.0866 -2.1081,-1.96192 -4.3813,-3.05286 -7.2286,-3.05286 -2.8472,0 -5.1187,1.09094 -7.2268,3.05286 -0.056,0.0482 -0.1277,0.0866 -0.2013,0.0866 -0.2092,0 -1.5339,-1.39051 -1.5339,-1.6225 0,-0.0866 0.037,-0.16456 0.092,-0.2217 2.3092,-2.426 5.6406,-3.76974 8.8705,-3.76974 3.2299,0 6.5629,1.34374 8.8706,3.76974 0.056,0.0573 0.092,0.13505 0.092,0.2217 0,0.23199 -1.323,1.6225 -1.5324,1.6225 z"
       id="path4"
       inkscape:connector-curvature="0"
       style="fill:#ffffff" />
  </g>
</svg>
